<svg width="883" height="907" viewBox="0 0 883 907" fill="none" xmlns="http://www.w3.org/2000/svg">
<g style="mix-blend-mode:multiply" opacity="0.07">
<g style="mix-blend-mode:multiply">
<path d="M114.25 682.435C125.69 642.169 139.53 602.624 155.697 564.011C162.873 546.855 170.767 529.504 183.696 516.125C216.773 481.959 271.734 483.445 318.225 493.415C361.097 502.613 402.723 516.875 442.228 535.901C481.331 554.75 518.897 578.454 561.312 587.643C603.727 596.832 654.009 587.674 678.782 552.034C693.527 530.83 697.018 503.272 692.861 477.793C688.704 452.314 677.521 428.503 664.937 405.957C650.508 380.14 633.623 353.892 632.666 324.346C631.696 293.748 650.015 263.376 677.531 249.973C716.67 230.896 762.758 246.213 805.186 256.035C859.071 268.531 917.386 271.211 968.188 249.332C1018.99 227.453 1059.9 176.631 1057.41 121.37" stroke="url(#paint0_linear)" stroke-width="2.36575" stroke-miterlimit="10"/>
</g>
<g style="mix-blend-mode:multiply">
<path d="M123.525 691.188C134.724 651.602 148.439 612.772 164.587 574.934C171.758 558.132 179.623 541.161 192.334 528.012C217.868 501.607 256.402 496.306 293.82 499.462C303.912 500.354 313.951 501.779 323.893 503.732C365.927 511.882 406.842 525.007 445.773 542.831C484.315 560.459 521.348 583.114 563.085 591.594C586.5 596.375 612.106 596.164 634.973 589.485C654.876 583.65 672.771 572.759 684.886 555.851C687.044 552.84 688.995 549.686 690.727 546.411C701.327 526.264 703.414 502.085 699.865 479.337C698.742 472.124 697.16 464.99 695.127 457.978C689.773 439.578 681.765 421.909 673.236 404.883C659.747 377.918 644.903 350.592 645.079 320.7C645.254 290.809 662.699 261.628 689.506 248.399C727.66 229.563 772.429 243.515 813.515 252.047C816.765 252.726 820.013 253.355 823.286 253.959C872.658 262.948 924.744 262.712 970.174 241.882C1018.61 219.674 1057.18 169.953 1053.97 116.147" stroke="url(#paint1_linear)" stroke-width="2.36575" stroke-miterlimit="10"/>
</g>
<g style="mix-blend-mode:multiply">
<path d="M132.757 699.822C143.733 660.926 157.325 622.816 173.441 585.753C180.601 569.29 188.456 552.709 200.929 539.781C226.023 513.872 263.529 508.005 300.098 510.397C309.966 511.069 319.792 512.252 329.538 513.941C370.728 521.05 410.923 533.047 449.272 549.677C487.211 566.064 523.787 587.695 564.949 595.562C589.127 600.183 615.461 600.126 639.139 593.555C659.676 587.758 678.375 576.909 691.085 559.701C693.352 556.633 695.396 553.406 697.199 550.044C708.369 529.387 710.467 504.5 707.058 481.031C705.937 473.535 704.357 466.115 702.327 458.814C697.09 439.817 689.486 421.414 681.526 403.693C668.947 375.492 656.186 347.206 657.478 316.926C658.751 288.161 675.394 259.725 701.498 246.684C738.647 228.131 782.096 240.667 821.86 247.919C824.976 248.462 828.123 248.995 831.299 249.516C879.028 256.989 928.948 255.411 972.15 234.268C1018.21 211.75 1054.41 162.992 1050.53 110.791" stroke="url(#paint2_linear)" stroke-width="2.36575" stroke-miterlimit="10"/>
</g>
<g style="mix-blend-mode:multiply">
<path d="M141.991 708.506C152.74 670.27 166.21 632.852 182.297 596.537C189.423 580.439 197.269 564.247 209.533 551.529C234.119 526.023 270.661 519.718 306.37 521.316C316.046 521.817 325.69 522.808 335.266 524.287C375.612 530.341 415.089 541.197 452.857 556.625C490.287 571.89 526.332 592.338 566.766 599.632C591.738 604.131 618.754 604.195 643.242 597.732C664.477 592.1 683.956 581.135 697.216 563.643C699.611 560.51 701.772 557.206 703.684 553.757C715.403 532.581 717.506 506.971 714.175 482.701C713.086 474.973 711.553 467.314 709.583 459.762C704.519 440.133 697.244 421.022 689.854 402.608C678.185 373.22 667.463 343.991 669.92 313.269C672.132 285.472 688.147 257.985 713.527 245.074C749.664 226.737 791.805 237.939 830.227 243.9C833.262 244.373 836.306 244.808 839.359 245.207C885.461 251.158 933.206 248.258 974.165 226.807C1017.85 203.946 1051.71 156.224 1047.14 105.547" stroke="url(#paint3_linear)" stroke-width="2.36575" stroke-miterlimit="10"/>
</g>
<g style="mix-blend-mode:multiply">
<path d="M151.245 717.2C161.773 679.673 175.129 642.998 191.199 607.489C198.314 591.731 206.145 575.913 218.176 563.431C242.306 538.376 277.883 531.634 312.724 532.458C322.146 532.698 331.549 533.413 340.899 534.6C380.397 539.608 419.153 549.331 456.338 563.562C493.167 577.636 528.762 596.94 568.511 603.643C594.267 607.991 622.02 608.191 647.293 601.81C669.175 596.295 689.465 585.303 703.301 567.501C705.781 564.309 708.026 560.941 710.018 557.424C722.256 535.74 724.409 509.391 721.146 484.341C720.085 476.387 718.595 468.495 716.685 460.7C711.769 440.463 704.849 420.62 698.038 401.492C687.284 370.932 678.561 340.79 682.202 309.588C685.344 282.777 700.699 256.152 725.386 243.459C760.529 225.384 801.345 235.205 838.455 239.866C841.378 240.245 844.314 240.569 847.215 240.888C891.675 245.324 937.254 241.081 975.986 219.317C1017.27 196.137 1048.83 149.456 1043.54 100.315" stroke="url(#paint4_linear)" stroke-width="2.36575" stroke-miterlimit="10"/>
</g>
<g style="mix-blend-mode:multiply">
<path d="M160.499 725.894C170.796 689.048 184.028 653.086 200.069 618.353C207.163 602.954 214.97 587.531 226.778 575.265C250.452 550.661 285.006 543.368 319.009 543.457C328.294 543.432 337.565 544.017 346.546 544.909C385.205 548.853 423.249 557.434 459.858 570.467C496.126 583.37 531.266 601.514 570.321 607.648C596.856 611.83 625.301 612.18 651.416 605.946C673.953 600.528 695.036 589.5 709.437 571.408C712.023 568.151 714.371 564.712 716.462 561.117C729.3 538.914 731.413 511.858 728.234 486.023C727.206 477.83 725.752 469.697 723.878 461.656C719.124 440.806 712.519 420.261 706.322 400.423C696.443 368.672 689.727 337.683 694.614 305.942C698.631 280.105 713.392 254.384 737.371 241.865C771.498 224.042 811.011 232.492 846.779 235.863C849.609 236.125 852.433 236.372 855.271 236.564C898.072 239.439 941.536 233.903 977.996 211.842C1016.91 188.318 1046.13 142.673 1040.14 95.062" stroke="url(#paint5_linear)" stroke-width="2.36575" stroke-miterlimit="10"/>
</g>
<g style="mix-blend-mode:multiply">
<path d="M169.752 734.588C179.819 698.418 192.933 663.166 208.953 629.211C216.042 614.166 223.834 599.117 235.404 587.072C258.606 562.925 292.18 555.151 325.329 554.46C334.394 554.247 343.439 554.578 352.218 555.191C390.035 558.091 427.365 565.542 463.398 577.382C499.08 589.089 533.743 606.015 572.12 611.624C599.448 615.634 628.618 616.224 655.517 610.023C678.745 604.706 700.579 593.622 715.557 575.27C718.257 571.96 720.703 568.45 722.875 564.772C736.277 542.045 738.396 514.265 735.305 487.659C734.315 479.179 732.839 470.791 731.074 462.576C726.463 441.104 720.202 419.847 714.599 399.289C705.606 366.377 700.815 334.502 706.99 302.243C711.788 277.447 726.06 252.591 749.347 240.291C782.488 222.709 820.681 229.794 855.128 231.885C857.835 232.041 860.566 232.17 863.287 232.271C904.472 233.654 945.714 226.762 979.976 204.377C1016.51 180.544 1043.41 135.995 1036.69 89.7903" stroke="url(#paint6_linear)" stroke-width="2.36575" stroke-miterlimit="10"/>
</g>
<g style="mix-blend-mode:multiply">
<path d="M179.001 743.266C188.841 707.785 201.835 673.255 217.827 640.089C224.891 625.389 232.674 610.73 244.02 598.9C266.766 575.204 299.348 566.919 331.628 565.453C340.463 565.022 349.297 565.095 357.895 565.488C394.86 567.345 431.466 573.657 466.918 584.287C502.034 594.808 536.239 610.524 573.95 615.638C602.081 619.457 631.921 620.138 659.664 614.134C683.503 608.929 706.184 597.822 721.732 579.146C724.538 575.772 727.081 572.188 729.338 568.425C743.31 545.189 745.424 516.706 742.47 489.279C741.499 480.573 740.052 471.941 738.335 463.49C733.887 441.405 727.985 419.43 722.951 398.178C714.863 364.065 711.935 331.361 719.451 298.546C724.915 274.749 738.816 250.767 761.378 238.596C793.504 221.266 830.352 226.912 863.513 227.776C866.118 227.835 868.729 227.863 871.345 227.861C910.887 227.729 949.969 219.51 982.003 196.812C1016.15 172.64 1040.69 129.067 1033.39 84.4847" stroke="url(#paint7_linear)" stroke-width="2.36575" stroke-miterlimit="10"/>
</g>
<g style="mix-blend-mode:multiply">
<path d="M188.299 751.944C197.92 717.137 210.801 683.314 226.771 650.926C233.825 636.615 241.523 622.322 252.696 610.706C274.996 587.491 306.499 578.776 337.978 576.445C346.602 575.806 355.21 575.625 363.617 575.77C399.738 576.564 435.629 581.74 470.503 591.186C505.052 600.52 538.8 614.977 575.785 619.617C604.703 623.25 635.246 624.111 663.785 618.22C688.301 613.122 711.773 601.978 727.881 582.997C730.809 579.575 733.457 575.924 735.801 572.079C750.328 548.338 752.435 519.053 749.532 490.936C748.59 481.985 747.17 473.108 745.522 464.431C741.216 441.723 735.709 419.034 731.204 397.07C724.046 361.779 722.931 328.248 731.823 294.882C737.917 272.08 751.469 248.98 773.338 236.977C804.463 219.894 840.018 224.249 871.811 223.749C874.314 223.711 876.794 223.613 879.33 223.529C917.299 221.838 954.102 212.335 983.938 189.313C1015.72 164.812 1037.92 122.291 1029.84 79.2654" stroke="url(#paint8_linear)" stroke-width="2.36575" stroke-miterlimit="10"/>
</g>
<g style="mix-blend-mode:multiply">
<path d="M197.494 760.659C206.892 726.536 219.652 693.429 235.586 661.825C242.669 647.823 250.363 633.934 261.269 622.6C283.082 599.797 313.689 590.603 344.234 587.505C352.634 586.662 361.03 586.223 369.251 586.133C404.521 585.876 439.692 589.919 473.985 598.172C507.963 606.305 541.272 619.513 577.537 623.693C607.291 627.089 638.504 628.176 667.853 622.393C693.025 617.391 717.325 606.215 733.978 586.934C737.003 583.447 739.75 579.727 742.192 575.809C757.277 551.529 759.372 521.611 756.566 492.654C755.651 483.458 754.265 474.35 752.68 465.432C748.517 442.102 743.34 418.706 739.449 396.032C733.181 359.545 733.804 325.213 744.161 291.264C750.837 269.458 764.108 247.248 785.254 235.425C815.378 218.589 849.63 221.573 880.096 219.778C882.49 219.628 884.894 219.457 887.287 219.257C923.571 216.117 958.284 205.159 985.864 181.885C1015.26 157.06 1035.13 115.555 1026.35 74.0597" stroke="url(#paint9_linear)" stroke-width="2.36575" stroke-miterlimit="10"/>
</g>
<g style="mix-blend-mode:multiply">
<path d="M206.748 769.353C215.911 735.901 228.554 703.501 244.47 672.684C251.468 659.048 259.192 645.517 269.869 634.384C291.226 612.032 320.854 602.406 350.523 598.469C358.707 597.402 366.867 596.73 374.9 596.307C409.328 594.999 443.788 597.904 477.512 604.958C510.909 611.91 543.775 623.853 579.333 627.569C609.855 630.769 641.777 632.052 671.952 626.37C697.785 621.48 722.847 610.278 740.095 590.697C743.234 587.157 746.079 583.366 748.602 579.364C764.257 554.575 766.387 523.923 763.629 494.176C762.748 484.75 761.39 475.397 759.854 466.243C755.859 442.316 751.036 418.186 747.709 394.804C742.38 357.119 744.681 321.959 756.555 287.474C763.741 266.657 776.783 245.336 797.22 233.687C826.403 217.076 859.262 218.721 888.389 215.602C890.696 215.349 892.978 215.072 895.284 214.77C929.894 210.074 962.474 197.864 987.81 174.232C1014.81 149.089 1032.36 108.629 1022.88 68.6493" stroke="url(#paint10_linear)" stroke-width="2.36575" stroke-miterlimit="10"/>
</g>
<g style="mix-blend-mode:multiply">
<path d="M215.996 778.031C224.939 745.266 237.464 713.585 253.345 683.562C260.258 670.292 268.052 657.138 278.485 646.211C299.385 624.311 328.006 614.129 356.828 609.477C364.774 608.262 372.795 607.255 380.554 606.679C414.135 604.321 447.878 606.091 481.029 611.948C513.86 617.714 546.266 628.348 581.135 631.644C612.414 634.619 645.064 636.106 676.055 630.547C702.529 625.759 728.398 614.515 746.212 594.644C749.453 591.025 752.396 587.148 755.011 583.054C771.226 557.776 773.366 526.415 770.697 495.898C769.818 486.153 768.494 476.57 766.988 467.27C763.091 442.737 758.672 417.873 755.929 393.791C751.496 354.925 755.34 318.935 768.869 283.881C776.531 264.049 789.442 243.614 809.117 232.175C837.24 215.832 868.849 216.071 896.66 211.685C898.85 211.341 901.044 210.962 903.227 210.554C936.195 204.342 966.625 190.834 989.663 166.881C1014.29 141.393 1029.5 101.97 1019.32 63.5352" stroke="url(#paint11_linear)" stroke-width="2.36575" stroke-miterlimit="10"/>
</g>
<g style="mix-blend-mode:multiply">
<path d="M225.239 786.695C233.953 754.6 246.363 723.625 262.218 694.39C269.245 681.432 276.881 668.721 287.1 657.989C307.52 636.566 335.155 625.887 363.117 620.441C370.84 618.938 378.579 617.799 386.22 616.947C418.945 613.526 451.967 614.156 484.538 618.824C516.804 623.403 548.77 632.738 582.914 635.61C615.048 638.307 648.289 640.082 680.136 634.614C707.286 629.933 733.947 618.652 752.341 598.486C755.712 594.839 758.774 590.919 761.496 586.766C778.27 560.95 780.415 528.865 777.809 497.554C776.975 487.658 775.665 477.835 774.284 468.188C770.58 443.031 766.525 417.464 764.302 392.69C760.859 352.625 766.145 315.757 781.351 280.194C789.442 261.312 802.16 241.82 821.191 230.548C848.313 214.453 878.657 213.289 905.117 207.634C907.214 207.173 909.291 206.703 911.312 206.218C942.647 198.47 970.876 183.616 991.757 159.358C1014 133.547 1026.88 95.1749 1016.01 58.2647" stroke="url(#paint12_linear)" stroke-width="2.36575" stroke-miterlimit="10"/>
</g>
<g style="mix-blend-mode:multiply">
<path d="M234.503 795.418C242.986 763.999 255.277 733.735 271.103 705.298C278.06 692.7 285.741 680.343 295.727 669.847C315.685 648.86 342.366 637.773 369.432 631.478C376.925 629.758 384.452 628.36 391.893 627.279C423.775 622.813 456.087 622.322 488.09 625.818C519.784 629.196 551.315 637.196 584.751 639.688C617.675 642.115 651.671 644.119 684.274 638.794C712.081 634.21 739.533 622.892 758.493 602.437C761.954 598.709 765.102 594.701 767.905 590.456C785.169 564.142 787.395 531.357 784.861 499.231C784.056 489.09 782.803 479.011 781.446 469.154C777.899 443.369 774.234 417.073 772.545 391.602C770.027 350.344 776.724 312.56 793.708 276.535C802.263 258.558 814.797 240.038 833.135 228.935C859.242 213.091 888.217 210.564 913.37 203.624C915.35 203.071 917.319 202.488 919.297 201.886C949.005 192.616 975.058 176.44 993.696 151.874C1013.55 125.674 1024.07 88.2946 1012.57 52.9577" stroke="url(#paint13_linear)" stroke-width="2.36575" stroke-miterlimit="10"/>
</g>
<g style="mix-blend-mode:multiply">
<path d="M243.743 804.118C252.008 773.37 264.184 743.81 279.973 716.162C286.915 703.939 294.64 691.934 304.329 681.68C323.836 661.16 349.484 649.493 375.717 642.478C382.995 640.533 390.27 638.858 397.55 637.567C428.578 632.048 460.173 630.416 491.605 632.709C522.738 634.915 553.814 641.571 586.55 643.664C620.28 645.814 654.961 648.088 688.375 642.872C716.828 638.404 745.088 627.045 764.628 606.294C768.194 602.512 771.436 598.436 774.319 594.111C792.206 567.251 794.361 533.72 791.933 500.868C791.155 490.482 789.931 480.158 788.638 470.06C785.239 443.667 781.903 416.665 780.828 390.483C779.22 348.039 787.262 309.295 806.104 272.845C814.919 255.814 827.475 238.226 845.094 227.317C870.216 211.715 897.862 207.843 921.698 199.586C923.565 198.907 925.431 198.228 927.298 197.548C955.363 186.763 979.251 169.245 995.661 144.366C1013.14 117.871 1021.36 81.5966 1009.13 47.7158" stroke="url(#paint14_linear)" stroke-width="2.36575" stroke-miterlimit="10"/>
</g>
<g style="mix-blend-mode:multiply">
<path d="M252.991 812.796C261.036 782.722 273.107 753.872 288.877 727.029C295.592 714.961 303.678 703.709 312.975 693.497C332.005 673.419 356.607 661.277 382.052 653.475C389.099 651.313 396.189 649.453 403.242 647.859C433.411 641.277 464.284 638.493 495.143 639.574C525.705 640.579 556.304 645.832 588.333 647.595C622.878 649.448 658.24 652.028 692.48 646.913C721.583 642.528 750.646 631.162 770.724 610.047C774.402 606.205 777.747 602.058 780.723 597.651C799.175 570.267 801.326 536.033 798.976 502.381C798.232 491.765 797.062 481.269 795.796 470.876C792.539 443.862 789.552 416.112 789.067 389.246C788.374 345.629 797.649 305.8 818.462 269.052C827.67 252.867 840.104 236.33 857.04 225.569C881.146 210.219 907.488 204.976 929.953 195.441C931.728 194.694 933.486 193.903 935.24 193.097C961.663 180.796 983.39 161.95 997.572 136.758C1012.68 109.955 1018.59 74.6707 1005.58 42.3672" stroke="url(#paint15_linear)" stroke-width="2.36575" stroke-miterlimit="10"/>
</g>
<g style="mix-blend-mode:multiply">
<path d="M262.259 821.485C270.078 792.084 282.026 763.94 297.746 737.893C304.487 726.202 312.483 715.282 321.591 705.325C340.165 685.698 363.84 673.038 388.351 664.469C395.173 662.103 402.058 660 408.904 658.162C438.199 650.534 468.338 646.621 498.609 646.516C528.591 646.34 558.785 650.297 590.094 651.651C625.443 653.178 661.487 656.064 696.523 651.062C726.302 646.782 756.157 635.38 776.822 614.035C780.609 610.131 784.057 605.913 787.13 601.425C806.152 573.583 808.347 538.545 806.04 504.138C805.324 493.277 804.176 482.472 802.985 471.917C799.877 444.295 797.26 415.856 797.343 388.247C797.555 343.429 807.981 302.476 830.832 265.472C840.352 250.147 852.789 234.632 868.987 224.056C892.102 208.933 917.13 202.339 938.298 191.498C939.965 190.64 941.621 189.752 943.257 188.854C968.048 175.016 987.599 154.849 999.539 129.349C1012.28 102.231 1015.82 68.0642 1002.13 37.1953" stroke="url(#paint16_linear)" stroke-width="2.36575" stroke-miterlimit="10"/>
</g>
<g style="mix-blend-mode:multiply">
<path d="M271.52 830.243C279.082 801.465 290.904 773.979 306.594 748.697C313.357 737.389 321.257 726.802 330.171 717.099C348.342 697.887 370.958 684.757 394.62 675.423C401.221 672.819 407.863 670.48 414.545 668.406C442.987 659.691 472.418 654.616 502.136 653.301C531.551 651.939 561.294 654.517 591.856 655.523C628.018 656.704 664.755 659.924 700.607 655.045C731.042 650.862 761.688 639.423 782.934 617.783C786.828 613.817 790.373 609.524 793.53 604.951C813.105 576.555 815.267 540.874 813.068 505.657C812.386 494.565 811.266 483.515 810.139 472.719C807.178 444.489 804.92 415.333 805.568 387.015C806.71 341.019 818.174 298.816 843.176 261.684C852.992 247.174 865.429 232.716 880.859 222.336C902.963 207.479 926.668 199.506 946.508 187.369C948.073 186.414 949.627 185.429 951.155 184.42C974.123 169.386 991.72 147.443 1001.41 121.758C1011.75 94.3069 1012.89 61.1279 998.576 31.8471" stroke="url(#paint17_linear)" stroke-width="2.36575" stroke-miterlimit="10"/>
</g>
<g style="mix-blend-mode:multiply">
<path d="M280.747 838.862C288.117 810.8 299.841 784.066 315.49 759.634C322.273 748.698 330.079 738.431 338.804 728.971C356.449 710.252 378.137 696.554 400.946 686.491C407.312 683.654 413.76 681.089 420.224 678.753C447.82 669.012 476.545 662.825 505.704 660.34C534.548 657.776 563.913 658.949 593.738 659.635C630.694 660.46 668.144 664.075 704.8 659.239C735.882 655.173 767.335 643.691 789.141 621.747C793.149 617.734 796.794 613.376 800.036 608.723C820.176 579.802 822.343 543.398 820.208 507.437C819.539 496.105 818.468 484.819 817.389 473.787C814.586 444.93 812.703 415.1 813.964 386.022C816.016 338.84 828.445 295.279 855.694 258.101C865.995 243.695 878.605 231.091 893.014 220.796C914.124 206.201 936.504 196.848 955.017 183.416C956.48 182.364 957.911 181.273 959.337 180.166C980.682 163.47 996.162 140.416 1003.54 114.339C1011.51 86.5585 1010.38 54.4091 995.297 26.6652" stroke="url(#paint18_linear)" stroke-width="2.36575" stroke-miterlimit="10"/>
</g>
<g style="mix-blend-mode:multiply">
<path d="M289.986 847.561C297.141 820.163 308.754 794.127 324.359 770.497C331.17 759.948 338.886 750.011 347.42 740.799C364.619 722.909 384.881 708.239 407.246 697.484C413.381 694.429 419.613 691.641 425.89 689.021C452.626 678.227 480.633 670.897 509.228 667.21C537.491 663.466 566.318 663.207 595.532 663.595C633.285 664.03 671.407 667.97 708.881 663.306C740.624 659.352 772.869 647.834 795.256 625.594C799.367 621.521 803.111 617.093 806.444 612.362C827.133 582.923 829.305 545.796 827.283 509.038C826.665 497.521 825.585 485.936 824.584 474.658C821.929 445.193 820.39 414.601 822.133 384.961C825.09 336.577 838.456 291.535 867.958 254.459C878.583 241.077 890.998 229.22 904.855 219.221C924.964 204.873 946.06 194.158 963.211 179.427C964.566 178.263 965.915 177.084 967.218 175.872C986.957 157.486 1000.34 133.304 1005.45 106.816C1011.03 78.6971 1007.56 47.5841 991.797 21.3799" stroke="url(#paint19_linear)" stroke-width="2.36575" stroke-miterlimit="10"/>
</g>
<g style="mix-blend-mode:multiply">
<path d="M299.24 856.255C306.165 829.525 317.661 804.193 333.219 781.381C353.579 750.852 381.168 725.828 413.532 708.533C419.437 705.26 425.458 702.213 431.544 699.393C457.415 687.537 484.707 679.069 512.746 674.2C540.443 669.269 568.829 667.661 597.319 667.676C635.903 667.674 674.68 672.03 713.01 667.507C745.409 663.649 778.441 652.08 801.398 629.565C805.624 625.435 809.471 620.936 812.895 616.121C834.148 586.157 836.331 548.322 834.372 510.77C833.766 498.962 832.751 487.186 831.788 475.693C829.231 445.622 828.116 414.305 830.487 383.9C834.374 334.339 848.455 287.711 880.431 250.842C891.364 238.464 903.624 227.324 916.989 217.623C936.098 203.521 955.84 191.437 971.699 175.415C972.922 174.165 974.123 172.855 975.335 171.576C993.382 151.536 1004.63 126.303 1007.48 99.4848C1010.68 71.0567 1004.88 40.9599 988.401 16.2912" stroke="url(#paint20_linear)" stroke-width="2.36575" stroke-miterlimit="10"/>
</g>
<g style="mix-blend-mode:multiply">
<path d="M308.493 864.949C323.785 804.225 366.448 752.243 419.851 719.486C473.253 686.729 536.536 672.319 599.143 671.625C638.492 671.194 678 675.989 717.095 671.539C756.19 667.09 796.408 651.714 819.321 619.72C847.979 579.681 842.738 525.641 838.983 476.563C832.792 395.811 837.268 305.925 892.795 247.063C920.503 217.736 958.606 199.037 983.302 167.149C1017.53 122.918 1018.26 55.7846 984.893 10.8918" stroke="url(#paint21_linear)" stroke-width="2.36575" stroke-miterlimit="10"/>
</g>
</g>
<defs>
<linearGradient id="paint0_linear" x1="930.96" y1="246.817" x2="651.14" y2="925.489" gradientUnits="userSpaceOnUse">
<stop stop-color="#B62E47"/>
<stop offset="0.28125" stop-color="#933768"/>
<stop offset="0.536458" stop-color="#504499"/>
<stop offset="0.703125" stop-color="#1461C8"/>
<stop offset="1" stop-color="white"/>
</linearGradient>
<linearGradient id="paint1_linear" x1="931.749" y1="250.08" x2="646.091" y2="927.784" gradientUnits="userSpaceOnUse">
<stop stop-color="#B62E47"/>
<stop offset="0.28125" stop-color="#933768"/>
<stop offset="0.536458" stop-color="#504499"/>
<stop offset="0.703125" stop-color="#1461C8"/>
<stop offset="1" stop-color="white"/>
</linearGradient>
<linearGradient id="paint2_linear" x1="930.639" y1="248.004" x2="626.487" y2="929.9" gradientUnits="userSpaceOnUse">
<stop stop-color="#B62E47"/>
<stop offset="0.28125" stop-color="#933768"/>
<stop offset="0.536458" stop-color="#504499"/>
<stop offset="0.703125" stop-color="#1461C8"/>
<stop offset="1" stop-color="white"/>
</linearGradient>
<linearGradient id="paint3_linear" x1="929.365" y1="245.451" x2="605.794" y2="930.901" gradientUnits="userSpaceOnUse">
<stop stop-color="#B62E47"/>
<stop offset="0.28125" stop-color="#933768"/>
<stop offset="0.536458" stop-color="#504499"/>
<stop offset="0.703125" stop-color="#1461C8"/>
<stop offset="1" stop-color="white"/>
</linearGradient>
<linearGradient id="paint4_linear" x1="927.905" y1="242.886" x2="585.537" y2="930.533" gradientUnits="userSpaceOnUse">
<stop stop-color="#B62E47"/>
<stop offset="0.28125" stop-color="#933768"/>
<stop offset="0.536458" stop-color="#504499"/>
<stop offset="0.703125" stop-color="#1461C8"/>
<stop offset="1" stop-color="white"/>
</linearGradient>
<linearGradient id="paint5_linear" x1="926.616" y1="240.321" x2="566.056" y2="929.145" gradientUnits="userSpaceOnUse">
<stop stop-color="#B62E47"/>
<stop offset="0.28125" stop-color="#933768"/>
<stop offset="0.536458" stop-color="#504499"/>
<stop offset="0.703125" stop-color="#1461C8"/>
<stop offset="1" stop-color="white"/>
</linearGradient>
<linearGradient id="paint6_linear" x1="925.29" y1="237.733" x2="547.225" y2="926.667" gradientUnits="userSpaceOnUse">
<stop stop-color="#B62E47"/>
<stop offset="0.28125" stop-color="#933768"/>
<stop offset="0.536458" stop-color="#504499"/>
<stop offset="0.703125" stop-color="#1461C8"/>
<stop offset="1" stop-color="white"/>
</linearGradient>
<linearGradient id="paint7_linear" x1="924.087" y1="235.131" x2="529.17" y2="923.309" gradientUnits="userSpaceOnUse">
<stop stop-color="#B62E47"/>
<stop offset="0.28125" stop-color="#933768"/>
<stop offset="0.536458" stop-color="#504499"/>
<stop offset="0.703125" stop-color="#1461C8"/>
<stop offset="1" stop-color="white"/>
</linearGradient>
<linearGradient id="paint8_linear" x1="922.689" y1="232.598" x2="511.632" y2="918.96" gradientUnits="userSpaceOnUse">
<stop stop-color="#B62E47"/>
<stop offset="0.28125" stop-color="#933768"/>
<stop offset="0.536458" stop-color="#504499"/>
<stop offset="0.703125" stop-color="#1461C8"/>
<stop offset="1" stop-color="white"/>
</linearGradient>
<linearGradient id="paint9_linear" x1="921.327" y1="230.096" x2="494.839" y2="913.937" gradientUnits="userSpaceOnUse">
<stop stop-color="#B62E47"/>
<stop offset="0.28125" stop-color="#933768"/>
<stop offset="0.536458" stop-color="#504499"/>
<stop offset="0.703125" stop-color="#1461C8"/>
<stop offset="1" stop-color="white"/>
</linearGradient>
<linearGradient id="paint10_linear" x1="919.976" y1="227.399" x2="478.764" y2="908.005" gradientUnits="userSpaceOnUse">
<stop stop-color="#B62E47"/>
<stop offset="0.28125" stop-color="#933768"/>
<stop offset="0.536458" stop-color="#504499"/>
<stop offset="0.703125" stop-color="#1461C8"/>
<stop offset="1" stop-color="white"/>
</linearGradient>
<linearGradient id="paint11_linear" x1="918.566" y1="224.974" x2="463.451" y2="901.566" gradientUnits="userSpaceOnUse">
<stop stop-color="#B62E47"/>
<stop offset="0.28125" stop-color="#933768"/>
<stop offset="0.536458" stop-color="#504499"/>
<stop offset="0.703125" stop-color="#1461C8"/>
<stop offset="1" stop-color="white"/>
</linearGradient>
<linearGradient id="paint12_linear" x1="917.36" y1="222.401" x2="449.122" y2="894.578" gradientUnits="userSpaceOnUse">
<stop stop-color="#B62E47"/>
<stop offset="0.28125" stop-color="#933768"/>
<stop offset="0.536458" stop-color="#504499"/>
<stop offset="0.703125" stop-color="#1461C8"/>
<stop offset="1" stop-color="white"/>
</linearGradient>
<linearGradient id="paint13_linear" x1="916.057" y1="219.839" x2="435.216" y2="886.999" gradientUnits="userSpaceOnUse">
<stop stop-color="#B62E47"/>
<stop offset="0.28125" stop-color="#933768"/>
<stop offset="0.536458" stop-color="#504499"/>
<stop offset="0.703125" stop-color="#1461C8"/>
<stop offset="1" stop-color="white"/>
</linearGradient>
<linearGradient id="paint14_linear" x1="914.747" y1="217.303" x2="422.197" y2="878.977" gradientUnits="userSpaceOnUse">
<stop stop-color="#B62E47"/>
<stop offset="0.28125" stop-color="#933768"/>
<stop offset="0.536458" stop-color="#504499"/>
<stop offset="0.703125" stop-color="#1461C8"/>
<stop offset="1" stop-color="white"/>
</linearGradient>
<linearGradient id="paint15_linear" x1="913.582" y1="215.212" x2="407.976" y2="870.774" gradientUnits="userSpaceOnUse">
<stop stop-color="#B62E47"/>
<stop offset="0.28125" stop-color="#933768"/>
<stop offset="0.536458" stop-color="#504499"/>
<stop offset="0.703125" stop-color="#1461C8"/>
<stop offset="1" stop-color="white"/>
</linearGradient>
<linearGradient id="paint16_linear" x1="912.963" y1="214.201" x2="392.046" y2="862.887" gradientUnits="userSpaceOnUse">
<stop stop-color="#B62E47"/>
<stop offset="0.28125" stop-color="#933768"/>
<stop offset="0.536458" stop-color="#504499"/>
<stop offset="0.703125" stop-color="#1461C8"/>
<stop offset="1" stop-color="white"/>
</linearGradient>
<linearGradient id="paint17_linear" x1="912.387" y1="213.037" x2="377.177" y2="854.362" gradientUnits="userSpaceOnUse">
<stop stop-color="#B62E47"/>
<stop offset="0.28125" stop-color="#933768"/>
<stop offset="0.536458" stop-color="#504499"/>
<stop offset="0.703125" stop-color="#1461C8"/>
<stop offset="1" stop-color="white"/>
</linearGradient>
<linearGradient id="paint18_linear" x1="912.225" y1="211.872" x2="364.177" y2="845.775" gradientUnits="userSpaceOnUse">
<stop stop-color="#B62E47"/>
<stop offset="0.28125" stop-color="#933768"/>
<stop offset="0.536458" stop-color="#504499"/>
<stop offset="0.703125" stop-color="#1461C8"/>
<stop offset="1" stop-color="white"/>
</linearGradient>
<linearGradient id="paint19_linear" x1="912.095" y1="210.587" x2="352.099" y2="836.757" gradientUnits="userSpaceOnUse">
<stop stop-color="#B62E47"/>
<stop offset="0.28125" stop-color="#933768"/>
<stop offset="0.536458" stop-color="#504499"/>
<stop offset="0.703125" stop-color="#1461C8"/>
<stop offset="1" stop-color="white"/>
</linearGradient>
<linearGradient id="paint20_linear" x1="912.359" y1="209.327" x2="341.524" y2="827.846" gradientUnits="userSpaceOnUse">
<stop stop-color="#B62E47"/>
<stop offset="0.28125" stop-color="#933768"/>
<stop offset="0.536458" stop-color="#504499"/>
<stop offset="0.703125" stop-color="#1461C8"/>
<stop offset="1" stop-color="white"/>
</linearGradient>
<linearGradient id="paint21_linear" x1="912.939" y1="207.698" x2="331.885" y2="818.688" gradientUnits="userSpaceOnUse">
<stop stop-color="#B62E47"/>
<stop offset="0.28125" stop-color="#933768"/>
<stop offset="0.536458" stop-color="#504499"/>
<stop offset="0.703125" stop-color="#1461C8"/>
<stop offset="1" stop-color="white"/>
</linearGradient>
</defs>
</svg>
