<svg width="934" height="1267" viewBox="0 0 934 1267" fill="none" xmlns="http://www.w3.org/2000/svg">
<g style="mix-blend-mode:multiply" opacity="0.07">
<g style="mix-blend-mode:multiply">
<path d="M93.6335 902.178C109.425 847.972 128.449 794.76 150.603 742.829C160.458 719.758 171.294 696.513 188.816 678.516C233.691 632.673 307.848 635.251 370.379 649.158C428.14 661.944 484.178 681.552 537.311 707.568C589.875 733.341 640.317 765.643 697.447 778.445C754.576 791.247 822.453 779.334 856.206 731.491C876.283 703.034 881.236 665.902 875.856 631.496C870.476 597.089 855.636 564.88 838.868 534.348C819.672 499.399 797.106 463.843 796.106 424.011C795.121 382.844 820.071 341.95 857.283 324.123C910.274 298.758 972.282 319.84 1029.41 333.481C1101.95 350.787 1180.57 354.936 1249.24 325.944C1317.92 296.951 1373.58 228.723 1370.73 154.169" stroke="url(#paint0_linear)" stroke-width="2.1261" stroke-miterlimit="10"/>
</g>
<g style="mix-blend-mode:multiply">
<path d="M105.946 914.022C121.433 860.743 140.291 808.504 162.407 757.618C172.214 735.016 183.009 712.213 200.259 694.594C234.941 659.202 286.93 652.385 337.442 657.126C351.053 658.43 364.585 660.451 377.983 663.18C434.616 674.506 489.697 692.541 542.062 716.903C593.826 741.077 643.573 771.963 699.828 783.846C731.377 790.525 765.894 790.482 796.781 781.684C823.677 774.012 847.935 759.516 864.421 736.789C867.352 732.744 870.007 728.505 872.366 724.101C886.857 697.027 889.856 664.461 885.394 633.771C883.919 623.96 881.809 614.255 879.078 604.717C872.079 579.838 861.409 555.998 850.032 532.935C832.074 496.387 812.34 459.442 812.835 419.139C813.331 378.837 837.151 339.601 873.426 322.021C925.055 296.976 985.304 316.201 1040.65 328.091C1045 329.021 1049.39 329.919 1053.8 330.74C1120.31 343.332 1190.61 343.446 1252.01 315.805C1317.54 286.315 1369.98 219.509 1366.18 147.021" stroke="url(#paint1_linear)" stroke-width="2.1261" stroke-miterlimit="10"/>
</g>
<g style="mix-blend-mode:multiply">
<path d="M118.417 925.799C133.58 873.436 152.27 822.16 174.358 772.322C184.146 750.198 194.885 727.893 211.849 710.586C245.901 675.804 296.564 668.305 345.865 671.928C359.189 672.926 372.452 674.61 385.603 676.972C441.099 686.948 495.207 703.51 546.78 726.307C597.758 748.823 646.855 778.243 702.253 789.32C734.871 795.726 770.314 795.884 802.296 787.24C830.087 779.713 855.378 765.136 872.662 742.048C875.748 737.932 878.54 733.604 881.019 729.096C896.259 701.32 899.304 667.77 894.914 636.057C893.487 625.937 891.432 615.915 888.76 606.05C881.931 580.361 871.826 555.459 861.215 531.511C844.506 493.384 827.6 455.173 829.575 414.286C831.496 375.517 854.264 337.306 889.58 319.937C939.857 295.23 998.281 312.612 1051.9 322.729C1056.15 323.547 1060.39 324.29 1064.62 324.956C1128.94 335.498 1196.27 333.819 1254.8 305.673C1317.12 275.71 1366.4 210.285 1361.65 139.844" stroke="url(#paint2_linear)" stroke-width="2.1261" stroke-miterlimit="10"/>
</g>
<g style="mix-blend-mode:multiply">
<path d="M130.811 937.571C145.676 886.12 164.21 835.801 186.269 787C196.039 765.353 206.762 743.573 223.4 726.553C256.821 692.38 306.168 684.217 354.32 686.785C367.323 687.485 380.281 688.853 393.144 690.884C447.518 699.411 500.678 714.403 551.496 735.54C601.753 756.508 650.164 784.484 704.613 794.684C738.243 800.972 774.716 801.297 807.793 792.806C836.478 785.426 862.864 770.831 880.895 747.335C884.129 743.136 887.053 738.708 889.644 734.084C905.654 705.643 908.725 671.12 904.452 638.333C903.052 627.92 901.059 617.596 898.481 607.41C891.841 580.9 882.193 555.046 872.401 530.134C856.947 490.398 842.745 450.873 846.337 409.47C849.564 371.985 871.458 334.941 905.781 317.85C954.697 293.463 1011.42 308.956 1063.19 317.336C1067.27 317.993 1071.37 318.604 1075.5 319.17C1137.6 327.625 1202.04 324.157 1257.48 295.606C1316.58 265.169 1362.72 201.113 1357 132.732" stroke="url(#paint3_linear)" stroke-width="2.1261" stroke-miterlimit="10"/>
</g>
<g style="mix-blend-mode:multiply">
<path d="M143.219 949.41C157.751 898.888 176.098 849.542 198.102 801.797C207.842 780.609 218.53 759.365 234.872 742.638C267.62 709.001 315.672 700.211 362.675 701.724C375.519 702.115 388.286 703.263 400.661 704.883C453.889 711.987 506.073 725.452 556.093 744.99C605.622 764.316 653.414 790.709 707.013 800.075C741.7 806.194 779.118 806.71 813.29 798.372C842.841 791.131 870.31 776.499 889.127 752.623C892.508 748.345 895.567 743.822 898.279 739.091C915.056 709.937 918.136 674.451 913.982 640.638C912.617 629.894 910.673 619.231 908.16 608.696C901.727 581.354 892.555 554.539 883.563 528.674C869.328 487.35 857.844 446.624 863.055 404.58C867.536 368.458 888.497 332.69 921.898 315.787C969.396 291.752 1024.41 305.357 1074.38 312.007C1078.32 312.533 1082.32 312.998 1086.25 313.428C1146.17 319.833 1207.67 314.523 1260.12 285.542C1315.95 254.681 1358.99 191.974 1352.33 125.659" stroke="url(#paint4_linear)" stroke-width="2.1261" stroke-miterlimit="10"/>
</g>
<g style="mix-blend-mode:multiply">
<path d="M155.605 961.211C169.83 911.607 188.009 863.223 209.969 816.526C219.671 795.826 230.27 775.148 246.388 758.674C278.549 725.719 325.223 716.202 371.085 716.631C383.646 716.744 396.152 717.527 408.205 718.842C460.305 724.526 511.533 736.45 560.789 754.357C609.554 772.062 656.782 796.841 709.405 805.494C745.165 811.387 783.593 812.081 818.786 803.939C849.243 796.862 877.774 782.157 897.35 757.893C900.883 753.536 904.086 748.921 906.932 744.087C924.482 714.315 927.565 677.771 923.502 642.924C922.173 631.868 920.29 620.886 917.86 610.019C911.635 581.845 902.901 554.089 894.654 527.303C881.66 484.429 872.902 442.472 879.795 399.727C885.405 364.966 905.599 330.377 938.125 313.661C984.327 289.932 1037.53 301.712 1085.76 306.59C1089.56 306.965 1093.37 307.301 1097.2 307.599C1154.92 311.907 1213.45 304.85 1262.95 275.389C1315.64 244.031 1355.44 182.71 1347.79 118.387" stroke="url(#paint5_linear)" stroke-width="2.1261" stroke-miterlimit="10"/>
</g>
<g style="mix-blend-mode:multiply">
<path d="M167.992 973.012C181.912 924.331 199.928 876.915 221.846 831.272C231.487 810.976 242.194 790.826 257.913 774.68C289.433 742.316 334.78 732.117 379.493 731.491C391.665 731.312 403.914 731.777 415.722 732.669C466.706 736.953 516.987 747.374 565.475 763.706C613.487 779.808 660.093 802.957 711.7 810.871C748.619 816.561 787.94 817.525 824.294 809.523C855.624 802.556 885.231 787.844 905.564 763.191C909.232 758.749 912.561 754.038 915.52 749.096C933.815 718.574 936.921 681.134 933.003 645.221C931.702 633.697 929.738 622.556 927.494 611.355C921.487 582.368 913.247 553.639 905.874 525.858C894.041 481.38 887.858 438.354 896.535 394.874C903.222 361.553 922.765 328.175 954.216 311.637C999.045 288.21 1050.5 298.152 1096.95 301.26C1100.65 301.581 1104.28 301.716 1107.95 301.857C1163.48 304.115 1219.2 295.17 1265.54 265.251C1315.03 233.438 1351.69 173.533 1343.1 111.296" stroke="url(#paint6_linear)" stroke-width="2.1261" stroke-miterlimit="10"/>
</g>
<g style="mix-blend-mode:multiply">
<path d="M180.389 984.832C193.993 937.063 211.842 890.607 233.724 846.019C243.377 826.255 253.996 806.548 269.429 790.715C300.227 759.014 344.321 748.09 387.866 746.419C399.836 745.891 411.707 746.083 423.308 746.702C473.143 749.521 522.454 758.369 570.16 773.055C617.398 787.517 663.422 809.063 714.179 816.314C752.091 821.725 792.313 822.93 829.791 815.089C862.015 808.269 892.696 793.501 913.834 768.457C917.653 763.94 921.116 759.133 924.192 754.081C943.246 722.875 946.35 684.454 942.56 647.486C941.339 635.719 939.449 624.068 937.194 612.678C931.431 582.838 923.759 553.094 917.038 524.445C906.443 478.369 902.794 434.248 913.249 390.061C920.849 357.981 939.814 325.771 970.369 309.553C1013.86 286.483 1063.53 294.531 1108.21 295.888C1111.71 296.002 1115.26 296.065 1118.77 296.073C1172.11 296.263 1224.89 285.551 1268.3 255.236C1314.57 222.95 1348.09 164.414 1338.52 104.217" stroke="url(#paint7_linear)" stroke-width="2.1261" stroke-miterlimit="10"/>
</g>
<g style="mix-blend-mode:multiply">
<path d="M192.886 996.57C206.144 949.739 223.79 904.263 245.59 860.747C255.225 841.461 265.828 822.279 280.935 806.732C311.195 775.587 353.886 764.147 396.266 761.308C407.897 760.533 419.508 760.36 430.841 760.642C479.575 762.015 527.962 769.305 574.938 782.35C621.454 795.266 666.904 815.179 716.682 821.669C755.563 826.889 796.733 828.333 835.214 820.698C868.315 814.034 900.079 799.231 921.983 773.769C925.955 769.183 929.557 764.287 932.754 759.13C952.575 727.212 955.698 687.846 952.006 649.814C950.842 637.72 948.99 625.753 946.857 614.022C941.264 583.372 933.994 552.708 928.166 523.053C918.9 475.326 917.673 430.126 930.005 385.321C938.431 354.63 956.925 323.601 986.513 307.622C1028.66 284.737 1076.55 290.892 1119.51 290.638C1122.9 290.596 1126.27 290.518 1129.66 290.4C1180.8 288.521 1230.66 275.984 1271.06 245.221C1314.14 212.469 1344.49 155.324 1333.99 97.2118" stroke="url(#paint8_linear)" stroke-width="2.1261" stroke-miterlimit="10"/>
</g>
<g style="mix-blend-mode:multiply">
<path d="M205.19 1008.44C218.16 962.501 235.672 917.965 257.468 875.494C267.083 856.685 277.586 838.052 292.452 822.767C322.081 792.231 363.446 780.109 404.665 776.197C416.003 775.125 427.308 774.637 438.392 774.572C485.966 774.548 533.366 780.323 579.542 791.771C625.33 803.044 670.147 821.138 718.982 827.141C759.033 832.005 801.124 833.727 840.784 826.222C874.78 819.704 907.606 804.827 930.289 779.014C934.414 774.362 938.158 769.384 941.484 764.131C961.961 731.563 965.204 691.172 961.639 652.084C960.494 639.684 958.699 627.39 956.652 615.34C951.266 583.858 944.472 552.232 939.389 521.656C931.247 472.346 932.404 426.088 946.713 380.413C955.915 351.066 973.939 321.265 1002.65 305.472C1043.45 283.049 1089.57 287.377 1130.69 285.242C1133.93 285.067 1137.17 284.863 1140.38 284.556C1189.31 280.609 1236.27 266.265 1273.67 235.073C1313.44 201.9 1340.72 146.082 1329.26 90.0467" stroke="url(#paint9_linear)" stroke-width="2.1261" stroke-miterlimit="10"/>
</g>
<g style="mix-blend-mode:multiply">
<path d="M217.577 1020.24C230.254 975.219 247.601 931.642 269.334 890.222C278.912 871.902 289.472 853.751 303.958 838.784C332.957 808.858 372.976 796.063 413.075 791.104C424.058 789.673 435.128 788.904 445.943 788.502C492.385 787.071 538.828 791.304 584.246 801.109C629.152 810.854 673.426 827.199 721.364 832.542C762.513 837.14 805.554 839.148 846.281 831.788C881.171 825.417 915.037 810.554 938.522 784.302C942.784 779.543 946.657 774.449 950.105 769.071C971.444 735.785 974.594 694.466 971.137 654.334C970.031 641.617 968.3 628.966 966.312 616.636C961.134 584.323 954.863 551.732 950.576 520.156C943.723 469.292 947.098 421.901 963.476 375.473C973.378 347.465 991.138 318.823 1018.84 303.32C1058.27 281.216 1102.66 283.677 1141.97 279.784C1145.08 279.464 1148.17 279.126 1151.21 278.772C1197.96 272.746 1241.98 256.588 1276.37 224.947C1313.03 191.285 1337.06 136.882 1324.63 82.8759" stroke="url(#paint10_linear)" stroke-width="2.1261" stroke-miterlimit="10"/>
</g>
<g style="mix-blend-mode:multiply">
<path d="M229.963 1032.05C242.331 987.934 259.517 945.318 281.212 904.969C290.792 887.162 301.286 869.492 315.474 854.819C343.833 825.484 382.536 812.026 421.414 805.929C432.135 804.257 442.886 803.107 453.445 802.388C498.784 799.537 544.302 802.272 588.974 810.531C633.158 818.557 676.786 833.189 723.756 837.961C765.99 842.227 809.999 844.634 851.778 837.354C887.489 831.172 922.517 816.153 946.745 789.571C951.153 784.738 955.165 779.556 958.741 774.078C980.847 740.079 984.005 697.797 980.657 656.62C979.607 643.576 977.925 630.627 976.012 617.959C971.031 584.796 965.246 551.261 961.77 518.75C956.154 466.289 961.682 417.778 980.217 370.62C990.731 343.927 1008.27 316.518 1034.98 301.246C1073.06 279.452 1115.7 280.075 1153.23 274.412C1156.2 273.977 1159.14 273.457 1162.09 272.956C1206.63 264.891 1247.81 246.913 1279.15 214.845C1312.66 180.772 1333.48 127.676 1320.13 75.8021" stroke="url(#paint11_linear)" stroke-width="2.1261" stroke-miterlimit="10"/>
</g>
<g style="mix-blend-mode:multiply">
<path d="M242.305 1043.9C254.358 1000.67 271.401 958.999 293.089 919.716C302.674 902.299 313.107 885.204 326.98 870.836C354.737 842.118 392.095 827.988 429.856 820.892C440.293 818.941 450.73 817.458 461.039 816.391C505.208 812.076 549.741 813.229 593.628 819.825C637.127 826.282 680.117 839.171 726.167 843.37C769.541 847.272 814.358 849.974 857.293 842.91C893.936 836.853 929.995 821.877 954.978 794.859C959.536 789.95 963.683 784.674 967.376 779.084C990.241 744.401 993.408 701.157 990.206 658.914C989.165 645.546 987.529 632.251 985.701 619.264C980.895 585.213 975.639 550.809 972.935 517.337C968.739 463.295 976.139 413.605 996.967 365.785C1008.04 340.393 1025.38 314.224 1051.14 299.181C1087.86 277.735 1128.74 276.472 1164.51 269.077C1167.32 268.489 1170.15 267.862 1172.93 267.191C1215.29 257.047 1253.5 237.264 1281.86 204.738C1312.09 170.099 1329.83 118.494 1315.49 68.6128" stroke="url(#paint12_linear)" stroke-width="2.1261" stroke-miterlimit="10"/>
</g>
<g style="mix-blend-mode:multiply">
<path d="M254.765 1055.66C266.502 1013.36 283.356 972.655 304.956 934.444C314.467 917.537 324.902 900.956 338.497 886.871C365.613 858.744 401.655 843.95 438.256 835.781C448.381 833.544 458.628 831.776 468.59 830.321C511.622 824.584 555.199 824.205 598.324 829.192C641.041 834.039 683.485 845.132 728.64 848.718C772.953 852.373 818.76 855.386 862.79 848.476C900.327 842.566 937.428 827.479 963.229 800.136C967.936 795.138 972.22 789.758 976.037 784.051C999.661 748.684 1002.86 704.467 999.762 661.179C998.778 647.483 997.18 633.872 995.438 620.565C990.882 585.757 986.143 550.293 984.118 515.914C981.083 460.268 990.502 409.313 1013.72 360.951C1025.29 336.814 1042.49 311.93 1067.3 297.115C1102.68 275.979 1141.71 272.912 1175.7 263.747C1178.4 263.023 1181.05 262.255 1183.71 261.457C1223.86 249.226 1259.2 227.693 1284.53 194.682C1311.56 159.606 1326.08 109.317 1310.77 61.5426" stroke="url(#paint13_linear)" stroke-width="2.1261" stroke-miterlimit="10"/>
</g>
<g style="mix-blend-mode:multiply">
<path d="M267.184 1067.51C278.593 1026.15 295.258 986.422 316.773 949.299C326.236 932.862 336.692 916.784 350.006 903.106C376.471 875.552 411.123 860.137 446.659 850.888C456.479 848.336 466.343 846.201 476.127 844.481C517.999 837.315 560.601 835.398 602.948 838.773C644.973 841.785 686.813 851.066 730.941 854.19C776.417 857.394 823.143 860.81 868.324 854.021C906.737 848.267 944.964 833.218 971.499 805.402C976.338 800.322 980.75 794.851 984.691 789.046C1009.02 752.904 1012.27 707.797 1009.3 663.454C1008.34 649.453 1006.76 635.459 1005.12 621.898C1000.73 586.28 996.49 549.843 995.314 514.555C993.595 457.192 1004.71 405.041 1030.46 356.097C1042.49 333.19 1059.6 309.617 1083.55 294.978C1117.57 274.18 1154.92 269.214 1187.11 258.29C1189.66 257.432 1192.19 256.538 1194.68 255.588C1232.64 241.307 1265.03 217.893 1287.39 184.508C1311.2 148.959 1322.61 100.076 1306.37 54.3099" stroke="url(#paint14_linear)" stroke-width="2.1261" stroke-miterlimit="10"/>
</g>
<g style="mix-blend-mode:multiply">
<path d="M279.549 1079.28C290.675 1038.79 307.208 999.988 328.7 963.919C337.9 947.686 348.944 932.569 361.611 918.87C387.467 891.961 420.855 875.803 455.14 865.534C464.666 862.686 474.188 860.257 483.778 858.157C524.539 849.578 566.214 846.136 607.83 847.911C648.927 849.568 690.178 856.98 733.323 859.591C779.867 862.35 827.582 866.202 873.816 859.664C913.166 854.13 952.37 838.861 979.737 810.785C984.737 805.642 989.288 800.083 993.342 794.166C1018.47 757.414 1021.6 711.295 1018.84 665.854C1017.98 651.617 1016.43 637.27 1014.84 623.335C1010.62 586.734 1006.89 549.362 1006.43 513.05C1005.91 454.205 1018.77 400.577 1047.18 351.208C1059.67 329.512 1076.71 307.276 1099.6 292.928C1132.26 272.451 1167.84 265.61 1198.27 252.953C1200.65 251.943 1203.05 250.904 1205.42 249.828C1241.17 233.461 1270.64 208.269 1289.99 174.417C1310.62 138.421 1318.86 90.9 1301.65 47.1924" stroke="url(#paint15_linear)" stroke-width="2.1261" stroke-miterlimit="10"/>
</g>
<g style="mix-blend-mode:multiply">
<path d="M291.953 1091.07C302.76 1051.49 319.131 1013.64 340.577 978.665C349.772 962.957 360.656 948.301 373.036 934.958C398.261 908.659 430.312 891.8 463.447 880.476C472.682 877.337 481.946 874.558 491.237 872.14C530.836 862.108 571.542 857.108 612.391 857.257C652.837 857.278 693.514 862.885 735.733 864.999C783.388 867.387 831.951 871.559 879.291 865.193C919.472 859.695 959.848 844.584 987.917 815.981C993.06 810.754 997.743 805.093 1001.91 799.062C1027.83 761.634 1031.06 714.499 1028.3 668.048C1027.43 653.403 1025.99 638.82 1024.48 624.565C1020.55 587.262 1017.27 548.891 1017.63 511.664C1018.34 451.231 1032.77 396.079 1063.94 346.391C1076.82 325.844 1093.83 305 1115.78 290.881C1147.09 270.742 1180.9 262.044 1209.55 247.618C1211.81 246.482 1214.05 245.291 1216.27 244.081C1249.83 225.664 1276.38 198.647 1292.73 164.365C1310.14 127.896 1315.22 81.7548 1297.08 40.0846" stroke="url(#paint16_linear)" stroke-width="2.1261" stroke-miterlimit="10"/>
</g>
<g style="mix-blend-mode:multiply">
<path d="M304.35 1102.89C314.849 1064.2 331.058 1027.3 352.444 993.394C361.652 978.225 372.375 964.031 384.45 951.028C409.045 925.338 439.769 907.797 471.755 895.418C480.674 891.987 489.652 888.898 498.689 886.152C537.163 874.644 576.945 868.076 617.077 866.606C656.77 865.024 696.886 868.769 738.104 870.382C786.847 872.314 836.353 876.972 884.767 870.723C925.861 865.36 967.302 850.223 996.097 821.176C1001.38 815.868 1006.2 810.113 1010.5 803.976C1037.16 765.846 1040.42 717.738 1037.79 670.231C1036.96 655.269 1035.55 640.371 1034.16 625.68C1030.43 587.574 1027.66 548.249 1028.78 510.061C1030.76 448.037 1046.6 391.239 1080.67 341.349C1093.99 321.899 1110.93 302.517 1131.93 288.626C1161.93 268.851 1193.92 258.234 1220.8 242.057C1222.93 240.823 1225 239.48 1227.08 238.107C1258.2 218.049 1282.13 188.619 1295.42 154.069C1309.63 117.144 1311.55 72.383 1292.44 32.7714" stroke="url(#paint17_linear)" stroke-width="2.1261" stroke-miterlimit="10"/>
</g>
<g style="mix-blend-mode:multiply">
<path d="M316.737 1114.69C326.938 1076.91 342.994 1040.95 364.322 1008.14C373.569 993.453 384.196 979.68 396.058 967.01C420.031 941.901 449.378 923.632 480.257 910.272C488.861 906.507 497.583 903.116 506.319 900.135C543.624 887.194 582.429 879.071 621.792 875.963C660.702 872.77 700.212 874.656 740.507 875.819C790.418 877.224 840.795 882.411 890.285 876.326C932.237 871.131 974.77 855.928 1004.37 826.538C1009.82 821.156 1014.78 815.31 1019.2 809.064C1046.62 770.231 1049.87 721.172 1047.32 672.536C1046.52 657.257 1045.16 642.013 1043.83 627.119C1040.3 588.182 1038.03 547.883 1039.94 508.753C1043.13 445.142 1060.22 386.563 1097.38 336.612C1111.41 317.317 1128.54 300.471 1148.06 286.753C1176.66 267.242 1206.94 254.842 1232.01 236.906C1234 235.498 1235.96 234.047 1237.9 232.552C1266.82 210.219 1287.91 179.279 1298.12 144.191C1309.1 106.792 1307.93 63.38 1287.8 25.8773" stroke="url(#paint18_linear)" stroke-width="2.1261" stroke-miterlimit="10"/>
</g>
<g style="mix-blend-mode:multiply">
<path d="M329.123 1126.49C339.028 1089.61 354.932 1054.61 376.199 1022.89C385.474 1008.72 395.973 995.384 407.575 983.045C430.918 958.545 458.937 939.594 488.638 925.171C496.948 921.11 505.384 917.394 513.884 913.959C550.039 899.646 587.878 890.018 626.478 885.312C664.645 880.535 703.545 880.514 742.899 881.238C793.829 882.154 845.196 887.824 895.782 881.892C938.607 876.807 982.263 861.594 1012.62 831.815C1018.19 826.358 1023.26 820.428 1027.8 814.092C1055.98 774.575 1059.24 724.524 1056.84 674.917C1056.11 659.311 1054.78 643.75 1053.52 628.547C1050.18 588.742 1048.45 547.486 1051.11 507.435C1055.55 442.215 1073.89 381.619 1114.21 331.83C1128.65 313.866 1145.5 297.982 1164.29 284.626C1191.54 265.454 1220.06 251.197 1243.4 231.584C1245.25 230.025 1247.05 228.422 1248.84 226.8C1275.56 202.196 1293.79 169.754 1300.9 134.137C1308.7 96.2723 1304.29 54.2823 1283.26 18.7958" stroke="url(#paint19_linear)" stroke-width="2.1261" stroke-miterlimit="10"/>
</g>
<g style="mix-blend-mode:multiply">
<path d="M341.539 1138.3C351.125 1102.31 366.866 1068.24 388.065 1037.62C397.371 1023.97 407.742 1011.08 419.08 999.062C441.826 975.444 468.13 955.536 497.038 940.06C505.054 935.702 513.184 931.671 521.417 927.9C556.424 912.165 593.308 900.994 631.163 894.661C668.577 888.281 706.878 886.372 745.31 886.647C797.376 886.98 849.619 893.274 901.278 887.458C945.075 882.524 989.691 867.273 1020.86 837.103C1026.58 831.563 1031.81 825.525 1036.46 819.058C1065.4 778.858 1068.7 727.852 1066.42 677.171C1065.7 661.26 1064.43 645.371 1063.27 629.886C1060.18 589.275 1058.87 547.042 1062.35 506.027C1067.99 439.258 1087.44 376.471 1130.87 327.067C1145.69 310.444 1162.29 295.501 1180.37 282.508C1206.3 263.635 1233.01 247.524 1254.54 226.086C1256.24 224.393 1257.91 222.664 1259.55 220.908C1284.09 194.052 1299.5 160.122 1303.58 123.974C1308.17 85.6549 1300.61 45.016 1278.61 11.5882" stroke="url(#paint20_linear)" stroke-width="2.1261" stroke-miterlimit="10"/>
</g>
<g style="mix-blend-mode:multiply">
<path d="M353.882 1150.03C375.098 1068.35 433.193 998.672 505.448 954.967C577.703 911.262 663.26 892.382 747.691 892.048C800.773 891.843 854 898.65 906.775 893.025C959.551 887.399 1013.92 867.01 1045.1 824.065C1084.13 770.323 1077.55 697.43 1072.97 631.209C1065.35 522.192 1072.11 401.062 1147.63 322.155C1185.26 282.853 1236.82 257.993 1270.42 215.198C1317 155.85 1318.54 65.3529 1273.97 4.47551" stroke="url(#paint21_linear)" stroke-width="2.1261" stroke-miterlimit="10"/>
</g>
</g>
<defs>
<linearGradient id="paint0_linear" x1="895.976" y1="343.656" x2="151.489" y2="923.771" gradientUnits="userSpaceOnUse">
<stop stop-color="#B62E47"/>
<stop offset="0.28125" stop-color="#933768"/>
<stop offset="0.536458" stop-color="#504499"/>
<stop offset="0.703125" stop-color="#1461C8"/>
<stop offset="1" stop-color="white"/>
</linearGradient>
<linearGradient id="paint1_linear" x1="906.001" y1="358.253" x2="166.53" y2="938.729" gradientUnits="userSpaceOnUse">
<stop stop-color="#B62E47"/>
<stop offset="0.28125" stop-color="#933768"/>
<stop offset="0.536458" stop-color="#504499"/>
<stop offset="0.703125" stop-color="#1461C8"/>
<stop offset="1" stop-color="white"/>
</linearGradient>
<linearGradient id="paint2_linear" x1="916.076" y1="372.794" x2="181.826" y2="953.661" gradientUnits="userSpaceOnUse">
<stop stop-color="#B62E47"/>
<stop offset="0.28125" stop-color="#933768"/>
<stop offset="0.536458" stop-color="#504499"/>
<stop offset="0.703125" stop-color="#1461C8"/>
<stop offset="1" stop-color="white"/>
</linearGradient>
<linearGradient id="paint3_linear" x1="922.478" y1="381.184" x2="191.229" y2="960.275" gradientUnits="userSpaceOnUse">
<stop stop-color="#B62E47"/>
<stop offset="0.28125" stop-color="#933768"/>
<stop offset="0.536458" stop-color="#504499"/>
<stop offset="0.703125" stop-color="#1461C8"/>
<stop offset="1" stop-color="white"/>
</linearGradient>
<linearGradient id="paint4_linear" x1="926.94" y1="386.286" x2="197.472" y2="962.432" gradientUnits="userSpaceOnUse">
<stop stop-color="#B62E47"/>
<stop offset="0.28125" stop-color="#933768"/>
<stop offset="0.536458" stop-color="#504499"/>
<stop offset="0.703125" stop-color="#1461C8"/>
<stop offset="1" stop-color="white"/>
</linearGradient>
<linearGradient id="paint5_linear" x1="931.525" y1="391.32" x2="203.751" y2="964.62" gradientUnits="userSpaceOnUse">
<stop stop-color="#B62E47"/>
<stop offset="0.28125" stop-color="#933768"/>
<stop offset="0.536458" stop-color="#504499"/>
<stop offset="0.703125" stop-color="#1461C8"/>
<stop offset="1" stop-color="white"/>
</linearGradient>
<linearGradient id="paint6_linear" x1="936.003" y1="396.448" x2="210.035" y2="966.819" gradientUnits="userSpaceOnUse">
<stop stop-color="#B62E47"/>
<stop offset="0.28125" stop-color="#933768"/>
<stop offset="0.536458" stop-color="#504499"/>
<stop offset="0.703125" stop-color="#1461C8"/>
<stop offset="1" stop-color="white"/>
</linearGradient>
<linearGradient id="paint7_linear" x1="940.512" y1="401.518" x2="216.313" y2="968.996" gradientUnits="userSpaceOnUse">
<stop stop-color="#B62E47"/>
<stop offset="0.28125" stop-color="#933768"/>
<stop offset="0.536458" stop-color="#504499"/>
<stop offset="0.703125" stop-color="#1461C8"/>
<stop offset="1" stop-color="white"/>
</linearGradient>
<linearGradient id="paint8_linear" x1="941.62" y1="400.61" x2="217.289" y2="963.232" gradientUnits="userSpaceOnUse">
<stop stop-color="#B62E47"/>
<stop offset="0.28125" stop-color="#933768"/>
<stop offset="0.536458" stop-color="#504499"/>
<stop offset="0.703125" stop-color="#1461C8"/>
<stop offset="1" stop-color="white"/>
</linearGradient>
<linearGradient id="paint9_linear" x1="939.902" y1="395.079" x2="214.171" y2="951.664" gradientUnits="userSpaceOnUse">
<stop stop-color="#B62E47"/>
<stop offset="0.28125" stop-color="#933768"/>
<stop offset="0.536458" stop-color="#504499"/>
<stop offset="0.703125" stop-color="#1461C8"/>
<stop offset="1" stop-color="white"/>
</linearGradient>
<linearGradient id="paint10_linear" x1="938.285" y1="389.539" x2="211.554" y2="940.379" gradientUnits="userSpaceOnUse">
<stop stop-color="#B62E47"/>
<stop offset="0.28125" stop-color="#933768"/>
<stop offset="0.536458" stop-color="#504499"/>
<stop offset="0.703125" stop-color="#1461C8"/>
<stop offset="1" stop-color="white"/>
</linearGradient>
<linearGradient id="paint11_linear" x1="936.764" y1="384.081" x2="209.376" y2="929.507" gradientUnits="userSpaceOnUse">
<stop stop-color="#B62E47"/>
<stop offset="0.28125" stop-color="#933768"/>
<stop offset="0.536458" stop-color="#504499"/>
<stop offset="0.703125" stop-color="#1461C8"/>
<stop offset="1" stop-color="white"/>
</linearGradient>
<linearGradient id="paint12_linear" x1="935.123" y1="378.542" x2="207.337" y2="918.757" gradientUnits="userSpaceOnUse">
<stop stop-color="#B62E47"/>
<stop offset="0.28125" stop-color="#933768"/>
<stop offset="0.536458" stop-color="#504499"/>
<stop offset="0.703125" stop-color="#1461C8"/>
<stop offset="1" stop-color="white"/>
</linearGradient>
<linearGradient id="paint13_linear" x1="933.476" y1="373.06" x2="205.702" y2="908.187" gradientUnits="userSpaceOnUse">
<stop stop-color="#B62E47"/>
<stop offset="0.28125" stop-color="#933768"/>
<stop offset="0.536458" stop-color="#504499"/>
<stop offset="0.703125" stop-color="#1461C8"/>
<stop offset="1" stop-color="white"/>
</linearGradient>
<linearGradient id="paint14_linear" x1="932.026" y1="367.501" x2="204.283" y2="897.926" gradientUnits="userSpaceOnUse">
<stop stop-color="#B62E47"/>
<stop offset="0.28125" stop-color="#933768"/>
<stop offset="0.536458" stop-color="#504499"/>
<stop offset="0.703125" stop-color="#1461C8"/>
<stop offset="1" stop-color="white"/>
</linearGradient>
<linearGradient id="paint15_linear" x1="930.356" y1="362.009" x2="203.005" y2="887.766" gradientUnits="userSpaceOnUse">
<stop stop-color="#B62E47"/>
<stop offset="0.28125" stop-color="#933768"/>
<stop offset="0.536458" stop-color="#504499"/>
<stop offset="0.703125" stop-color="#1461C8"/>
<stop offset="1" stop-color="white"/>
</linearGradient>
<linearGradient id="paint16_linear" x1="928.794" y1="356.522" x2="201.991" y2="877.848" gradientUnits="userSpaceOnUse">
<stop stop-color="#B62E47"/>
<stop offset="0.28125" stop-color="#933768"/>
<stop offset="0.536458" stop-color="#504499"/>
<stop offset="0.703125" stop-color="#1461C8"/>
<stop offset="1" stop-color="white"/>
</linearGradient>
<linearGradient id="paint17_linear" x1="927.162" y1="350.872" x2="201.023" y2="867.925" gradientUnits="userSpaceOnUse">
<stop stop-color="#B62E47"/>
<stop offset="0.28125" stop-color="#933768"/>
<stop offset="0.536458" stop-color="#504499"/>
<stop offset="0.703125" stop-color="#1461C8"/>
<stop offset="1" stop-color="white"/>
</linearGradient>
<linearGradient id="paint18_linear" x1="925.569" y1="345.568" x2="200.373" y2="858.434" gradientUnits="userSpaceOnUse">
<stop stop-color="#B62E47"/>
<stop offset="0.28125" stop-color="#933768"/>
<stop offset="0.536458" stop-color="#504499"/>
<stop offset="0.703125" stop-color="#1461C8"/>
<stop offset="1" stop-color="white"/>
</linearGradient>
<linearGradient id="paint19_linear" x1="924.042" y1="340.115" x2="199.822" y2="849.003" gradientUnits="userSpaceOnUse">
<stop stop-color="#B62E47"/>
<stop offset="0.28125" stop-color="#933768"/>
<stop offset="0.536458" stop-color="#504499"/>
<stop offset="0.703125" stop-color="#1461C8"/>
<stop offset="1" stop-color="white"/>
</linearGradient>
<linearGradient id="paint20_linear" x1="922.564" y1="334.474" x2="199.342" y2="839.559" gradientUnits="userSpaceOnUse">
<stop stop-color="#B62E47"/>
<stop offset="0.28125" stop-color="#933768"/>
<stop offset="0.536458" stop-color="#504499"/>
<stop offset="0.703125" stop-color="#1461C8"/>
<stop offset="1" stop-color="white"/>
</linearGradient>
<linearGradient id="paint21_linear" x1="921.331" y1="328.774" x2="199.031" y2="830.341" gradientUnits="userSpaceOnUse">
<stop stop-color="#B62E47"/>
<stop offset="0.28125" stop-color="#933768"/>
<stop offset="0.536458" stop-color="#504499"/>
<stop offset="0.703125" stop-color="#1461C8"/>
<stop offset="1" stop-color="white"/>
</linearGradient>
</defs>
</svg>
