<svg width="96" height="80" viewBox="0 0 96 80" fill="none" xmlns="http://www.w3.org/2000/svg">
<g opacity="0.26">
<path d="M30.5117 36.081C28.1637 35.405 25.8157 35.062 23.5317 35.062C20.0047 35.062 17.0617 35.868 14.7797 36.855C16.9797 28.801 22.2647 14.904 32.7927 13.339C33.7677 13.194 34.5667 12.489 34.8327 11.54L37.1337 3.31C37.3277 2.614 37.2127 1.869 36.8157 1.265C36.4187 0.661 35.7807 0.258 35.0657 0.16C34.2887 0.0539998 33.4967 0 32.7117 0C20.0747 0 7.55972 13.19 2.27872 32.076C-0.821281 43.156 -1.73028 59.814 5.90572 70.299C10.1787 76.166 16.4127 79.299 24.4347 79.612C24.4677 79.613 24.4997 79.614 24.5327 79.614C34.4307 79.614 43.2077 72.948 45.8777 63.405C47.4727 57.7 46.7517 51.717 43.8457 46.554C40.9707 41.449 36.2357 37.728 30.5117 36.081Z" fill="url(#paint0_linear)"/>
<path d="M92.4707 46.555C89.5957 41.449 84.8607 37.728 79.1367 36.081C76.7887 35.405 74.4407 35.062 72.1577 35.062C68.6307 35.062 65.6867 35.868 63.4047 36.855C65.6047 28.801 70.8897 14.904 81.4187 13.339C82.3937 13.194 83.1917 12.489 83.4587 11.54L85.7597 3.31C85.9537 2.614 85.8387 1.869 85.4417 1.265C85.0457 0.661 84.4077 0.258 83.6917 0.16C82.9157 0.0539998 82.1237 0 81.3377 0C68.7007 0 56.1857 13.19 50.9037 32.076C47.8047 43.156 46.8957 59.814 54.5327 70.301C58.8047 76.167 65.0397 79.301 73.0607 79.613C73.0937 79.614 73.1257 79.615 73.1597 79.615C83.0567 79.615 91.8347 72.949 94.5047 63.406C96.0977 57.701 95.3757 51.717 92.4707 46.555Z" fill="url(#paint1_linear)"/>
</g>
<defs>
<linearGradient id="paint0_linear" x1="13.3449" y1="14.9276" x2="33.6409" y2="75.516" gradientUnits="userSpaceOnUse">
<stop stop-color="#BD2C40"/>
<stop offset="0.257892" stop-color="#933767"/>
<stop offset="0.520469" stop-color="#584292"/>
<stop offset="0.779347" stop-color="#1F4FC1"/>
<stop offset="1" stop-color="#047AD1"/>
</linearGradient>
<linearGradient id="paint1_linear" x1="61.9705" y1="14.9278" x2="82.2673" y2="75.5166" gradientUnits="userSpaceOnUse">
<stop stop-color="#BD2C40"/>
<stop offset="0.257892" stop-color="#933767"/>
<stop offset="0.520469" stop-color="#584292"/>
<stop offset="0.779347" stop-color="#1F4FC1"/>
<stop offset="1" stop-color="#047AD1"/>
</linearGradient>
</defs>
</svg>
