<svg width="737" height="965" viewBox="0 0 737 965" fill="none" xmlns="http://www.w3.org/2000/svg">
<g opacity="0.07">
<g style="mix-blend-mode:multiply">
<path d="M735 189.227C724.641 233.559 711.642 277.232 696.073 320.013C689.216 339.023 681.468 358.272 668.115 373.459C633.953 412.284 574.182 413.484 523.17 405.05C476.124 397.272 430.172 383.923 386.281 365.283C342.846 346.839 300.833 323.03 254.295 315.214C207.757 307.397 153.625 320.013 128.548 359.935C113.635 383.727 111.252 413.827 117.08 441.304C122.908 468.781 136.278 494.047 151.105 517.89C168.092 545.179 187.804 572.828 190.358 604.864C192.998 638.049 174.674 671.989 145.466 687.964C103.933 710.693 53.0925 696.432 6.50297 687.964C-52.6681 677.183 -116.142 677.268 -170.205 703.648C-224.268 730.029 -266.058 787.331 -260.504 847.222" stroke="url(#paint0_linear)" stroke-width="2.13" stroke-miterlimit="10"/>
</g>
<g style="mix-blend-mode:multiply">
<path d="M724.51 180.262C714.427 223.599 701.655 266.265 686.268 308.014C679.411 326.561 671.852 345.313 658.842 360.192C625.571 398.211 567.737 400.302 518.131 393.068C506.349 391.354 494.636 389.275 482.991 386.829C449.422 379.811 416.537 369.841 384.721 357.038C342.28 339.897 301.141 317.613 255.649 310.465C210.156 303.318 158.87 316.379 132.37 353.558C122.506 366.994 115.792 382.478 112.726 398.862C110.776 410.096 110.384 421.546 111.561 432.887C112.067 438.157 112.874 443.394 113.978 448.571C118.537 469.552 128.239 490.104 138.849 509.611C139.895 511.548 140.958 513.468 142.021 515.405C158.613 545.35 176.131 575.981 177.091 609.492C178.017 641.752 160.996 674.628 132.524 690.312C92.0542 712.716 42.7049 699.894 -2.35903 692.729C-5.90724 692.164 -9.4726 691.632 -13.0551 691.169C-67.1524 683.936 -123.718 686.884 -171.987 711.842C-223.411 738.445 -262.75 794.513 -256.527 852.707" stroke="url(#paint1_linear)" stroke-width="2.13" stroke-miterlimit="10"/>
</g>
<g style="mix-blend-mode:multiply">
<path d="M714.002 171.297C704.195 213.639 691.65 255.299 676.446 296.016C669.709 314.099 662.219 332.389 649.534 346.942C617.224 384.138 561.241 387.103 513.057 381.07C501.63 379.63 490.236 377.842 478.878 375.705C446.218 369.561 414.165 360.544 383.093 348.759C341.646 333.04 301.381 312.248 256.969 305.717C212.556 299.187 163.79 312.762 136.21 347.165C125.068 361.049 115.983 374.745 111.132 390.532C107.764 401.532 106.031 412.967 105.99 424.471C105.959 429.944 106.292 435.412 106.984 440.841C109.864 463.021 119.497 485.408 129.902 506.645C130.947 508.754 131.976 510.845 133.021 512.936C149.22 545.504 164.595 579.05 163.875 614.069C163.276 645.351 147.369 677.114 119.686 692.644C80.2612 714.721 32.4546 703.305 -11.1009 697.495C-14.5291 697.032 -17.9574 696.603 -21.3856 696.226C-73.6317 690.57 -127.763 694.855 -173.581 720.035C-222.451 746.878 -259.287 801.695 -252.431 858.192" stroke="url(#paint2_linear)" stroke-width="2.13" stroke-miterlimit="10"/>
</g>
<g style="mix-blend-mode:multiply">
<path d="M703.512 162.315C693.962 203.662 681.644 244.321 666.641 284.017C659.973 301.638 652.586 319.43 640.244 333.726C608.653 370.065 554.761 373.922 507.983 369.071C496.876 367.928 485.808 366.437 474.781 364.597C443.041 359.353 411.826 351.316 381.499 340.582C341.046 326.235 301.656 306.952 258.289 301.055C214.922 295.159 168.435 309.129 140.015 340.874C127.639 354.69 116.326 366.963 109.521 382.27C104.694 392.959 101.587 404.344 100.316 416.003C99.7038 421.695 99.5376 427.426 99.8191 433.144C101.019 456.525 110.584 480.848 120.8 503.731C121.811 505.994 122.822 508.257 123.851 510.588C139.655 545.881 152.991 582.118 150.574 618.903C148.62 649.139 133.639 679.908 106.727 695.198C68.4166 716.967 22.067 706.974 -19.9801 702.483C-23.3055 702.14 -26.6309 701.814 -29.9562 701.54C-80.3339 697.443 -132.049 703.065 -175.433 728.469C-221.714 755.551 -255.996 809.032 -248.454 863.883" stroke="url(#paint3_linear)" stroke-width="2.13" stroke-miterlimit="10"/>
</g>
<g style="mix-blend-mode:multiply">
<path d="M693.021 153.385C683.729 193.723 671.632 233.364 656.819 272.018C650.254 289.159 642.935 306.437 630.936 320.39C600.305 356.01 548.282 360.741 502.926 357.089C492.139 356.232 481.397 355.038 470.701 353.507C439.855 349.095 409.455 341.983 379.853 332.252C340.429 319.259 301.878 301.398 259.591 296.256C217.304 291.113 172.806 305.22 143.855 334.412C130.142 348.125 116.72 359.009 107.858 373.836C101.562 384.266 97.0874 395.691 94.6253 407.621C93.4505 413.459 92.808 419.391 92.7055 425.345C92.2084 449.926 101.722 476.152 111.732 500.766L114.715 508.051C130.193 545.95 141.438 584.843 137.272 623.411C134.136 652.551 119.926 682.393 93.7682 697.46C56.5378 718.904 11.6966 710.333 -28.8421 707.179C-32.0475 706.922 -35.2529 706.717 -38.4583 706.545C-86.9505 703.974 -136.231 710.968 -177.181 736.542C-220.84 763.848 -252.602 816.18 -244.426 869.283" stroke="url(#paint4_linear)" stroke-width="2.13" stroke-miterlimit="10"/>
</g>
<g style="mix-blend-mode:multiply">
<path d="M682.531 144.42C673.499 183.762 661.623 222.397 646.998 260.019C640.518 276.715 633.285 293.53 621.663 307.157C591.889 341.937 541.803 347.559 497.853 345.108C487.408 344.525 476.992 343.622 466.605 342.399C436.685 338.865 407.134 332.705 378.294 323.99C339.829 312.368 302.187 296.084 260.946 291.422C219.704 286.759 176.954 301.227 147.677 327.984C132.627 341.697 117.097 351.09 106.333 365.471C98.6327 375.578 92.8254 386.995 89.1917 399.171C87.438 405.166 86.2895 411.322 85.7634 417.546C83.5865 443.258 93.0313 471.438 102.905 497.681C103.864 500.286 104.841 502.823 105.801 505.48C120.851 546.087 130.142 587.586 124.177 627.987C120.029 656.082 106.436 684.947 81.0325 699.792C44.7105 720.961 1.39491 713.813 -37.5668 711.979C-40.6351 711.842 -43.7205 711.739 -46.8059 711.67C-93.464 710.71 -140.328 718.99 -178.792 744.838C-219.845 772.384 -249.225 823.465 -240.26 874.871" stroke="url(#paint5_linear)" stroke-width="2.13" stroke-miterlimit="10"/>
</g>
<g style="mix-blend-mode:multiply">
<path d="M672.075 135.455C663.299 173.802 651.639 211.431 637.193 248.021C630.782 264.27 623.686 280.589 612.373 293.907C583.473 327.915 535.323 334.412 492.796 333.16C482.683 332.863 472.587 332.258 462.508 331.344C433.499 328.678 404.78 323.47 376.682 315.779C339.212 305.495 302.444 290.753 262.283 286.777C222.121 282.8 180.897 297.198 151.5 321.727C134.993 335.44 117.457 343.274 104.704 357.175C95.561 366.928 88.3745 378.344 83.5351 390.806C81.1942 396.953 79.5386 403.34 78.5985 409.85C74.7417 436.83 84.135 466.844 93.7341 494.853C94.694 497.618 95.6424 500.383 96.5795 503.149C111.235 546.413 118.674 590.466 110.772 632.77C105.733 659.767 92.6199 687.621 67.9196 702.294C32.8488 723.104 -9.00973 717.361 -46.5316 716.881C-49.4799 716.881 -52.4453 716.881 -55.4107 716.881C-100.218 717.498 -144.647 727.166 -180.712 753.169C-219.177 780.955 -246.071 830.784 -236.438 880.493" stroke="url(#paint6_linear)" stroke-width="2.13" stroke-miterlimit="10"/>
</g>
<g style="mix-blend-mode:multiply">
<path d="M661.533 126.49C653.043 163.842 641.62 200.466 627.371 236.022C621.063 251.809 614.052 267.63 603.065 280.589C575.056 313.791 528.844 321.162 487.722 321.11C477.952 321.11 468.187 320.796 458.428 320.167C430.328 318.389 402.44 314.133 375.088 307.449C338.612 298.57 302.718 285.302 263.671 281.96C224.624 278.617 180.262 288.131 155.322 315.265C135.181 325.533 117.834 335.44 103.144 348.844C92.5806 358.223 84.0114 369.631 77.9471 382.39C75.0249 388.686 72.867 395.31 71.5192 402.119C65.9826 430.282 75.3073 462.113 84.7178 491.784C85.6549 494.721 86.5805 497.658 87.4947 500.595C101.756 546.516 107.447 593.157 97.5051 637.312C91.6771 663.23 78.9927 690.261 54.9951 704.591C20.9872 725.075 -19.363 720.755 -55.3765 721.612C-58.2219 721.612 -61.0502 721.783 -63.947 721.921C-106.885 724.098 -148.915 735.034 -182.529 761.345C-218.371 789.371 -242.797 837.949 -232.478 885.961" stroke="url(#paint7_linear)" stroke-width="2.13" stroke-miterlimit="10"/>
</g>
<g style="mix-blend-mode:multiply">
<path d="M651.043 117.525C642.811 153.881 631.608 189.5 617.549 224.023C611.327 239.33 604.419 254.688 593.774 267.39C566.64 299.735 522.365 308.014 482.666 309.146C473.227 309.42 463.782 309.42 454.332 309.146C427.143 308.233 400.088 304.935 373.477 299.289C337.995 291.696 302.976 279.937 264.939 277.16C226.903 274.383 184.068 283.588 159.162 308.888C137.392 318.59 118.194 327.538 101.55 340.582C89.6043 349.589 79.6778 360.999 72.4105 374.076C68.9144 380.505 66.2531 387.354 64.4913 394.457C57.2749 423.82 66.5483 457.622 75.753 488.904C76.6672 491.99 77.57 495.092 78.4613 498.212C92.3285 546.79 96.3738 595.916 84.2893 642.026C77.7414 666.778 65.2798 692.815 42.1393 706.974C9.21126 727.131 -29.6305 724.235 -64.1355 726.412C-66.861 726.583 -69.5693 726.806 -72.2947 727.046C-113.433 730.8 -152.978 743.056 -184.158 769.59C-217.394 797.821 -239.335 845.165 -228.347 891.48" stroke="url(#paint8_linear)" stroke-width="2.13" stroke-miterlimit="10"/>
</g>
<g style="mix-blend-mode:multiply">
<path d="M640.553 108.56C632.587 143.921 621.611 178.535 607.745 212.024C601.608 226.868 594.769 241.73 584.484 254.123C558.224 285.731 515.885 294.816 477.592 297.147C468.45 297.718 459.308 297.993 450.166 297.97C423.888 297.937 397.664 295.591 371.797 290.959C337.309 284.805 303.233 274.538 266.174 272.481C229.115 270.424 187.873 279.046 162.984 302.512C139.604 311.665 118.572 319.653 99.9564 332.166C86.6116 340.781 75.2858 352.177 66.754 365.574C62.6877 372.135 59.5279 379.215 57.3607 386.623C48.4645 417.186 57.6693 452.874 66.6855 485.836C67.5768 489.093 68.4567 492.361 69.3252 495.641C82.7981 546.893 85.335 598.488 71.0393 646.586C63.8915 670.343 51.567 695.403 29.2836 709.339C-2.63317 729.189 -39.9665 727.714 -72.9631 731.228C-75.5686 731.503 -78.1055 731.811 -80.7623 732.171C-119.981 737.485 -157.16 751.026 -185.906 777.835C-216.537 806.306 -235.992 852.399 -224.319 897.017" stroke="url(#paint9_linear)" stroke-width="2.13" stroke-miterlimit="10"/>
</g>
<g style="mix-blend-mode:multiply">
<path d="M630.062 99.5957C622.36 133.962 611.604 167.572 597.923 200.025C591.872 214.424 585.135 228.805 575.193 240.873C549.808 271.727 509.406 281.703 472.518 285.234C463.765 286.08 454.977 286.651 446.155 286.948C420.787 287.777 395.395 286.378 370.272 282.766C336.795 277.915 303.541 269.156 267.545 267.733C231.549 266.31 191.61 274.589 166.755 296.119C141.763 304.689 118.897 311.803 98.2936 323.819C84.2551 332.012 70.885 342.965 61.166 357.158C56.5342 363.849 52.8699 371.161 50.2814 378.876C39.7053 410.638 48.8415 448.229 57.652 482.871C58.5262 486.299 59.3662 489.727 60.2404 493.156C73.3362 547.064 74.4503 601.265 57.7206 651.197C50.11 673.926 37.8541 698.026 16.3077 711.722C-14.5463 731.228 -50.3026 731.177 -81.7908 736.045C-84.2763 736.422 -86.7618 736.834 -89.2301 737.296C-126.598 744.153 -161.343 759.1 -187.637 786.08C-215.68 814.791 -232.65 859.632 -220.205 902.639" stroke="url(#paint10_linear)" stroke-width="2.13" stroke-miterlimit="10"/>
</g>
<g style="mix-blend-mode:multiply">
<path d="M619.555 90.6309C612.119 124.005 601.583 156.612 588.084 188.027C582.118 201.962 575.485 215.847 565.886 227.623C541.374 257.62 502.909 268.521 467.444 273.252C459.011 274.395 450.543 275.258 442.041 275.841C417.593 277.512 393.045 277.048 368.677 274.452C336.109 271.024 303.781 263.773 268.933 262.985C234.085 262.196 195.552 269.961 170.629 289.742C144.026 297.781 119.309 303.935 96.7509 315.454C81.3239 323.321 66.4968 334.309 55.6122 348.707C50.4187 355.527 46.2493 363.069 43.2363 371.094C30.9976 404.107 40.031 443.566 48.6358 479.888C49.4929 483.488 50.327 487.093 51.1384 490.704C63.8571 547.27 63.72 604.093 44.4534 655.859C36.3799 677.525 24.244 700.631 3.31471 714.139C-26.3908 733.337 -60.7416 734.708 -90.7214 740.896C-93.0697 741.393 -95.4352 741.907 -97.7836 742.473C-133.283 750.923 -165.611 767.173 -189.471 794.376C-214.909 823.327 -229.393 866.917 -216.366 908.142" stroke="url(#paint11_linear)" stroke-width="2.13" stroke-miterlimit="10"/>
</g>
<g style="mix-blend-mode:multiply">
<path d="M609.064 81.7517C601.872 114.106 591.538 145.681 578.21 176.028C572.348 189.501 565.8 202.888 556.527 214.355C532.906 243.495 496.379 255.34 462.251 261.253C454.16 262.682 446.024 263.825 437.842 264.682C414.294 267.254 390.566 267.765 366.929 266.207C335.441 264.133 303.901 258.408 270.116 258.254C236.331 258.099 199.272 265.402 174.452 283.365C146.255 290.873 119.686 296.016 95.1569 307.14C78.3757 314.699 62.126 325.533 49.9901 340.325C44.2408 347.27 39.5716 355.043 36.14 363.38C22.2043 397.559 31.2205 438.921 39.5683 476.923C40.4025 480.671 41.2138 484.442 42.0023 488.236C54.3268 547.458 53.0926 606.972 31.1348 660.487C22.65 681.142 10.5655 703.237 -9.5753 716.47C-38.201 735.325 -71.0433 738.136 -99.5147 745.61C-101.76 746.21 -103.989 746.827 -106.217 747.495C-139.865 757.506 -169.759 775.109 -191.185 802.518C-214.017 831.658 -226.016 874.048 -212.303 913.575" stroke="url(#paint12_linear)" stroke-width="2.13" stroke-miterlimit="10"/>
</g>
<g style="mix-blend-mode:multiply">
<path d="M598.574 72.7012C591.667 104.087 581.582 134.687 568.474 164.029C562.68 177.022 556.235 189.946 547.305 201.088C524.559 229.474 489.968 242.227 457.331 249.272C449.561 250.963 441.744 252.414 433.882 253.626C411.25 257.075 388.359 258.537 365.472 257.997C334.961 257.294 304.312 253.06 271.59 253.557C238.868 254.054 205.494 265.556 178.291 277.057C150.111 289.056 120.011 288.268 93.5626 298.878C75.4273 306.112 57.7377 316.876 44.4019 331.978C38.064 339.04 32.8598 347.043 28.9749 355.701C13.3594 391.08 22.3242 434.327 30.5347 473.975C31.3347 477.906 32.1231 481.848 32.9002 485.802C44.899 547.698 42.6535 609.972 17.8503 665.149C9.07407 684.81 -3.11325 705.842 -22.4313 718.852C-49.9942 737.399 -81.3281 741.684 -108.291 750.478C-110.417 751.163 -112.525 751.9 -114.633 752.672C-146.413 764.259 -173.89 783.183 -192.882 810.814C-213.109 840.229 -222.639 881.333 -208.309 919.163" stroke="url(#paint13_linear)" stroke-width="2.13" stroke-miterlimit="10"/>
</g>
<g style="mix-blend-mode:multiply">
<path d="M588.084 63.7537C581.43 94.1392 571.564 123.731 558.652 152.03C552.944 164.578 546.653 177.005 538.083 187.838C516.211 215.435 483.557 228.977 452.377 237.29C444.961 239.279 437.476 241.027 429.923 242.535C408.155 246.862 386.05 249.271 363.861 249.735C334.361 250.403 304.57 247.678 272.91 248.826C241.25 249.975 208.854 260.551 182.062 270.664C152.065 282.011 120.354 280.4 91.9 290.548C72.4791 297.387 53.2811 308.1 38.7968 323.441C31.9383 330.633 26.2628 338.865 21.9814 347.833C4.66889 384.464 13.5651 429.613 21.5871 470.975C22.3756 475.055 23.1413 479.163 23.8841 483.299C35.42 547.853 32.4546 613.006 4.65173 669.76C-4.51876 688.496 -16.7918 708.448 -35.3556 721.184C-61.8386 739.456 -91.6641 745.113 -117.119 755.277C-119.124 756.083 -121.113 756.991 -123.101 757.797C-153.029 770.944 -178.072 791.205 -194.614 819.059C-212.252 848.714 -219.297 888.567 -204.213 924.7" stroke="url(#paint14_linear)" stroke-width="2.13" stroke-miterlimit="10"/>
</g>
<g style="mix-blend-mode:multiply">
<path d="M577.593 54.7888C571.205 84.1841 561.558 112.775 548.83 140.032C543.225 152.03 536.969 164.029 528.724 174.588C507.726 201.362 477.009 215.727 447.201 225.309C440.104 227.594 432.939 229.634 425.706 231.428C404.899 236.627 383.677 240 362.284 241.507C333.778 243.53 304.878 242.313 274.281 244.095C243.684 245.878 212.265 255.58 185.97 264.305C154.088 274.778 120.8 272.464 90.3572 282.131C69.5307 288.731 48.9614 299.444 33.2087 315.076C25.7931 322.386 19.6107 330.85 14.902 340.137C-4.09034 377.847 4.75447 424.951 12.5537 468.009C13.3307 472.26 14.0792 476.529 14.7992 480.814C25.958 547.99 22.4269 616.211 -8.6156 674.388C-18.0946 692.198 -30.4534 711.053 -48.263 723.6C-73.6661 741.513 -102 748.541 -125.946 760.094C-127.832 761.002 -129.717 761.945 -131.569 762.922C-159.646 777.646 -182.272 799.227 -196.362 827.304C-211.395 857.198 -215.954 895.869 -200.185 930.236" stroke="url(#paint15_linear)" stroke-width="2.13" stroke-miterlimit="10"/>
</g>
<g style="mix-blend-mode:multiply">
<path d="M567.103 45.7554C560.978 74.1804 551.555 101.793 539.026 128.033C533.721 139.761 527.182 150.892 519.519 161.235C499.395 187.221 470.616 202.528 442.213 213.241C435.459 215.801 428.603 218.138 421.643 220.252C401.737 226.307 381.342 230.626 360.69 233.159C333.264 236.587 305.135 236.844 275.601 239.261C246.067 241.678 215.607 250.454 189.793 257.842C156.128 267.458 121.16 264.613 88.7631 273.732C66.5996 280.074 44.5905 290.65 27.5693 306.66C19.6043 314.087 12.9156 322.773 7.77137 332.372C-12.8494 371.436 -4.07314 420.289 3.57179 465.027C4.326 469.449 5.05165 473.889 5.74872 478.345C16.5133 548.23 12.6052 619.554 -21.8313 679.016C-31.6189 695.952 -44.1148 713.659 -61.153 725.983C-85.562 743.57 -112.354 751.969 -134.774 764.893C-136.488 765.922 -138.305 766.967 -140.036 768.03C-166.245 784.331 -186.455 807.249 -198.11 835.549C-210.538 865.683 -212.612 903.033 -196.174 935.773" stroke="url(#paint16_linear)" stroke-width="2.13" stroke-miterlimit="10"/>
</g>
<g style="mix-blend-mode:multiply">
<path d="M556.595 36.8593C550.718 64.2436 541.508 90.8046 529.17 115.948C523.892 127.23 517.501 137.956 510.092 147.968C490.893 173.148 464.05 189.347 437.07 201.242C430.642 204.088 424.112 206.728 417.53 209.145C398.527 216.077 378.958 221.348 359.044 224.897C332.527 229.662 305.375 231.462 276.904 234.513C248.432 237.564 219.087 245.347 193.581 251.449C158.013 260.019 121.588 256.728 87.169 265.436C63.6514 271.401 40.2023 281.926 22.0328 298.244C13.5171 305.797 6.32186 314.719 0.743496 324.641C-21.5399 364.82 -12.9694 415.643 -5.47873 462.062C-4.73595 466.633 -4.03888 471.238 -3.38752 475.877C6.99999 548.418 2.78329 623.085 -35.1328 683.662C-45.2118 699.74 -57.8105 716.23 -74.0946 728.349C-97.3551 745.627 -122.69 755.517 -143.602 769.71C-145.316 770.841 -146.893 771.99 -148.504 773.138C-172.681 790.646 -190.661 815.391 -199.842 843.794C-209.681 874.134 -209.269 910.25 -192.145 941.293" stroke="url(#paint17_linear)" stroke-width="2.13" stroke-miterlimit="10"/>
</g>
<g style="mix-blend-mode:multiply">
<path d="M546.105 27.8945C540.509 54.2854 531.527 79.8429 519.382 103.932C514.159 114.764 507.951 125.092 500.835 134.786C482.477 159.178 457.571 176.251 431.997 189.347C425.912 192.483 419.707 195.397 413.433 198.123C395.343 205.923 376.612 212.146 357.45 216.721C331.927 222.857 305.65 226.149 278.224 229.851C250.798 233.554 222.584 240.273 197.421 245.158C160.002 252.426 121.897 248.963 85.5749 257.157C60.7032 262.762 35.8143 273.218 16.4449 289.845C7.38313 297.515 -0.318634 306.66 -6.33569 316.894C-30.3332 358.272 -21.7627 410.981 -14.4949 459.079C-13.7921 463.827 -13.1064 468.61 -12.4722 473.409C-2.47894 548.607 -6.74708 626.822 -48.4685 688.29C-58.7532 703.563 -71.5576 718.852 -87.0875 730.731C-109.199 747.684 -133.026 758.98 -152.412 774.527C-153.932 775.738 -155.44 776.989 -156.937 778.281C-179.222 797.512 -194.827 823.32 -201.504 851.988C-208.738 882.567 -205.841 917.432 -188.049 946.778" stroke="url(#paint18_linear)" stroke-width="2.13" stroke-miterlimit="10"/>
</g>
<g style="mix-blend-mode:multiply">
<path d="M535.615 18.9294C530.275 44.3292 521.517 68.8876 509.577 91.9334C504.373 102.243 498.342 112.114 491.545 121.45C474.061 145.019 451.092 162.983 426.94 177.279C421.181 180.707 415.301 183.913 409.353 186.929C392.166 195.61 374.261 202.791 355.839 208.39C331.327 215.881 305.907 220.68 279.561 225.017C253.215 229.354 226.149 234.993 201.243 238.73C162.007 244.592 122.274 241.01 83.9636 248.775C57.7549 254.088 31.4261 264.493 10.8397 281.343C1.23033 289.161 -6.97257 298.564 -13.415 309.146C-39.1267 351.724 -30.5561 406.336 -23.5283 456.113C-22.8255 461.016 -22.1741 465.97 -21.557 470.94C-11.958 548.795 -16.089 630.764 -61.6672 692.918C-72.5539 707.977 -85.423 721.497 -99.9262 733.114C-121.027 749.741 -143.362 762.476 -161.274 779.395C-162.68 780.732 -164.068 782.086 -165.439 783.474C-185.896 804.447 -199.166 831.371 -203.338 860.369C-207.967 891.223 -202.584 924.803 -184.106 952.451" stroke="url(#paint19_linear)" stroke-width="2.13" stroke-miterlimit="10"/>
</g>
<g style="mix-blend-mode:multiply">
<path d="M525.124 9.96484C520.041 34.3766 511.498 57.9376 499.756 79.9349C494.601 89.7554 488.753 99.1955 482.254 108.183C465.645 130.964 444.544 149.785 421.866 165.28C416.45 168.983 410.896 172.497 405.257 175.822C388.985 185.38 371.918 193.513 354.245 200.128C330.391 208.865 305.852 215.602 280.881 220.269C255.735 225.206 229.8 229.765 205.066 232.268C164.064 236.502 122.651 233.091 82.3696 240.393C54.8067 245.381 27.0552 255.717 5.23458 272.961C-4.89024 280.901 -13.5707 290.526 -20.4257 301.415C-47.8514 345.176 -39.2809 401.673 -32.4244 453.131C-31.7559 458.273 -31.1046 463.416 -30.5218 468.558C-21.317 549.121 -25.1395 635.032 -74.8144 697.649C-86.0488 711.618 -98.7615 724.331 -112.731 735.565C-132.751 751.866 -153.578 766.025 -169.982 784.229C-171.267 785.669 -172.536 787.126 -173.787 788.617C-192.387 811.287 -203.342 839.257 -205.087 868.529C-207.109 899.588 -199.242 931.951 -180.078 957.902" stroke="url(#paint20_linear)" stroke-width="2.13" stroke-miterlimit="10"/>
</g>
<g style="mix-blend-mode:multiply">
<path d="M514.617 1C501.144 67.7475 457.451 126.421 401.245 164.715C345.04 203.008 276.87 221.966 208.888 225.943C166.172 228.428 123.011 225.274 80.7753 232.096C38.5396 238.919 -4.33028 257.808 -27.5736 293.667C-56.7135 338.628 -48.143 397.028 -41.5608 450.166C-30.6762 537.585 -30.8304 635.289 -88.2017 702.14C-116.776 735.428 -157.195 757.694 -182.375 793.605C-217.274 843.4 -214.566 916.335 -176.067 963.405" stroke="url(#paint21_linear)" stroke-width="2.13" stroke-miterlimit="10"/>
</g>
</g>
<defs>
<linearGradient id="paint0_linear" x1="-70.4675" y1="629.509" x2="778.789" y2="258.531" gradientUnits="userSpaceOnUse">
<stop stop-color="#B62E47"/>
<stop offset="0.28125" stop-color="#933768"/>
<stop offset="0.536458" stop-color="#504499"/>
<stop offset="0.703125" stop-color="#1461C8"/>
<stop offset="1" stop-color="white"/>
</linearGradient>
<linearGradient id="paint1_linear" x1="-69.3816" y1="630.213" x2="777.143" y2="273.575" gradientUnits="userSpaceOnUse">
<stop stop-color="#B62E47"/>
<stop offset="0.28125" stop-color="#933768"/>
<stop offset="0.536458" stop-color="#504499"/>
<stop offset="0.703125" stop-color="#1461C8"/>
<stop offset="1" stop-color="white"/>
</linearGradient>
<linearGradient id="paint2_linear" x1="-68.2197" y1="630.917" x2="774.705" y2="288.376" gradientUnits="userSpaceOnUse">
<stop stop-color="#B62E47"/>
<stop offset="0.28125" stop-color="#933768"/>
<stop offset="0.536458" stop-color="#504499"/>
<stop offset="0.703125" stop-color="#1461C8"/>
<stop offset="1" stop-color="white"/>
</linearGradient>
<linearGradient id="paint3_linear" x1="-67.1886" y1="631.753" x2="771.574" y2="302.948" gradientUnits="userSpaceOnUse">
<stop stop-color="#B62E47"/>
<stop offset="0.28125" stop-color="#933768"/>
<stop offset="0.536458" stop-color="#504499"/>
<stop offset="0.703125" stop-color="#1461C8"/>
<stop offset="1" stop-color="white"/>
</linearGradient>
<linearGradient id="paint4_linear" x1="-66.1353" y1="632.411" x2="767.637" y2="316.902" gradientUnits="userSpaceOnUse">
<stop stop-color="#B62E47"/>
<stop offset="0.28125" stop-color="#933768"/>
<stop offset="0.536458" stop-color="#504499"/>
<stop offset="0.703125" stop-color="#1461C8"/>
<stop offset="1" stop-color="white"/>
</linearGradient>
<linearGradient id="paint5_linear" x1="-65.0405" y1="633.184" x2="763.118" y2="330.73" gradientUnits="userSpaceOnUse">
<stop stop-color="#B62E47"/>
<stop offset="0.28125" stop-color="#933768"/>
<stop offset="0.536458" stop-color="#504499"/>
<stop offset="0.703125" stop-color="#1461C8"/>
<stop offset="1" stop-color="white"/>
</linearGradient>
<linearGradient id="paint6_linear" x1="-64.2321" y1="633.98" x2="757.981" y2="344.012" gradientUnits="userSpaceOnUse">
<stop stop-color="#B62E47"/>
<stop offset="0.28125" stop-color="#933768"/>
<stop offset="0.536458" stop-color="#504499"/>
<stop offset="0.703125" stop-color="#1461C8"/>
<stop offset="1" stop-color="white"/>
</linearGradient>
<linearGradient id="paint7_linear" x1="-63.3817" y1="634.673" x2="752.172" y2="356.885" gradientUnits="userSpaceOnUse">
<stop stop-color="#B62E47"/>
<stop offset="0.28125" stop-color="#933768"/>
<stop offset="0.536458" stop-color="#504499"/>
<stop offset="0.703125" stop-color="#1461C8"/>
<stop offset="1" stop-color="white"/>
</linearGradient>
<linearGradient id="paint8_linear" x1="-62.4345" y1="635.399" x2="745.901" y2="369.486" gradientUnits="userSpaceOnUse">
<stop stop-color="#B62E47"/>
<stop offset="0.28125" stop-color="#933768"/>
<stop offset="0.536458" stop-color="#504499"/>
<stop offset="0.703125" stop-color="#1461C8"/>
<stop offset="1" stop-color="white"/>
</linearGradient>
<linearGradient id="paint9_linear" x1="-61.6435" y1="636.138" x2="739.124" y2="381.647" gradientUnits="userSpaceOnUse">
<stop stop-color="#B62E47"/>
<stop offset="0.28125" stop-color="#933768"/>
<stop offset="0.536458" stop-color="#504499"/>
<stop offset="0.703125" stop-color="#1461C8"/>
<stop offset="1" stop-color="white"/>
</linearGradient>
<linearGradient id="paint10_linear" x1="-60.9009" y1="636.934" x2="731.901" y2="393.509" gradientUnits="userSpaceOnUse">
<stop stop-color="#B62E47"/>
<stop offset="0.28125" stop-color="#933768"/>
<stop offset="0.536458" stop-color="#504499"/>
<stop offset="0.703125" stop-color="#1461C8"/>
<stop offset="1" stop-color="white"/>
</linearGradient>
<linearGradient id="paint11_linear" x1="-60.3975" y1="637.649" x2="724.204" y2="404.777" gradientUnits="userSpaceOnUse">
<stop stop-color="#B62E47"/>
<stop offset="0.28125" stop-color="#933768"/>
<stop offset="0.536458" stop-color="#504499"/>
<stop offset="0.703125" stop-color="#1461C8"/>
<stop offset="1" stop-color="white"/>
</linearGradient>
<linearGradient id="paint12_linear" x1="-59.8729" y1="638.347" x2="716.112" y2="415.662" gradientUnits="userSpaceOnUse">
<stop stop-color="#B62E47"/>
<stop offset="0.28125" stop-color="#933768"/>
<stop offset="0.536458" stop-color="#504499"/>
<stop offset="0.703125" stop-color="#1461C8"/>
<stop offset="1" stop-color="white"/>
</linearGradient>
<linearGradient id="paint13_linear" x1="-59.5059" y1="639.092" x2="707.7" y2="426.245" gradientUnits="userSpaceOnUse">
<stop stop-color="#B62E47"/>
<stop offset="0.28125" stop-color="#933768"/>
<stop offset="0.536458" stop-color="#504499"/>
<stop offset="0.703125" stop-color="#1461C8"/>
<stop offset="1" stop-color="white"/>
</linearGradient>
<linearGradient id="paint14_linear" x1="-59.3142" y1="639.836" x2="698.933" y2="436.371" gradientUnits="userSpaceOnUse">
<stop stop-color="#B62E47"/>
<stop offset="0.28125" stop-color="#933768"/>
<stop offset="0.536458" stop-color="#504499"/>
<stop offset="0.703125" stop-color="#1461C8"/>
<stop offset="1" stop-color="white"/>
</linearGradient>
<linearGradient id="paint15_linear" x1="-59.3637" y1="640.574" x2="689.866" y2="446.048" gradientUnits="userSpaceOnUse">
<stop stop-color="#B62E47"/>
<stop offset="0.28125" stop-color="#933768"/>
<stop offset="0.536458" stop-color="#504499"/>
<stop offset="0.703125" stop-color="#1461C8"/>
<stop offset="1" stop-color="white"/>
</linearGradient>
<linearGradient id="paint16_linear" x1="-59.6977" y1="641.29" x2="680.534" y2="455.26" gradientUnits="userSpaceOnUse">
<stop stop-color="#B62E47"/>
<stop offset="0.28125" stop-color="#933768"/>
<stop offset="0.536458" stop-color="#504499"/>
<stop offset="0.703125" stop-color="#1461C8"/>
<stop offset="1" stop-color="white"/>
</linearGradient>
<linearGradient id="paint17_linear" x1="-60.389" y1="642.04" x2="670.932" y2="464.011" gradientUnits="userSpaceOnUse">
<stop stop-color="#B62E47"/>
<stop offset="0.28125" stop-color="#933768"/>
<stop offset="0.536458" stop-color="#504499"/>
<stop offset="0.703125" stop-color="#1461C8"/>
<stop offset="1" stop-color="white"/>
</linearGradient>
<linearGradient id="paint18_linear" x1="-61.4647" y1="642.744" x2="661.144" y2="472.244" gradientUnits="userSpaceOnUse">
<stop stop-color="#B62E47"/>
<stop offset="0.28125" stop-color="#933768"/>
<stop offset="0.536458" stop-color="#504499"/>
<stop offset="0.703125" stop-color="#1461C8"/>
<stop offset="1" stop-color="white"/>
</linearGradient>
<linearGradient id="paint19_linear" x1="-63.2469" y1="643.574" x2="651.216" y2="480.018" gradientUnits="userSpaceOnUse">
<stop stop-color="#B62E47"/>
<stop offset="0.28125" stop-color="#933768"/>
<stop offset="0.536458" stop-color="#504499"/>
<stop offset="0.703125" stop-color="#1461C8"/>
<stop offset="1" stop-color="white"/>
</linearGradient>
<linearGradient id="paint20_linear" x1="-65.6488" y1="644.255" x2="641.143" y2="487.068" gradientUnits="userSpaceOnUse">
<stop stop-color="#B62E47"/>
<stop offset="0.28125" stop-color="#933768"/>
<stop offset="0.536458" stop-color="#504499"/>
<stop offset="0.703125" stop-color="#1461C8"/>
<stop offset="1" stop-color="white"/>
</linearGradient>
<linearGradient id="paint21_linear" x1="-68.8344" y1="644.971" x2="630.97" y2="493.577" gradientUnits="userSpaceOnUse">
<stop stop-color="#B62E47"/>
<stop offset="0.28125" stop-color="#933768"/>
<stop offset="0.536458" stop-color="#504499"/>
<stop offset="0.703125" stop-color="#1461C8"/>
<stop offset="1" stop-color="white"/>
</linearGradient>
</defs>
</svg>
