<svg width="490" height="334" viewBox="0 0 490 334" fill="none" xmlns="http://www.w3.org/2000/svg">
<path opacity="0.5" d="M400.05 246.812L190.58 277.102" stroke="url(#paint0_linear)" stroke-width="2.21" stroke-miterlimit="10"/>
<path opacity="0.5" d="M332.58 120.612L155.18 223.022" stroke="url(#paint1_linear)" stroke-width="2.21" stroke-miterlimit="10"/>
<path opacity="0.5" d="M131.15 88.3918L111.49 207.412" stroke="url(#paint2_linear)" stroke-width="2.21" stroke-miterlimit="10"/>
<path d="M107.65 75.2418L120.65 67.7418L159.65 45.2418C161.664 44.2178 163.891 43.6841 166.15 43.6841C168.409 43.6841 170.636 44.2178 172.65 45.2418L224.65 75.2418C228.23 77.3118 228.23 80.6718 224.65 82.7318L172.65 112.732C170.636 113.756 168.409 114.29 166.15 114.29C163.891 114.29 161.664 113.756 159.65 112.732L107.65 82.7318C104.08 80.6718 104.08 77.3018 107.65 75.2418Z" fill="#212456"/>
<path d="M227.31 65.5518C227.31 66.9118 226.43 68.2718 224.63 69.3018L172.63 99.3018C170.616 100.326 168.389 100.86 166.13 100.86C163.871 100.86 161.644 100.326 159.63 99.3018L107.63 69.3018C105.85 68.3018 104.95 66.9118 104.95 65.5518V76.8618C104.95 78.2218 104.48 80.1318 106.27 81.1618L159.38 112.002C162.95 114.072 169.07 114.222 172.63 112.162L225.3 81.6718C227.09 80.6718 227.2 79.0918 227.2 77.7318L227.31 65.5518Z" fill="#CFDAE6"/>
<path d="M107.65 61.8019L120.65 54.3119L159.65 31.8119C161.664 30.7879 163.891 30.2542 166.15 30.2542C168.409 30.2542 170.636 30.7879 172.65 31.8119L224.65 61.8119C228.23 63.8819 228.23 67.2519 224.65 69.3119L172.65 99.3119C170.636 100.336 168.409 100.87 166.15 100.87C163.891 100.87 161.664 100.336 159.65 99.3119L107.65 69.3119C104.08 67.2519 104.08 63.8819 107.65 61.8119V61.8019Z" fill="#E1E9F1"/>
<path d="M212.81 266.132L184.81 249.992L125.29 215.652C116.29 210.432 101.46 210.432 92.4199 215.652L9.81995 263.312C0.819946 268.532 0.819946 277.062 9.81995 282.312L92.4399 329.972C101.44 335.182 116.27 335.182 125.31 329.972L207.93 282.312C217 277.062 219.17 269.802 212.81 266.132Z" fill="#212456"/>
<g opacity="0.8">
<path opacity="0.8" d="M212.64 265.152L184.64 249.012L125.12 214.672C116.12 209.462 101.29 209.462 92.25 214.672L9.65002 262.332C0.650024 267.552 0.650024 276.082 9.65002 281.332L92.27 329.002C101.27 334.222 116.1 334.222 125.14 329.002L207.76 281.342C216.8 276.082 219 268.822 212.64 265.152Z" fill="#8A7EBB"/>
</g>
<path d="M0 273.702C0 271.292 1.59 268.882 4.76 267.052L97.16 213.742C103.51 210.072 113.9 210.072 120.25 213.742L189.55 253.742L212.64 267.002C215.81 268.832 217.4 271.242 217.4 273.652V258.602C217.4 256.192 215.81 253.772 212.64 251.942L189.55 238.622L120.25 198.622C113.9 194.962 103.51 194.962 97.16 198.622L4.76 251.942C1.59 253.772 0 256.192 0 258.602V273.702Z" fill="url(#paint3_linear)"/>
<path d="M0 254C0 256.42 1.59 258.83 4.76 260.66L97.16 313.97C103.51 317.63 113.9 317.63 120.25 313.97L212.65 260.66C215.82 258.83 217.41 256.42 217.41 254V269.11C217.41 271.52 215.82 273.93 212.65 275.76L120.25 328.5C113.9 332.17 103.51 332.17 97.16 328.5L4.76 275.76C1.59 273.93 0 271.52 0 269.11V254Z" fill="#CFDAE6"/>
<path d="M213.308 249.327L184.831 233.207L124.299 198.91C115.146 193.697 100.064 193.697 90.8699 198.91L6.86482 246.511C-2.28827 251.724 -2.28827 260.243 6.86482 265.487L90.8902 313.097C100.043 318.301 115.126 318.301 124.319 313.097L208.345 265.487C217.528 260.243 219.766 252.983 213.308 249.327Z" fill="#E1E9F1"/>
<path opacity="0.5" d="M187.1 171.392C187.1 171.392 137.28 117.392 93.29 117.232L93.74 178.232C93.74 178.232 147.15 192.602 186.65 234.962L187.1 171.392Z" fill="url(#paint4_linear)"/>
<path opacity="0.2" d="M116.41 149.662L142.44 164.692V158.522L116.41 143.492V149.662Z" fill="white"/>
<path opacity="0.2" d="M118.28 159.312L140.17 171.942V166.752L118.28 154.112V159.312Z" fill="white"/>
<path opacity="0.2" d="M119.73 167.852L137.01 177.832V173.732L119.73 163.752V167.852Z" fill="white"/>
<path d="M113.88 150.302L139.91 165.332V159.152L113.88 144.122V150.302Z" fill="white"/>
<path d="M116.15 159.842L138.04 172.482V167.282L116.15 154.652V159.842Z" fill="white"/>
<g opacity="0.2">
<path opacity="0.2" d="M151.55 186.002C151.613 187.127 151.912 188.226 152.429 189.227C152.946 190.229 153.669 191.109 154.55 191.812L170.55 202.982C172.22 204.152 173.55 203.432 173.55 201.402V178.272C173.489 177.145 173.19 176.044 172.673 175.041C172.156 174.038 171.432 173.155 170.55 172.452L154.55 161.282C152.88 160.122 151.55 160.832 151.55 162.872V186.002Z" stroke="white" stroke-width="0.74" stroke-miterlimit="10"/>
<path opacity="0.2" d="M156.76 190.002L166.65 197.072C168.13 198.142 169.34 197.012 169.34 194.552V193.392C169.34 190.942 168.13 188.082 166.65 187.022L156.76 180.002C155.28 178.932 154.07 180.062 154.07 182.522V183.682C154.07 186.122 155.28 189.002 156.76 190.002Z" stroke="white" stroke-width="0.41" stroke-miterlimit="10"/>
<path opacity="0.2" d="M164.636 181.691C166.336 181.014 166.627 177.735 165.287 174.365C163.946 170.996 161.481 168.813 159.781 169.489C158.081 170.166 157.79 173.445 159.13 176.815C160.471 180.184 162.935 182.367 164.636 181.691Z" stroke="white" stroke-width="0.480432" stroke-miterlimit="10"/>
</g>
<path d="M118.05 168.272L135.33 178.252V174.152L118.05 164.172V168.272Z" fill="white"/>
<path d="M147.75 186.002C147.813 187.127 148.112 188.226 148.629 189.227C149.146 190.229 149.869 191.109 150.75 191.812L166.75 202.982C168.42 204.152 169.75 203.432 169.75 201.402V178.272C169.689 177.145 169.39 176.044 168.873 175.041C168.356 174.038 167.632 173.155 166.75 172.452L150.75 161.282C149.08 160.122 147.75 160.832 147.75 162.872V186.002Z" stroke="white" stroke-miterlimit="10"/>
<path d="M153 190.002L162.89 197.072C164.37 198.142 165.58 197.012 165.58 194.552V193.392C165.58 190.942 164.37 188.082 162.89 187.022L153 180.002C151.52 178.932 150.31 180.062 150.31 182.522V183.682C150.28 186.122 151.49 189.002 153 190.002Z" stroke="white" stroke-width="0.41" stroke-miterlimit="10"/>
<path d="M160.327 182.224C162.028 181.553 162.328 178.277 160.999 174.907C159.669 171.537 157.213 169.348 155.512 170.019C153.812 170.69 153.511 173.966 154.841 177.336C156.17 180.706 158.627 182.895 160.327 182.224Z" stroke="white" stroke-width="0.48" stroke-miterlimit="10"/>
<path d="M139.27 257.362L131.65 249.842C130.752 248.955 129.653 248.297 128.447 247.925C127.24 247.552 125.962 247.476 124.72 247.702L79.0499 256.072C78.0346 256.257 77.0657 256.641 76.1991 257.202C75.3324 257.762 74.585 258.488 73.9997 259.339C73.4143 260.189 73.0026 261.146 72.7882 262.156C72.5737 263.165 72.5607 264.207 72.7499 265.222L74.6699 275.682C75.4799 280.052 75.2999 296.352 93.2899 290.792L135.44 270.622C154.2 267.482 143.7 261.742 139.27 257.362Z" fill="url(#paint5_linear)"/>
<path d="M130.4 235.922L107.75 222.822L85.0601 235.882L107.72 248.982L130.4 235.922Z" fill="#A3C9EB"/>
<path d="M131.23 261.232L108.54 274.292L85.89 261.182L108.57 248.132L131.23 261.232Z" fill="#8ECB89"/>
<path d="M131.23 261.232L131.25 235.072L108.57 248.132L108.54 274.292L131.23 261.232Z" fill="#353D83"/>
<path d="M85.92 235.032L85.89 261.182L108.54 274.292L108.57 248.132L85.92 235.032Z" fill="#212456"/>
<path d="M94.75 192.082L97.4 187.532C98.58 185.302 94.78 179.962 96.32 179.772C98.02 179.572 106.24 182.872 106.47 184.392C106.47 184.392 102.58 191.912 103.85 193.392C101.46 195.172 96.86 191.832 94.75 192.082Z" fill="#DFC790"/>
<path d="M96.48 173.072C97.84 172.031 99.2813 171.102 100.79 170.292C101.35 169.961 101.931 169.667 102.53 169.412C109.29 171.412 114.31 178.172 109.8 185.772C109.25 186.672 107.59 191.062 105.4 190.772C99 189.942 103.34 187.172 102.4 187.542C100.76 188.152 97.73 186.682 97.4 184.602C96.6465 184.059 95.9732 183.413 95.4 182.682C95.9679 179.505 96.3287 176.295 96.48 173.072Z" fill="#DFC790"/>
<path d="M97.3499 169.402C100.93 167.542 108.22 168.402 112.35 172.872C115.76 175.972 113.48 179.242 111.43 178.132C111.379 178.102 111.321 178.085 111.262 178.081C111.203 178.076 111.144 178.086 111.089 178.108C111.034 178.13 110.985 178.165 110.945 178.209C110.905 178.253 110.876 178.305 110.86 178.362C110.1 181.842 108.95 184.812 107.38 180.272C107.323 180.114 107.23 179.97 107.11 179.853C106.99 179.735 106.844 179.646 106.685 179.592C106.525 179.538 106.356 179.521 106.189 179.542C106.022 179.563 105.861 179.621 105.72 179.712C103.25 181.242 105.78 185.022 105.31 187.562C104.95 189.482 104.7 191.502 102.57 190.792C98.2199 190.352 91.6599 191.382 90.6599 181.222C89.9099 173.762 93.2999 169.842 97.3499 169.402Z" fill="#26203D"/>
<path d="M95.32 191.002C89.85 192.212 89.73 196.602 90.96 200.872C91.5 202.772 91.76 207.142 95.14 205.212C99.02 202.992 97.58 198.082 96.05 195.082L95.32 191.002Z" fill="#DFC790"/>
<path d="M139.48 205.852C139.81 205.752 141.96 204.982 142.12 205.022C142.55 205.142 143.34 205.402 143.4 206.112C143.48 207.112 142.14 208.822 141.04 209.442C140.207 210.451 139.253 211.355 138.2 212.132C136.2 213.492 134.46 214.132 133.68 214.652C131.47 216.062 133.98 214.582 135.93 211.972C134.93 210.652 133.36 210.322 133.79 209.972C134.01 209.782 136.23 208.632 136.7 208.292C137.84 207.542 138.01 207.482 138.35 206.822C138.79 205.952 138.77 204.522 139.54 204.022C140.32 204.242 139.63 205.072 139.48 205.872" fill="#DFC790"/>
<path d="M139.4 250.832C141.46 253.772 143.05 256.492 148.09 257.002C149.6 257.162 154.04 256.312 155.09 257.492C155.98 258.492 149.17 262.292 147.82 262.602C145.82 263.052 141.13 261.072 139.91 261.452C139.095 261.73 138.205 261.687 137.42 261.332C137.065 261.156 136.756 260.902 136.515 260.588C136.274 260.275 136.108 259.91 136.03 259.522C135.66 257.862 136.92 255.082 135.52 253.632C134.66 252.722 138.1 249.002 139.4 250.832Z" fill="#090909"/>
<path d="M128 227.882C127.66 231.882 132.79 245.642 134.06 249.722C135.44 254.152 134.51 251.142 136.06 256.412C136.47 257.852 144.13 256.102 143.35 253.742C141.04 246.742 138.66 234.922 137.23 227.652C137.093 227.079 136.82 226.548 136.433 226.105C136.046 225.661 135.557 225.318 135.009 225.104C134.46 224.891 133.868 224.814 133.283 224.88C132.698 224.945 132.138 225.152 131.65 225.482L129.32 227.002L127.87 228.002L128 227.882Z" fill="#DFC790"/>
<path d="M140.54 265.192L136.34 260.132L140.34 260.452C140.34 260.452 141.61 264.122 141.66 264.682C141.365 264.988 140.965 265.171 140.54 265.192Z" fill="#090909"/>
<path d="M98.34 229.402C101.28 226.352 103.49 222.402 106.93 219.842C110.56 217.122 116.14 214.002 120.71 213.312C129.77 211.952 125.35 224.002 123.39 227.222C122.39 228.822 119.17 228.052 117.57 229.222C113.96 231.922 108.48 232.222 104.11 232.822L98.34 229.402Z" fill="#D7B97D"/>
<path d="M88.57 197.382C88.01 195.382 86.34 189.252 96.02 189.902C95.15 191.592 100.44 193.772 103.75 192.742C105.75 194.162 110.04 196.292 111.38 197.402C111.38 197.402 118.38 204.082 116.72 207.632C115.49 211.422 113.37 209.572 112.31 213.072C111.865 214.189 111.511 215.339 111.25 216.512C111.144 218.047 111.426 219.585 112.07 220.982C112.27 221.806 112.645 222.577 113.17 223.242C113.208 223.293 113.252 223.34 113.3 223.382L113.16 223.542C112.884 223.852 112.586 224.143 112.27 224.412C107.71 228.412 101.27 226.832 96.57 223.412C97.0512 222.224 97.2365 220.937 97.11 219.662C95.73 208.602 90.09 202.792 88.57 197.382Z" fill="#212456"/>
<path d="M122.8 217.892C125.37 218.892 129.42 217.352 131.36 216.282C133.529 215.06 135.632 213.725 137.66 212.282C138.74 211.282 138.82 210.462 138.54 209.812C138.406 209.552 138.221 209.322 137.995 209.136C137.77 208.95 137.509 208.812 137.228 208.73C136.948 208.647 136.654 208.623 136.363 208.658C136.073 208.692 135.793 208.786 135.54 208.932C131.28 211.182 129.35 211.992 127.21 212.932C126.526 213.078 125.82 213.086 125.133 212.955C124.446 212.825 123.793 212.559 123.21 212.172C119.45 207.932 112.39 194.292 107.21 198.872C104.81 201.002 119.84 216.752 122.8 217.892Z" fill="#DFC790"/>
<path d="M96.64 223.242C101.2 227.102 107.93 227.792 112.85 223.492C113.03 223.332 109.06 216.782 111.95 215.962C112.85 215.712 116.19 213.662 116.85 214.352C117.703 215.703 118.71 216.951 119.85 218.072C120.948 218.789 122.11 219.405 123.32 219.912C125.75 221.362 128.1 221.432 129.12 221.822C136.33 225.872 134.12 231.342 140.29 233.352C142.89 234.212 134.29 239.782 123.01 241.682C119.41 242.282 113.01 242.992 101.7 238.852C96.61 236.982 92.7 233.492 95.37 226.562C95.89 225.242 96 224.572 96.64 223.242Z" fill="#D92128"/>
<path d="M143.07 253.052C144.065 255.699 146.032 257.866 148.57 259.112C148.57 260.272 145.15 261.572 144.32 260.852C143.66 260.282 138.82 258.342 136.86 257.562C136.615 257.46 136.396 257.301 136.223 257.1C136.049 256.899 135.925 256.66 135.86 256.402L134.74 251.932L143.07 253.052Z" fill="#DFC790"/>
<path d="M370.3 226.742L383.3 219.242L422.3 196.742C424.316 195.724 426.542 195.194 428.8 195.194C431.058 195.194 433.284 195.724 435.3 196.742L487.3 226.742C490.87 228.812 490.87 232.172 487.3 234.232L435.3 264.232C433.286 265.256 431.059 265.79 428.8 265.79C426.541 265.79 424.314 265.256 422.3 264.232L370.3 234.232C366.73 232.172 366.73 228.802 370.3 226.742Z" fill="#212456"/>
<path d="M490 217.052C490 218.412 489.11 219.772 487.32 220.802L435.32 250.802C433.306 251.826 431.079 252.36 428.82 252.36C426.561 252.36 424.334 251.826 422.32 250.802L370.32 220.802C368.54 219.802 367.64 218.412 367.64 217.052V228.362C367.64 229.722 367.17 231.632 368.97 232.662L422 263.452C425.57 265.522 431.69 265.672 435.25 263.612L488 233.172C489.78 232.172 489.9 230.592 489.9 229.232L490 217.052Z" fill="#CFDAE6"/>
<path d="M370.3 213.302L383.3 205.812L422.3 183.312C424.314 182.289 426.541 181.757 428.8 181.757C431.059 181.757 433.286 182.289 435.3 183.312L487.3 213.312C490.87 215.372 490.87 218.742 487.3 220.802L435.3 250.802C433.286 251.826 431.059 252.36 428.8 252.36C426.541 252.36 424.314 251.826 422.3 250.802L370.3 220.802C366.73 218.742 366.73 215.372 370.3 213.312V213.302Z" fill="#E1E9F1"/>
<path d="M391.57 217.302L399.75 212.572L424.33 198.392C425.598 197.751 426.999 197.417 428.42 197.417C429.841 197.417 431.242 197.751 432.51 198.392L465.29 217.302C467.55 218.602 467.55 220.722 465.29 222.022L432.52 240.932C431.254 241.578 429.852 241.915 428.43 241.915C427.008 241.915 425.607 241.578 424.34 240.932L391.56 222.002C389.31 220.702 389.31 218.582 391.56 217.282L391.57 217.302Z" fill="#E1EAF2"/>
<path d="M467 211.592C466.955 212.102 466.775 212.59 466.478 213.007C466.181 213.424 465.777 213.753 465.31 213.962L432.54 232.862C431.274 233.508 429.872 233.845 428.45 233.845C427.028 233.845 425.627 233.508 424.36 232.862L391.56 214.002C391.094 213.792 390.692 213.461 390.395 213.045C390.098 212.629 389.917 212.141 389.87 211.632V218.762C389.87 219.622 389.58 220.822 390.71 221.472L424.17 240.882C425.461 241.539 426.886 241.889 428.335 241.905C429.783 241.921 431.215 241.601 432.52 240.972L465.71 221.792C466.133 221.543 466.473 221.175 466.686 220.734C466.9 220.292 466.978 219.798 466.91 219.312L467 211.592Z" fill="url(#paint6_linear)"/>
<path d="M391.57 209.232L399.75 204.512L424.33 190.322C425.598 189.681 426.999 189.347 428.42 189.347C429.841 189.347 431.242 189.681 432.51 190.322L465.29 209.232C467.55 210.532 467.55 212.662 465.29 213.962L432.52 232.862C431.254 233.508 429.852 233.845 428.43 233.845C427.008 233.845 425.607 233.508 424.34 232.862L391.56 214.002C389.31 212.692 389.31 210.572 391.56 209.272L391.57 209.232Z" fill="url(#paint7_linear)"/>
<path opacity="0.5" d="M392.69 218.362L390.87 217.312V215.522L392.69 216.572V218.362Z" fill="#212456"/>
<path opacity="0.5" d="M395.05 219.722L393.24 218.672V216.882L395.05 217.932V219.722Z" fill="#212456"/>
<path d="M397.27 221.002L395.45 219.952V218.162L397.27 219.212V221.002Z" fill="#212456"/>
<path opacity="0.5" d="M399.63 222.362L397.82 221.322V219.532L399.63 220.572V222.362Z" fill="#212456"/>
<path d="M401.93 223.692L400.11 222.642V220.852L401.93 221.902V223.692Z" fill="#212456"/>
<path opacity="0.5" d="M404.29 225.062L402.48 224.012V222.222L404.29 223.272V225.062Z" fill="#212456"/>
<path d="M392.69 220.642L390.87 219.592V217.802L392.69 218.852V220.642Z" fill="#212456"/>
<path d="M395.05 222.002L393.24 220.952V219.162L395.05 220.212V222.002Z" fill="#212456"/>
<path opacity="0.5" d="M397.27 223.282L395.45 222.232V220.442L397.27 221.492V223.282Z" fill="#212456"/>
<path opacity="0.5" d="M399.63 224.652L397.82 223.602V221.812L399.63 222.862V224.652Z" fill="#212456"/>
<path d="M401.93 225.972L400.11 224.922V223.132L401.93 224.182V225.972Z" fill="#212456"/>
<path opacity="0.5" d="M404.29 227.342L402.48 226.292V224.502L404.29 225.552V227.342Z" fill="#212456"/>
<path d="M419.96 237.592L419.52 237.332V230.782L419.96 231.042V237.592Z" fill="#212456"/>
<path d="M420.69 238.012L420.36 237.812V231.272L420.69 231.462V238.012Z" fill="#212456"/>
<path d="M421.41 238.432L421.19 238.302V231.752L421.41 231.882V238.432Z" fill="#212456"/>
<path d="M423.52 239.642L423.77 239.792V233.242L423.52 233.102V239.642Z" fill="#212456"/>
<path d="M422.65 239.142L423.09 239.392V232.842L422.65 232.592V239.142Z" fill="#212456"/>
<path d="M421.98 238.752L422.19 238.882V232.332L421.98 232.202V238.752Z" fill="#212456"/>
<path d="M391.93 209.542L400.12 204.822L424.7 190.642C425.968 190.001 427.369 189.667 428.79 189.667C430.211 189.667 431.612 190.001 432.88 190.642L465.65 209.552C467.9 210.852 467.9 212.972 466.29 213.632L433.52 232.542C432.24 233.423 430.747 233.947 429.197 234.06C427.647 234.172 426.094 233.869 424.7 233.182L391.93 214.272C389.68 212.972 389.68 210.852 391.93 209.552V209.542Z" fill="#212456"/>
<path d="M391.57 208.202L399.75 203.482L424.33 189.302C425.598 188.661 426.999 188.327 428.42 188.327C429.841 188.327 431.242 188.661 432.51 189.302L465.29 208.212C467.55 209.512 467.55 211.632 465.29 212.932L432.52 231.842C431.252 232.483 429.851 232.816 428.43 232.816C427.009 232.816 425.608 232.483 424.34 231.842L391.56 212.932C389.31 211.632 389.31 209.502 391.56 208.212L391.57 208.202Z" fill="#E1EAF2"/>
<path d="M467 202.502C466.957 203.011 466.777 203.499 466.479 203.914C466.182 204.33 465.778 204.657 465.31 204.862L432.54 223.772C431.272 224.413 429.871 224.746 428.45 224.746C427.029 224.746 425.628 224.413 424.36 223.772L391.58 204.862C391.113 204.655 390.711 204.327 390.413 203.912C390.116 203.497 389.936 203.01 389.89 202.502V209.632C389.89 210.482 389.6 211.692 390.73 212.342L424.19 231.742C425.48 232.401 426.905 232.753 428.353 232.77C429.802 232.787 431.235 232.47 432.54 231.842L465.73 212.662C466.153 212.414 466.493 212.045 466.706 211.604C466.92 211.162 466.998 210.668 466.93 210.182L467 202.502Z" fill="url(#paint8_linear)"/>
<path d="M391.57 200.142L399.75 195.412L424.33 181.232C425.598 180.591 426.999 180.257 428.42 180.257C429.841 180.257 431.242 180.591 432.51 181.232L465.29 200.142C467.55 201.442 467.55 203.562 465.29 204.862L432.52 223.772C431.252 224.413 429.851 224.746 428.43 224.746C427.009 224.746 425.608 224.413 424.34 223.772L391.56 204.862C389.31 203.562 389.31 201.442 391.56 200.142H391.57Z" fill="url(#paint9_linear)"/>
<path opacity="0.5" d="M392.69 209.262L390.87 208.222V206.432L392.69 207.472V209.262Z" fill="#212456"/>
<path opacity="0.5" d="M395.05 210.632L393.24 209.582V207.792L395.05 208.842V210.632Z" fill="#212456"/>
<path d="M397.27 211.912L395.45 210.862V209.072L397.27 210.122V211.912Z" fill="#212456"/>
<path opacity="0.5" d="M399.63 213.272L397.82 212.222V210.442L399.63 211.482V213.272Z" fill="#212456"/>
<path d="M401.93 214.602L400.11 213.552V211.762L401.93 212.812V214.602Z" fill="#212456"/>
<path opacity="0.5" d="M404.29 215.962L402.48 214.922V213.132L404.29 214.182V215.962Z" fill="#212456"/>
<path d="M392.69 211.542L390.87 210.502V208.712L392.69 209.762V211.542Z" fill="#212456"/>
<path d="M395.05 212.912L393.24 211.862V210.072L395.05 211.122V212.912Z" fill="#212456"/>
<path opacity="0.5" d="M397.27 214.192L395.45 213.142V211.352L397.27 212.402V214.192Z" fill="#212456"/>
<path opacity="0.5" d="M399.63 215.552L397.82 214.512V212.722L399.63 213.762V215.552Z" fill="#212456"/>
<path d="M401.93 216.882L400.11 215.832V214.042L401.93 215.092V216.882Z" fill="#212456"/>
<path opacity="0.5" d="M404.29 218.252L402.48 217.202V215.412L404.29 216.462V218.252Z" fill="#212456"/>
<path d="M419.96 228.502L419.52 228.242V221.692L419.96 221.952V228.502Z" fill="#212456"/>
<path d="M420.69 228.912L420.36 228.722V222.182L420.69 222.372V228.912Z" fill="#212456"/>
<path d="M421.41 229.332L421.19 229.212V222.662L421.41 222.792V229.332Z" fill="#212456"/>
<path d="M423.52 230.552L423.77 230.692V224.152L423.52 224.002V230.552Z" fill="#212456"/>
<path d="M422.65 230.042L423.09 230.302V223.752L422.65 223.502V230.042Z" fill="#212456"/>
<path d="M421.98 229.662L422.19 229.782V223.242L421.98 223.112V229.662Z" fill="#212456"/>
<path d="M391.52 199.792L399.7 195.072L424.28 180.882C425.55 180.241 426.953 179.907 428.375 179.907C429.797 179.907 431.2 180.241 432.47 180.882L465.24 199.792C467.49 201.092 467.49 203.222 465.87 203.882L433.11 222.792C431.828 223.67 430.335 224.191 428.785 224.301C427.235 224.412 425.684 224.109 424.29 223.422L391.51 204.512C389.26 203.212 389.26 201.092 391.51 199.792H391.52Z" fill="#212456"/>
<path d="M391.52 198.212L399.7 193.492L424.28 179.312C425.548 178.671 426.949 178.337 428.37 178.337C429.791 178.337 431.192 178.671 432.46 179.312L465.24 198.222C467.5 199.522 467.5 201.642 465.24 202.942L432.47 221.852C431.202 222.493 429.801 222.826 428.38 222.826C426.959 222.826 425.558 222.493 424.29 221.852L391.51 202.942C389.26 201.642 389.26 199.512 391.51 198.222L391.52 198.212Z" fill="#E1EAF2"/>
<path d="M466.93 192.512C466.884 193.02 466.704 193.507 466.407 193.922C466.109 194.337 465.707 194.665 465.24 194.872L432.47 213.782C431.202 214.423 429.801 214.756 428.38 214.756C426.959 214.756 425.558 214.423 424.29 213.782L391.51 194.872C391.045 194.663 390.643 194.335 390.346 193.92C390.049 193.506 389.867 193.02 389.82 192.512V199.642C389.82 200.492 389.53 201.702 390.66 202.352L424.12 221.752C425.41 222.411 426.835 222.763 428.283 222.78C429.732 222.797 431.165 222.48 432.47 221.852L465.66 202.672C466.084 202.422 466.424 202.052 466.637 201.609C466.851 201.166 466.928 200.669 466.86 200.182L466.93 192.512Z" fill="url(#paint10_linear)"/>
<path d="M391.52 190.152L399.7 185.422L424.28 171.242C425.548 170.601 426.949 170.267 428.37 170.267C429.791 170.267 431.192 170.601 432.46 171.242L465.24 190.152C467.5 191.452 467.5 193.572 465.24 194.872L432.47 213.782C431.202 214.423 429.801 214.756 428.38 214.756C426.959 214.756 425.558 214.423 424.29 213.782L391.51 194.872C389.26 193.572 389.26 191.452 391.51 190.152H391.52Z" fill="url(#paint11_linear)"/>
<path opacity="0.5" d="M392.64 199.272L390.82 198.222V196.442L392.64 197.482V199.272Z" fill="#212456"/>
<path opacity="0.5" d="M395 200.642L393.19 199.592V197.802L395 198.852V200.642Z" fill="#212456"/>
<path d="M397.22 201.922L395.4 200.872V199.082L397.22 200.132V201.922Z" fill="#212456"/>
<path opacity="0.5" d="M399.58 203.282L397.76 202.232V200.442L399.58 201.492V203.282Z" fill="#212456"/>
<path d="M401.88 204.612L400.06 203.562V201.772L401.88 202.822V204.612Z" fill="#212456"/>
<path opacity="0.5" d="M404.24 205.972L402.43 204.932V203.142L404.24 204.182V205.972Z" fill="#212456"/>
<path d="M392.64 201.552L390.82 200.512V198.722L392.64 199.762V201.552Z" fill="#212456"/>
<path d="M395 202.922L393.19 201.872V200.082L395 201.132V202.922Z" fill="#212456"/>
<path opacity="0.5" d="M397.22 204.202L395.4 203.152V201.362L397.22 202.412V204.202Z" fill="#212456"/>
<path opacity="0.5" d="M399.58 205.562L397.76 204.512V202.722L399.58 203.772V205.562Z" fill="#212456"/>
<path d="M401.88 206.892L400.06 205.842V204.052L401.88 205.102V206.892Z" fill="#212456"/>
<path opacity="0.5" d="M404.24 208.252L402.43 207.212V205.422L404.24 206.472V208.252Z" fill="#212456"/>
<path d="M419.91 218.502L419.47 218.252V211.702L419.91 211.962V218.502Z" fill="#212456"/>
<path d="M420.64 218.922L420.31 218.732V212.192L420.64 212.382V218.922Z" fill="#212456"/>
<path d="M421.36 219.342L421.14 219.222V212.672L421.36 212.792V219.342Z" fill="#212456"/>
<path d="M423.47 220.562L423.72 220.702V214.162L423.47 214.012V220.562Z" fill="#212456"/>
<path d="M422.6 220.052L423.04 220.312V213.762L422.6 213.512V220.052Z" fill="#212456"/>
<path d="M421.92 219.672L422.14 219.792V213.252L421.92 213.122V219.672Z" fill="#212456"/>
<path d="M391.88 190.462L400.07 185.742L424.65 171.562C425.918 170.921 427.319 170.587 428.74 170.587C430.161 170.587 431.562 170.921 432.83 171.562L465.6 190.462C467.85 191.772 467.85 193.892 466.24 194.552L433.47 213.462C432.19 214.344 430.697 214.867 429.146 214.978C427.595 215.089 426.043 214.783 424.65 214.092L391.88 195.192C389.62 193.892 389.62 191.762 391.88 190.462Z" fill="#212456"/>
<path d="M391.52 189.122L399.7 184.402L424.28 170.222C425.547 169.576 426.948 169.239 428.37 169.239C429.792 169.239 431.193 169.576 432.46 170.222L465.24 189.122C467.5 190.432 467.5 192.552 465.24 193.852L432.47 212.762C431.202 213.403 429.801 213.736 428.38 213.736C426.959 213.736 425.558 213.403 424.29 212.762L391.51 193.852C389.26 192.542 389.26 190.422 391.51 189.122H391.52Z" fill="#E1EAF2"/>
<path d="M466.93 183.422C466.884 183.93 466.704 184.417 466.407 184.832C466.109 185.247 465.707 185.575 465.24 185.782L432.47 204.692C431.202 205.333 429.801 205.666 428.38 205.666C426.959 205.666 425.558 205.333 424.29 204.692L391.51 185.782C391.045 185.573 390.643 185.245 390.346 184.83C390.049 184.416 389.867 183.93 389.82 183.422V190.552C389.82 191.402 389.53 192.552 390.66 193.252L424.12 212.662C425.411 213.319 426.835 213.669 428.283 213.687C429.731 213.704 431.164 213.387 432.47 212.762L465.66 193.582C466.084 193.332 466.424 192.962 466.637 192.519C466.851 192.076 466.928 191.579 466.86 191.092L466.93 183.422Z" fill="url(#paint12_linear)"/>
<path d="M391.52 181.062L399.7 176.332L424.28 162.152C425.548 161.511 426.949 161.177 428.37 161.177C429.791 161.177 431.192 161.511 432.46 162.152L465.24 181.062C467.5 182.362 467.5 184.482 465.24 185.782L432.47 204.692C431.202 205.332 429.801 205.666 428.38 205.666C426.959 205.666 425.558 205.332 424.29 204.692L391.51 185.782C389.26 184.482 389.26 182.362 391.51 181.062H391.52Z" fill="url(#paint13_linear)"/>
<path opacity="0.5" d="M392.64 190.182L390.82 189.132V187.342L392.64 188.392V190.182Z" fill="#212456"/>
<path opacity="0.5" d="M395 191.552L393.19 190.502V188.712L395 189.762V191.552Z" fill="#212456"/>
<path d="M397.22 192.822L395.4 191.782V189.992L397.22 191.032V192.822Z" fill="#212456"/>
<path opacity="0.5" d="M399.58 194.192L397.76 193.142V191.352L399.58 192.402V194.192Z" fill="#212456"/>
<path d="M401.88 195.522L400.06 194.472V192.682L401.88 193.732V195.522Z" fill="#212456"/>
<path opacity="0.5" d="M404.24 196.882L402.43 195.832V194.042L404.24 195.092V196.882Z" fill="#212456"/>
<path d="M392.64 192.462L390.82 191.412V189.632L392.64 190.672V192.462Z" fill="#212456"/>
<path d="M395 193.832L393.19 192.782V190.992L395 192.042V193.832Z" fill="#212456"/>
<path opacity="0.5" d="M397.22 195.112L395.4 194.062V192.272L397.22 193.322V195.112Z" fill="#212456"/>
<path opacity="0.5" d="M399.58 196.472L397.76 195.422V193.632L399.58 194.682V196.472Z" fill="#212456"/>
<path d="M401.88 197.802L400.06 196.752V194.962L401.88 196.012V197.802Z" fill="#212456"/>
<path opacity="0.5" d="M404.24 199.162L402.43 198.122V196.322L404.24 197.372V199.162Z" fill="#212456"/>
<path d="M419.91 209.412L419.47 209.162V202.612L419.91 202.872V209.412Z" fill="#212456"/>
<path d="M420.64 209.832L420.31 209.642V203.092L420.64 203.282V209.832Z" fill="#212456"/>
<path d="M421.36 210.252L421.14 210.122V203.582L421.36 203.702V210.252Z" fill="#212456"/>
<path d="M423.47 211.472L423.72 211.612V205.072L423.47 204.922V211.472Z" fill="#212456"/>
<path d="M422.6 210.962L423.04 211.222V204.672L422.6 204.412V210.962Z" fill="#212456"/>
<path d="M421.92 210.572L422.14 210.702V204.162L421.92 204.032V210.572Z" fill="#212456"/>
<path d="M392.35 181.912L400.54 177.192L425.12 163.002C426.388 162.361 427.789 162.027 429.21 162.027C430.631 162.027 432.032 162.361 433.3 163.002L466.07 181.912C468.32 183.212 468.32 185.332 466.71 186.002L433.94 204.902C432.661 205.783 431.171 206.307 429.622 206.42C428.073 206.532 426.522 206.229 425.13 205.542L392.35 186.632C390.1 185.332 390.1 183.212 392.35 181.912Z" fill="#212456"/>
<path d="M392 180.582L400.18 175.852L424.76 161.672C426.03 161.031 427.433 160.697 428.855 160.697C430.277 160.697 431.68 161.031 432.95 161.672L465.73 180.582C467.98 181.882 467.98 184.002 465.73 185.302L432.95 204.212C431.682 204.853 430.281 205.186 428.86 205.186C427.439 205.186 426.038 204.853 424.77 204.212L392 185.302C389.75 184.002 389.75 181.882 392 180.582Z" fill="#E1EAF2"/>
<path d="M467.4 174.872C467.357 175.381 467.179 175.869 466.883 176.286C466.588 176.703 466.186 177.033 465.72 177.242L432.94 196.142C431.672 196.783 430.271 197.116 428.85 197.116C427.429 197.116 426.028 196.783 424.76 196.142L392 177.242C391.535 177.031 391.135 176.701 390.839 176.284C390.544 175.868 390.365 175.38 390.32 174.872V182.002C390.32 182.852 390.02 184.062 391.15 184.712L424.61 204.122C425.901 204.777 427.326 205.126 428.775 205.141C430.223 205.157 431.655 204.839 432.96 204.212L466.14 185.002C466.561 184.751 466.899 184.383 467.112 183.942C467.326 183.501 467.405 183.007 467.34 182.522L467.4 174.872Z" fill="url(#paint14_linear)"/>
<path d="M392 172.512L400.18 167.782L424.76 153.602C426.03 152.961 427.433 152.627 428.855 152.627C430.277 152.627 431.68 152.961 432.95 153.602L465.73 172.512C467.98 173.812 467.98 175.942 465.73 177.242L432.95 196.142C431.682 196.783 430.281 197.116 428.86 197.116C427.439 197.116 426.038 196.783 424.77 196.142L392 177.242C389.75 175.932 389.75 173.812 392 172.512Z" fill="url(#paint15_linear)"/>
<path opacity="0.5" d="M393.11 181.632L391.3 180.592V178.802L393.11 179.852V181.632Z" fill="#212456"/>
<path opacity="0.5" d="M395.48 183.002L393.66 181.952V180.162L395.48 181.212V183.002Z" fill="#212456"/>
<path d="M397.69 184.282L395.87 183.232V181.442L397.69 182.492V184.282Z" fill="#212456"/>
<path opacity="0.5" d="M400.05 185.642L398.24 184.602V182.812L400.05 183.852V185.642Z" fill="#212456"/>
<path d="M402.35 186.972L400.54 185.922V184.132L402.35 185.182V186.972Z" fill="#212456"/>
<path opacity="0.5" d="M404.71 188.342L402.9 187.292V185.502L404.71 186.552V188.342Z" fill="#212456"/>
<path d="M393.11 183.922L391.3 182.872V181.082L393.11 182.132V183.922Z" fill="#212456"/>
<path d="M395.48 185.282L393.66 184.232V182.442L395.48 183.492V185.282Z" fill="#212456"/>
<path opacity="0.5" d="M397.69 186.562L395.87 185.512V183.722L397.69 184.772V186.562Z" fill="#212456"/>
<path opacity="0.5" d="M400.05 187.932L398.24 186.882V185.092L400.05 186.142V187.932Z" fill="#212456"/>
<path d="M402.35 189.252L400.54 188.202V186.412L402.35 187.462V189.252Z" fill="#212456"/>
<path opacity="0.5" d="M404.71 190.622L402.9 189.572V187.782L404.71 188.832V190.622Z" fill="#212456"/>
<path d="M420.38 200.872L419.94 200.612V194.062L420.38 194.322V200.872Z" fill="#212456"/>
<path d="M421.11 201.282L420.78 201.092V194.552L421.11 194.742V201.282Z" fill="#212456"/>
<path d="M421.83 201.712L421.62 201.582V195.032L421.83 195.162V201.712Z" fill="#212456"/>
<path d="M423.94 202.922L424.19 203.072V196.522L423.94 196.382V202.922Z" fill="#212456"/>
<path d="M423.07 202.422L423.51 202.672V196.122L423.07 195.872V202.422Z" fill="#212456"/>
<path d="M422.4 202.032L422.62 202.162V195.612L422.4 195.482V202.032Z" fill="#212456"/>
<path d="M391.81 172.372L400 167.652L424.58 153.462C425.848 152.821 427.249 152.487 428.67 152.487C430.091 152.487 431.492 152.821 432.76 153.462L465.53 172.372C467.78 173.672 467.78 175.802 466.17 176.462L433.41 195.372C432.128 196.25 430.635 196.771 429.085 196.881C427.535 196.992 425.984 196.689 424.59 196.002L391.81 177.092C389.56 175.792 389.56 173.672 391.81 172.372Z" fill="#212456"/>
<path d="M391.45 171.002L399.63 166.272L424.21 152.092C425.48 151.451 426.882 151.117 428.305 151.117C429.727 151.117 431.13 151.451 432.4 152.092L465.18 171.002C467.43 172.302 467.43 174.422 465.18 175.722L432.4 194.672C431.132 195.313 429.731 195.646 428.31 195.646C426.889 195.646 425.488 195.313 424.22 194.672L391.44 175.752C389.19 174.452 389.19 172.332 391.44 171.032L391.45 171.002Z" fill="#E1EAF2"/>
<path d="M466.86 165.332C466.815 165.839 466.636 166.325 466.341 166.74C466.046 167.155 465.645 167.484 465.18 167.692L432.4 186.602C431.132 187.243 429.731 187.576 428.31 187.576C426.889 187.576 425.488 187.243 424.22 186.602L391.44 167.692C390.976 167.482 390.577 167.153 390.282 166.738C389.987 166.324 389.807 165.839 389.76 165.332V172.452C389.76 173.312 389.46 174.512 390.59 175.162L424.05 194.572C425.341 195.228 426.765 195.579 428.213 195.596C429.661 195.614 431.094 195.297 432.4 194.672L465.6 175.482C466.022 175.232 466.361 174.864 466.574 174.423C466.788 173.982 466.866 173.487 466.8 173.002L466.86 165.332Z" fill="url(#paint16_linear)"/>
<path d="M391.45 163.002L399.63 158.282L424.21 144.102C425.48 143.461 426.882 143.127 428.305 143.127C429.727 143.127 431.13 143.461 432.4 144.102L465.18 163.002C467.43 164.312 467.43 166.432 465.18 167.732L432.4 186.602C431.132 187.243 429.731 187.576 428.31 187.576C426.889 187.576 425.488 187.243 424.22 186.602L391.44 167.692C389.19 166.392 389.19 164.262 391.44 162.962L391.45 163.002Z" fill="url(#paint17_linear)"/>
<path opacity="0.5" d="M392.57 172.092L390.75 171.042V169.252L392.57 170.302V172.092Z" fill="#212456"/>
<path opacity="0.5" d="M394.94 173.452L393.12 172.412V170.622L394.94 171.662V173.452Z" fill="#212456"/>
<path d="M397.15 174.732L395.33 173.682V171.892L397.15 172.942V174.732Z" fill="#212456"/>
<path opacity="0.5" d="M399.51 176.102L397.7 175.052V173.262L399.51 174.312V176.102Z" fill="#212456"/>
<path d="M401.81 177.422L400 176.382V174.592L401.81 175.632V177.422Z" fill="#212456"/>
<path opacity="0.5" d="M404.18 178.792L402.36 177.742V175.952L404.18 177.002V178.792Z" fill="#212456"/>
<path d="M392.57 174.372L390.75 173.322V171.532L392.57 172.582V174.372Z" fill="#212456"/>
<path d="M394.94 175.742L393.12 174.692V172.902L394.94 173.942V175.742Z" fill="#212456"/>
<path opacity="0.5" d="M397.15 177.012L395.33 175.972V174.182L397.15 175.222V177.012Z" fill="#212456"/>
<path opacity="0.5" d="M399.51 178.382L397.7 177.332V175.542L399.51 176.592V178.382Z" fill="#212456"/>
<path d="M401.81 179.702L400 178.662V176.872L401.81 177.912V179.702Z" fill="#212456"/>
<path opacity="0.5" d="M404.18 181.072L402.36 180.022V178.232L404.18 179.282V181.072Z" fill="#212456"/>
<path d="M419.84 191.322L419.4 191.062V184.522L419.84 184.772V191.322Z" fill="#212456"/>
<path d="M420.57 191.742L420.24 191.552V185.002L420.57 185.192V191.742Z" fill="#212456"/>
<path d="M421.3 192.162L421.08 192.032V185.482L421.3 185.612V192.162Z" fill="#212456"/>
<path d="M423.4 193.382L423.65 193.522V186.972L423.4 186.832V193.382Z" fill="#212456"/>
<path d="M422.53 192.872L422.97 193.122V186.582L422.53 186.322V192.872Z" fill="#212456"/>
<path d="M421.86 192.482L422.08 192.612V186.062L421.86 185.942V192.482Z" fill="#212456"/>
<path d="M391.75 162.432L399.93 157.712L424.51 143.532C425.778 142.891 427.179 142.557 428.6 142.557C430.021 142.557 431.422 142.891 432.69 143.532L465.47 162.442C467.73 163.742 467.73 165.862 465.47 167.162L432.7 186.072C431.432 186.713 430.031 187.046 428.61 187.046C427.189 187.046 425.788 186.713 424.52 186.072L391.74 167.162C389.49 165.862 389.49 163.742 391.74 162.442L391.75 162.432Z" fill="url(#paint18_linear)"/>
<path d="M391.64 162.582L399.83 157.862L424.41 143.682C425.678 143.041 427.079 142.707 428.5 142.707C429.921 142.707 431.322 143.041 432.59 143.682L465.36 162.582C467.61 163.892 467.61 166.012 465.36 167.312L432.6 186.222C431.33 186.863 429.927 187.196 428.505 187.196C427.083 187.196 425.68 186.863 424.41 186.222L391.64 167.312C389.39 166.012 389.39 163.882 391.64 162.582Z" fill="#212456"/>
<path d="M391.49 161.652L399.67 156.932L424.25 142.752C425.52 142.111 426.923 141.777 428.345 141.777C429.767 141.777 431.17 142.111 432.44 142.752L465.22 161.662C467.47 162.962 467.47 165.082 465.22 166.382L432.44 185.292C431.172 185.933 429.771 186.267 428.35 186.267C426.929 186.267 425.528 185.933 424.26 185.292L391.48 166.382C389.23 165.082 389.23 162.952 391.48 161.662L391.49 161.652Z" fill="#E1EAF2"/>
<path d="M466.9 156.002C466.858 156.51 466.679 156.997 466.384 157.412C466.088 157.828 465.686 158.156 465.22 158.362L432.44 177.272C431.172 177.913 429.771 178.246 428.35 178.246C426.929 178.246 425.528 177.913 424.26 177.272L391.48 158.362C391.015 158.154 390.614 157.825 390.319 157.41C390.024 156.996 389.845 156.509 389.8 156.002V163.132C389.8 163.982 389.5 165.192 390.63 165.842L424.09 185.242C425.38 185.901 426.805 186.253 428.253 186.27C429.702 186.287 431.135 185.97 432.44 185.342L465.64 166.162C466.061 165.912 466.399 165.543 466.612 165.102C466.826 164.661 466.905 164.167 466.84 163.682L466.9 156.002Z" fill="url(#paint19_linear)"/>
<path d="M391.49 153.592L399.67 148.862L424.25 134.682C425.52 134.041 426.923 133.707 428.345 133.707C429.767 133.707 431.17 134.041 432.44 134.682L465.22 153.592C467.47 154.892 467.47 157.012 465.22 158.312L432.44 177.222C431.172 177.863 429.771 178.196 428.35 178.196C426.929 178.196 425.528 177.863 424.26 177.222L391.48 158.312C389.23 157.012 389.23 154.892 391.48 153.592H391.49Z" fill="#E1E9F1"/>
<path opacity="0.5" d="M392.61 162.712L390.8 161.672V159.882L392.61 160.932V162.712Z" fill="#212456"/>
<path opacity="0.5" d="M394.98 164.082L393.16 163.032V161.242L394.98 162.292V164.082Z" fill="#212456"/>
<path d="M397.19 165.362L395.37 164.312V162.522L397.19 163.572V165.362Z" fill="#212456"/>
<path opacity="0.5" d="M399.55 166.722L397.74 165.672V163.882L399.55 164.932V166.722Z" fill="#212456"/>
<path d="M401.85 168.052L400.04 167.002V165.212L401.85 166.262V168.052Z" fill="#212456"/>
<path opacity="0.5" d="M404.22 169.412L402.4 168.372V166.582L404.22 167.632V169.412Z" fill="#212456"/>
<path d="M392.61 165.002L390.8 163.952V162.162L392.61 163.212V165.002Z" fill="#212456"/>
<path d="M394.98 166.362L393.16 165.312V163.522L394.98 164.572V166.362Z" fill="#212456"/>
<path opacity="0.5" d="M397.19 167.642L395.37 166.592V164.802L397.19 165.852V167.642Z" fill="#212456"/>
<path opacity="0.5" d="M399.55 169.002L397.74 167.962V166.172L399.55 167.212V169.002Z" fill="#212456"/>
<path d="M401.85 170.332L400.04 169.282V167.492L401.85 168.542V170.332Z" fill="#212456"/>
<path opacity="0.5" d="M404.22 171.692L402.4 170.652V168.862L404.22 169.912V171.692Z" fill="#212456"/>
<path d="M419.88 181.942L419.44 181.692V175.142L419.88 175.402V181.942Z" fill="#212456"/>
<path d="M420.61 182.362L420.28 182.172V175.632L420.61 175.822V182.362Z" fill="#212456"/>
<path d="M421.34 182.782L421.12 182.662V176.112L421.34 176.242V182.782Z" fill="#212456"/>
<path d="M423.44 184.002L423.69 184.152V177.602L423.44 177.452V184.002Z" fill="#212456"/>
<path d="M422.57 183.502L423.01 183.752V177.202L422.57 176.952V183.502Z" fill="#212456"/>
<path d="M421.9 183.112L422.12 183.232V176.692L421.9 176.562V183.112Z" fill="#212456"/>
<path d="M464.85 165.582L465.26 165.342V159.222L464.85 159.462V165.582Z" fill="#212456"/>
<path d="M464.17 165.972L464.48 165.792V159.672L464.17 159.852V165.972Z" fill="#212456"/>
<path d="M463.49 166.362L463.69 166.252V160.122L463.49 160.242V166.362Z" fill="#212456"/>
<path d="M461.51 167.502L461.28 167.642V161.512L461.51 161.382V167.502Z" fill="#212456"/>
<path d="M462.33 167.032L461.92 167.272V161.142L462.33 160.912V167.032Z" fill="#212456"/>
<path d="M462.96 166.672L462.76 166.792V160.662L462.96 160.542V166.672Z" fill="#212456"/>
<path opacity="0.6" d="M398.63 153.182L405.25 149.362L425.12 137.902C426.143 137.38 427.276 137.107 428.425 137.107C429.574 137.107 430.707 137.38 431.73 137.902L458.23 153.182C460.05 154.182 460.05 155.952 458.23 157.002L431.74 172.282C430.713 172.8 429.58 173.069 428.43 173.069C427.28 173.069 426.147 172.8 425.12 172.282L398.63 157.002C396.81 155.952 396.81 154.232 398.63 153.182Z" fill="white"/>
<path d="M300.21 103.202L313.21 95.7018L352.21 73.2018C354.224 72.1778 356.451 71.644 358.71 71.644C360.969 71.644 363.196 72.1778 365.21 73.2018L417.21 103.202C420.79 105.272 420.79 108.632 417.21 110.692L365.21 140.692C363.196 141.716 360.969 142.25 358.71 142.25C356.451 142.25 354.224 141.716 352.21 140.692L300.21 110.692C296.64 108.632 296.64 105.262 300.21 103.202Z" fill="#212456"/>
<path d="M419.87 93.512C419.87 94.872 418.99 96.232 417.19 97.262L365.19 127.262C363.176 128.286 360.949 128.82 358.69 128.82C356.431 128.82 354.204 128.286 352.19 127.262L300.19 97.262C298.41 96.262 297.51 94.872 297.51 93.512V104.822C297.51 106.182 297.05 108.092 298.84 109.122L351.93 139.912C355.5 141.982 361.62 142.132 365.18 140.072L417.85 109.632C419.64 108.632 419.75 107.052 419.75 105.692L419.87 93.512Z" fill="#CFDAE6"/>
<path d="M300.21 89.7619L313.21 82.2719L352.21 59.7619C354.225 58.7426 356.452 58.2114 358.71 58.2114C360.968 58.2114 363.195 58.7426 365.21 59.7619L417.21 89.7619C420.79 91.8319 420.79 95.2019 417.21 97.2619L365.21 127.262C363.196 128.286 360.969 128.82 358.71 128.82C356.451 128.82 354.224 128.286 352.21 127.262L300.21 97.2619C296.64 95.2019 296.64 91.8319 300.21 89.7619Z" fill="#E1E9F1"/>
<path opacity="0.5" d="M379.88 73.852C379.201 73.4491 378.484 73.1141 377.74 72.852C377.09 69.2595 375.484 65.9086 373.09 63.152C370.69 60.362 367.86 58.672 365.41 58.552C363.19 50.282 356.41 42.782 350.35 41.792C344.29 40.802 341.1 46.722 343.35 54.992C338.01 52.102 333.79 54.732 333.87 60.912C333.95 67.092 338.3 74.522 343.65 77.622L379.92 98.562C385.87 102.002 390.7 99.252 390.7 92.422C390.7 85.5919 385.83 77.292 379.88 73.852Z" fill="url(#paint20_linear)"/>
<path opacity="0.8" d="M365.7 80.7619C365.021 80.3652 364.309 80.0305 363.57 79.7619C362.914 76.1713 361.308 72.822 358.92 70.0618C356.51 67.2818 353.68 65.5819 351.23 65.4719C349.02 57.1919 342.23 49.6918 336.18 48.7118C330.13 47.7318 326.92 53.6319 329.18 61.9118C323.83 59.0119 319.61 61.6518 319.69 67.8218C319.77 73.9918 324.13 81.4418 329.47 84.5318L365.74 105.472C371.74 108.912 376.52 106.172 376.52 99.3418C376.52 92.5118 371.66 84.2019 365.7 80.7619Z" fill="url(#paint21_linear)"/>
<path opacity="0.5" d="M372.42 106.612L386.91 99.6119C386.91 99.6119 394.63 97.1319 387.91 82.9519C387.91 82.9519 383.77 74.6519 377.54 72.9519C377.54 72.9519 375.3 60.3319 365.27 58.6019C365.27 58.6019 360.12 40.6919 347.05 42.0419L332.31 49.1619C332.31 49.1619 344.44 45.5519 351.01 65.6019C351.01 65.6019 360.35 66.1219 363.46 79.7819C363.46 79.7819 367.25 80.6919 370.89 85.6519C375.55 92.0019 379.71 103.082 372.42 106.612Z" fill="url(#paint22_linear)"/>
<g opacity="0.15">
<path opacity="0.15" d="M171.31 0.831862C167.37 -1.22814 163.5 0.671862 162.71 5.05186L153.63 55.5319C153.321 57.8258 153.707 60.1597 154.74 62.2314C155.772 64.3031 157.402 66.0173 159.42 67.1519L176.33 75.7019C180.33 77.7019 184.2 75.7719 185 71.3919L194.06 21.4519C194.368 19.1509 193.989 16.8101 192.969 14.7245C191.949 12.6388 190.335 10.9017 188.33 9.73186L171.31 0.831862Z" fill="#253D95"/>
</g>
<path d="M167.43 3.38174C163.49 1.31174 159.61 3.21174 158.83 7.59174L149.75 58.0717C149.439 60.3658 149.825 62.7002 150.858 64.7722C151.89 66.8442 153.522 68.5582 155.54 69.6917L172.45 78.2417C176.45 80.2417 180.32 78.3117 181.12 73.9317L190.12 23.9917C190.432 21.6904 190.055 19.3481 189.035 17.2617C188.015 15.1753 186.398 13.4386 184.39 12.2717L167.43 3.38174Z" fill="#C0DFF5"/>
<path d="M167.9 37.3719C168.24 35.6294 169.239 34.0854 170.69 33.0619C170.89 32.9419 171.15 33.0619 171.39 33.2619L173 34.9219C173.34 35.2719 173.72 35.2519 173.93 34.9219L176.1 30.9219C176.209 30.6554 176.253 30.3669 176.228 30.08C176.204 29.7932 176.112 29.5162 175.96 29.2719L173.18 24.2719C172.93 23.8419 172.58 23.6419 172.3 23.7719C170.72 24.5119 167.14 26.9119 165.01 34.3919C163.487 40.0746 163.248 46.0252 164.31 51.8119C164.34 52.039 164.418 52.2572 164.539 52.452C164.659 52.6468 164.82 52.8137 165.01 52.9419L168.73 54.6419C169.13 54.8519 169.48 54.5619 169.53 53.9719L170.09 48.3419C170.116 48.0724 170.086 47.8005 170.004 47.5426C169.921 47.2848 169.787 47.0464 169.61 46.8419L168 45.1619C167.751 44.8816 167.591 44.5335 167.54 44.1619C167.167 41.9019 167.294 39.5878 167.91 37.3819L167.9 37.3719Z" fill="#90CA77"/>
<path d="M171.16 35.1918C171.196 35.2644 171.247 35.3286 171.31 35.3802C171.373 35.4318 171.446 35.4697 171.524 35.4913C171.602 35.513 171.684 35.518 171.764 35.5061C171.845 35.4941 171.921 35.4654 171.99 35.4218L173.57 35.1318C173.57 35.1318 173.49 35.4018 174.04 34.6818L176.15 30.9018C176.237 30.6801 176.276 30.4423 176.264 30.2042C176.252 29.9662 176.189 29.7335 176.08 29.5218L173.2 24.2418C173.149 24.1353 173.076 24.0407 172.986 23.9646C172.896 23.8884 172.79 23.8324 172.677 23.8002C172.563 23.7681 172.444 23.7605 172.327 23.778C172.211 23.7955 172.099 23.8377 172 23.9018L170.22 24.2518C170.22 24.2518 171.22 23.5718 171.72 25.1218L174.19 29.6018C174.384 29.945 174.472 30.3378 174.444 30.731C174.416 31.1242 174.271 31.5002 174.03 31.8118L171.16 35.1918Z" fill="url(#paint23_linear)"/>
<path d="M166.17 37.692C166.504 35.9524 167.501 34.4106 168.95 33.392C169.071 33.3374 169.206 33.3266 169.334 33.3612C169.462 33.3959 169.574 33.4739 169.65 33.582L171.27 35.252C171.43 35.562 171.9 35.472 172.19 35.252L174.37 31.252C174.474 30.984 174.515 30.6956 174.489 30.4093C174.463 30.123 174.371 29.8467 174.22 29.602L171.45 24.602C171.2 24.172 170.85 23.972 170.57 24.102C168.98 24.832 165.41 27.242 163.28 34.722C161.757 40.4013 161.518 46.3486 162.58 52.132C162.606 52.3616 162.682 52.5827 162.803 52.7797C162.924 52.9767 163.087 53.1447 163.28 53.272L167 55.002C167.4 55.202 167.75 54.912 167.81 54.332L168.37 48.692C168.393 48.4234 168.361 48.153 168.277 47.8969C168.193 47.6409 168.058 47.4045 167.88 47.202L166.27 45.532C166.02 45.2512 165.856 44.9038 165.8 44.532C165.43 42.268 165.56 39.9505 166.18 37.742L166.17 37.692Z" fill="#212456"/>
<path d="M167.31 55.0619L169.13 54.6719C169.13 54.6719 169.5 54.4619 169.57 53.5819L170.09 47.9119C170.035 47.5453 169.883 47.2001 169.65 46.9119C169.3 46.6019 167.89 45.0819 167.89 45.0819C167.89 45.0819 167.41 44.6419 167.39 42.9919C167.256 41.4848 167.337 39.9663 167.63 38.4819C167.63 38.4819 168.28 34.9519 169.81 33.7919C169.756 33.6933 169.679 33.6086 169.587 33.5443C169.495 33.4801 169.388 33.4381 169.277 33.4217C169.166 33.4052 169.052 33.4147 168.945 33.4495C168.838 33.4842 168.74 33.5432 168.66 33.6219C167.98 34.2119 166.19 35.4419 165.66 40.7219V42.5919C165.655 43.4076 165.769 44.2196 166 45.0019C166.31 45.4619 167.77 47.0019 167.77 47.0019C167.77 47.0019 168.77 47.7219 168.29 49.9119L167.84 54.3919C167.84 54.3919 167.69 55.0019 167.31 55.0619Z" fill="url(#paint24_linear)"/>
<path d="M170.53 37.6418C171.307 38.5814 171.732 39.7625 171.732 40.9818C171.732 42.2012 171.307 43.3823 170.53 44.3218" stroke="white" stroke-width="1.5" stroke-miterlimit="10"/>
<path d="M171.89 36.8518C172.93 38.1209 173.498 39.711 173.498 41.3518C173.498 42.9926 172.93 44.5827 171.89 45.8518" stroke="white" stroke-width="1.5" stroke-miterlimit="10"/>
<defs>
<linearGradient id="paint0_linear" x1="190.43" y1="261.962" x2="400.21" y2="261.962" gradientUnits="userSpaceOnUse">
<stop stop-color="#D92128"/>
<stop offset="0.18" stop-color="#BD212F"/>
<stop offset="0.57" stop-color="#762341"/>
<stop offset="1" stop-color="#212456"/>
</linearGradient>
<linearGradient id="paint1_linear" x1="27586.5" y1="17715.7" x2="59254.2" y2="17715.7" gradientUnits="userSpaceOnUse">
<stop stop-color="#D92128"/>
<stop offset="0.18" stop-color="#BD212F"/>
<stop offset="0.57" stop-color="#762341"/>
<stop offset="1" stop-color="#212456"/>
</linearGradient>
<linearGradient id="paint2_linear" x1="2281.95" y1="17691.4" x2="2711.33" y2="17691.4" gradientUnits="userSpaceOnUse">
<stop stop-color="#D92128"/>
<stop offset="0.18" stop-color="#BD212F"/>
<stop offset="0.57" stop-color="#762341"/>
<stop offset="1" stop-color="#212456"/>
</linearGradient>
<linearGradient id="paint3_linear" x1="217.41" y1="234.802" x2="0" y2="234.802" gradientUnits="userSpaceOnUse">
<stop stop-color="#B3A7D2"/>
<stop offset="0.02" stop-color="#AFA3D0" stop-opacity="0.92"/>
<stop offset="0.07" stop-color="#A69ACB" stop-opacity="0.75"/>
<stop offset="0.13" stop-color="#9F93C7" stop-opacity="0.6"/>
<stop offset="0.19" stop-color="#988CC3" stop-opacity="0.48"/>
<stop offset="0.26" stop-color="#9387C0" stop-opacity="0.37"/>
<stop offset="0.35" stop-color="#8F83BE" stop-opacity="0.29"/>
<stop offset="0.45" stop-color="#8C80BC" stop-opacity="0.24"/>
<stop offset="0.6" stop-color="#8A7EBB" stop-opacity="0.21"/>
<stop offset="1" stop-color="#8A7EBB" stop-opacity="0.2"/>
</linearGradient>
<linearGradient id="paint4_linear" x1="-344038" y1="30296.3" x2="-352878" y2="30296.3" gradientUnits="userSpaceOnUse">
<stop stop-color="#D92128"/>
<stop offset="0.18" stop-color="#BD212F"/>
<stop offset="0.57" stop-color="#762341"/>
<stop offset="1" stop-color="#212456"/>
</linearGradient>
<linearGradient id="paint5_linear" x1="127.007" y1="261.694" x2="53.2634" y2="256.532" gradientUnits="userSpaceOnUse">
<stop stop-color="white"/>
<stop offset="1" stop-color="#EEEBF5"/>
</linearGradient>
<linearGradient id="paint6_linear" x1="389.84" y1="226.732" x2="466.98" y2="226.732" gradientUnits="userSpaceOnUse">
<stop stop-color="#FEFFFF"/>
<stop offset="0.25" stop-color="#F9FAFA"/>
<stop offset="0.53" stop-color="#ECEDEC"/>
<stop offset="0.83" stop-color="#D6D6D6"/>
<stop offset="1" stop-color="#C6C6C5"/>
</linearGradient>
<linearGradient id="paint7_linear" x1="30453.7" y1="9604.58" x2="36399.9" y2="9604.58" gradientUnits="userSpaceOnUse">
<stop stop-color="#FEFFFF"/>
<stop offset="0.25" stop-color="#F9FAFA"/>
<stop offset="0.53" stop-color="#ECEDEC"/>
<stop offset="0.83" stop-color="#D6D6D6"/>
<stop offset="1" stop-color="#C6C6C5"/>
</linearGradient>
<linearGradient id="paint8_linear" x1="30463.4" y1="6790.2" x2="36414.3" y2="6790.2" gradientUnits="userSpaceOnUse">
<stop stop-color="#FEFFFF"/>
<stop offset="0.25" stop-color="#F9FAFA"/>
<stop offset="0.53" stop-color="#ECEDEC"/>
<stop offset="0.83" stop-color="#D6D6D6"/>
<stop offset="1" stop-color="#C6C6C5"/>
</linearGradient>
<linearGradient id="paint9_linear" x1="30453.7" y1="9189.29" x2="36399.9" y2="9189.29" gradientUnits="userSpaceOnUse">
<stop stop-color="#C6C6C5"/>
<stop offset="1" stop-color="#FEFFFF"/>
</linearGradient>
<linearGradient id="paint10_linear" x1="30459.5" y1="6477.83" x2="36410.3" y2="6477.83" gradientUnits="userSpaceOnUse">
<stop stop-color="#FEFFFF"/>
<stop offset="0.25" stop-color="#F9FAFA"/>
<stop offset="0.53" stop-color="#ECEDEC"/>
<stop offset="0.83" stop-color="#D6D6D6"/>
<stop offset="1" stop-color="#C6C6C5"/>
</linearGradient>
<linearGradient id="paint11_linear" x1="30449.8" y1="8734.85" x2="36396" y2="8734.85" gradientUnits="userSpaceOnUse">
<stop stop-color="#FEFFFF"/>
<stop offset="0.25" stop-color="#F9FAFA"/>
<stop offset="0.53" stop-color="#ECEDEC"/>
<stop offset="0.83" stop-color="#D6D6D6"/>
<stop offset="1" stop-color="#C6C6C5"/>
</linearGradient>
<linearGradient id="paint12_linear" x1="30459.5" y1="6192.6" x2="36410.3" y2="6192.6" gradientUnits="userSpaceOnUse">
<stop stop-color="#FEFFFF"/>
<stop offset="0.25" stop-color="#F9FAFA"/>
<stop offset="0.53" stop-color="#ECEDEC"/>
<stop offset="0.83" stop-color="#D6D6D6"/>
<stop offset="1" stop-color="#C6C6C5"/>
</linearGradient>
<linearGradient id="paint13_linear" x1="30449.8" y1="8321.36" x2="36396" y2="8321.36" gradientUnits="userSpaceOnUse">
<stop stop-color="#C6C6C5"/>
<stop offset="1" stop-color="#FEFFFF"/>
</linearGradient>
<linearGradient id="paint14_linear" x1="30485.6" y1="5926.51" x2="36434.3" y2="5926.51" gradientUnits="userSpaceOnUse">
<stop stop-color="#FEFFFF"/>
<stop offset="0.25" stop-color="#F9FAFA"/>
<stop offset="0.53" stop-color="#ECEDEC"/>
<stop offset="0.83" stop-color="#D6D6D6"/>
<stop offset="1" stop-color="#C6C6C5"/>
</linearGradient>
<linearGradient id="paint15_linear" x1="30484.4" y1="7932.44" x2="36429.2" y2="7932.44" gradientUnits="userSpaceOnUse">
<stop stop-color="#C6C6C5"/>
<stop offset="1" stop-color="#FEFFFF"/>
</linearGradient>
<linearGradient id="paint16_linear" x1="30451.2" y1="5627.01" x2="36401.5" y2="5627.01" gradientUnits="userSpaceOnUse">
<stop stop-color="#FEFFFF"/>
<stop offset="0.25" stop-color="#F9FAFA"/>
<stop offset="0.53" stop-color="#ECEDEC"/>
<stop offset="0.83" stop-color="#D6D6D6"/>
<stop offset="1" stop-color="#C6C6C5"/>
</linearGradient>
<linearGradient id="paint17_linear" x1="30446.1" y1="7491.91" x2="36391.7" y2="7491.91" gradientUnits="userSpaceOnUse">
<stop stop-color="#C6C6C5"/>
<stop offset="1" stop-color="#FEFFFF"/>
</linearGradient>
<linearGradient id="paint18_linear" x1="30467.8" y1="7474.35" x2="36413.9" y2="7474.35" gradientUnits="userSpaceOnUse">
<stop stop-color="#C6C6C5"/>
<stop offset="1" stop-color="#FEFFFF"/>
</linearGradient>
<linearGradient id="paint19_linear" x1="30454.3" y1="5334.69" x2="36404.6" y2="5334.69" gradientUnits="userSpaceOnUse">
<stop stop-color="#FEFFFF"/>
<stop offset="0.25" stop-color="#F9FAFA"/>
<stop offset="0.53" stop-color="#ECEDEC"/>
<stop offset="0.83" stop-color="#D6D6D6"/>
<stop offset="1" stop-color="#C6C6C5"/>
</linearGradient>
<linearGradient id="paint20_linear" x1="19305.2" y1="4177.71" x2="22535.5" y2="4177.71" gradientUnits="userSpaceOnUse">
<stop stop-color="#D92128"/>
<stop offset="0.18" stop-color="#BD212F"/>
<stop offset="0.57" stop-color="#762341"/>
<stop offset="1" stop-color="#212456"/>
</linearGradient>
<linearGradient id="paint21_linear" x1="18485.8" y1="4587.74" x2="21715.5" y2="4587.74" gradientUnits="userSpaceOnUse">
<stop stop-color="#D92128"/>
<stop offset="0.18" stop-color="#BD212F"/>
<stop offset="0.57" stop-color="#762341"/>
<stop offset="1" stop-color="#212456"/>
</linearGradient>
<linearGradient id="paint22_linear" x1="19720.7" y1="4841.69" x2="23125.9" y2="4841.69" gradientUnits="userSpaceOnUse">
<stop stop-color="#D92128"/>
<stop offset="0.18" stop-color="#BD212F"/>
<stop offset="0.57" stop-color="#762341"/>
<stop offset="1" stop-color="#212456"/>
</linearGradient>
<linearGradient id="paint23_linear" x1="1199.59" y1="371.732" x2="1235.99" y2="371.732" gradientUnits="userSpaceOnUse">
<stop stop-color="#C6C6C5"/>
<stop offset="1" stop-color="#FEFFFF"/>
</linearGradient>
<linearGradient id="paint24_linear" x1="899.341" y1="990.476" x2="919.188" y2="990.476" gradientUnits="userSpaceOnUse">
<stop stop-color="#C6C6C5"/>
<stop offset="1" stop-color="#FEFFFF"/>
</linearGradient>
</defs>
</svg>
