<svg width="484" height="345" viewBox="0 0 484 345" fill="none" xmlns="http://www.w3.org/2000/svg">
<g opacity="0.6">
<path opacity="0.6" d="M86.608 95.4133L110.708 84.3233C198.898 50.3233 319.648 56.0633 398.018 101.323C476.388 146.583 486.278 216.323 427.418 267.203L407.308 281.903V294.673C402.241 298.3 396.788 301.807 390.948 305.193C387.678 307.073 384.358 308.883 380.948 310.633C296.678 353.753 169.668 354.183 83.498 312.093L181.148 255.713L154.148 240.113L56.438 296.503C-19.772 244.743 -16.022 167.303 68.048 118.763C73.9013 115.383 79.9847 112.23 86.298 109.303L86.608 95.4133Z" stroke="url(#paint0_linear)" stroke-width="3" stroke-miterlimit="10"/>
<path opacity="0.6" d="M83.218 311.953V311.963L83.468 312.103L83.498 312.093L181.138 255.713L154.118 240.113L56.438 296.503" stroke="url(#paint1_linear)" stroke-width="2.28" stroke-miterlimit="10"/>
</g>
<path d="M129.058 216.183L151.178 203.413L217.618 165.083C223.708 161.563 233.618 161.563 239.738 165.083L328.348 216.193C334.438 219.713 334.438 225.443 328.348 228.953L239.758 280.083C233.678 283.603 223.758 283.603 217.638 280.083L129.038 228.983C122.958 225.463 122.958 219.733 129.038 216.223L129.058 216.183Z" fill="#212456"/>
<path d="M332.908 199.693C332.908 202.003 331.408 204.323 328.348 206.073L239.758 257.183C233.678 260.703 223.758 260.703 217.638 257.183L129.038 206.073C126.038 204.323 124.478 202.003 124.478 199.693V218.983C124.478 221.293 123.678 224.543 126.738 226.303L217.178 278.763C223.268 282.283 233.688 282.543 239.758 279.023L329.498 227.143C332.498 225.383 332.738 222.743 332.738 220.433L332.908 199.693Z" fill="#CFDAE6"/>
<path d="M129.058 193.303L151.178 180.523L217.618 142.193C223.708 138.673 233.618 138.673 239.738 142.193L328.348 193.303C334.438 196.823 334.438 202.563 328.348 206.073L239.758 257.183C233.678 260.703 223.758 260.703 217.638 257.183L129.038 206.073C122.958 202.553 122.958 196.823 129.038 193.303H129.058Z" fill="#E1E9F1"/>
<path d="M165.288 200.103L179.228 192.053L221.108 167.893C223.268 166.798 225.656 166.228 228.078 166.228C230.5 166.228 232.888 166.798 235.048 167.893L290.888 200.103C294.728 202.323 294.728 205.933 290.888 208.103L235.058 240.323C232.896 241.413 230.509 241.981 228.088 241.981C225.667 241.981 223.28 241.413 221.118 240.323L165.278 208.103C161.448 205.883 161.448 202.263 165.278 200.103H165.288Z" fill="#E1EAF2"/>
<path d="M293.768 190.383C293.768 191.843 292.818 193.303 290.888 194.383L235.058 226.593C232.898 227.688 230.51 228.258 228.088 228.258C225.666 228.258 223.278 227.688 221.118 226.593L165.278 194.383C163.368 193.273 162.408 191.813 162.408 190.383V202.523C162.408 203.983 161.898 206.033 163.828 207.143L220.828 240.203C224.668 242.423 231.228 242.583 235.058 240.373L291.608 207.683C293.528 206.583 293.608 204.913 293.608 203.463L293.768 190.383Z" fill="url(#paint2_linear)"/>
<path d="M165.288 186.363L179.228 178.363L221.108 154.203C223.268 153.109 225.656 152.538 228.078 152.538C230.5 152.538 232.888 153.109 235.048 154.203L290.888 186.413C294.728 188.633 294.728 192.243 290.888 194.463L235.058 226.673C232.898 227.768 230.51 228.338 228.088 228.338C225.666 228.338 223.278 227.768 221.118 226.673L165.278 194.463C161.448 192.243 161.448 188.623 165.278 186.413L165.288 186.363Z" fill="url(#paint3_linear)"/>
<path opacity="0.5" d="M167.198 201.903L164.108 200.123V197.073L167.198 198.853V201.903Z" fill="#212456"/>
<path opacity="0.5" d="M171.228 204.233L168.138 202.443V199.393L171.228 201.183V204.233Z" fill="#212456"/>
<path d="M174.998 206.413L171.908 204.623V201.573L174.998 203.363V206.413Z" fill="#212456"/>
<path opacity="0.5" d="M179.028 208.733L175.938 206.953V203.903L179.028 205.683V208.733Z" fill="#212456"/>
<path d="M182.938 210.993L179.848 209.203V206.163L182.938 207.943V210.993Z" fill="#212456"/>
<path opacity="0.5" d="M186.968 213.323L183.878 211.533V208.483L186.968 210.273V213.323Z" fill="#212456"/>
<path d="M167.198 205.793L164.108 204.003V200.953L167.198 202.743V205.793Z" fill="#212456"/>
<path d="M171.228 208.113L168.138 206.333V203.283L171.228 205.073V208.113Z" fill="#212456"/>
<path opacity="0.5" d="M174.998 210.293L171.908 208.513V205.463L174.998 207.243V210.293Z" fill="#212456"/>
<path opacity="0.5" d="M179.028 212.623L175.938 210.833V207.783L179.028 209.573V212.623Z" fill="#212456"/>
<path d="M182.938 214.883L179.848 213.093V210.043L182.938 211.833V214.883Z" fill="#212456"/>
<path opacity="0.5" d="M186.968 217.203L183.878 215.423V212.373L186.968 214.163V217.203Z" fill="#212456"/>
<path d="M213.658 234.663L212.908 234.233V223.083L213.658 223.513V234.663Z" fill="#212456"/>
<path d="M214.898 235.383L214.338 235.053V223.903L214.898 224.233V235.383Z" fill="#212456"/>
<path d="M216.138 236.093L215.758 235.883V224.723L216.138 224.943V236.093Z" fill="#212456"/>
<path d="M219.728 238.173L220.158 238.413V227.263L219.728 227.013V238.173Z" fill="#212456"/>
<path d="M218.238 237.303L218.988 237.743V226.583L218.238 226.153V237.303Z" fill="#212456"/>
<path d="M217.088 236.643L217.468 236.863V225.713L217.088 225.493V236.643Z" fill="#212456"/>
<path d="M165.908 186.893L179.848 178.893L221.728 154.743C223.888 153.649 226.276 153.078 228.698 153.078C231.12 153.078 233.508 153.649 235.668 154.743L291.498 186.893C295.338 189.113 295.338 192.733 292.588 193.893L236.768 226.103C231.848 229.403 225.568 229.403 221.768 227.183L165.908 194.983C162.068 192.763 162.068 189.153 165.908 186.933V186.893Z" fill="#212456"/>
<path d="M165.288 184.613L179.288 176.613L221.158 152.453C223.318 151.359 225.706 150.788 228.128 150.788C230.55 150.788 232.938 151.359 235.098 152.453L290.938 184.663C294.778 186.883 294.778 190.503 290.938 192.713L235.058 224.883C232.898 225.978 230.51 226.548 228.088 226.548C225.666 226.548 223.278 225.978 221.118 224.883L165.278 192.663C161.448 190.443 161.448 186.823 165.278 184.613H165.288Z" fill="#E1EAF2"/>
<path d="M293.768 174.893C293.768 176.353 292.818 177.813 290.888 178.893L235.058 211.103C232.898 212.198 230.51 212.768 228.088 212.768C225.666 212.768 223.278 212.198 221.118 211.103L165.278 178.893C163.368 177.783 162.408 176.323 162.408 174.893V187.033C162.408 188.493 161.898 190.543 163.828 191.653L220.828 224.713C224.668 226.933 231.228 227.103 235.058 224.883L291.608 192.203C293.528 191.093 293.608 189.423 293.608 187.973L293.768 174.893Z" fill="url(#paint4_linear)"/>
<path d="M165.288 170.873L179.288 162.873L221.158 138.713C223.318 137.619 225.706 137.048 228.128 137.048C230.55 137.048 232.938 137.619 235.098 138.713L290.938 170.923C294.778 173.143 294.778 176.753 290.938 178.973L235.108 211.183C232.948 212.278 230.56 212.848 228.138 212.848C225.716 212.848 223.328 212.278 221.168 211.183L165.328 178.973C161.498 176.753 161.498 173.133 165.328 170.923L165.288 170.873Z" fill="url(#paint5_linear)"/>
<path opacity="0.5" d="M167.198 186.413L164.108 184.633V181.583L167.198 183.373V186.413Z" fill="#212456"/>
<path opacity="0.5" d="M171.228 188.743L168.138 186.953V183.913L171.228 185.693V188.743Z" fill="#212456"/>
<path d="M174.998 190.923L171.908 189.133V186.083L174.998 187.873V190.923Z" fill="#212456"/>
<path opacity="0.5" d="M179.028 193.243L175.938 191.463V188.413L179.028 190.193V193.243Z" fill="#212456"/>
<path d="M182.938 195.503L179.848 193.723V190.673L182.938 192.453V195.503Z" fill="#212456"/>
<path opacity="0.5" d="M186.968 197.833L183.878 196.043V192.993L186.968 194.783V197.833Z" fill="#212456"/>
<path d="M167.198 190.303L164.108 188.513V185.473L167.198 187.253V190.303Z" fill="#212456"/>
<path d="M171.228 192.633L168.138 190.843V187.793L171.228 189.583V192.633Z" fill="#212456"/>
<path opacity="0.5" d="M174.998 194.803L171.908 193.023V189.973L174.998 191.763V194.803Z" fill="#212456"/>
<path opacity="0.5" d="M179.028 197.133L175.938 195.343V192.293L179.028 194.083V197.133Z" fill="#212456"/>
<path d="M182.938 199.393L179.848 197.603V194.553L182.938 196.343V199.393Z" fill="#212456"/>
<path opacity="0.5" d="M186.968 201.723L183.878 199.933V196.883L186.968 198.673V201.723Z" fill="#212456"/>
<path d="M213.658 219.173L212.908 218.743V207.593L213.658 208.023V219.173Z" fill="#212456"/>
<path d="M214.898 219.893L214.338 219.573V208.413L214.898 208.743V219.893Z" fill="#212456"/>
<path d="M216.138 220.603L215.758 220.393V209.233L216.138 209.453V220.603Z" fill="#212456"/>
<path d="M219.728 222.683L220.158 222.923V211.773L219.728 211.523V222.683Z" fill="#212456"/>
<path d="M218.238 221.823L218.988 222.253V211.103L218.238 210.663V221.823Z" fill="#212456"/>
<path d="M217.088 221.163L217.468 221.373V210.223L217.088 210.003V221.163Z" fill="#212456"/>
<path d="M165.208 170.273L179.148 162.273L221.018 138.123C223.18 137.028 225.569 136.458 227.993 136.458C230.416 136.458 232.806 137.028 234.968 138.123L290.798 170.323C294.628 172.543 294.628 176.163 291.878 177.323L236.058 209.533C231.138 212.833 224.858 212.833 221.058 210.613L165.198 178.323C161.358 176.103 161.358 172.493 165.198 170.273H165.208Z" fill="#212456"/>
<path d="M165.208 167.593L179.148 159.543L221.018 135.383C223.178 134.288 225.566 133.718 227.988 133.718C230.41 133.718 232.798 134.288 234.958 135.383L290.808 167.593C294.638 169.813 294.638 173.423 290.808 175.593L234.978 207.813C232.814 208.903 230.426 209.471 228.003 209.471C225.58 209.471 223.191 208.903 221.028 207.813L165.198 175.643C161.358 173.423 161.358 169.803 165.198 167.643L165.208 167.593Z" fill="#E1EAF2"/>
<path d="M293.678 157.873C293.678 159.333 292.728 160.793 290.808 161.873L234.978 194.083C232.816 195.178 230.426 195.749 228.003 195.749C225.579 195.749 223.19 195.178 221.028 194.083L165.198 161.903C163.278 160.793 162.318 159.333 162.318 157.903V169.983C162.318 171.443 161.818 173.493 163.738 174.603L220.738 207.663C224.568 209.883 231.138 210.043 234.968 207.833L291.498 175.173C293.418 174.073 293.548 172.403 293.548 170.953L293.678 157.873Z" fill="url(#paint6_linear)"/>
<path d="M165.208 153.853L179.148 145.803L221.018 121.643C223.178 120.548 225.566 119.978 227.988 119.978C230.41 119.978 232.798 120.548 234.958 121.643L290.808 153.853C294.638 156.073 294.638 159.683 290.808 161.853L234.978 194.063C232.816 195.158 230.426 195.728 228.003 195.728C225.579 195.728 223.19 195.158 221.028 194.063L165.198 161.903C161.358 159.683 161.358 156.063 165.198 153.903L165.208 153.853Z" fill="url(#paint7_linear)"/>
<path opacity="0.5" d="M167.118 169.393L164.018 167.613V164.563L167.118 166.343V169.393Z" fill="#212456"/>
<path opacity="0.5" d="M171.138 171.723L168.048 169.933V166.893L171.138 168.673V171.723Z" fill="#212456"/>
<path d="M174.908 173.903L171.818 172.113V169.063L174.908 170.853V173.903Z" fill="#212456"/>
<path opacity="0.5" d="M178.938 176.223L175.848 174.443V171.393L178.938 173.173V176.223Z" fill="#212456"/>
<path d="M182.858 178.483L179.758 176.703V173.653L182.858 175.433V178.483Z" fill="#212456"/>
<path opacity="0.5" d="M186.878 180.813L183.788 179.023V175.973L186.878 177.763V180.813Z" fill="#212456"/>
<path d="M167.118 173.283L164.018 171.493V168.453L167.118 170.233V173.283Z" fill="#212456"/>
<path d="M171.138 175.613L168.048 173.823V170.773L171.138 172.563V175.613Z" fill="#212456"/>
<path opacity="0.5" d="M174.908 177.783L171.818 176.003V172.953L174.908 174.733V177.783Z" fill="#212456"/>
<path opacity="0.5" d="M178.938 180.113L175.848 178.323V175.273L178.938 177.063V180.113Z" fill="#212456"/>
<path d="M182.858 182.373L179.758 180.583V177.533L182.858 179.323V182.373Z" fill="#212456"/>
<path opacity="0.5" d="M186.878 184.693L183.788 182.913V179.863L186.878 181.643V184.693Z" fill="#212456"/>
<path d="M213.578 202.153L212.828 201.723V190.573L213.578 191.003V202.153Z" fill="#212456"/>
<path d="M214.808 202.873L214.248 202.543V191.393L214.808 191.723V202.873Z" fill="#212456"/>
<path d="M216.048 203.583L215.678 203.373V192.213L216.048 192.433V203.583Z" fill="#212456"/>
<path d="M219.648 205.663L220.068 205.903V194.753L219.648 194.503V205.663Z" fill="#212456"/>
<path d="M218.148 204.803L218.898 205.233V194.073L218.148 193.643V204.803Z" fill="#212456"/>
<path d="M217.008 204.143L217.378 204.353V193.203L217.008 192.983V204.143Z" fill="#212456"/>
<path d="M165.828 154.383L179.768 146.383L221.638 122.223C223.807 121.12 226.205 120.545 228.638 120.545C231.071 120.545 233.47 121.12 235.638 122.223L291.468 154.423C295.298 156.643 295.298 160.263 292.548 161.423L236.728 193.633C231.808 196.933 225.528 196.933 221.728 194.713L165.888 162.503C162.048 160.283 162.048 156.673 165.888 154.503L165.828 154.383Z" fill="#212456"/>
<path d="M165.208 152.103L179.148 144.053L221.018 119.893C223.178 118.798 225.566 118.228 227.988 118.228C230.41 118.228 232.798 118.798 234.958 119.893L290.808 152.103C294.638 154.323 294.638 157.943 290.808 160.103L234.978 192.323C232.816 193.418 230.426 193.988 228.003 193.988C225.579 193.988 223.19 193.418 221.028 192.323L165.198 160.153C161.358 157.933 161.358 154.313 165.198 152.153L165.208 152.103Z" fill="#E1EAF2"/>
<path d="M293.678 142.383C293.678 143.843 292.728 145.303 290.808 146.383L234.978 178.593C232.816 179.688 230.426 180.259 228.003 180.259C225.579 180.259 223.19 179.688 221.028 178.593L165.198 146.413C163.278 145.303 162.318 143.843 162.318 142.413V154.553C162.318 156.013 161.818 158.063 163.738 159.173L220.738 192.233C224.568 194.453 231.138 194.623 234.968 192.403L291.498 159.693C293.418 158.583 293.548 156.913 293.548 155.463L293.678 142.383Z" fill="url(#paint8_linear)"/>
<path d="M165.208 138.363L179.148 130.363L221.018 106.203C223.178 105.109 225.566 104.538 227.988 104.538C230.41 104.538 232.798 105.109 234.958 106.203L290.808 138.413C294.638 140.633 294.638 144.243 290.808 146.463L234.978 178.673C232.816 179.768 230.426 180.339 228.003 180.339C225.579 180.339 223.19 179.768 221.028 178.673L165.198 146.413C161.358 144.193 161.358 140.583 165.198 138.363H165.208Z" fill="url(#paint9_linear)"/>
<path opacity="0.5" d="M167.118 153.903L164.018 152.123V149.073L167.118 150.863V153.903Z" fill="#212456"/>
<path opacity="0.5" d="M171.138 156.233L168.048 154.443V151.403L171.138 153.183V156.233Z" fill="#212456"/>
<path d="M174.908 158.413L171.818 156.623V153.573L174.908 155.363V158.413Z" fill="#212456"/>
<path opacity="0.5" d="M178.938 160.733L175.848 158.953V155.903L178.938 157.693V160.733Z" fill="#212456"/>
<path d="M182.858 162.993L179.758 161.213V158.163L182.858 159.943V162.993Z" fill="#212456"/>
<path opacity="0.5" d="M186.888 165.323L183.788 163.533V160.483L186.888 162.273V165.323Z" fill="#212456"/>
<path d="M167.118 157.793L164.018 156.013V152.963L167.118 154.743V157.793Z" fill="#212456"/>
<path d="M171.138 160.123L168.048 158.333V155.283L171.138 157.073V160.123Z" fill="#212456"/>
<path opacity="0.5" d="M174.908 162.293L171.818 160.513V157.463L174.908 159.243V162.293Z" fill="#212456"/>
<path opacity="0.5" d="M178.938 164.623L175.848 162.833V159.793L178.938 161.573V164.623Z" fill="#212456"/>
<path d="M182.858 166.883L179.758 165.093V162.043L182.858 163.833V166.883Z" fill="#212456"/>
<path opacity="0.5" d="M186.888 169.203L183.788 167.423V164.373L186.888 166.163V169.203Z" fill="#212456"/>
<path d="M213.578 186.673L212.828 186.233V175.083L213.578 175.513V186.673Z" fill="#212456"/>
<path d="M214.808 187.383L214.248 187.063V175.903L214.808 176.233V187.383Z" fill="#212456"/>
<path d="M216.048 188.103L215.678 187.883V176.733L216.048 176.943V188.103Z" fill="#212456"/>
<path d="M219.648 190.173L220.068 190.423V179.263L219.648 179.023V190.173Z" fill="#212456"/>
<path d="M218.148 189.313L218.898 189.743V178.593L218.148 178.153V189.313Z" fill="#212456"/>
<path d="M217.008 188.653L217.378 188.863V177.713L217.008 177.493V188.653Z" fill="#212456"/>
<path d="M166.628 139.823L180.568 131.823L222.498 107.623C224.658 106.528 227.046 105.958 229.468 105.958C231.89 105.958 234.278 106.528 236.438 107.623L292.268 139.823C296.108 142.043 296.108 145.663 293.348 146.823L237.498 178.983C232.578 182.283 226.298 182.283 222.498 180.063L166.658 147.853C162.828 145.633 162.828 142.023 166.658 139.853L166.628 139.823Z" fill="#212456"/>
<path d="M166.008 137.543L179.948 129.493L221.828 105.333C223.988 104.238 226.376 103.668 228.798 103.668C231.22 103.668 233.608 104.238 235.768 105.333L291.608 137.543C295.448 139.763 295.448 143.383 291.608 145.593L235.778 177.813C233.618 178.908 231.23 179.478 228.808 179.478C226.386 179.478 223.998 178.908 221.838 177.813L165.998 145.593C162.168 143.373 162.168 139.753 165.998 137.543H166.008Z" fill="#E1EAF2"/>
<path d="M294.498 127.823C294.498 129.283 293.548 130.743 291.618 131.823L235.788 164.033C233.628 165.128 231.24 165.698 228.818 165.698C226.396 165.698 224.008 165.128 221.848 164.033L165.998 131.853C164.078 130.743 163.118 129.283 163.118 127.853V139.983C163.118 141.443 162.608 143.493 164.538 144.603L221.538 177.663C225.378 179.883 231.938 180.053 235.768 177.833L292.318 145.153C294.238 144.043 294.318 142.383 294.318 140.923L294.498 127.823Z" fill="url(#paint10_linear)"/>
<path d="M166.008 123.803L179.948 115.803L221.828 91.6432C223.988 90.5485 226.376 89.978 228.798 89.978C231.22 89.978 233.608 90.5485 235.768 91.6432L291.608 123.853C295.448 126.073 295.448 129.683 291.608 131.903L235.778 164.113C233.618 165.208 231.23 165.778 228.808 165.778C226.386 165.778 223.998 165.208 221.838 164.113L165.998 131.853C162.168 129.633 162.168 126.023 165.998 123.803H166.008Z" fill="url(#paint11_linear)"/>
<path opacity="0.5" d="M167.918 139.353L164.828 137.563V134.513L167.918 136.303V139.353Z" fill="#212456"/>
<path opacity="0.5" d="M171.948 141.673L168.858 139.893V136.843L171.948 138.623V141.673Z" fill="#212456"/>
<path d="M175.718 143.853L172.628 142.063V139.013L175.718 140.803V143.853Z" fill="#212456"/>
<path opacity="0.5" d="M179.748 146.173L176.658 144.393V141.343L179.748 143.133V146.173Z" fill="#212456"/>
<path d="M183.658 148.433L180.568 146.653V143.603L183.658 145.393V148.433Z" fill="#212456"/>
<path opacity="0.5" d="M187.688 150.763L184.598 148.973V145.923L187.688 147.713V150.763Z" fill="#212456"/>
<path d="M167.918 143.233L164.828 141.453V138.403L167.918 140.183V143.233Z" fill="#212456"/>
<path d="M171.948 145.563L168.858 143.773V140.723L171.948 142.513V145.563Z" fill="#212456"/>
<path opacity="0.5" d="M175.718 147.733L172.628 145.953V142.903L175.718 144.693V147.733Z" fill="#212456"/>
<path opacity="0.5" d="M179.748 150.063L176.658 148.273V145.233L179.748 147.013V150.063Z" fill="#212456"/>
<path d="M183.658 152.323L180.568 150.533V147.483L183.658 149.273V152.323Z" fill="#212456"/>
<path opacity="0.5" d="M187.688 154.643L184.598 152.863V149.813L187.688 151.603V154.643Z" fill="#212456"/>
<path d="M214.378 172.113L213.628 171.673V160.523L214.378 160.953V172.113Z" fill="#212456"/>
<path d="M215.618 172.823L215.058 172.503V161.343L215.618 161.673V172.823Z" fill="#212456"/>
<path d="M216.858 173.543L216.478 173.323V162.173L216.858 162.383V173.543Z" fill="#212456"/>
<path d="M220.448 175.613L220.878 175.863V164.703L220.448 164.463V175.613Z" fill="#212456"/>
<path d="M218.958 174.753L219.708 175.183V164.033L218.958 163.593V174.753Z" fill="#212456"/>
<path d="M217.808 174.093L218.188 174.303V163.153L217.808 162.933V174.093Z" fill="#212456"/>
<path d="M165.708 123.563L179.648 115.563L221.498 91.3532C223.658 90.2585 226.046 89.688 228.468 89.688C230.89 89.688 233.278 90.2585 235.438 91.3532L291.268 123.563C295.108 125.783 295.108 129.403 292.348 130.563L236.538 162.773C231.618 166.073 225.338 166.073 221.538 163.853L165.698 131.613C161.868 129.393 161.868 125.773 165.698 123.613L165.708 123.563Z" fill="#212456"/>
<path d="M165.088 121.273L179.028 113.273L220.908 89.1132C223.068 88.0185 225.456 87.448 227.878 87.448C230.3 87.448 232.688 88.0185 234.848 89.1132L290.688 121.323C294.528 123.543 294.528 127.153 290.688 129.323L234.858 161.543C232.698 162.638 230.31 163.208 227.888 163.208C225.466 163.208 223.078 162.638 220.918 161.543L165.078 129.323C161.248 127.113 161.248 123.493 165.078 121.323L165.088 121.273Z" fill="#E1EAF2"/>
<path d="M293.568 111.563C293.568 113.023 292.618 114.483 290.688 115.563L234.858 147.783C232.696 148.873 230.309 149.441 227.888 149.441C225.467 149.441 223.08 148.873 220.918 147.783L165.078 115.583C163.158 114.483 162.198 113.023 162.198 111.583V123.723C162.198 125.183 161.688 127.233 163.618 128.333L220.618 161.403C224.458 163.623 231.018 163.783 234.848 161.563L291.398 128.883C293.318 127.783 293.398 126.113 293.398 124.653L293.568 111.563Z" fill="url(#paint12_linear)"/>
<path d="M165.088 107.533L179.028 99.5332L220.908 75.3832C223.068 74.2885 225.456 73.718 227.878 73.718C230.3 73.718 232.688 74.2885 234.848 75.3832L290.688 107.593C294.528 109.803 294.528 113.423 290.688 115.593L234.858 147.813C232.696 148.903 230.309 149.471 227.888 149.471C225.467 149.471 223.08 148.903 220.918 147.813L165.078 115.583C161.248 113.373 161.248 109.753 165.078 107.583L165.088 107.533Z" fill="url(#paint13_linear)"/>
<path opacity="0.5" d="M166.998 123.083L163.908 121.293V118.253L166.998 120.033V123.083Z" fill="#212456"/>
<path opacity="0.5" d="M171.028 125.413L167.938 123.623V120.573L171.028 122.363V125.413Z" fill="#212456"/>
<path d="M174.798 127.583L171.708 125.803V122.753L174.798 124.543V127.583Z" fill="#212456"/>
<path opacity="0.5" d="M178.828 129.913L175.738 128.123V125.073L178.828 126.863V129.913Z" fill="#212456"/>
<path d="M182.738 132.173L179.648 130.383V127.343L182.738 129.123V132.173Z" fill="#212456"/>
<path opacity="0.5" d="M186.768 134.493L183.678 132.713V129.663L186.768 131.453V134.493Z" fill="#212456"/>
<path d="M166.998 126.973L163.908 125.183V122.133L166.998 123.923V126.973Z" fill="#212456"/>
<path d="M171.028 129.293L167.938 127.513V124.463L171.028 126.243V129.293Z" fill="#212456"/>
<path opacity="0.5" d="M174.798 131.473L171.708 129.683V126.643L174.798 128.423V131.473Z" fill="#212456"/>
<path opacity="0.5" d="M178.828 133.793L175.738 132.013V128.963L178.828 130.753V133.793Z" fill="#212456"/>
<path d="M182.738 136.053L179.648 134.273V131.223L182.738 133.013V136.053Z" fill="#212456"/>
<path opacity="0.5" d="M186.768 138.383L183.678 136.603V133.553L186.768 135.333V138.383Z" fill="#212456"/>
<path d="M213.458 155.843L212.708 155.413V144.263L213.458 144.693V155.843Z" fill="#212456"/>
<path d="M214.698 156.563L214.138 156.233V145.083L214.698 145.403V156.563Z" fill="#212456"/>
<path d="M215.938 157.273L215.558 157.053V145.903L215.938 146.123V157.273Z" fill="#212456"/>
<path d="M219.528 159.353L219.958 159.593V148.443L219.528 148.193V159.353Z" fill="#212456"/>
<path d="M218.038 158.483L218.788 158.923V147.763L218.038 147.333V158.483Z" fill="#212456"/>
<path d="M216.888 157.823L217.268 158.043V146.893L216.888 146.673V157.823Z" fill="#212456"/>
<path d="M165.598 106.633L179.538 98.6331L221.408 74.4731C223.577 73.3701 225.975 72.7952 228.408 72.7952C230.841 72.7952 233.24 73.3701 235.408 74.4731L291.248 106.683C295.088 108.903 295.088 112.513 291.248 114.683L235.418 146.893C233.256 147.983 230.869 148.551 228.448 148.551C226.027 148.551 223.64 147.983 221.478 146.893L165.638 114.683C161.808 112.463 161.808 108.843 165.638 106.683L165.598 106.633Z" fill="url(#paint14_linear)"/>
<path d="M165.418 106.893L179.358 98.8932L221.238 74.6832C223.398 73.5885 225.786 73.0181 228.208 73.0181C230.63 73.0181 233.018 73.5885 235.178 74.6832L291.008 106.893C294.848 109.113 294.848 112.733 291.008 114.893L235.188 147.103C233.028 148.198 230.64 148.768 228.218 148.768C225.796 148.768 223.408 148.198 221.248 147.103L165.408 114.983C161.578 112.763 161.578 109.143 165.408 106.983L165.418 106.893Z" fill="#212456"/>
<path d="M165.158 105.303L179.098 97.3032L220.978 73.1432C223.138 72.0485 225.526 71.478 227.948 71.478C230.37 71.478 232.758 72.0485 234.918 73.1432L290.758 105.353C294.598 107.573 294.598 111.183 290.758 113.353L234.928 145.573C232.768 146.668 230.38 147.238 227.958 147.238C225.536 147.238 223.148 146.668 220.988 145.573L165.148 113.353C161.318 111.133 161.318 107.523 165.148 105.353L165.158 105.303Z" fill="#E1EAF2"/>
<path d="M293.638 95.5933C293.638 97.0533 292.688 98.5133 290.758 99.5933L234.928 131.803C232.768 132.898 230.38 133.468 227.958 133.468C225.536 133.468 223.148 132.898 220.988 131.803L165.148 99.6133C163.228 98.5133 162.268 97.0533 162.268 95.6133V107.753C162.268 109.213 161.758 111.263 163.688 112.363L220.688 145.433C224.528 147.653 231.088 147.813 234.918 145.593L291.498 112.893C293.418 111.793 293.498 110.123 293.498 108.663L293.638 95.5933Z" fill="url(#paint15_linear)"/>
<path d="M165.158 91.5633L179.098 83.5633L220.978 59.4033C223.14 58.3132 225.527 57.7454 227.948 57.7454C230.369 57.7454 232.756 58.3132 234.918 59.4033L290.758 91.6233C294.598 93.8333 294.598 97.4533 290.758 99.6233L234.928 131.833C232.768 132.928 230.38 133.498 227.958 133.498C225.536 133.498 223.148 132.928 220.988 131.833L165.148 99.6133C161.318 97.4033 161.318 93.7833 165.148 91.6133L165.158 91.5633Z" fill="#DFE8F1"/>
<path opacity="0.5" d="M167.068 107.113L163.978 105.323V102.283L167.068 104.063V107.113Z" fill="#212456"/>
<path opacity="0.5" d="M171.098 109.433L167.998 107.653V104.603L171.098 106.393V109.433Z" fill="#212456"/>
<path d="M174.868 111.613L171.778 109.833V106.783L174.868 108.563V111.613Z" fill="#212456"/>
<path opacity="0.5" d="M178.898 113.943L175.798 112.153V109.103L178.898 110.893V113.943Z" fill="#212456"/>
<path d="M182.808 116.203L179.718 114.413V111.363L182.808 113.153V116.203Z" fill="#212456"/>
<path opacity="0.5" d="M186.838 118.523L183.748 116.743V113.693L186.838 115.483V118.523Z" fill="#212456"/>
<path d="M167.068 111.003L163.978 109.213V106.163L167.068 107.953V111.003Z" fill="#212456"/>
<path d="M171.098 113.323L167.998 111.543V108.493L171.098 110.273V113.323Z" fill="#212456"/>
<path opacity="0.5" d="M174.868 115.503L171.778 113.713V110.673L174.868 112.453V115.503Z" fill="#212456"/>
<path opacity="0.5" d="M178.898 117.823L175.798 116.043V112.993L178.898 114.783V117.823Z" fill="#212456"/>
<path d="M182.808 120.093L179.718 118.303V115.253L182.808 117.043V120.093Z" fill="#212456"/>
<path opacity="0.5" d="M186.838 122.413L183.748 120.623V117.583L186.838 119.363V122.413Z" fill="#212456"/>
<path d="M213.528 139.873L212.778 139.443V128.293L213.528 128.723V139.873Z" fill="#212456"/>
<path d="M214.768 140.593L214.208 140.263V129.113L214.768 129.433V140.593Z" fill="#212456"/>
<path d="M216.008 141.303L215.628 141.083V129.933L216.008 130.153V141.303Z" fill="#212456"/>
<path d="M219.598 143.383L220.028 143.623V132.473L219.598 132.223V143.383Z" fill="#212456"/>
<path d="M218.108 142.513L218.848 142.953V131.793L218.108 131.363V142.513Z" fill="#212456"/>
<path d="M216.958 141.853L217.338 142.073V130.923L216.958 130.703V141.853Z" fill="#212456"/>
<path d="M290.128 111.993L290.828 111.593V101.153L290.128 101.563V111.993Z" fill="#212456"/>
<path d="M288.968 112.663L289.498 112.363V101.923L288.968 102.233V112.663Z" fill="#212456"/>
<path d="M287.818 113.333L288.168 113.133V102.693L287.818 102.903V113.333Z" fill="#212456"/>
<path d="M284.448 115.273L284.058 115.503V105.073L284.448 104.843V115.273Z" fill="#212456"/>
<path d="M285.848 114.463L285.148 114.873V104.433L285.848 104.033V114.463Z" fill="#212456"/>
<path d="M286.918 113.843L286.568 114.053V103.623L286.918 103.413V113.843Z" fill="#212456"/>
<path opacity="0.6" d="M177.328 90.8632L188.598 84.3632L222.438 64.8332C224.186 63.946 226.118 63.4836 228.078 63.4836C230.038 63.4836 231.97 63.946 233.718 64.8332L278.858 90.8332C281.958 92.6232 281.958 95.5432 278.858 97.3332L233.728 123.333C231.979 124.216 230.047 124.676 228.088 124.676C226.129 124.676 224.197 124.216 222.448 123.333L177.318 97.3332C174.218 95.5432 174.218 92.6232 177.318 90.8332L177.328 90.8632Z" fill="white"/>
<path d="M381.588 244.283C374.968 248.173 374.968 254.553 381.588 258.453L430.128 287.083C436.748 290.983 447.568 290.983 454.188 287.083L478.498 272.793C485.108 268.903 485.118 262.533 478.498 258.633L429.978 229.983C423.358 226.083 412.538 226.073 405.918 229.983L381.588 244.283Z" fill="#212456"/>
<path d="M483.498 256.883C483.638 259.563 481.998 262.283 478.568 264.323L454.158 278.873C447.568 282.813 436.758 282.873 430.158 278.933L381.598 250.303C378.098 248.243 376.448 245.483 376.598 242.753V250.193C376.408 252.923 378.058 255.693 381.598 257.753L430.138 286.383C436.748 290.283 447.558 290.253 454.138 286.323L478.548 271.773C481.548 269.983 483.188 267.673 483.448 265.333L483.498 256.883Z" fill="url(#paint16_linear)"/>
<path d="M381.558 236.463C374.968 240.403 374.978 246.803 381.558 250.703L430.098 279.333C436.708 283.233 447.518 283.203 454.098 279.273L478.508 264.723C485.108 260.793 485.088 254.383 478.508 250.483L429.968 221.853C423.358 217.953 412.548 217.983 405.968 221.913L381.558 236.463Z" fill="#E1E9F1"/>
<g opacity="0.2">
<path opacity="0.2" d="M414.848 259.483C429.417 259.483 441.228 252.83 441.228 244.623C441.228 236.416 429.417 229.763 414.848 229.763C400.279 229.763 388.468 236.416 388.468 244.623C388.468 252.83 400.279 259.483 414.848 259.483Z" fill="#A3C9EB"/>
<path opacity="0.2" d="M414.848 254.033C429.417 254.033 441.228 247.38 441.228 239.173C441.228 230.966 429.417 224.313 414.848 224.313C400.279 224.313 388.468 230.966 388.468 239.173C388.468 247.38 400.279 254.033 414.848 254.033Z" stroke="#212456" stroke-miterlimit="10"/>
<path opacity="0.2" d="M438.154 253.857C439.36 251.798 439.376 249.566 438.189 248.871C437.003 248.176 435.063 249.281 433.857 251.34C432.651 253.398 432.636 255.631 433.822 256.326C435.009 257.021 436.948 255.916 438.154 253.857Z" fill="#A3C9EB"/>
<path opacity="0.2" d="M435.938 256.853L463.938 273.993L466.168 275.353L469.948 269.193L467.598 267.693L438.498 249.143C438.498 249.143 436.758 247.023 434.268 250.343C433.849 250.903 433.54 251.538 433.358 252.213C432.928 253.723 432.498 256.313 434.588 256.463C435.063 256.482 435.526 256.616 435.938 256.853Z" fill="#D92128"/>
<path opacity="0.2" d="M469.064 272.763C470.27 270.705 470.286 268.472 469.099 267.777C467.912 267.082 465.973 268.188 464.767 270.246C463.561 272.305 463.545 274.537 464.732 275.232C465.919 275.927 467.858 274.822 469.064 272.763Z" fill="#D92128"/>
<g opacity="0.6">
<path opacity="0.6" d="M412.659 244.525C413.924 244.405 414.879 243.572 414.793 242.665C414.707 241.758 413.612 241.12 412.347 241.24C411.083 241.36 410.127 242.192 410.213 243.099C410.3 244.007 411.394 244.645 412.659 244.525Z" fill="#212456"/>
<path opacity="0.6" d="M410.368 237.463C413.072 237.166 415.784 237.946 417.918 239.633C418.762 240.305 419.366 241.232 419.64 242.276C419.914 243.319 419.843 244.423 419.438 245.423" stroke="#212456" stroke-width="2" stroke-miterlimit="10" stroke-linecap="round"/>
<path opacity="0.6" d="M410.768 234.623C414.456 234.335 418.116 235.457 421.008 237.763C422.145 238.667 422.98 239.895 423.403 241.285C423.826 242.674 423.817 244.159 423.378 245.543" stroke="#212456" stroke-width="2" stroke-miterlimit="10" stroke-linecap="round"/>
<path opacity="0.6" d="M410.628 231.843C415.628 231.703 420.538 233.123 423.848 236.053C427.158 238.983 428.088 242.543 427.118 246.053" stroke="#212456" stroke-width="2" stroke-miterlimit="10" stroke-linecap="round"/>
</g>
</g>
<path d="M67.9579 69.9233C62.3279 73.2433 62.3179 78.6733 67.9579 81.9933L109.308 106.373C114.938 109.693 124.158 109.703 129.798 106.373L150.498 94.2033C156.128 90.8933 156.138 85.4633 150.498 82.1433L109.168 57.7633C103.538 54.4433 94.3179 54.4333 88.6779 57.7633L67.9579 69.9233Z" fill="#212456"/>
<path d="M154.748 80.6633C154.868 82.9433 153.468 85.2533 150.548 86.9933L129.758 99.3833C124.148 102.733 114.938 102.763 109.308 99.3833L67.968 75.0533C64.968 73.3033 63.578 70.9433 63.748 68.6233V74.9833C63.578 77.3033 64.988 79.6633 67.968 81.4133L109.308 105.793C114.938 109.123 124.148 109.093 129.758 105.793L150.548 93.3933C153.108 91.8733 154.498 89.9033 154.728 87.9133L154.748 80.6633Z" fill="url(#paint17_linear)"/>
<path d="M67.9381 63.2633C62.3181 66.6133 62.3281 72.0733 67.9381 75.3933L109.278 99.7733C114.908 103.093 124.118 103.073 129.728 99.7233L150.518 87.3333C156.138 83.9833 156.128 78.5233 150.518 75.2033L109.178 50.8233C103.548 47.5033 94.3481 47.5233 88.7281 50.8233L67.9381 63.2633Z" fill="#E1E9F1"/>
<path d="M341.028 101.603L352.958 94.7133L388.768 74.0533C390.617 73.1167 392.66 72.6287 394.733 72.6287C396.806 72.6287 398.849 73.1167 400.698 74.0533L448.498 101.603C451.778 103.503 451.778 106.603 448.498 108.483L400.748 136.043C398.899 136.98 396.856 137.468 394.783 137.468C392.71 137.468 390.667 136.98 388.818 136.043L341.018 108.483C337.748 106.593 337.748 103.483 341.018 101.603H341.028Z" fill="#212456"/>
<path d="M450.918 92.7131C450.918 93.9531 450.108 95.2031 448.458 96.1531L400.708 123.703C398.859 124.64 396.816 125.128 394.743 125.128C392.671 125.128 390.627 124.64 388.778 123.703L341.018 96.1531C339.388 95.1531 338.558 93.9531 338.558 92.7131V103.093C338.558 104.343 338.118 106.093 339.768 107.093L388.498 135.323C391.778 137.213 397.388 137.323 400.668 135.463L449.028 107.463C449.645 107.103 450.141 106.567 450.453 105.924C450.764 105.282 450.878 104.561 450.778 103.853L450.918 92.7131Z" fill="url(#paint18_linear)"/>
<path d="M341.028 89.2633L352.958 82.3833L388.768 61.7133C390.618 60.7814 392.661 60.2959 394.733 60.2959C396.805 60.2959 398.848 60.7814 400.698 61.7133L448.498 89.2633C451.778 91.1633 451.778 94.2633 448.498 96.1533L400.748 123.703C398.899 124.64 396.856 125.128 394.783 125.128C392.71 125.128 390.667 124.64 388.818 123.703L341.018 96.1533C337.748 94.2533 337.748 91.1533 341.018 89.2633H341.028Z" fill="#E1E9F1"/>
<path d="M359.428 90.2631L366.938 85.9831L389.508 72.9831C390.675 72.3966 391.962 72.0911 393.268 72.0911C394.574 72.0911 395.861 72.3966 397.028 72.9831L427.128 90.3531C429.198 91.5431 429.198 93.4931 427.128 94.6831L397.038 111.983C395.873 112.575 394.585 112.884 393.278 112.884C391.971 112.884 390.683 112.575 389.518 111.983L359.418 94.6131C357.358 93.4231 357.358 91.4732 359.418 90.2831L359.428 90.2631Z" fill="#E1EAF2"/>
<path d="M428.678 85.0332C428.635 85.4999 428.469 85.9469 428.197 86.3283C427.925 86.7097 427.556 87.0116 427.128 87.2032L397.038 104.563C395.873 105.155 394.585 105.464 393.278 105.464C391.971 105.464 390.683 105.155 389.518 104.563L359.418 87.2032C358.991 87.0099 358.624 86.7075 358.351 86.3265C358.079 85.9454 357.912 85.4993 357.868 85.0332V91.5732C357.868 92.3632 357.598 93.4632 358.638 94.0632L389.368 111.883C390.553 112.489 391.862 112.813 393.192 112.828C394.523 112.844 395.839 112.551 397.038 111.973L427.498 94.3532C427.886 94.1244 428.198 93.7857 428.393 93.3799C428.589 92.9741 428.66 92.5194 428.598 92.0732L428.678 85.0332Z" fill="url(#paint19_linear)"/>
<path d="M359.428 82.8632L366.938 78.5232L389.508 65.5232C390.675 64.9366 391.962 64.6311 393.268 64.6311C394.574 64.6311 395.861 64.9366 397.028 65.5232L427.128 82.8932C429.198 84.0832 429.198 86.0332 427.128 87.2332L397.038 104.593C395.873 105.185 394.585 105.494 393.278 105.494C391.971 105.494 390.683 105.185 389.518 104.593L359.418 87.2332C357.358 86.0332 357.358 84.0832 359.418 82.8932L359.428 82.8632Z" fill="url(#paint20_linear)"/>
<path opacity="0.5" d="M360.458 91.2433L358.788 90.2833V88.6333L360.458 89.5933V91.2433Z" fill="#212456"/>
<path opacity="0.5" d="M362.628 92.4933L360.958 91.5333V89.8933L362.628 90.8533V92.4933Z" fill="#212456"/>
<path d="M364.658 93.6732L362.988 92.7032V91.0632L364.658 92.0232V93.6732Z" fill="#212456"/>
<path opacity="0.5" d="M366.828 94.9232L365.168 93.9632V92.3132L366.828 93.2832V94.9232Z" fill="#212456"/>
<path d="M368.938 96.1432L367.268 95.1732V93.5332L368.938 94.4932V96.1432Z" fill="#212456"/>
<path opacity="0.5" d="M371.108 97.3932L369.448 96.4332V94.7932L371.108 95.7532V97.3932Z" fill="#212456"/>
<path d="M360.458 93.3332L358.788 92.3732V90.7332L360.458 91.6932V93.3332Z" fill="#212456"/>
<path d="M362.628 94.5932L360.958 93.6232V91.9832L362.628 92.9432V94.5932Z" fill="#212456"/>
<path opacity="0.5" d="M364.658 95.7633L362.988 94.8033V93.1533L364.658 94.1233V95.7633Z" fill="#212456"/>
<path opacity="0.5" d="M366.828 97.0133L365.168 96.0533V94.4133L366.828 95.3733V97.0133Z" fill="#212456"/>
<path d="M368.938 98.2333L367.268 97.2733V95.6333L368.938 96.5933V98.2333Z" fill="#212456"/>
<path opacity="0.5" d="M371.108 99.4833L369.448 98.5233V96.8833L371.108 97.8433V99.4833Z" fill="#212456"/>
<path d="M385.498 108.903L385.098 108.663V102.653L385.498 102.893V108.903Z" fill="#212456"/>
<path d="M386.168 109.283L385.868 109.113V103.093L386.168 103.273V109.283Z" fill="#212456"/>
<path d="M386.838 109.673L386.628 109.553V103.543L386.838 103.653V109.673Z" fill="#212456"/>
<path d="M388.768 110.793L388.998 110.923V104.913L388.768 104.773V110.793Z" fill="#212456"/>
<path d="M387.968 110.323L388.368 110.563V104.543L387.968 104.313V110.323Z" fill="#212456"/>
<path d="M387.348 109.973L387.548 110.083V104.073L387.348 103.953V109.973Z" fill="#212456"/>
<path d="M359.408 82.3331L366.928 77.9831L389.498 64.9831C390.665 64.3966 391.952 64.0911 393.258 64.0911C394.564 64.0911 395.851 64.3966 397.018 64.9831L427.108 82.3431C429.178 83.5431 429.178 85.4931 427.698 86.1031L397.608 103.463C396.433 104.276 395.063 104.759 393.638 104.862C392.214 104.966 390.788 104.687 389.508 104.053L359.408 86.6831C357.338 85.4931 357.338 83.5431 359.408 82.3431V82.3331Z" fill="#212456"/>
<path d="M359.078 81.1032L366.598 76.7632L389.168 63.7632C390.331 63.1713 391.618 62.8628 392.923 62.8628C394.228 62.8628 395.515 63.1713 396.678 63.7632L426.788 81.1232C428.848 82.3232 428.848 84.2732 426.788 85.4632L396.688 102.833C395.523 103.425 394.235 103.734 392.928 103.734C391.621 103.734 390.333 103.425 389.168 102.833L359.068 85.4632C357.008 84.2732 357.008 82.3232 359.068 81.1232L359.078 81.1032Z" fill="#E1EAF2"/>
<path d="M428.338 75.8733C428.295 76.3386 428.129 76.7839 427.856 77.1636C427.584 77.5432 427.215 77.8434 426.788 78.0333L396.688 95.4033C395.522 95.9899 394.234 96.2954 392.928 96.2954C391.622 96.2954 390.335 95.9899 389.168 95.4033L359.068 78.0333C358.637 77.8462 358.265 77.5472 357.989 77.1674C357.712 76.7875 357.543 76.3407 357.498 75.8733V82.4133C357.498 83.2033 357.228 84.3033 358.268 84.9033L388.998 102.723C390.183 103.329 391.492 103.653 392.823 103.668C394.153 103.684 395.469 103.391 396.668 102.813L427.148 85.1933C427.537 84.9655 427.85 84.6269 428.045 84.2209C428.241 83.8148 428.312 83.3596 428.248 82.9133L428.338 75.8733Z" fill="url(#paint21_linear)"/>
<path d="M359.078 73.6931L366.598 69.3631L389.168 56.3631C390.333 55.7767 391.619 55.4712 392.923 55.4712C394.227 55.4712 395.513 55.7767 396.678 56.3631L426.788 73.7331C428.848 74.9231 428.848 76.8731 426.788 78.0631L396.688 95.4331C395.521 96.0197 394.234 96.3252 392.928 96.3252C391.622 96.3252 390.335 96.0197 389.168 95.4331L359.068 78.0631C357.008 76.8731 357.008 74.9231 359.068 73.7331L359.078 73.6931Z" fill="url(#paint22_linear)"/>
<path opacity="0.5" d="M360.108 82.0731L358.438 81.1131V79.4731L360.108 80.4331V82.0731Z" fill="#212456"/>
<path opacity="0.5" d="M362.278 83.3331L360.608 82.3731V80.7231L362.278 81.6931V83.3331Z" fill="#212456"/>
<path d="M364.308 84.5033L362.648 83.5433V81.9033L364.308 82.8633V84.5033Z" fill="#212456"/>
<path opacity="0.5" d="M366.488 85.7633L364.818 84.7933V83.1533L366.488 84.1133V85.7633Z" fill="#212456"/>
<path d="M368.598 86.9833L366.928 86.0133V84.3733L368.598 85.3333V86.9833Z" fill="#212456"/>
<path opacity="0.5" d="M370.768 88.2333L369.098 87.2733V85.6233L370.768 86.5933V88.2333Z" fill="#212456"/>
<path d="M360.108 84.1732L358.438 83.2132V81.5632L360.108 82.5332V84.1732Z" fill="#212456"/>
<path d="M362.278 85.4232L360.608 84.4632V82.8232L362.278 83.7832V85.4232Z" fill="#212456"/>
<path opacity="0.5" d="M364.308 86.6032L362.648 85.6432V83.9932L364.308 84.9532V86.6032Z" fill="#212456"/>
<path opacity="0.5" d="M366.488 87.8532L364.818 86.8932V85.2532L366.488 86.2132V87.8532Z" fill="#212456"/>
<path d="M368.598 89.0731L366.928 88.1131V86.4631L368.598 87.4331V89.0731Z" fill="#212456"/>
<path opacity="0.5" d="M370.768 90.3231L369.098 89.3631V87.7231L370.768 88.6831V90.3231Z" fill="#212456"/>
<path d="M385.148 99.7432L384.748 99.5032V93.4932L385.148 93.7232V99.7432Z" fill="#212456"/>
<path d="M385.818 100.123L385.518 99.9534V93.9333L385.818 94.1133V100.123Z" fill="#212456"/>
<path d="M386.488 100.513L386.288 100.393V94.3833L386.488 94.4933V100.513Z" fill="#212456"/>
<path d="M388.428 101.623L388.648 101.763V95.7433L388.428 95.6133V101.623Z" fill="#212456"/>
<path d="M387.618 101.163L388.018 101.393V95.3833L387.618 95.1533V101.163Z" fill="#212456"/>
<path d="M386.998 100.803L387.208 100.923V94.9132L386.998 94.7932V100.803Z" fill="#212456"/>
<path d="M358.978 73.8333L366.498 69.4933L389.068 56.4933C390.233 55.9013 391.521 55.5928 392.828 55.5928C394.135 55.5928 395.423 55.9013 396.588 56.4933L426.678 73.8533C428.748 75.0533 428.748 77.0033 426.678 78.1933L396.598 95.5333C395.433 96.1253 394.145 96.4338 392.838 96.4338C391.531 96.4338 390.243 96.1253 389.078 95.5333L358.978 78.1733C356.908 76.9733 356.908 75.0333 358.978 73.8333Z" fill="#212456"/>
<path d="M358.838 72.9832L366.358 68.6432L388.928 55.6432C390.093 55.0512 391.381 54.7427 392.688 54.7427C393.995 54.7427 395.283 55.0512 396.448 55.6432L426.548 72.9832C428.618 74.1832 428.618 76.1232 426.548 77.3232L396.498 94.6832C395.335 95.2751 394.048 95.5836 392.743 95.5836C391.438 95.5836 390.151 95.2751 388.988 94.6832L358.888 77.3232C356.818 76.1232 356.818 74.1732 358.888 72.9832H358.838Z" fill="#E1EAF2"/>
<path d="M428.098 67.7432C428.058 68.2105 427.892 68.6584 427.62 69.0401C427.347 69.4218 426.977 69.7233 426.548 69.9132L396.498 87.2732C395.335 87.865 394.048 88.1736 392.743 88.1736C391.438 88.1736 390.151 87.865 388.988 87.2732L358.888 69.9132C358.459 69.7233 358.089 69.4218 357.816 69.0401C357.544 68.6584 357.378 68.2105 357.338 67.7432V74.2832C357.338 75.0732 357.068 76.1832 358.108 76.7732L388.828 94.6032C390.014 95.2054 391.323 95.5259 392.654 95.5398C393.984 95.5537 395.299 95.2605 396.498 94.6832L426.988 77.0732C427.374 76.8424 427.684 76.5034 427.88 76.0981C428.075 75.6929 428.148 75.2391 428.088 74.7932L428.098 67.7432Z" fill="url(#paint23_linear)"/>
<path d="M358.838 65.5733L366.358 61.2333L388.928 48.2333C390.093 47.6413 391.381 47.3328 392.688 47.3328C393.995 47.3328 395.283 47.6413 396.448 48.2333L426.548 65.5933C428.618 66.7933 428.618 68.7433 426.548 69.9333L396.498 87.2733C395.335 87.8652 394.048 88.1737 392.743 88.1737C391.438 88.1737 390.151 87.8652 388.988 87.2733L358.888 69.9133C356.818 68.7133 356.818 66.7733 358.888 65.5733H358.838Z" fill="#E1E9F1"/>
<path opacity="0.5" d="M359.868 73.9533L358.198 72.9933V71.3433L359.868 72.3133V73.9533Z" fill="#212456"/>
<path opacity="0.5" d="M362.038 75.2033L360.378 74.2433V72.6033L362.038 73.5633V75.2033Z" fill="#212456"/>
<path d="M364.078 76.3832L362.408 75.4232V73.7732L364.078 74.7332V76.3832Z" fill="#212456"/>
<path opacity="0.5" d="M366.248 77.6332L364.578 76.6732V75.0332L366.248 75.9932V77.6332Z" fill="#212456"/>
<path d="M368.358 78.8532L366.688 77.8932V76.2432L368.358 77.2132V78.8532Z" fill="#212456"/>
<path opacity="0.5" d="M370.528 80.1032L368.858 79.1432V77.5032L370.528 78.4632V80.1032Z" fill="#212456"/>
<path d="M359.868 76.0534L358.198 75.0834V73.4434L359.868 74.4034V76.0534Z" fill="#212456"/>
<path d="M362.038 77.3034L360.378 76.3434V74.6934L362.038 75.6634V77.3034Z" fill="#212456"/>
<path opacity="0.5" d="M364.078 78.4733L362.408 77.5133V75.8733L364.078 76.8333V78.4733Z" fill="#212456"/>
<path opacity="0.5" d="M366.248 79.7333L364.578 78.7633V77.1233L366.248 78.0833V79.7333Z" fill="#212456"/>
<path d="M368.358 80.9533L366.688 79.9833V78.3433L368.358 79.3033V80.9533Z" fill="#212456"/>
<path opacity="0.5" d="M370.528 82.2033L368.858 81.2433V79.5933L370.528 80.5633V82.2033Z" fill="#212456"/>
<path d="M384.918 91.6133L384.508 91.3833V85.3733L384.918 85.6033V91.6133Z" fill="#212456"/>
<path d="M385.578 92.0032L385.278 91.8232V85.8132L385.578 85.9832V92.0032Z" fill="#212456"/>
<path d="M386.248 92.3832L386.048 92.2632V86.2532L386.248 86.3732V92.3832Z" fill="#212456"/>
<path d="M388.188 93.5032L388.418 93.6332V87.6232L388.188 87.4932V93.5032Z" fill="#212456"/>
<path d="M387.378 93.0432L387.788 93.2732V87.2632L387.378 87.0232V93.0432Z" fill="#212456"/>
<path d="M386.768 92.6833L386.968 92.8033V86.7833L386.768 86.6733V92.6833Z" fill="#212456"/>
<path d="M426.208 76.5832L426.588 76.3732V70.7432L426.208 70.9632V76.5832Z" fill="#212456"/>
<path d="M425.588 76.9433L425.868 76.7833V71.1633L425.588 71.3233V76.9433Z" fill="#212456"/>
<path d="M424.958 77.3032L425.148 77.1932V71.5732L424.958 71.6832V77.3032Z" fill="#212456"/>
<path d="M423.148 78.3532L422.938 78.4732V72.8532L423.148 72.7332V78.3532Z" fill="#212456"/>
<path d="M423.898 77.9232L423.518 78.1332V72.5132L423.898 72.2932V77.9232Z" fill="#212456"/>
<path d="M424.478 77.5831L424.288 77.6931V72.0731L424.478 71.9631V77.5831Z" fill="#212456"/>
<path opacity="0.6" d="M365.398 65.1932L371.478 61.6932L389.718 51.1632C390.66 50.6853 391.702 50.4363 392.758 50.4363C393.814 50.4363 394.856 50.6853 395.798 51.1632L420.128 65.1632C421.798 66.1632 421.798 67.7132 420.128 68.6732L395.798 82.6732C394.856 83.1464 393.817 83.3928 392.763 83.3928C391.709 83.3928 390.67 83.1464 389.728 82.6732L365.398 68.6732C363.728 67.6732 363.728 66.1332 365.398 65.1632V65.1932Z" fill="white"/>
<path d="M417.748 249.383C432.317 249.383 444.128 242.73 444.128 234.523C444.128 226.316 432.317 219.663 417.748 219.663C403.179 219.663 391.368 226.316 391.368 234.523C391.368 242.73 403.179 249.383 417.748 249.383Z" fill="#A3C9EB"/>
<path d="M417.748 243.933C432.317 243.933 444.128 237.28 444.128 229.073C444.128 220.866 432.317 214.213 417.748 214.213C403.179 214.213 391.368 220.866 391.368 229.073C391.368 237.28 403.179 243.933 417.748 243.933Z" stroke="#212456" stroke-miterlimit="10"/>
<path d="M441.045 243.76C442.251 241.701 442.267 239.469 441.08 238.774C439.894 238.078 437.954 239.184 436.748 241.243C435.542 243.301 435.527 245.534 436.713 246.229C437.9 246.924 439.839 245.818 441.045 243.76Z" fill="#A3C9EB"/>
<path d="M438.838 246.753L466.838 263.893L469.058 265.253L472.848 259.093L470.498 257.593L441.428 239.043C441.428 239.043 439.688 236.923 437.198 240.243C436.776 240.803 436.463 241.437 436.278 242.113C435.848 243.623 435.418 246.213 437.518 246.363C437.982 246.389 438.434 246.523 438.838 246.753Z" fill="#D92128"/>
<path d="M471.96 262.665C473.166 260.606 473.181 258.374 471.995 257.679C470.808 256.984 468.869 258.089 467.663 260.148C466.457 262.206 466.441 264.439 467.628 265.134C468.814 265.829 470.754 264.723 471.96 262.665Z" fill="#D92128"/>
<path fill-rule="evenodd" clip-rule="evenodd" d="M100.948 66.7831C100.638 67.7831 100.378 68.8831 100.168 69.9531C100.028 70.8031 99.968 71.7731 99.878 72.7531C99.788 73.5031 100.208 74.3931 99.878 75.0031C99.678 75.4231 99.248 75.6431 98.518 75.3631C97.6445 74.8218 96.9491 74.036 96.518 73.1031C95.588 71.3331 95.718 69.3331 95.738 67.3831L95.358 67.5131L94.938 65.3731L96.088 64.2231C96.8666 63.6183 97.8131 63.269 98.798 63.2231L99.798 64.8431L100.948 66.7831Z" fill="#161818"/>
<path fill-rule="evenodd" clip-rule="evenodd" d="M108.298 53.3833L98.618 62.7733C98.168 62.8633 98.078 64.1333 98.438 65.7733C98.828 67.6233 99.618 69.2833 100.218 69.4633C100.276 69.4877 100.341 69.4911 100.401 69.4728C100.461 69.4546 100.513 69.4158 100.548 69.3633C104.548 66.1833 108.128 62.7133 111.648 59.6133L108.298 53.3833Z" fill="#212456"/>
<path fill-rule="evenodd" clip-rule="evenodd" d="M114.438 81.2033C115.014 82.1277 115.642 83.0191 116.318 83.8733C116.924 84.5716 117.565 85.2391 118.238 85.8733C118.728 86.4233 119.688 86.7033 119.958 87.3233C120.138 87.7333 120.018 88.2233 119.318 88.5833C118.341 88.8903 117.294 88.8903 116.318 88.5833C114.378 88.1133 112.928 86.7133 111.498 85.4133L111.358 85.7833L109.458 84.6933L109.358 83.0733C109.404 82.0855 109.753 81.1359 110.358 80.3533L112.258 80.6433L114.438 81.2033Z" fill="#161818"/>
<path fill-rule="evenodd" clip-rule="evenodd" d="M110.498 39.1331C105.128 44.2831 107.498 48.0531 106.498 54.8231L112.918 58.2131C114.644 51.6878 115.498 44.9627 115.458 38.2131L110.498 39.1331Z" fill="#212456"/>
<path fill-rule="evenodd" clip-rule="evenodd" d="M101.718 44.1833C101.268 51.6133 106.848 57.3533 109.858 63.6233C109.858 68.8933 109.858 74.4133 109.738 80.1033C109.498 80.4933 110.368 81.4033 111.848 82.2633C113.488 83.2033 115.248 83.7233 115.778 83.4133C115.833 83.3824 115.876 83.3345 115.902 83.2768C115.927 83.219 115.933 83.1546 115.918 83.0933C116.388 75.7033 116.538 68.5033 116.468 62.1533C116.468 58.5833 112.248 49.1533 109.308 43.1533L101.718 44.1833Z" fill="#212456"/>
<path fill-rule="evenodd" clip-rule="evenodd" d="M118.988 12.5334C118.499 11.4506 117.91 10.4161 117.228 9.44336C116.378 8.68969 115.457 8.01991 114.478 7.44336L113.148 9.86336C113.958 11.2834 114.508 11.9834 115.868 12.3834L116.998 13.9834L118.988 12.5334Z" fill="#E9C898"/>
<path fill-rule="evenodd" clip-rule="evenodd" d="M113.698 11.6234C117.198 11.1234 119.258 15.2134 124.848 19.6234C127.328 21.5734 126.538 23.9134 125.418 24.7134C123.688 25.9434 117.948 21.4534 116.238 20.1734L113.698 11.6234Z" fill="#D92128"/>
<path fill-rule="evenodd" clip-rule="evenodd" d="M118.558 11.1433C118.038 11.153 117.531 11.3104 117.098 11.5973C116.664 11.8842 116.32 12.2886 116.108 12.7633L121.978 23.2133C123.268 25.5133 125.248 25.0133 125.978 23.9933C126.291 23.4945 126.457 22.9174 126.457 22.3283C126.457 21.7392 126.291 21.1621 125.978 20.6633L118.558 11.1433Z" fill="#E54C58"/>
<path fill-rule="evenodd" clip-rule="evenodd" d="M112.768 4.78326L113.338 4.66326L113.268 4.59326L112.698 4.70326L112.768 4.78326Z" fill="#4D538E"/>
<path fill-rule="evenodd" clip-rule="evenodd" d="M112.698 4.70326L113.268 4.59326H113.208L112.638 4.69326L112.698 4.70326Z" fill="#4B538B"/>
<path fill-rule="evenodd" clip-rule="evenodd" d="M112.628 4.65322L113.198 4.55322L112.628 4.66322V4.65322Z" fill="#4B5289"/>
<path fill-rule="evenodd" clip-rule="evenodd" d="M112.628 4.63319L113.198 4.52319L112.628 4.63319Z" fill="#4A5086"/>
<path fill-rule="evenodd" clip-rule="evenodd" d="M112.558 4.61317L113.128 4.50317L112.558 4.62317V4.61317Z" fill="#494F85"/>
<path fill-rule="evenodd" clip-rule="evenodd" d="M112.498 4.61316L113.068 4.49316L112.498 4.61316Z" fill="#484E83"/>
<path fill-rule="evenodd" clip-rule="evenodd" d="M112.498 4.60315L113.068 4.48315L112.498 4.59315V4.60315Z" fill="#474D82"/>
<path fill-rule="evenodd" clip-rule="evenodd" d="M112.498 4.59315L113.078 4.48315L112.508 4.59315H112.498Z" fill="#464B7F"/>
<path fill-rule="evenodd" clip-rule="evenodd" d="M112.498 4.59315L113.068 4.48315L112.498 4.60315V4.59315Z" fill="#454A7E"/>
<path fill-rule="evenodd" clip-rule="evenodd" d="M112.418 4.60315L112.988 4.48315L112.418 4.60315Z" fill="#44487B"/>
<path fill-rule="evenodd" clip-rule="evenodd" d="M116.118 11.8834L116.758 10.0434C116.928 10.0434 117.098 9.53336 117.268 9.54336C117.165 10.3063 116.974 11.0547 116.698 11.7734C116.684 11.8216 116.658 11.8658 116.623 11.9023C116.588 11.9388 116.545 11.9666 116.498 11.9834L115.928 12.0834C115.975 12.0712 116.018 12.046 116.052 12.0106C116.085 11.9753 116.108 11.9312 116.118 11.8834Z" fill="#373B72"/>
<path fill-rule="evenodd" clip-rule="evenodd" d="M112.988 4.52333C113.056 4.51953 113.124 4.53315 113.185 4.5629C113.246 4.59265 113.299 4.63754 113.338 4.69333L117.128 9.06333C117.175 9.12428 117.218 9.18771 117.258 9.25333V9.48333V9.72333V9.98333L116.688 10.1033C116.699 10.0304 116.699 9.95629 116.688 9.88333C116.698 9.80362 116.698 9.72304 116.688 9.64333C116.667 9.5635 116.637 9.48634 116.598 9.41333C116.564 9.34406 116.52 9.28006 116.468 9.22333L112.678 4.85333C112.64 4.79683 112.587 4.75139 112.526 4.72156C112.464 4.69173 112.396 4.67854 112.328 4.68333L112.988 4.52333Z" fill="#373B72"/>
<path fill-rule="evenodd" clip-rule="evenodd" d="M112.218 4.80333C112.308 4.53333 112.548 4.53333 112.768 4.80333L116.558 9.17333C116.659 9.29519 116.731 9.43945 116.765 9.5942C116.8 9.74895 116.798 9.90975 116.758 10.0633L116.118 11.9133C116.038 12.1733 115.788 12.1933 115.588 11.9633L111.798 7.59333C111.69 7.47111 111.613 7.32429 111.575 7.16567C111.537 7.00705 111.538 6.84145 111.578 6.68333L112.218 4.80333Z" fill="#212456"/>
<path fill-rule="evenodd" clip-rule="evenodd" d="M105.898 13.5632C101.748 15.9632 98.8981 19.6732 100.208 20.4432C101.518 21.2132 106.008 19.9232 110.208 17.5232C114.408 15.1232 116.628 12.5232 115.278 11.7732C113.928 11.0232 110.048 11.1732 105.898 13.5632Z" fill="#D92128"/>
<path fill-rule="evenodd" clip-rule="evenodd" d="M111.828 12.7632C114.188 14.5532 114.538 21.2732 115.118 24.2532L115.648 37.0532C112.938 39.9832 108.728 40.9732 105.258 41.0532L106.258 14.1832L106.808 13.4332L110.338 15.1332L111.078 14.4632L111.828 12.7632Z" fill="white"/>
<path fill-rule="evenodd" clip-rule="evenodd" d="M111.948 12.7633C113.118 11.7633 114.708 11.1933 115.598 11.9233C120.348 15.8233 116.468 28.9233 116.278 32.5633C116.156 35.7049 116.23 38.8509 116.498 41.9833C116.498 42.5733 116.308 44.6933 113.158 45.9133C112.588 40.4833 111.978 35.7333 112.378 31.4833C112.948 25.9833 114.078 17.3733 111.948 12.7633Z" fill="#D92128"/>
<path fill-rule="evenodd" clip-rule="evenodd" d="M101.038 48.5633C102.038 50.2433 109.398 48.6333 111.188 46.2633C111.278 41.7333 111.788 27.9433 109.988 22.1633C109.329 19.6483 108.214 17.2757 106.698 15.1633L106.288 14.4833C106.188 14.7233 106.698 13.8633 106.528 14.1233C106.058 14.8033 104.608 15.4133 103.528 16.1233C102.335 16.76 101.254 17.5876 100.328 18.5733C97.9181 21.9733 100.698 27.3533 101.158 34.3933C101.553 39.1103 101.512 43.8536 101.038 48.5633Z" fill="#D92128"/>
<path fill-rule="evenodd" clip-rule="evenodd" d="M120.278 39.4633C120.198 39.1633 119.568 38.6033 119.278 38.6833L118.998 38.7533L118.288 39.1333L118.868 39.7433C118.868 39.7433 119.408 40.0733 119.498 40.0333C119.769 39.8585 120.029 39.6681 120.278 39.4633Z" fill="#EBBE7B"/>
<path fill-rule="evenodd" clip-rule="evenodd" d="M115.688 37.9833C116.264 38.0456 116.847 37.9702 117.388 37.7633C117.572 37.6815 117.772 37.6392 117.973 37.6392C118.175 37.6392 118.374 37.6815 118.558 37.7633C119.009 37.9531 119.447 38.1736 119.868 38.4233C120.278 38.6733 119.868 39.2433 119.548 39.2233C119.228 39.2033 118.348 38.6833 118.128 38.8533C118.385 39.0826 118.684 39.2592 119.008 39.3733C119.918 39.7733 120.008 39.6333 120.258 39.3733C120.448 39.7533 120.508 39.7433 120.468 40.1733C120.447 40.3137 120.41 40.4512 120.358 40.5833C119.91 41.1416 119.407 41.6541 118.858 42.1133C118.691 42.275 118.473 42.3735 118.241 42.3917C118.009 42.41 117.778 42.3469 117.588 42.2133C116.794 41.577 115.944 41.0147 115.048 40.5333L115.688 37.9833Z" fill="#E9C898"/>
<path fill-rule="evenodd" clip-rule="evenodd" d="M116.328 37.8433C113.718 36.6187 111.048 35.5273 108.328 34.5733C107.048 34.1333 105.758 33.7333 105.758 33.7333L105.528 33.6633H101.238C101.224 34.4121 101.41 35.1511 101.778 35.8033C102.518 36.9029 103.647 37.6817 104.938 37.9833C107.548 38.7933 110.938 39.8533 115.018 41.0433C115.768 40.3033 116.738 38.6733 116.328 37.8433Z" fill="#E54C58"/>
<path fill-rule="evenodd" clip-rule="evenodd" d="M104.008 18.7732C106.008 21.9032 105.658 30.0332 105.808 33.9132C105.028 33.9132 102.948 34.0232 101.938 35.4532C101.856 35.5624 101.786 35.6796 101.728 35.8032C101.658 35.6732 101.568 35.4632 101.458 35.2132C100.528 33.0532 100.758 31.8632 100.068 28.6832C99.511 26.4451 99.219 24.1494 99.198 21.8432C99.1395 21.017 99.3057 20.1903 99.6789 19.4509C100.052 18.7115 100.619 18.0868 101.318 17.6432C102.218 17.1332 103.208 17.5432 104.008 18.7732Z" fill="#E54C58"/>
<path d="M115.078 7.33315C114.548 10.9532 114.318 12.2632 111.408 12.2732C108.498 12.2832 106.918 10.6932 106.908 7.27315C106.898 3.85315 109.258 0.983154 112.158 0.983154C115.058 0.983154 115.578 3.91315 115.078 7.33315Z" fill="#E9C898"/>
<path d="M106.631 8.21662C107.111 8.21586 107.5 7.481 107.498 6.57525C107.497 5.66951 107.106 4.93587 106.626 4.93662C106.145 4.93738 105.757 5.67224 105.758 6.57799C105.76 7.48373 106.15 8.21737 106.631 8.21662Z" fill="#E9C898"/>
<path d="M107.428 9.47314L107.838 13.8631C107.838 13.8631 110.398 15.0731 112.028 14.1531C112.128 13.2331 112.118 12.0131 112.118 12.0131C112.118 12.0131 107.978 12.6631 107.428 9.47314Z" fill="#E9C898"/>
<path d="M109.058 11.7133C109.058 11.7133 111.058 12.6233 112.058 12.3233V13.1333C111.07 12.8601 110.118 12.4742 109.218 11.9833C108.758 11.5833 109.058 11.7133 109.058 11.7133Z" fill="#CDAD86"/>
<path d="M106.718 5.64331C106.718 5.64331 105.808 6.92331 106.718 7.53331V5.64331Z" fill="#CDAD86"/>
<path d="M107.198 5.20325L107.498 6.55325L108.178 6.04325L107.978 4.88325C107.978 4.88325 109.818 3.05325 110.558 3.66325C111.062 3.6722 111.565 3.62525 112.058 3.52325L112.738 3.05325C113.012 3.24284 113.308 3.40053 113.618 3.52325C113.944 3.61705 114.279 3.67736 114.618 3.70325V3.50325L115.388 4.18325C115.388 4.18325 116.288 4.10325 116.748 1.92325C117.208 -0.256754 115.318 -0.0767535 113.678 0.0932465C112.038 0.263246 100.318 -0.116754 106.908 10.6332C107.065 10.9173 107.302 11.1499 107.588 11.3032V10.4932C107.198 9.7558 106.967 8.94522 106.908 8.11325C106.908 8.11325 105.838 8.57325 105.788 6.11325C105.858 5.60325 106.278 4.88325 106.788 4.96325C106.946 4.99867 107.09 5.08256 107.198 5.20325Z" fill="#191919"/>
<g opacity="0.6">
<path opacity="0.6" d="M414.802 232.277C416.067 232.157 417.022 231.325 416.936 230.418C416.85 229.51 415.755 228.872 414.491 228.992C413.226 229.112 412.271 229.945 412.357 230.852C412.443 231.759 413.538 232.397 414.802 232.277Z" fill="#212456"/>
<path opacity="0.6" d="M412.498 225.223C413.837 225.071 415.193 225.185 416.489 225.557C417.784 225.93 418.994 226.553 420.048 227.393C420.89 228.065 421.493 228.99 421.767 230.031C422.041 231.073 421.971 232.175 421.568 233.173" stroke="#212456" stroke-width="2" stroke-miterlimit="10" stroke-linecap="round"/>
<path opacity="0.6" d="M412.898 222.373C416.589 222.084 420.252 223.206 423.148 225.513C424.285 226.417 425.12 227.645 425.541 229.035C425.963 230.425 425.951 231.91 425.508 233.293" stroke="#212456" stroke-width="2" stroke-miterlimit="10" stroke-linecap="round"/>
<path opacity="0.6" d="M412.768 219.593C417.768 219.453 422.678 220.883 425.978 223.803C429.278 226.723 430.218 230.293 429.248 233.803" stroke="#212456" stroke-width="2" stroke-miterlimit="10" stroke-linecap="round"/>
</g>
<defs>
<linearGradient id="paint0_linear" x1="0.498003" y1="202.913" x2="466.728" y2="202.913" gradientUnits="userSpaceOnUse">
<stop stop-color="#D92128"/>
<stop offset="0.18" stop-color="#BD212F"/>
<stop offset="0.57" stop-color="#762341"/>
<stop offset="1" stop-color="#212456"/>
</linearGradient>
<linearGradient id="paint1_linear" x1="6961.08" y1="20115.8" x2="22866.6" y2="20115.8" gradientUnits="userSpaceOnUse">
<stop stop-color="#D92128"/>
<stop offset="0.18" stop-color="#BD212F"/>
<stop offset="0.57" stop-color="#762341"/>
<stop offset="1" stop-color="#212456"/>
</linearGradient>
<linearGradient id="paint2_linear" x1="162.348" y1="216.173" x2="293.768" y2="216.173" gradientUnits="userSpaceOnUse">
<stop stop-color="#FEFFFF"/>
<stop offset="0.25" stop-color="#F9FAFA"/>
<stop offset="0.53" stop-color="#ECEDEC"/>
<stop offset="0.83" stop-color="#D6D6D6"/>
<stop offset="1" stop-color="#C6C6C5"/>
</linearGradient>
<linearGradient id="paint3_linear" x1="21431.3" y1="14584.9" x2="38687.1" y2="14584.9" gradientUnits="userSpaceOnUse">
<stop stop-color="#FEFFFF"/>
<stop offset="0.25" stop-color="#F9FAFA"/>
<stop offset="0.53" stop-color="#ECEDEC"/>
<stop offset="0.83" stop-color="#D6D6D6"/>
<stop offset="1" stop-color="#C6C6C5"/>
</linearGradient>
<linearGradient id="paint4_linear" x1="21432.8" y1="10525.5" x2="38704.2" y2="10525.5" gradientUnits="userSpaceOnUse">
<stop stop-color="#FEFFFF"/>
<stop offset="0.25" stop-color="#F9FAFA"/>
<stop offset="0.53" stop-color="#ECEDEC"/>
<stop offset="0.83" stop-color="#D6D6D6"/>
<stop offset="1" stop-color="#C6C6C5"/>
</linearGradient>
<linearGradient id="paint5_linear" x1="21431.4" y1="13395.3" x2="38687.1" y2="13395.3" gradientUnits="userSpaceOnUse">
<stop stop-color="#C6C6C5"/>
<stop offset="1" stop-color="#FEFFFF"/>
</linearGradient>
<linearGradient id="paint6_linear" x1="21420.5" y1="9624.47" x2="38691.6" y2="9624.47" gradientUnits="userSpaceOnUse">
<stop stop-color="#FEFFFF"/>
<stop offset="0.25" stop-color="#F9FAFA"/>
<stop offset="0.53" stop-color="#ECEDEC"/>
<stop offset="0.83" stop-color="#D6D6D6"/>
<stop offset="1" stop-color="#C6C6C5"/>
</linearGradient>
<linearGradient id="paint7_linear" x1="21419.4" y1="12080.2" x2="38675.2" y2="12080.2" gradientUnits="userSpaceOnUse">
<stop stop-color="#FEFFFF"/>
<stop offset="0.25" stop-color="#F9FAFA"/>
<stop offset="0.53" stop-color="#ECEDEC"/>
<stop offset="0.83" stop-color="#D6D6D6"/>
<stop offset="1" stop-color="#C6C6C5"/>
</linearGradient>
<linearGradient id="paint8_linear" x1="21420.5" y1="8821.4" x2="38691.6" y2="8821.4" gradientUnits="userSpaceOnUse">
<stop stop-color="#FEFFFF"/>
<stop offset="0.25" stop-color="#F9FAFA"/>
<stop offset="0.53" stop-color="#ECEDEC"/>
<stop offset="0.83" stop-color="#D6D6D6"/>
<stop offset="1" stop-color="#C6C6C5"/>
</linearGradient>
<linearGradient id="paint9_linear" x1="21419.4" y1="10898.5" x2="38675.2" y2="10898.5" gradientUnits="userSpaceOnUse">
<stop stop-color="#C6C6C5"/>
<stop offset="1" stop-color="#FEFFFF"/>
</linearGradient>
<linearGradient id="paint10_linear" x1="21531.4" y1="8053.97" x2="38805.4" y2="8053.97" gradientUnits="userSpaceOnUse">
<stop stop-color="#FEFFFF"/>
<stop offset="0.25" stop-color="#F9FAFA"/>
<stop offset="0.53" stop-color="#ECEDEC"/>
<stop offset="0.83" stop-color="#D6D6D6"/>
<stop offset="1" stop-color="#C6C6C5"/>
</linearGradient>
<linearGradient id="paint11_linear" x1="21526.6" y1="9780.29" x2="38782.4" y2="9780.29" gradientUnits="userSpaceOnUse">
<stop stop-color="#C6C6C5"/>
<stop offset="1" stop-color="#FEFFFF"/>
</linearGradient>
<linearGradient id="paint12_linear" x1="21408" y1="7197.58" x2="38680.6" y2="7197.58" gradientUnits="userSpaceOnUse">
<stop stop-color="#FEFFFF"/>
<stop offset="0.25" stop-color="#F9FAFA"/>
<stop offset="0.53" stop-color="#ECEDEC"/>
<stop offset="0.83" stop-color="#D6D6D6"/>
<stop offset="1" stop-color="#C6C6C5"/>
</linearGradient>
<linearGradient id="paint13_linear" x1="21404.8" y1="8526.25" x2="38660.6" y2="8526.25" gradientUnits="userSpaceOnUse">
<stop stop-color="#C6C6C5"/>
<stop offset="1" stop-color="#FEFFFF"/>
</linearGradient>
<linearGradient id="paint14_linear" x1="21471.1" y1="8457.46" x2="38728.2" y2="8457.46" gradientUnits="userSpaceOnUse">
<stop stop-color="#C6C6C5"/>
<stop offset="1" stop-color="#FEFFFF"/>
</linearGradient>
<linearGradient id="paint15_linear" x1="21417.2" y1="6357.76" x2="38689.9" y2="6357.76" gradientUnits="userSpaceOnUse">
<stop stop-color="#FEFFFF"/>
<stop offset="0.25" stop-color="#F9FAFA"/>
<stop offset="0.53" stop-color="#ECEDEC"/>
<stop offset="0.83" stop-color="#D6D6D6"/>
<stop offset="1" stop-color="#C6C6C5"/>
</linearGradient>
<linearGradient id="paint16_linear" x1="40593.5" y1="12623.3" x2="52020.4" y2="12623.3" gradientUnits="userSpaceOnUse">
<stop stop-color="#FEFFFF"/>
<stop offset="0.06" stop-color="#FAFBFB"/>
<stop offset="0.68" stop-color="#D4D5D4"/>
<stop offset="1" stop-color="#C6C6C5"/>
</linearGradient>
<linearGradient id="paint17_linear" x1="5818.99" y1="3576.62" x2="14104.6" y2="3576.62" gradientUnits="userSpaceOnUse">
<stop stop-color="#FEFFFF"/>
<stop offset="0.06" stop-color="#FAFBFB"/>
<stop offset="0.68" stop-color="#D4D5D4"/>
<stop offset="1" stop-color="#C6C6C5"/>
</linearGradient>
<linearGradient id="paint18_linear" x1="38335.3" y1="5153.11" x2="50971.7" y2="5153.11" gradientUnits="userSpaceOnUse">
<stop stop-color="#FEFFFF"/>
<stop offset="0.06" stop-color="#FAFBFB"/>
<stop offset="0.68" stop-color="#D4D5D4"/>
<stop offset="1" stop-color="#C6C6C5"/>
</linearGradient>
<linearGradient id="paint19_linear" x1="25672.3" y1="2835.42" x2="30690.8" y2="2835.42" gradientUnits="userSpaceOnUse">
<stop stop-color="#FEFFFF"/>
<stop offset="0.25" stop-color="#F9FAFA"/>
<stop offset="0.53" stop-color="#ECEDEC"/>
<stop offset="0.83" stop-color="#D6D6D6"/>
<stop offset="1" stop-color="#C6C6C5"/>
</linearGradient>
<linearGradient id="paint20_linear" x1="25662.3" y1="3539.99" x2="30676.2" y2="3539.99" gradientUnits="userSpaceOnUse">
<stop stop-color="#FEFFFF"/>
<stop offset="0.25" stop-color="#F9FAFA"/>
<stop offset="0.53" stop-color="#ECEDEC"/>
<stop offset="0.83" stop-color="#D6D6D6"/>
<stop offset="1" stop-color="#C6C6C5"/>
</linearGradient>
<linearGradient id="paint21_linear" x1="25657.9" y1="2571.38" x2="30679.1" y2="2571.38" gradientUnits="userSpaceOnUse">
<stop stop-color="#FEFFFF"/>
<stop offset="0.25" stop-color="#F9FAFA"/>
<stop offset="0.53" stop-color="#ECEDEC"/>
<stop offset="0.83" stop-color="#D6D6D6"/>
<stop offset="1" stop-color="#C6C6C5"/>
</linearGradient>
<linearGradient id="paint22_linear" x1="25638.1" y1="3155.88" x2="30652.9" y2="3155.88" gradientUnits="userSpaceOnUse">
<stop stop-color="#C6C6C5"/>
<stop offset="1" stop-color="#FEFFFF"/>
</linearGradient>
<linearGradient id="paint23_linear" x1="25616.6" y1="2337.66" x2="30632.2" y2="2337.66" gradientUnits="userSpaceOnUse">
<stop stop-color="#FEFFFF"/>
<stop offset="0.25" stop-color="#F9FAFA"/>
<stop offset="0.53" stop-color="#ECEDEC"/>
<stop offset="0.83" stop-color="#D6D6D6"/>
<stop offset="1" stop-color="#C6C6C5"/>
</linearGradient>
</defs>
</svg>
