<svg width="499" height="394" viewBox="0 0 499 394" fill="none" xmlns="http://www.w3.org/2000/svg">
<path d="M155.47 210.331L177.584 197.562L244.007 159.254C250.088 155.738 260.04 155.738 266.121 159.254L354.681 210.343C360.773 213.858 360.773 219.584 354.681 223.1L266.144 274.2C260.063 277.716 250.111 277.716 244.03 274.2L155.47 223.1C149.389 219.584 149.389 213.847 155.47 210.343V210.331Z" fill="#212456"/>
<path d="M359.239 193.84C359.239 196.13 357.727 198.421 354.658 200.23L266.121 251.307C260.04 254.823 250.088 254.823 244.007 251.307L155.447 200.23C152.401 198.467 150.866 196.153 150.866 193.84V213.091C150.866 215.381 150.064 218.657 153.156 220.409L243.56 272.849C249.641 276.376 260.051 276.628 266.132 273.112L355.803 221.279C358.849 219.527 359.055 216.893 359.055 214.58L359.239 193.84Z" fill="#CFDAE6"/>
<path d="M155.47 187.45L177.584 174.692L244.007 136.373C250.088 132.857 260.04 132.857 266.121 136.373L354.681 187.461C360.773 190.977 360.773 196.715 354.681 200.23L266.144 251.307C260.063 254.823 250.111 254.823 244.03 251.307L155.47 200.23C149.389 196.703 149.389 190.977 155.47 187.461V187.45Z" fill="#E1E9F1"/>
<g opacity="0.4">
<path opacity="0.4" d="M297.764 127.394L202.023 72.126V15.7926L297.764 71.0724V127.394Z" fill="url(#paint0_linear)"/>
<path opacity="0.4" d="M297.764 140.827L202.023 85.5477V78.7222L297.764 134.002V140.827Z" fill="url(#paint1_linear)"/>
<path opacity="0.4" d="M297.764 154.25L202.023 98.9698V92.1558L297.764 147.424V154.25Z" fill="url(#paint2_linear)"/>
<path opacity="0.4" d="M297.764 167.672L231.329 129.318V122.493L297.764 160.858V167.672Z" fill="url(#paint3_linear)"/>
<path opacity="0.5" d="M202.023 161.327C202.023 161.327 211.666 155.956 224.206 166.664C236.746 177.372 242.117 185.881 248.874 182.204C255.631 178.528 270.267 197.951 274.069 198.306" stroke="url(#paint4_linear)" stroke-width="1.14522" stroke-miterlimit="10"/>
</g>
<path d="M50.3388 343.806C43.1926 348.009 43.1926 354.892 50.3388 359.107L102.778 390.028C109.925 394.242 121.629 394.253 128.775 390.028L155.115 374.579C162.261 370.376 162.261 363.481 155.115 359.278L102.675 328.357C95.5406 324.143 83.8364 324.132 76.6903 328.357L50.3388 343.806Z" fill="#212456"/>
<path d="M160.429 357.412C160.578 360.309 158.803 363.241 155.103 365.428L128.763 381.152C121.64 385.389 109.97 385.424 102.824 381.209L50.4075 350.311C46.6283 348.078 44.8417 345.101 45.0479 342.146V350.163C44.8417 353.117 46.6283 356.095 50.4075 358.328L102.847 389.249C109.993 393.463 121.663 393.44 128.786 389.192L155.126 373.468C158.367 371.532 160.131 369.047 160.417 366.516L160.429 357.412Z" fill="#CFDAE6"/>
<path d="M50.3157 335.355C43.1924 339.603 43.2039 346.521 50.3157 350.735L102.755 381.656C109.901 385.87 121.571 385.836 128.695 381.587L155.035 365.863C162.158 361.626 162.146 354.697 155.035 350.483L102.595 319.562C95.4488 315.348 83.779 315.371 76.6558 319.619L50.3157 335.355Z" fill="#E1E9F1"/>
<path d="M95.7925 293.44C88.6349 297.643 88.6349 304.537 95.7925 308.751L148.232 339.672C155.378 343.887 167.071 343.898 174.217 339.672L200.557 324.212C207.703 320.009 207.715 313.126 200.557 308.912L148.118 277.991C140.971 273.776 129.279 273.765 122.121 277.991L95.7925 293.44Z" fill="#212456"/>
<path d="M205.871 307.056C206.031 309.954 204.256 312.885 200.546 315.073L174.206 330.797C167.082 335.045 155.413 335.08 148.266 330.865L95.8268 299.945C92.0476 297.723 90.2611 294.734 90.4787 291.791V299.807C90.2611 302.75 92.0476 305.739 95.8268 307.961L148.266 338.882C155.413 343.096 167.082 343.062 174.206 338.825L200.546 323.101C203.787 321.165 205.55 318.68 205.837 316.138L205.871 307.056Z" fill="#CFDAE6"/>
<path d="M95.7581 284.999C88.6348 289.237 88.6463 296.165 95.7581 300.38L148.198 331.301C155.344 335.515 167.014 335.492 174.137 331.243L200.477 315.52C207.6 311.271 207.589 304.354 200.477 300.139L148.037 269.218C140.891 265.004 129.221 265.038 122.098 269.287L95.7581 284.999Z" fill="#E1E9F1"/>
<path d="M388.911 311.133C381.765 315.336 381.754 322.231 388.911 326.445L441.351 357.366C448.497 361.58 460.19 361.592 467.336 357.366L493.607 341.94C500.753 337.725 500.765 330.843 493.607 326.628L441.168 295.707C434.022 291.493 422.329 291.481 415.183 295.707L388.911 311.133Z" fill="#212456"/>
<path d="M498.99 324.75C499.15 327.647 497.375 330.579 493.676 332.766L467.336 348.49C460.213 352.739 448.532 352.773 441.385 348.559L388.946 317.638C385.178 315.416 383.391 312.427 383.598 309.484V317.501C383.391 320.444 385.167 323.433 388.946 325.666L441.385 356.587C448.532 360.801 460.213 360.767 467.336 356.53L493.676 340.806C496.917 338.87 498.681 336.385 498.967 333.843L498.99 324.75Z" fill="#CFDAE6"/>
<path d="M388.877 302.693C381.754 306.93 381.777 313.859 388.877 318.073L441.317 348.994C448.463 353.209 460.144 353.186 467.267 348.937L493.607 333.213C500.731 328.964 500.708 322.047 493.607 317.833L441.168 286.912C434.033 282.698 422.352 282.732 415.229 286.981L388.877 302.693Z" fill="#E1E9F1"/>
<path d="M5.38873 86.5442C-1.7689 90.7472 -1.7689 97.63 5.38873 101.844L57.8283 132.765C64.9631 136.98 76.6672 136.98 83.8134 132.765L110.153 117.316C117.3 113.113 117.311 106.231 110.153 102.016L57.7138 71.0952C50.5677 66.8923 38.875 66.8808 31.7173 71.0952L5.38873 86.5442Z" fill="#212456"/>
<path d="M115.467 100.149C115.616 103.047 113.853 105.979 110.142 108.166L83.802 123.89C76.6787 128.139 65.0089 128.161 57.8628 123.89L5.42316 92.9688C1.60958 90.8158 -0.176967 87.8382 0.01772 84.895V92.9116C-0.199872 95.8548 1.58667 98.8438 5.3659 101.066L57.8055 131.986C64.9517 136.201 76.6215 136.167 83.7448 131.918L110.085 116.194C113.326 114.27 115.089 111.773 115.376 109.242L115.467 100.149Z" fill="#CFDAE6"/>
<path d="M5.35451 78.0927C-1.76875 82.3414 -1.7573 89.27 5.35451 93.4844L57.7941 124.405C64.9403 128.62 76.6101 128.585 83.7334 124.405L110.073 108.681C117.197 104.433 117.185 97.5041 110.073 93.3012L57.6338 62.3802C50.4876 58.1658 38.8178 58.2002 31.6946 62.4375L5.35451 78.0927Z" fill="#E1E9F1"/>
<path d="M441.95 135.5C442.033 122.193 423.418 111.287 400.37 111.143C377.323 110.998 358.571 121.668 358.488 134.975C358.404 148.283 377.02 159.188 400.067 159.333C423.115 159.477 441.866 148.807 441.95 135.5Z" fill="#212456"/>
<path d="M441.961 134.624C442.045 121.317 423.429 110.412 400.382 110.267C377.334 110.122 358.583 120.792 358.499 134.1C358.416 147.407 377.032 158.312 400.079 158.457C423.126 158.602 441.878 147.931 441.961 134.624Z" fill="url(#paint5_linear)"/>
<path d="M441.171 133.801C441.252 120.898 422.983 110.324 400.365 110.181C377.748 110.039 359.347 120.384 359.266 133.286C359.185 146.189 377.455 156.763 400.072 156.906C422.689 157.048 441.09 146.703 441.171 133.801Z" fill="#CEDAE5"/>
<path d="M433.35 121.904C433.415 111.469 418.64 102.916 400.349 102.801C382.058 102.686 367.177 111.052 367.111 121.488C367.046 131.924 381.821 140.477 400.112 140.592C418.403 140.707 433.284 132.34 433.35 121.904Z" fill="#C0DFF5"/>
<path opacity="0.5" d="M440.518 120.082C440.6 107.079 422.629 96.4238 400.378 96.284C378.128 96.1442 360.024 106.572 359.942 119.576C359.861 132.58 377.832 143.235 400.082 143.374C422.333 143.514 440.437 133.086 440.518 120.082Z" stroke="url(#paint6_linear)" stroke-width="2.53094" stroke-miterlimit="10"/>
<g opacity="0.2">
<path opacity="0.5" d="M415.011 124.623L391.477 111.029V52.7489L415.011 66.3427V124.623Z" fill="url(#paint7_linear)"/>
<path opacity="0.2" d="M412.01 82.1698L393.985 71.7597V59.1279L412.01 69.538V82.1698Z" fill="white"/>
<path opacity="0.2" d="M401.497 93.3128L393.985 88.9839V80.3718L401.497 84.7122V93.3128Z" fill="white"/>
<path opacity="0.2" d="M412.011 117.763L404.498 113.423V104.811L412.011 109.151V117.763Z" fill="white"/>
<path opacity="0.2" d="M399.585 99.1074L395.084 96.5077V91.3428L399.585 93.9424V99.1074Z" fill="white"/>
<path opacity="0.2" d="M405.002 102.234L400.49 99.6342V94.4578L405.002 97.0689V102.234Z" fill="white"/>
<path opacity="0.2" d="M410.51 105.418L405.998 102.807V97.6416L410.51 100.241V105.418Z" fill="white"/>
<path opacity="0.2" d="M412.01 84.4603L393.985 74.0503V73.4777L412.01 83.8877V84.4603Z" fill="white"/>
<path opacity="0.2" d="M412.01 85.6169L393.985 75.2069V74.6228L412.01 85.0328V85.6169Z" fill="white"/>
<path opacity="0.2" d="M412.01 86.7622L393.985 76.3522V75.7795L412.01 86.1896V86.7622Z" fill="white"/>
<path opacity="0.2" d="M412.01 87.9075L393.985 77.4974V76.9248L412.01 87.3349V87.9075Z" fill="white"/>
<path opacity="0.2" d="M412.01 89.0527L393.985 78.6427V78.0701L412.01 88.4801V89.0527Z" fill="white"/>
<path opacity="0.2" d="M412.011 91.3543L402.494 85.8573V85.2847L412.011 90.7817V91.3543Z" fill="white"/>
<path opacity="0.2" d="M412.011 92.4996L402.494 87.0025V86.4299L412.011 91.927V92.4996Z" fill="white"/>
<path opacity="0.2" d="M412.011 93.6561L402.494 88.159V87.5864L412.011 93.072V93.6561Z" fill="white"/>
<path opacity="0.2" d="M412.011 94.8013L402.494 89.3043V88.7317L412.011 94.2287V94.8013Z" fill="white"/>
<path opacity="0.2" d="M412.011 97.0919L402.494 91.5948V91.0222L412.011 96.5193V97.0919Z" fill="white"/>
<path opacity="0.2" d="M412.011 98.2372L402.494 92.7516V92.179L412.011 97.6646V98.2372Z" fill="white"/>
<path opacity="0.2" d="M412.011 99.3936L402.494 93.8966V93.324L412.011 98.821V99.3936Z" fill="white"/>
<path opacity="0.2" d="M412.011 95.9466L402.494 90.4496V89.877L412.011 95.374V95.9466Z" fill="white"/>
<path opacity="0.2" d="M403.49 104.811L393.985 99.3136V98.741L403.49 104.238V104.811Z" fill="white"/>
<path opacity="0.2" d="M403.49 105.956L393.985 100.459V99.8862L403.49 105.383V105.956Z" fill="white"/>
<path opacity="0.2" d="M403.49 107.113L393.985 101.616V101.043L403.49 106.529V107.113Z" fill="white"/>
<path opacity="0.2" d="M403.49 108.258L393.985 102.761V102.188L403.49 107.685V108.258Z" fill="white"/>
<path opacity="0.2" d="M403.49 110.548L393.985 105.063V104.479L403.49 109.976V110.548Z" fill="white"/>
<path opacity="0.2" d="M403.49 111.705L393.985 106.208V105.635L403.49 111.121V111.705Z" fill="white"/>
<path opacity="0.2" d="M403.49 112.85L393.985 107.353V106.781L403.49 112.278V112.85Z" fill="white"/>
<path opacity="0.2" d="M403.49 109.403L393.985 103.906V103.333L403.49 108.83V109.403Z" fill="white"/>
</g>
<g opacity="0.8">
<path opacity="0.5" d="M410.556 129.914L387.01 116.331V58.0511L410.556 71.6449V129.914Z" fill="url(#paint8_linear)"/>
<path opacity="0.8" d="M407.544 87.4605L389.519 77.0505V64.4187L407.544 74.8287V87.4605Z" fill="white"/>
<path opacity="0.8" d="M397.031 98.615L389.519 94.2746V85.6626L397.031 90.003V98.615Z" fill="white"/>
<path opacity="0.8" d="M407.544 123.065L400.032 118.725V110.113L407.544 114.453V123.065Z" fill="white"/>
<path opacity="0.8" d="M395.13 104.41L390.618 101.798V96.6335L395.13 99.2447V104.41Z" fill="white"/>
<path opacity="0.8" d="M400.536 107.525L396.023 104.925V99.76L400.536 102.36V107.525Z" fill="white"/>
<path opacity="0.8" d="M406.044 110.708L401.532 108.109V102.944L406.044 105.544V110.708Z" fill="white"/>
<path opacity="0.8" d="M407.544 89.7624L389.519 79.3524V78.7798L407.544 89.1898V89.7624Z" fill="white"/>
<path opacity="0.8" d="M407.544 90.9077L389.519 80.4977V79.925L407.544 90.3351V90.9077Z" fill="white"/>
<path opacity="0.8" d="M407.544 92.053L389.519 81.6429V81.0703L407.544 91.4804V92.053Z" fill="white"/>
<path opacity="0.8" d="M407.544 93.2097L389.519 82.7997V82.2271L407.544 92.6371V93.2097Z" fill="white"/>
<path opacity="0.8" d="M407.544 94.3547L389.519 83.9447V83.3721L407.544 93.7821V94.3547Z" fill="white"/>
<path opacity="0.8" d="M407.544 96.6451L398.028 91.1595V90.5754L407.544 96.0725V96.6451Z" fill="white"/>
<path opacity="0.8" d="M407.544 97.8018L398.028 92.3048V91.7322L407.544 97.2178V97.8018Z" fill="white"/>
<path opacity="0.8" d="M407.544 98.9469L398.028 93.4498V92.8772L407.544 98.3743V98.9469Z" fill="white"/>
<path opacity="0.8" d="M407.544 100.092L398.028 94.6065V94.0225L407.544 99.5195V100.092Z" fill="white"/>
<path opacity="0.8" d="M407.544 102.394L398.028 96.8971V96.3245L407.544 101.822V102.394Z" fill="white"/>
<path opacity="0.8" d="M407.544 103.539L398.028 98.0423V97.4697L407.544 102.967V103.539Z" fill="white"/>
<path opacity="0.8" d="M407.544 104.684L398.028 99.1874V98.6147L407.544 104.112V104.684Z" fill="white"/>
<path opacity="0.8" d="M407.544 101.249L398.028 95.7518V95.1792L407.544 100.665V101.249Z" fill="white"/>
<path opacity="0.8" d="M399.035 110.101L389.519 104.616V104.043L399.035 109.529V110.101Z" fill="white"/>
<path opacity="0.8" d="M399.035 111.258L389.519 105.761V105.188L399.035 110.686V111.258Z" fill="white"/>
<path opacity="0.8" d="M399.035 112.403L389.519 106.906V106.334L399.035 111.831V112.403Z" fill="white"/>
<path opacity="0.8" d="M399.035 113.548L389.519 108.063V107.479L399.035 112.976V113.548Z" fill="white"/>
<path opacity="0.8" d="M399.035 115.85L389.519 110.353V109.781L399.035 115.278V115.85Z" fill="white"/>
<path opacity="0.8" d="M399.035 116.996L389.519 111.499V110.926L399.035 116.423V116.996Z" fill="white"/>
<path opacity="0.8" d="M399.035 118.141L389.519 112.655V112.071L399.035 117.568V118.141Z" fill="white"/>
<path opacity="0.8" d="M399.035 114.705L389.519 109.208V108.635L399.035 114.121V114.705Z" fill="white"/>
</g>
<path opacity="0.6" d="M442.439 0L439.92 117.431C439.851 119.962 437.629 126.123 437.24 127.119C433.804 135.995 414.335 142.511 404.498 143.256C397.02 143.817 373.52 139.946 366.076 132.17C357.865 123.592 359.731 118.943 359.731 118.943C359.687 118.143 359.796 117.342 360.052 116.583C360.338 113.045 358.139 80.4288 357.761 0" fill="url(#paint9_linear)"/>
<path opacity="0.8" d="M179.817 285.95C182.6 288.034 180.905 291.481 182.532 302.658C183.528 309.461 184.593 311.087 183.345 312.553C180.985 315.325 175.328 311.614 166.166 310.778C150.843 309.404 145.014 317.752 137.891 313.389C133.047 310.412 130.745 303.483 131.936 298.181C132.875 294.024 136.093 291.63 142.529 286.832C150.03 281.254 156.272 276.605 161.551 278.586C164.987 279.88 164.563 282.674 169.006 284.564C174.24 286.797 176.966 283.797 179.817 285.95Z" fill="white"/>
<path fill-rule="evenodd" clip-rule="evenodd" d="M156.134 134.781C156.543 132.737 157.604 130.88 159.157 129.49L163.738 132.513C163.9 133.038 163.915 133.598 163.782 134.13C163.649 134.663 163.372 135.15 162.982 135.537C162.607 135.871 162.141 136.087 161.643 136.155L160.703 139.327L156.134 134.781Z" fill="#DFC790"/>
<path d="M162.204 277.017V287.381C162.204 288.63 164.632 292.134 164.632 292.134H167.907L160.944 295.467L156.512 293.176C156.512 293.176 155.229 286.683 152.103 283.178C152.103 283.178 147.671 278.941 152.95 274.314C154.233 273.169 152.95 259.953 152.95 259.953H161.917L162.204 277.017Z" fill="#DFC790"/>
<path d="M152.252 275.07C152.252 275.07 155.115 274.555 156.26 276.823C157.405 279.09 160.841 292.272 161.86 292.741L164.632 292.134L169.59 292.031L161.059 295.982L155.768 293.176C155.938 291.833 155.789 290.468 155.333 289.193C154.878 287.917 154.128 286.767 153.145 285.835C149.835 282.869 148.186 279.09 152.252 275.07Z" fill="#090909"/>
<path d="M150.58 279.537V295.501H151.255L153.076 280.602L150.58 279.537Z" fill="#090909"/>
<path d="M178.672 286.018V296.383C178.672 297.631 181.1 301.135 181.1 301.135H184.398L177.435 304.502L173.003 302.212C173.003 302.212 171.721 295.718 168.594 292.214C168.594 292.214 164.162 287.977 169.442 283.35C170.724 282.205 169.442 268.989 169.442 268.989H178.409L178.672 286.018Z" fill="#DFC790"/>
<path d="M168.766 284.072C168.766 284.072 171.629 283.556 172.774 285.824C173.919 288.092 177.355 301.273 178.374 301.743L181.146 301.136L186.104 301.032L177.527 304.984L172.236 302.132C172.406 300.788 172.257 299.424 171.801 298.148C171.346 296.873 170.596 295.723 169.613 294.791C166.349 291.882 164.7 288.092 168.766 284.072Z" fill="#090909"/>
<path d="M167.083 288.55V304.502H167.77L169.591 289.603L167.083 288.55Z" fill="#090909"/>
<path d="M177.939 133.624C177.744 134.037 176.462 136.991 177.939 139.35C178.752 140.51 179.904 141.39 181.237 141.87C182.944 142.649 183.86 142.385 184.879 142.832C186.814 143.668 188.017 145.592 189.517 149.772C192.586 158.361 192.117 161.682 194.098 162.507C196.079 163.331 198.759 161.052 201.05 159.071C207.173 153.63 212.97 147.833 218.411 141.71V152.12C217.266 153.826 199.446 178.964 190.628 175.276C189.219 174.692 188.257 173.478 186.654 171.394C183.086 166.7 180.748 161.188 179.852 155.361C179.575 155.378 179.304 155.444 179.05 155.555C176.187 156.758 176.691 163.24 176.759 163.652L165.181 162.507L152.446 160.216C152.446 160.216 153.695 151.73 156.088 134.724C157.233 134.495 159.524 134.243 160.669 135.48C161.104 135.961 161.814 137.152 159.913 143.049C158.511 147.252 156.741 151.321 154.622 155.212C154.622 155.212 150.706 154.559 148.576 152.188C147.147 150.789 146.324 148.885 146.285 146.886C146.373 145.011 147.196 143.245 148.576 141.973L148.919 141.732C151.977 139.591 154.336 140.805 158.184 139.442C160.819 138.433 163.117 136.702 164.815 134.449L177.939 133.624Z" fill="#DFC790"/>
<path d="M181.237 141.927C181.535 141.927 179.806 154.525 179.806 154.525L182.234 177.28L181.993 180.109C181.993 180.109 183.597 183.304 183.139 184.094C182.68 184.884 183.139 187.369 183.139 187.369L148.496 187.736C148.496 187.736 149.858 157.388 151.874 153.849C152.893 151.673 153.913 149.268 154.874 146.554C155.836 143.84 156.489 141.606 157.062 139.373C173.61 141.297 181.043 142.065 181.237 141.927Z" fill="#D92128"/>
<path d="M180.585 131.964C179.611 132.433 173.278 135.399 167.231 132.846C165.863 132.278 164.607 131.471 163.521 130.463L160.841 115.289C160.383 112.69 162.41 110.25 165.422 109.85L175.179 108.521C176.337 108.516 177.481 108.763 178.535 109.243C179.625 109.791 180.563 110.601 181.264 111.6C181.965 112.6 182.409 113.757 182.554 114.969C183.094 118.091 183.309 121.261 183.196 124.428C183.138 126.026 182.809 127.602 182.222 129.089C181.795 130.11 181.245 131.075 180.585 131.964Z" fill="#DFC790"/>
<path d="M182.027 179.903C182.279 180.613 182.76 182.056 183.173 183.888C184.607 189.672 184.937 195.675 184.146 201.582C181.627 222.551 178.42 293.073 178.42 279.972L170.003 278.071C170.003 278.071 168.708 265.187 166.647 245.077C166.704 239.351 166.727 234.908 166.727 231.678C166.498 224.738 167.483 226.021 166.876 223.593C166.063 220.375 162.627 211.362 162.639 209.61V209.484C162.639 209.484 162.639 214.694 162.639 218.393C162.719 227.383 163.337 228.7 163.269 235.572C163.269 238.87 163.085 238.664 162.753 245.306C162.753 245.306 162.375 252.51 162.078 271.486L153.443 271.967C153.443 271.967 148.564 229.983 147.854 225.013C147.592 222.984 147.21 220.972 146.709 218.989C145.117 211.144 144.235 209.106 143.697 204.823C143.299 201.585 143.253 198.313 143.559 195.065C143.785 192.981 144.203 190.923 144.808 188.915C145.759 185.77 147.135 182.769 148.896 179.994C153.288 183.99 158.992 186.235 164.929 186.304C171.239 186.444 177.361 184.152 182.027 179.903Z" fill="#212456"/>
<path d="M172.717 119.469C172.717 119.469 183.402 114.487 184.33 109.964C185.372 104.891 178.26 104.902 170.449 104.306C164.036 103.826 156.054 105.738 153.454 118.645C152.034 125.722 152.687 128.184 156.959 132.296C166.819 137.816 174.24 135.731 177.985 133.842C177.985 133.842 177.836 126.97 172.866 127.806C169.636 125.482 169.591 122.733 172.717 119.469Z" fill="#26203D"/>
<path d="M217.61 141.607L220.095 138.171L222.568 136.316L226.726 135.938C226.726 135.938 225.672 138.503 223.714 137.713L222.019 139.19C222.397 139.092 222.754 138.925 223.072 138.698C223.499 138.364 223.855 137.95 224.12 137.478C224.385 137.006 224.555 136.487 224.618 135.949L229.199 133.659C230.081 133.475 230.344 133.556 230.344 133.659C230.344 133.762 229.886 134.323 228.054 135.949C226.909 136.911 226.909 136.968 226.909 137.094C226.565 138.675 230.768 140.404 230.344 141.733C230.267 141.943 230.111 142.115 229.909 142.214L222.339 145.58L217.312 153.7L212.983 147.516L217.61 141.607Z" fill="#DFC790"/>
<g opacity="0.5">
<path opacity="0.5" d="M90.3642 81.7229L50.5792 104.627V52.1991L84.6495 32.3066L90.1695 38.6054V38.8L90.3642 81.7229ZM51.6901 102.761L89.2418 81.0816L89.0586 39.636L84.054 33.91L51.6901 52.829V102.761Z" fill="url(#paint10_linear)"/>
<path opacity="0.5" d="M89.574 39.7848L83.8021 42.6478V33.4403L84.913 32.799V40.804L89.6542 38.4563L89.574 39.7848Z" fill="url(#paint11_linear)"/>
<path opacity="0.5" d="M62.0199 58.4062C61.2412 58.8643 60.6113 58.4978 60.6113 57.6046C60.6397 57.1194 60.7821 56.6478 61.0268 56.228C61.2715 55.8081 61.6118 55.4519 62.0199 55.1881C62.7987 54.7301 63.4286 55.0965 63.4286 55.9898C63.4002 56.4749 63.2578 56.9465 63.0131 57.3664C62.7684 57.7862 62.4281 58.1425 62.0199 58.4062ZM62.0199 55.8295C61.7758 55.9843 61.5717 56.1947 61.4244 56.4435C61.2771 56.6923 61.1908 56.9724 61.1725 57.261C61.1725 57.7992 61.5504 58.0168 62.0199 57.742C62.2672 57.5849 62.4731 57.3709 62.6206 57.1178C62.768 56.8648 62.8527 56.5801 62.8674 56.2876C62.8674 55.7493 62.4895 55.5317 62.0199 55.8066V55.8295Z" fill="url(#paint12_linear)"/>
<path opacity="0.5" d="M77.7896 47.996L64.276 55.795V55.1537L77.7896 47.3433V47.996Z" fill="url(#paint13_linear)"/>
<path opacity="0.5" d="M62.0199 63.1244C61.2412 63.5711 60.6113 63.2046 60.6113 62.3228C60.638 61.8357 60.7795 61.3618 61.0243 60.9398C61.2691 60.5178 61.6103 60.1598 62.0199 59.8949C62.7987 59.4483 63.4286 59.8033 63.4286 60.6966C63.4019 61.1837 63.2604 61.6576 63.0156 62.0795C62.7708 62.5015 62.4296 62.8595 62.0199 63.1244ZM62.0199 60.5362C61.7753 60.696 61.5713 60.9107 61.4242 61.1632C61.277 61.4157 61.1909 61.699 61.1725 61.9907C61.1725 62.5289 61.5504 62.7465 62.0199 62.4716C62.2672 62.3146 62.4731 62.1006 62.6206 61.8475C62.768 61.5945 62.8527 61.3097 62.8674 61.0172C62.8674 60.4904 62.4895 60.2728 62.0199 60.5362Z" fill="url(#paint14_linear)"/>
<path opacity="0.5" d="M77.7896 52.7259L64.276 60.5249V59.8835L77.7896 52.0846V52.7259Z" fill="url(#paint15_linear)"/>
<path opacity="0.5" d="M62.0199 67.8542C61.2412 68.3008 60.6113 67.9458 60.6113 67.0525C60.638 66.5654 60.7795 66.0915 61.0243 65.6695C61.2691 65.2476 61.6103 64.8895 62.0199 64.6246C62.7987 64.178 63.4286 64.5445 63.4286 65.4263C63.4019 65.9134 63.2604 66.3873 63.0156 66.8093C62.7708 67.2312 62.4296 67.5893 62.0199 67.8542ZM62.0199 65.2774C61.7727 65.4345 61.5668 65.6485 61.4193 65.9016C61.2719 66.1546 61.1872 66.4393 61.1725 66.7319C61.1725 67.2587 61.5504 67.4762 62.0199 67.2128C62.2646 67.0531 62.4686 66.8384 62.6157 66.5859C62.7629 66.3334 62.849 66.0501 62.8674 65.7584C62.8674 65.2774 62.4895 65.0026 62.0199 65.2774Z" fill="url(#paint16_linear)"/>
<path opacity="0.5" d="M77.7896 57.4555L64.276 65.2659V64.6132L77.7896 56.8142V57.4555Z" fill="url(#paint17_linear)"/>
<path opacity="0.5" d="M62.0199 72.1488C61.2412 72.5955 60.6113 72.2405 60.6113 71.3472C60.638 70.8601 60.7795 70.3862 61.0243 69.9642C61.2691 69.5422 61.6103 69.1842 62.0199 68.9193C62.7987 68.4727 63.4286 68.8277 63.4286 69.721C63.4019 70.2081 63.2604 70.682 63.0156 71.1039C62.7708 71.5259 62.4296 71.884 62.0199 72.1488ZM62.0199 69.5606C61.7768 69.7193 61.5737 69.9322 61.4266 70.1825C61.2796 70.4329 61.1926 70.714 61.1725 71.0036C61.1725 71.5419 61.5504 71.7595 62.0199 71.4846C62.2672 71.3276 62.4731 71.1135 62.6206 70.8605C62.768 70.6074 62.8527 70.3227 62.8674 70.0302C62.8674 69.5263 62.4895 69.3087 62.0199 69.5721V69.5606Z" fill="url(#paint18_linear)"/>
<path opacity="0.5" d="M77.7896 61.7616L64.276 69.5605V68.9192L77.7896 61.1202V61.7616Z" fill="url(#paint19_linear)"/>
<path opacity="0.5" d="M80.4123 67.1329L66.8987 74.9318V74.2905L80.4123 66.4916V67.1329Z" fill="url(#paint20_linear)"/>
<path opacity="0.5" d="M80.4123 71.8625L66.8987 79.6729V79.0201L80.4123 71.2212V71.8625Z" fill="url(#paint21_linear)"/>
<path opacity="0.5" d="M80.4123 76.6039L66.8987 84.4029V83.7616L80.4123 75.9512V76.6039Z" fill="url(#paint22_linear)"/>
<path opacity="0.5" d="M80.4123 80.8984L66.8987 88.7088V88.056L80.4123 80.2571V80.8984Z" fill="url(#paint23_linear)"/>
<path opacity="0.5" d="M65.3984 75.802L57.8972 80.1309V79.4896L65.3984 75.1606V75.802Z" fill="url(#paint24_linear)"/>
<path opacity="0.5" d="M65.3984 80.5319L57.8972 84.8723V84.2196L65.3984 79.8906V80.5319Z" fill="url(#paint25_linear)"/>
<path opacity="0.5" d="M65.3984 85.2729L57.8972 89.6018V88.9605L65.3984 84.6201V85.2729Z" fill="url(#paint26_linear)"/>
<path opacity="0.5" d="M65.3984 89.5676L57.8972 93.908V93.2667L65.3984 88.9263V89.5676Z" fill="url(#paint27_linear)"/>
</g>
<g opacity="0.3">
<path opacity="0.3" d="M421.458 261.545L454.074 242.706V297.528L421.458 316.355V261.545ZM453.525 243.886L422.088 262.038V315.187L453.525 297.036V243.886Z" fill="#5D6BB2"/>
<path opacity="0.3" d="M438.66 274.956L450.215 268.291V251.96L438.66 258.637V274.956Z" fill="white"/>
<path opacity="0.3" d="M438.362 258.384L450.513 251.364V268.543L438.362 275.563V258.384ZM450.043 252.429L439.072 258.751L438.958 274.372L449.917 268.039L450.043 252.429Z" fill="#5D6BB2"/>
<path opacity="0.3" d="M424.722 269.115L436.656 262.221V259.323L424.722 266.218V269.115Z" fill="#5D6BB2"/>
<path opacity="0.3" d="M424.596 280.087L436.541 273.192V270.295L424.596 277.189V280.087Z" fill="#5D6BB2"/>
<path opacity="0.3" d="M424.722 274.658L436.656 267.764L436.541 264.992L424.596 271.886L424.722 274.658Z" fill="#5D6BB2"/>
<path opacity="0.3" d="M424.596 285.389L436.541 278.494V275.608L424.596 282.503V285.389Z" fill="#5D6BB2"/>
<path opacity="0.3" d="M424.596 290.84L450.41 275.929V273.043L424.596 287.943V290.84Z" fill="#5D6BB2"/>
<path opacity="0.3" d="M424.596 307.297L450.41 292.397V283.923L424.596 298.822V307.297Z" fill="#5D6BB2"/>
<path opacity="0.3" d="M424.596 296.28L450.41 281.38V278.483L424.596 293.382V296.28Z" fill="#5D6BB2"/>
<path opacity="0.3" d="M421.71 262.106L427.62 258.694L421.71 271.302V262.106Z" fill="#5D6BB2"/>
</g>
<g opacity="0.1">
<path opacity="0.1" d="M85.0388 68.4155L45.2539 91.3772V38.9375L79.3357 18.9993L84.8442 25.298V25.4927L85.0388 68.4155ZM46.3762 89.4532L83.9165 67.7742L83.7333 26.3401L78.7401 20.614L46.3762 39.5216V89.4532Z" fill="url(#paint28_linear)"/>
<path opacity="0.1" d="M84.2487 26.4775L78.4768 29.3406V20.133L79.5877 19.4917V27.4968L84.3289 25.1491L84.2487 26.4775Z" fill="url(#paint29_linear)"/>
<path opacity="0.1" d="M56.6948 45.0874C55.9275 45.5341 55.2861 45.1676 55.2861 44.2858C55.3155 43.7993 55.4581 43.3264 55.7027 42.9049C55.9472 42.4833 56.287 42.1248 56.6948 41.8579C57.4735 41.4113 58.1034 41.7663 58.1034 42.6596C58.0741 43.146 57.9314 43.6189 57.6868 44.0405C57.4423 44.462 57.1025 44.8205 56.6948 45.0874ZM56.6948 42.4992C56.4528 42.6609 56.2515 42.8763 56.1065 43.1286C55.9615 43.3809 55.8767 43.6632 55.8587 43.9537C55.8587 44.4919 56.2367 44.7095 56.6948 44.4347C56.942 44.2776 57.1479 44.0636 57.2954 43.8105C57.4428 43.5575 57.5275 43.2727 57.5422 42.9802C57.5422 42.442 57.1643 42.2358 56.6948 42.4992Z" fill="url(#paint30_linear)"/>
<path opacity="0.1" d="M72.4643 34.6887L58.9507 42.4876V41.8463L72.4643 34.0474V34.6887Z" fill="url(#paint31_linear)"/>
<path opacity="0.1" d="M56.6948 49.8171C55.9275 50.2637 55.2861 49.9087 55.2861 49.0154C55.3155 48.5289 55.4581 48.056 55.7027 47.6345C55.9472 47.213 56.287 46.8544 56.6948 46.5875C57.4735 46.1409 58.1034 46.4959 58.1034 47.3892C58.0768 47.8763 57.9352 48.3502 57.6904 48.7722C57.4456 49.1941 57.1044 49.5522 56.6948 49.8171ZM56.6948 47.2289C56.452 47.3923 56.2502 47.6097 56.1052 47.864C55.9602 48.1182 55.8758 48.4025 55.8587 48.6947C55.8587 49.2215 56.2367 49.4391 56.6948 49.1643C56.942 49.0072 57.1479 48.7932 57.2954 48.5401C57.4428 48.2871 57.5275 48.0024 57.5422 47.7098C57.5422 47.183 57.1643 46.954 56.6948 47.2289Z" fill="url(#paint32_linear)"/>
<path opacity="0.1" d="M72.4643 39.4185L58.9507 47.2289V46.5762L72.4643 38.7772V39.4185Z" fill="url(#paint33_linear)"/>
<path opacity="0.1" d="M56.6948 54.5469C55.9275 54.9936 55.2861 54.6385 55.2861 53.7453C55.3163 53.259 55.4593 52.7865 55.7038 52.365C55.9483 51.9436 56.2876 51.585 56.6948 51.3174C57.4735 50.8708 58.1034 51.2372 58.1034 52.119C58.0768 52.6062 57.9352 53.0801 57.6904 53.502C57.4456 53.924 57.1044 54.282 56.6948 54.5469ZM56.6948 51.9702C56.451 52.1299 56.2482 52.3448 56.103 52.5975C55.9577 52.8502 55.8741 53.1335 55.8587 53.4246C55.8587 53.9514 56.2367 54.169 56.6948 53.9056C56.9394 53.7458 57.1434 53.5311 57.2906 53.2786C57.4377 53.0261 57.5238 52.7428 57.5422 52.4512C57.5422 51.9129 57.1643 51.6953 56.6948 51.9702Z" fill="url(#paint34_linear)"/>
<path opacity="0.1" d="M72.4643 44.1596L58.9507 51.9586V51.3058L72.4643 43.5068V44.1596Z" fill="url(#paint35_linear)"/>
<path opacity="0.1" d="M56.6948 58.8531C55.9275 59.2997 55.2861 58.9447 55.2861 58.0514C55.3155 57.5649 55.4581 57.0921 55.7027 56.6705C55.9472 56.249 56.287 55.8904 56.6948 55.6235C57.4735 55.1769 58.1034 55.5319 58.1034 56.4252C58.0768 56.9123 57.9352 57.3862 57.6904 57.8082C57.4456 58.2301 57.1044 58.5882 56.6948 58.8531ZM56.6948 56.2649C56.452 56.4284 56.2502 56.6457 56.1052 56.9C55.9602 57.1542 55.8758 57.4385 55.8587 57.7307C55.8587 58.2575 56.2367 58.4751 56.6948 58.2117C56.9409 58.0508 57.1459 57.8343 57.2931 57.5797C57.4402 57.3251 57.5256 57.0395 57.5422 56.7459C57.5422 56.2191 57.1643 56.0015 56.6948 56.2649Z" fill="url(#paint36_linear)"/>
<path opacity="0.1" d="M72.4643 48.4543L58.9507 56.2647V55.6119L72.4643 47.813V48.4543Z" fill="url(#paint37_linear)"/>
<path opacity="0.1" d="M75.0984 53.8255L61.5848 61.6245V60.9832L75.0984 53.1842V53.8255Z" fill="url(#paint38_linear)"/>
<path opacity="0.1" d="M75.0984 58.5551L61.5848 66.3655V65.7128L75.0984 57.9138V58.5551Z" fill="url(#paint39_linear)"/>
<path opacity="0.1" d="M75.0984 63.2966L61.5848 71.0955V70.4542L75.0984 62.6438V63.2966Z" fill="url(#paint40_linear)"/>
<path opacity="0.1" d="M75.0984 67.5912L61.5848 75.4015V74.7488L75.0984 66.9498V67.5912Z" fill="url(#paint41_linear)"/>
<path opacity="0.1" d="M60.0731 62.4947L52.5719 66.8351V66.1823L60.0731 61.8534V62.4947Z" fill="url(#paint42_linear)"/>
<path opacity="0.1" d="M60.0731 67.2246L52.5719 71.565V70.9122L60.0731 66.5833V67.2246Z" fill="url(#paint43_linear)"/>
<path opacity="0.1" d="M60.0731 71.9656L52.5719 76.2946V75.6532L60.0731 71.3129V71.9656Z" fill="url(#paint44_linear)"/>
<path opacity="0.1" d="M60.0731 76.2602L52.5719 80.6006V79.9593L60.0731 75.6189V76.2602Z" fill="url(#paint45_linear)"/>
</g>
<path d="M423.749 265.886L456.365 247.058V301.869L423.749 320.662V265.886ZM455.815 248.238L424.379 266.378V319.516L455.815 301.376V248.238Z" fill="#5D6BB2"/>
<path d="M441.031 279.308L452.597 272.631V256.3L441.031 262.977V279.308Z" fill="white"/>
<path d="M440.744 262.725L452.883 255.716V272.895L440.744 279.903V262.725ZM452.414 256.77L441.454 263.103L441.328 278.712L452.299 272.391L452.414 256.77Z" fill="#5D6BB2"/>
<path d="M427.093 273.456L439.038 266.561V263.664L427.093 270.558V273.456Z" fill="#5D6BB2"/>
<path d="M426.979 284.427L438.912 277.533V274.647L426.979 281.541V284.427Z" fill="#5D6BB2"/>
<path d="M427.093 278.998L439.038 272.104L438.912 269.333L426.979 276.227L427.093 278.998Z" fill="#5D6BB2"/>
<path d="M426.979 289.741L438.912 282.835V279.949L426.979 286.843V289.741Z" fill="#5D6BB2"/>
<path d="M426.979 295.18L452.78 280.281V277.384L426.979 292.283V295.18Z" fill="#5D6BB2"/>
<path d="M426.979 311.649L452.78 296.738V288.275L426.979 303.174V311.649Z" fill="#5D6BB2"/>
<path d="M426.979 300.62L452.78 285.721V282.823L426.979 297.734V300.62Z" fill="#5D6BB2"/>
<path d="M424.081 266.447L430.002 263.034L424.081 275.643V266.447Z" fill="#5D6BB2"/>
<defs>
<linearGradient id="paint0_linear" x1="202.023" y1="71.5992" x2="297.764" y2="71.5992" gradientUnits="userSpaceOnUse">
<stop stop-color="#D92128"/>
<stop offset="0.18" stop-color="#BD212F"/>
<stop offset="0.57" stop-color="#762341"/>
<stop offset="1" stop-color="#212456"/>
</linearGradient>
<linearGradient id="paint1_linear" x1="17089.7" y1="6032.13" x2="25093.6" y2="6032.13" gradientUnits="userSpaceOnUse">
<stop stop-color="#D92128"/>
<stop offset="0.18" stop-color="#BD212F"/>
<stop offset="0.57" stop-color="#762341"/>
<stop offset="1" stop-color="#212456"/>
</linearGradient>
<linearGradient id="paint2_linear" x1="17089.7" y1="6772.21" x2="25093.6" y2="6772.21" gradientUnits="userSpaceOnUse">
<stop stop-color="#D92128"/>
<stop offset="0.18" stop-color="#BD212F"/>
<stop offset="0.57" stop-color="#762341"/>
<stop offset="1" stop-color="#212456"/>
</linearGradient>
<linearGradient id="paint3_linear" x1="13649.7" y1="5846.21" x2="17503.6" y2="5846.21" gradientUnits="userSpaceOnUse">
<stop stop-color="#D92128"/>
<stop offset="0.18" stop-color="#BD212F"/>
<stop offset="0.57" stop-color="#762341"/>
<stop offset="1" stop-color="#212456"/>
</linearGradient>
<linearGradient id="paint4_linear" x1="12892.9" y1="6155.35" x2="17446.9" y2="6155.35" gradientUnits="userSpaceOnUse">
<stop stop-color="#D92128"/>
<stop offset="0.18" stop-color="#BD212F"/>
<stop offset="0.57" stop-color="#762341"/>
<stop offset="1" stop-color="#212456"/>
</linearGradient>
<linearGradient id="paint5_linear" x1="15460.8" y1="9884.58" x2="18973.5" y2="9884.58" gradientUnits="userSpaceOnUse">
<stop stop-color="#FEFFFF"/>
<stop offset="0.06" stop-color="#FAFBFB"/>
<stop offset="0.68" stop-color="#D4D5D4"/>
<stop offset="1" stop-color="#C6C6C5"/>
</linearGradient>
<linearGradient id="paint6_linear" x1="15124.8" y1="8510.38" x2="18541.7" y2="8510.38" gradientUnits="userSpaceOnUse">
<stop stop-color="#D92128"/>
<stop offset="0.18" stop-color="#BD212F"/>
<stop offset="0.57" stop-color="#762341"/>
<stop offset="1" stop-color="#212456"/>
</linearGradient>
<linearGradient id="paint7_linear" x1="8435.96" y1="5618.67" x2="8919.58" y2="5618.67" gradientUnits="userSpaceOnUse">
<stop stop-color="#D92128"/>
<stop offset="0.18" stop-color="#BD212F"/>
<stop offset="0.57" stop-color="#762341"/>
<stop offset="1" stop-color="#212456"/>
</linearGradient>
<linearGradient id="paint8_linear" x1="8343.58" y1="5955.81" x2="8827.68" y2="5955.81" gradientUnits="userSpaceOnUse">
<stop stop-color="#D92128"/>
<stop offset="0.18" stop-color="#BD212F"/>
<stop offset="0.57" stop-color="#762341"/>
<stop offset="1" stop-color="#212456"/>
</linearGradient>
<linearGradient id="paint9_linear" x1="400.455" y1="43.2779" x2="400.982" y2="107.319" gradientUnits="userSpaceOnUse">
<stop offset="0.09" stop-color="white" stop-opacity="0"/>
<stop offset="0.17" stop-color="#FEFEFF" stop-opacity="0.02"/>
<stop offset="0.27" stop-color="#FAFDFE" stop-opacity="0.08"/>
<stop offset="0.37" stop-color="#F4FAFD" stop-opacity="0.17"/>
<stop offset="0.48" stop-color="#ECF5FC" stop-opacity="0.3"/>
<stop offset="0.59" stop-color="#E1F0FA" stop-opacity="0.47"/>
<stop offset="0.7" stop-color="#D4E9F8" stop-opacity="0.68"/>
<stop offset="0.81" stop-color="#C5E2F6" stop-opacity="0.92"/>
<stop offset="0.85" stop-color="#C0DFF5"/>
</linearGradient>
<linearGradient id="paint10_linear" x1="50.5792" y1="68.4956" x2="90.3642" y2="68.4956" gradientUnits="userSpaceOnUse">
<stop stop-color="#212456"/>
<stop offset="1" stop-color="#D92128"/>
</linearGradient>
<linearGradient id="paint11_linear" x1="511.939" y1="357.222" x2="541.843" y2="357.222" gradientUnits="userSpaceOnUse">
<stop stop-color="#212456"/>
<stop offset="1" stop-color="#D92128"/>
</linearGradient>
<linearGradient id="paint12_linear" x1="209.672" y1="234.155" x2="216.602" y2="234.155" gradientUnits="userSpaceOnUse">
<stop stop-color="#212456"/>
<stop offset="1" stop-color="#D92128"/>
</linearGradient>
<linearGradient id="paint13_linear" x1="822.524" y1="427.924" x2="981.984" y2="427.924" gradientUnits="userSpaceOnUse">
<stop stop-color="#212456"/>
<stop offset="1" stop-color="#D92128"/>
</linearGradient>
<linearGradient id="paint14_linear" x1="209.672" y1="253.754" x2="216.602" y2="253.754" gradientUnits="userSpaceOnUse">
<stop stop-color="#212456"/>
<stop offset="1" stop-color="#D92128"/>
</linearGradient>
<linearGradient id="paint15_linear" x1="822.524" y1="467.093" x2="981.984" y2="467.093" gradientUnits="userSpaceOnUse">
<stop stop-color="#212456"/>
<stop offset="1" stop-color="#D92128"/>
</linearGradient>
<linearGradient id="paint16_linear" x1="209.672" y1="273.408" x2="216.602" y2="273.408" gradientUnits="userSpaceOnUse">
<stop stop-color="#212456"/>
<stop offset="1" stop-color="#D92128"/>
</linearGradient>
<linearGradient id="paint17_linear" x1="822.524" y1="507.291" x2="981.984" y2="507.291" gradientUnits="userSpaceOnUse">
<stop stop-color="#212456"/>
<stop offset="1" stop-color="#D92128"/>
</linearGradient>
<linearGradient id="paint18_linear" x1="209.672" y1="291.412" x2="216.602" y2="291.412" gradientUnits="userSpaceOnUse">
<stop stop-color="#212456"/>
<stop offset="1" stop-color="#D92128"/>
</linearGradient>
<linearGradient id="paint19_linear" x1="822.524" y1="542.722" x2="981.984" y2="542.722" gradientUnits="userSpaceOnUse">
<stop stop-color="#212456"/>
<stop offset="1" stop-color="#D92128"/>
</linearGradient>
<linearGradient id="paint20_linear" x1="856.092" y1="587.594" x2="1015.55" y2="587.594" gradientUnits="userSpaceOnUse">
<stop stop-color="#212456"/>
<stop offset="1" stop-color="#D92128"/>
</linearGradient>
<linearGradient id="paint21_linear" x1="856.092" y1="628.021" x2="1015.55" y2="628.021" gradientUnits="userSpaceOnUse">
<stop stop-color="#212456"/>
<stop offset="1" stop-color="#D92128"/>
</linearGradient>
<linearGradient id="paint22_linear" x1="856.092" y1="667.656" x2="1015.55" y2="667.656" gradientUnits="userSpaceOnUse">
<stop stop-color="#212456"/>
<stop offset="1" stop-color="#D92128"/>
</linearGradient>
<linearGradient id="paint23_linear" x1="856.092" y1="703.74" x2="1015.55" y2="703.74" gradientUnits="userSpaceOnUse">
<stop stop-color="#212456"/>
<stop offset="1" stop-color="#D92128"/>
</linearGradient>
<linearGradient id="paint24_linear" x1="437.007" y1="412.144" x2="486.14" y2="412.144" gradientUnits="userSpaceOnUse">
<stop stop-color="#212456"/>
<stop offset="1" stop-color="#D92128"/>
</linearGradient>
<linearGradient id="paint25_linear" x1="437.007" y1="438.225" x2="486.14" y2="438.225" gradientUnits="userSpaceOnUse">
<stop stop-color="#212456"/>
<stop offset="1" stop-color="#D92128"/>
</linearGradient>
<linearGradient id="paint26_linear" x1="437.007" y1="463.578" x2="486.14" y2="463.578" gradientUnits="userSpaceOnUse">
<stop stop-color="#212456"/>
<stop offset="1" stop-color="#D92128"/>
</linearGradient>
<linearGradient id="paint27_linear" x1="437.007" y1="486.566" x2="486.14" y2="486.566" gradientUnits="userSpaceOnUse">
<stop stop-color="#212456"/>
<stop offset="1" stop-color="#D92128"/>
</linearGradient>
<linearGradient id="paint28_linear" x1="1616.76" y1="3506.89" x2="2998.89" y2="3506.89" gradientUnits="userSpaceOnUse">
<stop stop-color="#212456"/>
<stop offset="1" stop-color="#D92128"/>
</linearGradient>
<linearGradient id="paint29_linear" x1="479.402" y1="229.47" x2="509.307" y2="229.47" gradientUnits="userSpaceOnUse">
<stop stop-color="#212456"/>
<stop offset="1" stop-color="#D92128"/>
</linearGradient>
<linearGradient id="paint30_linear" x1="191.246" y1="178.813" x2="198.177" y2="178.813" gradientUnits="userSpaceOnUse">
<stop stop-color="#212456"/>
<stop offset="1" stop-color="#D92128"/>
</linearGradient>
<linearGradient id="paint31_linear" x1="754.36" y1="316.037" x2="913.821" y2="316.037" gradientUnits="userSpaceOnUse">
<stop stop-color="#212456"/>
<stop offset="1" stop-color="#D92128"/>
</linearGradient>
<linearGradient id="paint32_linear" x1="191.246" y1="198.551" x2="198.177" y2="198.551" gradientUnits="userSpaceOnUse">
<stop stop-color="#212456"/>
<stop offset="1" stop-color="#D92128"/>
</linearGradient>
<linearGradient id="paint33_linear" x1="754.36" y1="356.139" x2="913.821" y2="356.139" gradientUnits="userSpaceOnUse">
<stop stop-color="#212456"/>
<stop offset="1" stop-color="#D92128"/>
</linearGradient>
<linearGradient id="paint34_linear" x1="191.246" y1="218.118" x2="198.177" y2="218.118" gradientUnits="userSpaceOnUse">
<stop stop-color="#212456"/>
<stop offset="1" stop-color="#D92128"/>
</linearGradient>
<linearGradient id="paint35_linear" x1="754.36" y1="395.774" x2="913.821" y2="395.774" gradientUnits="userSpaceOnUse">
<stop stop-color="#212456"/>
<stop offset="1" stop-color="#D92128"/>
</linearGradient>
<linearGradient id="paint36_linear" x1="191.246" y1="236.11" x2="198.177" y2="236.11" gradientUnits="userSpaceOnUse">
<stop stop-color="#212456"/>
<stop offset="1" stop-color="#D92128"/>
</linearGradient>
<linearGradient id="paint37_linear" x1="754.36" y1="431.859" x2="913.821" y2="431.859" gradientUnits="userSpaceOnUse">
<stop stop-color="#212456"/>
<stop offset="1" stop-color="#D92128"/>
</linearGradient>
<linearGradient id="paint38_linear" x1="787.94" y1="476.295" x2="947.536" y2="476.295" gradientUnits="userSpaceOnUse">
<stop stop-color="#212456"/>
<stop offset="1" stop-color="#D92128"/>
</linearGradient>
<linearGradient id="paint39_linear" x1="787.94" y1="516.504" x2="947.536" y2="516.504" gradientUnits="userSpaceOnUse">
<stop stop-color="#212456"/>
<stop offset="1" stop-color="#D92128"/>
</linearGradient>
<linearGradient id="paint40_linear" x1="787.94" y1="556.14" x2="947.536" y2="556.14" gradientUnits="userSpaceOnUse">
<stop stop-color="#212456"/>
<stop offset="1" stop-color="#D92128"/>
</linearGradient>
<linearGradient id="paint41_linear" x1="787.94" y1="592.224" x2="947.536" y2="592.224" gradientUnits="userSpaceOnUse">
<stop stop-color="#212456"/>
<stop offset="1" stop-color="#D92128"/>
</linearGradient>
<linearGradient id="paint42_linear" x1="396.801" y1="341.726" x2="445.934" y2="341.726" gradientUnits="userSpaceOnUse">
<stop stop-color="#212456"/>
<stop offset="1" stop-color="#D92128"/>
</linearGradient>
<linearGradient id="paint43_linear" x1="396.801" y1="367.03" x2="445.934" y2="367.03" gradientUnits="userSpaceOnUse">
<stop stop-color="#212456"/>
<stop offset="1" stop-color="#D92128"/>
</linearGradient>
<linearGradient id="paint44_linear" x1="396.801" y1="392.384" x2="445.934" y2="392.384" gradientUnits="userSpaceOnUse">
<stop stop-color="#212456"/>
<stop offset="1" stop-color="#D92128"/>
</linearGradient>
<linearGradient id="paint45_linear" x1="396.801" y1="415.421" x2="445.934" y2="415.421" gradientUnits="userSpaceOnUse">
<stop stop-color="#212456"/>
<stop offset="1" stop-color="#D92128"/>
</linearGradient>
</defs>
</svg>
