<svg width="496" height="344" viewBox="0 0 496 344" fill="none" xmlns="http://www.w3.org/2000/svg">
<path d="M492.322 172.584C492.814 94.2383 383.203 30.0355 247.498 29.1828C111.793 28.3301 1.38359 91.1505 0.891327 169.496C0.399061 247.842 110.01 312.044 245.715 312.897C381.42 313.75 491.829 250.929 492.322 172.584Z" fill="#F9F9FA"/>
<path d="M484.282 172.533C484.758 96.7504 378.733 34.6475 247.469 33.8227C116.204 32.9979 9.40731 93.7636 8.93114 169.547C8.45498 245.33 114.48 307.433 245.744 308.257C377.009 309.082 483.806 248.316 484.282 172.533Z" fill="white"/>
<path opacity="0.5" d="M253.896 312.84L254.596 130.841L26.366 107.141C26.366 107.141 -90.014 279.38 253.896 312.84Z" fill="url(#paint0_linear)"/>
<path d="M20.866 131.941L43.476 133.741" stroke="#D92128" stroke-width="3" stroke-miterlimit="10"/>
<path d="M77.366 263.911L102.626 249.321" stroke="#D92128" stroke-width="3" stroke-miterlimit="10"/>
<g opacity="0.5">
<path opacity="0.5" d="M366.166 54.5806L350.236 67.2006" stroke="#212456" stroke-width="3" stroke-linecap="round" stroke-linejoin="round"/>
<path opacity="0.5" d="M482.846 151.771H457.106" stroke="#212456" stroke-width="3" stroke-linecap="round" stroke-linejoin="round"/>
<path opacity="0.5" d="M416.826 262.201L393.026 248.451" stroke="#212456" stroke-width="3" stroke-linecap="round" stroke-linejoin="round"/>
<path opacity="0.5" d="M20.866 134.941L43.476 136.741" stroke="#D92128" stroke-width="3" stroke-miterlimit="10"/>
<path opacity="0.5" d="M187.396 35.3005L191.676 54.7505" stroke="#212456" stroke-width="3" stroke-linecap="round" stroke-linejoin="round"/>
<path opacity="0.5" d="M75.366 269.911L100.626 255.321" stroke="#D92128" stroke-width="3" stroke-miterlimit="10"/>
</g>
<path opacity="0.2" d="M89.486 134.361L87.996 131.01L276.076 151.141L277.566 154.49L89.486 134.361Z" fill="#D92128"/>
<path d="M383.746 151.57L247.446 130.87L235.446 142.57L260.726 157.57L383.896 151.85C384.066 151.85 383.896 151.6 383.746 151.57Z" fill="#212121"/>
<path d="M249.636 304.511L258.776 135.011L252.316 117.851C252.316 117.671 252.116 117.581 252.056 117.691L242.896 135.311C242.889 135.34 242.889 135.371 242.896 135.401L249.406 304.341C249.356 304.581 249.616 304.741 249.636 304.511Z" fill="#212121"/>
<path d="M86.076 126.901L84.5959 123.551L272.676 143.681L274.156 147.031L86.076 126.901Z" fill="#D92128"/>
<path d="M260.787 142.811C260.806 139.813 256.613 137.355 251.421 137.322C246.23 137.29 242.006 139.694 241.987 142.693C241.968 145.692 246.162 148.15 251.353 148.182C256.544 148.215 260.768 145.81 260.787 142.811Z" fill="url(#paint1_linear)"/>
<path d="M258.107 139.937C258.12 137.794 255.123 136.038 251.411 136.015C247.7 135.991 244.681 137.709 244.667 139.852C244.654 141.995 247.651 143.751 251.363 143.774C255.074 143.798 258.093 142.08 258.107 139.937Z" fill="url(#paint2_linear)"/>
<path d="M213.216 84.3805L225.506 77.3005L262.376 56.0105C264.282 55.0488 266.386 54.5479 268.521 54.5479C270.655 54.5479 272.76 55.0488 274.666 56.0105L323.826 84.3805C327.206 86.3805 327.206 89.5205 323.826 91.4705L274.666 119.83C272.76 120.792 270.655 121.293 268.521 121.293C266.386 121.293 264.282 120.792 262.376 119.83L213.216 91.4805C209.836 89.4805 209.836 86.3405 213.216 84.3905V84.3805Z" fill="url(#paint3_linear)"/>
<path d="M281.976 58.2506C282.04 57.5494 281.938 56.8431 281.68 56.1883C281.421 55.5335 281.012 54.9486 280.486 54.4806L258.696 33.2506C257.443 32.132 255.881 31.4203 254.214 31.2096C252.548 30.9989 250.858 31.2991 249.366 32.0706L221.896 47.8106C219.086 49.4206 216.086 51.1806 215.216 51.7206C214.746 52.0106 214.896 52.8406 215.516 53.8906L216.256 76.1906C216.33 75.5708 216.562 74.9803 216.929 74.4759C217.297 73.9716 217.788 73.5703 218.356 73.3106L248.986 55.6406C250.569 54.8416 252.318 54.4253 254.091 54.4253C255.864 54.4253 257.613 54.8416 259.196 55.6406L279.616 67.4206C280.204 67.6857 280.71 68.104 281.082 68.6317C281.453 69.1595 281.675 69.7773 281.726 70.4206L281.976 58.2506Z" fill="url(#paint4_linear)"/>
<path d="M262.046 103.821L265.536 93.7805V93.7705L292.296 98.9105H292.306L289.506 109.521H289.496L262.046 103.821Z" fill="url(#paint5_linear)"/>
<path d="M230.126 72.5305C227.316 74.1505 227.316 76.8005 230.126 78.4205L250.546 90.2005C252.129 90.9995 253.878 91.4158 255.651 91.4158C257.424 91.4158 259.173 90.9995 260.756 90.2005L291.386 72.5305C294.196 70.9105 294.196 68.2605 291.386 66.6405L270.966 54.8605C269.383 54.0615 267.634 53.6453 265.861 53.6453C264.088 53.6453 262.339 54.0615 260.756 54.8605L230.126 72.5305Z" fill="url(#paint6_linear)"/>
<g opacity="0.8">
<path opacity="0.8" d="M218.346 73.3106C215.546 74.9306 215.546 77.5806 218.346 79.2006L238.766 91.0106C240.349 91.8096 242.098 92.2258 243.871 92.2258C245.644 92.2258 247.393 91.8096 248.976 91.0106L279.606 73.3106C282.416 71.6906 282.416 69.0406 279.606 67.4206L259.186 55.6406C257.603 54.8415 255.854 54.4253 254.081 54.4253C252.308 54.4253 250.559 54.8415 248.976 55.6406L218.346 73.3106Z" fill="#212456"/>
</g>
<path d="M218.346 72.9205C215.546 74.5405 215.546 77.1905 218.346 78.8105L238.766 90.5905C240.349 91.3896 242.098 91.8058 243.871 91.8058C245.644 91.8058 247.393 91.3896 248.976 90.5905L279.606 72.9205C282.416 71.3005 282.416 68.6505 279.606 67.0305L259.186 55.2505C257.603 54.4515 255.854 54.0353 254.081 54.0353C252.308 54.0353 250.559 54.4515 248.976 55.2505L218.346 72.9205Z" fill="#F1EDF6"/>
<path d="M215.506 53.5005C216.171 54.5657 216.974 55.5376 217.896 56.3905L240.026 77.6705C241.285 78.7828 242.853 79.4856 244.521 79.6857C246.19 79.8857 247.879 79.5735 249.366 78.7905L279.626 61.1605C280.25 60.8336 280.789 60.3647 281.199 59.7915C281.609 59.2184 281.878 58.5569 281.986 57.8605L281.716 70.0105C281.656 70.6435 281.429 71.2492 281.059 71.7658C280.688 72.2824 280.187 72.6912 279.606 72.9505L248.976 90.5905C247.393 91.3895 245.644 91.8058 243.871 91.8058C242.098 91.8058 240.349 91.3895 238.766 90.5905L218.346 78.8105C217.756 78.5494 217.248 78.1319 216.878 77.6031C216.508 77.0744 216.289 76.4545 216.246 75.8105L215.506 53.5005Z" fill="#E1E9F1"/>
<path d="M215.206 51.7206C216.076 51.1806 219.076 49.4206 221.886 47.8106L249.366 32.0706C250.858 31.2991 252.548 30.9989 254.214 31.2096C255.881 31.4203 257.443 32.132 258.696 33.2506L280.486 54.4806C281.027 54.9361 281.446 55.5196 281.705 56.1781C281.964 56.8366 282.054 57.5492 281.968 58.2514C281.881 58.9536 281.621 59.6232 281.21 60.1993C280.8 60.7754 280.252 61.2399 279.616 61.5506L249.356 79.1806C247.87 79.9621 246.181 80.2745 244.514 80.0763C242.846 79.8781 241.278 79.1787 240.016 78.0706L217.896 56.7806C215.546 54.5406 214.346 52.2606 215.206 51.7206Z" fill="url(#paint7_linear)"/>
<path d="M240.076 61.1405C239.854 61.266 239.661 61.4354 239.507 61.6383C239.354 61.8412 239.243 62.0733 239.182 62.3204C239.121 62.5676 239.111 62.8246 239.153 63.0756C239.195 63.3267 239.288 63.5666 239.426 63.7805L242.816 69.1005C243.102 69.5448 243.548 69.8627 244.061 69.9892C244.574 70.1156 245.116 70.0409 245.576 69.7805L267.306 57.2205C267.526 57.0932 267.717 56.9227 267.869 56.7193C268.021 56.5159 268.13 56.2839 268.19 56.0372C268.25 55.7905 268.259 55.5343 268.217 55.2839C268.175 55.0336 268.083 54.7943 267.946 54.5805L264.556 49.2505C264.268 48.8106 263.824 48.4965 263.313 48.3721C262.803 48.2476 262.264 48.3222 261.806 48.5805L240.076 61.1405Z" stroke="url(#paint8_linear)" stroke-width="1.09" stroke-miterlimit="10"/>
<path d="M259.966 38.6605L222.296 60.4105V58.7805L259.966 37.0305V38.6605Z" fill="#C0DFF5"/>
<path opacity="0.6" d="M259.966 33.4606V37.0306L222.296 58.7806L221.886 55.0606" fill="url(#paint9_linear)"/>
<path d="M220.186 22.4705C219.197 23.1152 218.373 23.9832 217.781 25.0045C217.189 26.0258 216.844 27.1719 216.776 28.3505V55.8405C216.776 58.0005 218.316 58.8905 220.186 57.8405L258.526 35.8405C259.513 35.188 260.333 34.312 260.919 33.2834C261.504 32.2548 261.839 31.1027 261.896 29.9205V2.44053C261.896 0.280531 260.366 -0.609469 258.486 0.440531L220.186 22.4705Z" fill="#212456"/>
<path opacity="0.3" d="M252.621 18.1026C254.598 14.7287 254.624 11.0703 252.679 9.93138C250.735 8.79248 247.557 10.6043 245.58 13.9783C243.604 17.3523 243.578 21.0107 245.522 22.1496C247.467 23.2885 250.645 21.4766 252.621 18.1026Z" stroke="white" stroke-width="3.6" stroke-miterlimit="10"/>
<path opacity="0.3" d="M245.066 21.8006C243.456 20.1506 243.976 16.2506 246.236 13.1006" stroke="white" stroke-width="3.6" stroke-miterlimit="10"/>
<path opacity="0.3" d="M255.326 32.3955C257.303 29.0215 257.329 25.3631 255.384 24.2242C253.44 23.0853 250.262 24.8972 248.285 28.2712C246.309 31.6451 246.283 35.3035 248.227 36.4424C250.172 37.5813 253.35 35.7694 255.326 32.3955Z" stroke="white" stroke-width="3.6" stroke-miterlimit="10"/>
<path opacity="0.3" d="M247.216 30.6405C248.396 27.0805 251.376 24.1105 253.896 24.0005" stroke="white" stroke-width="3.6" stroke-miterlimit="10"/>
<path opacity="0.3" d="M236.416 31.8005L225.086 38.3405V36.5805L236.416 30.0505V31.8005Z" fill="white"/>
<path opacity="0.3" d="M236.416 35.3105L225.086 41.8505V40.0905L236.416 33.5505V35.3105Z" fill="white"/>
<path opacity="0.3" d="M236.416 38.8205L225.086 45.3605V43.6005L236.416 37.0605V38.8205Z" fill="white"/>
<path opacity="0.8" d="M254.26 18.9823C256.236 15.6083 256.262 11.9499 254.318 10.811C252.373 9.67212 249.195 11.484 247.219 14.8579C245.242 18.2319 245.216 21.8903 247.161 23.0292C249.105 24.1681 252.283 22.3562 254.26 18.9823Z" stroke="white" stroke-width="2" stroke-miterlimit="10"/>
<path d="M246.706 22.6805C245.096 21.0105 245.616 17.1305 247.896 14.0105" stroke="white" stroke-width="2" stroke-miterlimit="10"/>
<path opacity="0.8" d="M258.017 34.1603C260.012 30.7976 260.057 27.1399 258.119 25.9907C256.181 24.8415 252.994 26.636 251 29.9987C249.006 33.3615 248.96 37.0191 250.898 38.1683C252.836 39.3175 256.023 37.5231 258.017 34.1603Z" stroke="white" stroke-width="1.9997" stroke-miterlimit="10"/>
<path d="M248.896 31.5105C250.076 27.9605 253.056 24.9905 255.576 24.8805" stroke="white" stroke-width="2" stroke-miterlimit="10"/>
<path d="M238.056 32.6805L226.726 39.2205V37.4605L238.056 30.9205V32.6805Z" fill="white"/>
<path d="M238.056 36.1905L226.726 42.7305V40.9705L238.056 34.4305V36.1905Z" fill="white"/>
<path d="M238.056 39.7006L226.726 46.2406V44.4806L238.056 37.9406V39.7006Z" fill="white"/>
<path fill-rule="evenodd" clip-rule="evenodd" d="M279.246 95.6305L280.676 97.1405C280.486 98.8005 280.406 99.6105 279.796 99.9905C279.186 100.371 277.936 99.9205 277.276 99.5005L277.156 98.8405C276.496 98.6705 276.616 98.9105 275.936 98.3905C274.796 97.5105 273.136 96.1605 273.036 94.7705C273.036 94.4105 273.316 93.7705 273.626 93.8905L277.086 94.8905L279.246 95.6305Z" fill="#0C0C0C"/>
<path fill-rule="evenodd" clip-rule="evenodd" d="M278.276 74.3305C278.586 73.2305 278.836 73.0305 279.006 73.0305C279.546 73.0305 280.006 75.2805 280.096 75.9605C280.304 77.0415 280.407 78.1398 280.406 79.2405C280.336 81.5905 280.466 88.1005 280.676 97.1805C280.692 97.2258 280.692 97.2752 280.676 97.3205C280.646 97.3568 280.612 97.3903 280.576 97.4205C280.271 97.6078 279.93 97.7304 279.576 97.7805C278.986 97.7805 278.576 97.1605 277.776 96.0905C277.416 95.5905 277.156 95.1505 276.986 94.8605C276.55 89.3393 275.803 83.8472 274.746 78.4105C274.616 77.7505 274.486 77.1005 274.346 76.4105L278.276 74.3305Z" fill="#212456"/>
<path fill-rule="evenodd" clip-rule="evenodd" d="M277.966 54.1906C280.196 54.8506 280.356 61.4206 280.876 65.3206C280.901 65.5076 280.877 65.6978 280.807 65.8729C280.737 66.048 280.623 66.2022 280.476 66.3206L278.546 68.0106C278.421 68.1221 278.275 68.2071 278.116 68.2606C277.876 68.3364 277.618 68.3366 277.377 68.2611C277.137 68.1856 276.925 68.038 276.771 67.8383C276.618 67.6387 276.529 67.3965 276.517 67.1448C276.505 66.893 276.571 66.6437 276.706 66.4306L276.856 66.2206C276.944 66.0882 277.005 65.9393 277.034 65.7829C277.063 65.6266 277.06 65.4659 277.026 65.3106L275.836 60.1906V60.0006C275.516 56.4206 276.796 53.7306 277.966 54.1906Z" fill="#E6CA97"/>
<path fill-rule="evenodd" clip-rule="evenodd" d="M270.206 100.171L272.526 100.561C273.286 101.981 273.676 102.681 273.286 103.331C272.896 103.981 271.396 104.331 270.486 104.331L269.986 103.871C269.371 104.19 268.67 104.302 267.986 104.191C266.416 104.121 264.446 103.921 263.646 102.981C263.406 102.711 263.356 102.051 263.716 101.981L267.646 100.811L270.206 100.171Z" fill="#1F1E1F"/>
<path fill-rule="evenodd" clip-rule="evenodd" d="M275.746 78.0105C274.792 79.6817 274.219 81.5425 274.066 83.4605C274.016 84.3305 274.066 84.9505 274.016 86.7805C274.016 88.3305 273.876 89.6005 273.796 90.4205L273.406 102.421C273.411 102.447 273.411 102.474 273.406 102.501C273.38 102.538 273.346 102.569 273.306 102.591C272.497 102.656 271.693 102.414 271.056 101.911C270.43 101.521 269.876 101.027 269.416 100.451L268.196 78.6305C268.106 77.9405 268.016 77.2505 267.936 76.5605L275.746 78.0105Z" fill="#212456"/>
<path fill-rule="evenodd" clip-rule="evenodd" d="M255.416 64.2205H254.266C254.189 64.2497 254.103 64.2497 254.026 64.2205C253.896 64.1605 253.896 64.0205 253.766 63.8605L253.486 63.5905C253.168 63.3333 252.815 63.1244 252.436 62.9705C252.256 62.8905 251.916 62.3405 251.516 62.1905C251.116 62.0405 251.026 62.2405 251.126 62.5605C251.137 62.6048 251.138 62.6511 251.127 62.6957C251.117 62.7402 251.097 62.7817 251.067 62.8168C251.038 62.8519 251.001 62.8796 250.959 62.8976C250.917 62.9156 250.872 62.9235 250.826 62.9205H250.326C250.282 62.9169 250.237 62.923 250.196 62.9386C250.154 62.9542 250.117 62.9787 250.086 63.0105L249.366 63.7505C249.322 63.7945 249.294 63.8512 249.285 63.9123C249.276 63.9735 249.287 64.0359 249.316 64.0905L249.616 64.7405C249.806 65.0705 249.996 65.4205 250.316 65.5405C250.636 65.6605 250.776 65.6505 251.116 65.7905C251.456 65.9305 251.576 66.0105 251.776 66.0805C251.96 66.1457 252.152 66.1894 252.346 66.2105C252.765 66.2299 253.184 66.1997 253.596 66.1205C254.02 66.1138 254.438 66.2209 254.806 66.4305L255.236 66.5205V66.1905L255.336 65.1905L255.386 64.7905L255.416 64.2205Z" fill="#E6CA97"/>
<path d="M276.946 55.6505L275.656 53.5905C275.076 52.5905 276.926 50.1705 276.176 50.0905C275.426 50.0105 271.346 51.4805 271.226 52.1705C271.226 52.1705 273.126 55.5705 272.506 56.2505C273.666 57.0105 275.896 55.5405 276.946 55.6505Z" fill="#E6CA97"/>
<path d="M276.106 47.0605C275.441 46.5853 274.738 46.164 274.006 45.8005C273.73 45.6512 273.447 45.5176 273.156 45.4005C269.866 46.3205 267.406 49.4005 269.606 52.7905C269.876 53.2005 270.676 55.1805 271.746 55.0605C274.866 54.6905 272.746 53.4305 273.216 53.6005C273.717 53.7056 274.239 53.631 274.691 53.3896C275.143 53.1482 275.495 52.7556 275.686 52.2805C276.057 52.0369 276.393 51.7442 276.686 51.4105C276.394 49.9754 276.2 48.522 276.106 47.0605Z" fill="#E6CA97"/>
<path d="M268.326 45.9406C268.237 46.0943 268.194 46.2705 268.203 46.4479C268.212 46.6254 268.272 46.7965 268.376 46.9406C268.558 47.1915 268.789 47.4025 269.056 47.5606C271.806 48.8706 270.766 50.4306 271.296 51.0106C271.546 51.2806 271.556 50.5306 271.926 49.3806C271.945 49.3222 271.968 49.2654 271.996 49.2106C272.286 48.6806 272.726 48.1106 272.896 48.2106C276.896 49.9106 270.836 51.7306 271.996 53.2106C272.566 53.9306 273.306 53.9006 274.346 53.5806C276.276 53.1306 277.096 52.4406 277.436 50.7006C278.016 47.7706 276.936 46.1406 275.206 45.5506C274.267 44.9677 273.169 44.6949 272.066 44.7706H272.016C271.916 44.7706 271.456 44.8606 271.436 44.8506H270.166H270.086C269.607 44.969 269.141 45.1365 268.696 45.3506C268.664 45.3752 268.637 45.4058 268.616 45.4406L268.326 45.9406Z" fill="#25203C"/>
<path fill-rule="evenodd" clip-rule="evenodd" d="M276.386 54.7705C277.136 54.3105 277.386 54.2105 277.386 54.2105L277.896 54.0105L278.606 54.3105C279.107 54.6651 279.522 55.1278 279.819 55.6645C280.117 56.2011 280.29 56.7978 280.326 57.4105C280.996 62.2305 278.636 62.9005 278.906 68.8105C278.906 69.9105 279.256 72.2805 279.576 74.3405C279.221 75.4668 278.499 76.4419 277.526 77.1105L276.996 77.4705L276.696 77.6405L276.246 77.8305C275.986 77.9505 276.166 77.8305 274.126 78.7005C272.396 79.4305 267.936 78.5005 267.976 76.5905C267.976 73.9105 268.406 73.6805 268.166 70.4405C267.806 65.6805 266.586 61.1805 267.046 60.1405C267.48 59.0287 268.231 58.069 269.206 57.3805C270.18 56.7315 271.308 56.3489 272.476 56.2705C273.254 56.3496 274.04 56.2398 274.766 55.9505C275.387 55.6831 275.941 55.2798 276.386 54.7705Z" fill="#D92128"/>
<path fill-rule="evenodd" clip-rule="evenodd" d="M267.676 57.7906C266.726 58.5092 265.913 59.3934 265.276 60.4006C264.636 61.4006 263.836 62.6806 262.976 64.2406H254.756V66.4206C254.756 66.4206 256.806 66.8806 258.866 67.1706C260.29 67.465 261.75 67.5358 263.196 67.3806C263.969 67.2705 264.728 67.0725 265.456 66.7906L269.706 62.9106C271.706 60.1706 271.166 58.0106 270.126 57.3006C269.416 56.7506 268.296 57.2706 267.676 57.7906Z" fill="#E6CA97"/>
<path d="M264.726 63.6605L265.486 64.9005L266.076 66.3105C267.6 65.372 268.936 64.158 270.016 62.7305C270.737 61.8769 271.201 60.8369 271.356 59.7305C271.414 58.9934 271.243 58.2563 270.866 57.6205C270.686 57.3231 270.4 57.105 270.066 57.0105C269.993 57.0011 269.919 57.0011 269.846 57.0105C268.066 57.0105 266.216 59.0105 266.216 59.0105C265.259 60.1111 264.476 61.3522 263.896 62.6905L264.726 63.6605Z" fill="#D92128"/>
<path d="M296.246 213.761L308.246 206.841L344.246 186.071C346.104 185.122 348.16 184.627 350.246 184.627C352.332 184.627 354.388 185.122 356.246 186.071L404.006 214.011C407.296 215.931 407.286 219.061 404.006 220.961L356.006 248.651C354.148 249.597 352.092 250.091 350.006 250.091C347.92 250.091 345.864 249.597 344.006 248.651L296.216 220.711C292.936 218.791 292.936 215.711 296.216 213.761H296.246Z" fill="#212456"/>
<path d="M296.336 213.251L308.336 206.331L344.336 185.561C346.197 184.622 348.252 184.133 350.336 184.133C352.42 184.133 354.475 184.622 356.336 185.561L404.336 213.251C407.636 215.151 407.636 218.251 404.336 220.171L356.336 247.861C354.475 248.799 352.42 249.288 350.336 249.288C348.252 249.288 346.197 248.799 344.336 247.861L296.336 220.171C293.036 218.271 293.036 215.171 296.336 213.251Z" fill="#F0EDF6"/>
<path d="M406.766 217.171C406.766 215.921 405.946 214.661 404.296 213.711L356.296 186.031C354.437 185.087 352.381 184.595 350.296 184.595C348.211 184.595 346.155 185.087 344.296 186.031L308.296 206.791L296.296 213.711C294.646 214.711 293.826 215.921 293.826 217.171V209.331C293.826 208.071 294.646 206.821 296.296 205.871L308.296 198.951L344.296 178.181C346.157 177.242 348.212 176.753 350.296 176.753C352.38 176.753 354.435 177.242 356.296 178.181L404.296 205.871C405.946 206.821 406.766 208.071 406.766 209.331V217.171Z" fill="url(#paint10_linear)"/>
<path d="M406.766 208.87C406.766 210.12 405.946 211.37 404.296 212.32L356.296 240.01C354.435 240.949 352.38 241.438 350.296 241.438C348.212 241.438 346.157 240.949 344.296 240.01L296.296 212.32C294.646 211.37 293.826 210.12 293.826 208.87V216.71C293.826 217.96 294.646 219.22 296.296 220.17L344.296 247.86C346.157 248.799 348.212 249.288 350.296 249.288C352.38 249.288 354.435 248.799 356.296 247.86L404.296 220.17C405.946 219.22 406.766 217.96 406.766 216.71V208.87Z" fill="url(#paint11_linear)"/>
<path d="M296.336 205.4L308.336 198.49L344.336 177.72C346.197 176.782 348.252 176.293 350.336 176.293C352.42 176.293 354.475 176.782 356.336 177.72L404.336 205.41C407.636 207.31 407.636 210.41 404.336 212.32L356.336 240.01C354.475 240.949 352.42 241.438 350.336 241.438C348.252 241.438 346.197 240.949 344.336 240.01L296.336 212.32C293.036 210.42 293.036 207.32 296.336 205.41V205.4Z" fill="#E1E9F1"/>
<path d="M310.476 209.82C307.816 208.28 307.816 205.771 310.476 204.23L339.476 187.48C340.975 186.721 342.631 186.326 344.311 186.326C345.991 186.326 347.647 186.721 349.146 187.48L368.516 198.65C371.176 200.19 371.176 202.7 368.516 204.23L339.506 221.01C338.006 221.765 336.35 222.158 334.671 222.158C332.992 222.158 331.336 221.765 329.836 221.01L310.476 209.82Z" fill="#212456"/>
<path d="M310.416 209.421C307.756 207.881 307.756 205.421 310.416 203.841L339.416 187.081C340.916 186.326 342.572 185.933 344.251 185.933C345.93 185.933 347.586 186.326 349.086 187.081L368.456 198.251C371.116 199.791 371.116 202.251 368.456 203.831L339.456 220.591C337.954 221.345 336.297 221.738 334.616 221.738C332.935 221.738 331.278 221.345 329.776 220.591L310.416 209.421Z" fill="#F1EDF6"/>
<path d="M370.496 201.011C370.442 200.405 370.229 199.826 369.877 199.33C369.526 198.835 369.049 198.441 368.496 198.191L349.496 187.081C347.999 186.322 346.344 185.926 344.666 185.926C342.988 185.926 341.333 186.322 339.836 187.081L310.836 203.841C310.173 204.189 309.614 204.706 309.216 205.341V184.201C309.291 183.617 309.514 183.062 309.864 182.59C310.214 182.117 310.68 181.742 311.216 181.501L340.266 164.741C341.761 163.982 343.414 163.586 345.091 163.586C346.768 163.586 348.421 163.982 349.916 164.741L368.916 175.861C369.453 176.106 369.919 176.485 370.269 176.961C370.619 177.437 370.842 177.994 370.916 178.581L370.496 201.011Z" fill="url(#paint12_linear)"/>
<path d="M370.896 178.611C370.863 179.233 370.659 179.834 370.306 180.348C369.953 180.861 369.465 181.267 368.896 181.521L340.206 198.231C338.71 198.992 337.055 199.389 335.376 199.389C333.697 199.389 332.042 198.992 330.546 198.231L311.176 187.061C310.608 186.813 310.121 186.413 309.768 185.904C309.415 185.396 309.21 184.799 309.176 184.181V205.321C308.346 206.701 308.896 208.321 310.796 209.401L330.156 220.571C331.655 221.327 333.311 221.722 334.991 221.722C336.671 221.722 338.327 221.327 339.826 220.571L368.516 203.851C369.07 203.603 369.547 203.212 369.899 202.718C370.25 202.224 370.464 201.645 370.516 201.041L370.896 178.611Z" fill="url(#paint13_linear)"/>
<path d="M311.156 187.081C308.496 185.551 308.496 183.081 311.156 181.501L340.206 164.741C341.706 163.986 343.362 163.593 345.041 163.593C346.72 163.593 348.376 163.986 349.876 164.741L369.236 175.921C371.896 177.451 371.896 179.921 369.236 181.501L340.236 198.251C338.737 199.01 337.081 199.405 335.401 199.405C333.721 199.405 332.065 199.01 330.566 198.251L311.156 187.081Z" fill="#E1E9F1"/>
<path d="M330.126 185.011C328.706 185.821 328.706 187.161 330.126 188.011L334.636 190.621C335.436 191.025 336.32 191.235 337.216 191.235C338.112 191.235 338.996 191.025 339.796 190.621L353.996 182.431C355.416 181.611 355.416 180.271 353.996 179.431L349.476 176.821C348.675 176.421 347.791 176.213 346.896 176.213C346.001 176.213 345.117 176.421 344.316 176.821L330.126 185.011Z" stroke="url(#paint14_linear)" stroke-width="1.09" stroke-miterlimit="10"/>
<path d="M345.946 166.951L316.346 184.041V182.761L345.946 165.671V166.951Z" fill="#C0DFF5"/>
<path opacity="0.6" d="M346.156 158.361L345.946 165.671L316.346 182.761L315.626 175.561" fill="url(#paint15_linear)"/>
<path d="M315.996 147.651C316.044 146.782 316.297 145.938 316.733 145.185C317.169 144.433 317.777 143.794 318.506 143.321L343.266 129.141C344.646 128.351 345.786 129.011 345.796 130.591L346.046 159.211C346.003 160.078 345.756 160.923 345.325 161.677C344.894 162.431 344.292 163.073 343.566 163.551L318.506 178.011C317.126 178.801 315.996 178.151 315.996 176.561V147.651Z" fill="#212456"/>
<path d="M370.896 223.151C370.924 222.217 370.615 221.306 370.026 220.582C369.436 219.858 368.605 219.371 367.686 219.211L355.456 217.061C354.931 216.967 354.393 216.983 353.875 217.107C353.357 217.231 352.87 217.461 352.444 217.782C352.019 218.103 351.665 218.508 351.404 218.973C351.142 219.437 350.98 219.95 350.926 220.481V220.671C350.821 221.659 351.1 222.65 351.705 223.439C352.31 224.228 353.194 224.755 354.176 224.911L366.426 226.911C366.973 226.995 367.531 226.961 368.064 226.812C368.596 226.663 369.091 226.401 369.514 226.045C369.938 225.689 370.28 225.246 370.518 224.747C370.756 224.248 370.885 223.704 370.896 223.151Z" fill="url(#paint16_linear)"/>
<path d="M362.156 220.701C361.796 221.191 361.996 221.701 361.976 222.361H361.666C361.675 221.869 361.621 221.378 361.506 220.901C361.47 220.821 361.419 220.75 361.356 220.691L362.156 220.701Z" fill="#181A19"/>
<path d="M358.626 218.78C358.776 217.909 358.843 217.025 358.826 216.14C358.826 215.79 358.576 207.86 358.476 205.5L362.376 203.75C362.736 208.44 362.376 211.03 362.006 212.55C361.706 214.023 361.525 215.518 361.466 217.02C361.435 217.542 361.485 218.065 361.616 218.57C361.616 218.69 361.836 219.05 361.896 219.22C361.956 219.39 361.896 219.48 361.946 219.62C362.056 219.93 362.076 219.82 361.826 219.91C361.576 220 361.466 219.98 361.306 220.04C361.101 220.111 360.911 220.219 360.746 220.36C360.456 220.56 360.086 220.68 359.896 220.96C359.706 221.24 359.796 221.63 359.666 221.96C359.62 222.106 359.528 222.233 359.403 222.322C359.279 222.41 359.129 222.455 358.976 222.45L358.076 222.2C357.951 222.13 357.833 222.046 357.726 221.95C357.615 221.855 357.512 221.751 357.416 221.64C357.496 221.59 357.746 220.87 357.846 220.82C358.257 220.208 358.523 219.511 358.626 218.78Z" fill="#E6CA97"/>
<path d="M357.296 220.86L357.976 220.59H357.866C357.866 220.59 357.946 220.69 357.996 220.72C358.098 220.798 358.219 220.847 358.346 220.86C358.496 220.868 358.645 220.833 358.776 220.76C359.236 220.56 358.956 220.71 359.396 220.51C359.802 220.348 360.194 220.15 360.566 219.92L361.126 219.52C361.326 219.38 361.336 219.39 361.366 219.35C361.396 219.31 361.766 218.93 361.846 218.97C362.007 219.209 362.135 219.468 362.226 219.74C362.326 220.19 362.406 220.67 362.226 220.91C362.093 221.03 361.929 221.112 361.753 221.148C361.577 221.183 361.395 221.17 361.226 221.11C360.905 220.982 360.547 220.982 360.226 221.11C359.876 221.37 360.226 222.61 359.616 222.5C359.032 222.396 358.455 222.259 357.886 222.09C357.61 222.015 357.339 221.922 357.076 221.81C356.896 221.756 356.732 221.66 356.596 221.53C356.216 221.1 357.106 220.93 357.296 220.86Z" fill="#181A19"/>
<path d="M354.676 176.781C355.246 176.318 355.944 176.043 356.676 175.991C357.436 176.591 358.346 175.811 358.886 175.531C359.029 175.452 359.153 175.344 359.25 175.212C359.347 175.081 359.414 174.93 359.446 174.771C359.756 174.778 360.051 174.907 360.266 175.131C360.946 175.881 361.376 177.341 358.566 177.891C357.702 178.069 356.804 177.974 355.996 177.621C355.356 177.301 354.066 177.381 354.676 176.781Z" fill="white"/>
<path d="M357.126 222.141C356.786 222.651 357.016 223.141 357.036 223.811H356.726C356.715 223.318 356.634 222.83 356.486 222.361C356.447 222.281 356.392 222.21 356.326 222.15L357.126 222.141Z" fill="#181A19"/>
<path d="M353.496 220.411C353.606 219.532 353.626 218.644 353.556 217.761C353.315 214.175 353.315 210.577 353.556 206.991L357.486 205.361C357.486 211.611 357.076 214.201 356.696 215.361C356.39 216.376 356.235 217.43 356.236 218.491C356.186 219.016 356.269 219.545 356.476 220.031C356.526 220.151 356.726 220.501 356.786 220.671C356.846 220.841 356.786 220.931 356.856 221.071C356.986 221.371 356.996 221.261 356.756 221.361C356.516 221.461 356.406 221.451 356.246 221.511C356.045 221.601 355.859 221.722 355.696 221.871C355.426 222.081 355.056 222.221 354.876 222.511C354.696 222.801 354.816 223.191 354.706 223.511C354.669 223.66 354.582 223.794 354.461 223.89C354.34 223.986 354.191 224.039 354.036 224.041L353.136 223.831C353.003 223.771 352.878 223.694 352.766 223.601C352.649 223.512 352.539 223.415 352.436 223.311C352.526 223.261 352.726 222.531 352.836 222.471C353.204 221.84 353.429 221.137 353.496 220.411Z" fill="#E6CA97"/>
<path d="M352.276 222.551C352.391 222.587 352.508 222.617 352.626 222.641C352.759 222.647 352.891 222.626 353.016 222.581C353.161 222.642 353.321 222.659 353.476 222.631C353.608 222.588 353.73 222.52 353.836 222.431C354.006 222.301 354.116 222.181 354.166 222.141C354.533 221.781 354.968 221.499 355.446 221.311L355.756 221.171C355.939 221.097 356.114 221.004 356.276 220.891C356.526 220.691 356.666 220.451 356.726 220.481C356.901 220.711 357.045 220.963 357.156 221.231C357.266 221.671 357.376 222.151 357.156 222.411C357.027 222.537 356.865 222.627 356.689 222.669C356.513 222.711 356.329 222.705 356.156 222.651C355.836 222.518 355.476 222.518 355.156 222.651C354.826 222.921 355.246 224.141 354.626 224.061C354.037 223.986 353.453 223.879 352.876 223.741C352.595 223.68 352.318 223.603 352.046 223.511C351.918 223.468 351.799 223.4 351.698 223.311C351.596 223.222 351.514 223.113 351.456 222.991C351.376 222.821 351.946 222.511 352.276 222.551Z" fill="#181A19"/>
<path fill-rule="evenodd" clip-rule="evenodd" d="M348.376 182.701C341.996 187.481 339.376 189.241 338.926 189.211C338.717 189.187 338.505 189.187 338.296 189.211C338.048 189.263 337.806 189.343 337.576 189.451C337.286 189.571 334.796 189.911 334.816 190.701C334.816 190.981 336.256 190.221 336.686 190.391C337.116 190.561 335.116 190.921 334.936 191.241C334.756 191.561 334.936 191.721 335.256 191.961C335.786 192.401 336.526 192.401 337.706 192.021C338.566 191.731 339.056 192.211 339.796 191.831C340.276 191.591 340.546 191.321 341.026 191.081L350.956 184.791L349.956 183.921L349.166 183.141L348.376 182.701Z" fill="#E6CA97"/>
<path fill-rule="evenodd" clip-rule="evenodd" d="M363.716 171.101C364.417 172.46 365.038 173.859 365.576 175.291C366.279 177.185 366.82 179.135 367.196 181.121C366.054 182.444 364.559 183.415 362.886 183.921C362.013 184.179 361.106 184.304 360.196 184.291L363.616 180.181C363.588 178.938 363.218 177.726 362.546 176.681C362.209 176.27 361.942 175.807 361.756 175.311C361.472 174.487 361.523 173.584 361.897 172.797C362.271 172.01 362.938 171.401 363.756 171.101H363.716Z" fill="#E6CA97"/>
<path fill-rule="evenodd" clip-rule="evenodd" d="M363.526 170.891C362.596 170.351 359.616 170.891 356.746 172.571C354.246 174.001 352.006 175.801 352.686 178.911C353.413 181.261 354.018 183.647 354.496 186.061C354.435 187.116 354.294 188.166 354.076 189.201L353.786 191.201C354.556 190.741 357.946 191.881 357.946 191.881C360.896 191.691 364.736 190.661 364.296 188.211C363.776 187.411 361.946 184.861 362.226 182.351C362.476 180.151 363.226 177.751 363.696 175.541C364.006 173.821 364.216 171.791 363.526 170.891Z" fill="#212456"/>
<path fill-rule="evenodd" clip-rule="evenodd" d="M353.426 175.25C354.078 175.015 354.795 175.043 355.426 175.33C355.776 175.49 356.089 175.722 356.342 176.012C356.596 176.302 356.784 176.642 356.896 177.01C356.468 178.666 355.713 180.22 354.676 181.58C353.616 182.979 352.278 184.144 350.746 185L348.166 183C350.309 180.713 352.093 178.113 353.456 175.29L353.426 175.25Z" fill="#E6CA97"/>
<path d="M354.366 187.461C355.391 187.95 356.483 188.287 357.606 188.461C358.836 188.764 360.13 188.687 361.316 188.241C362.123 187.869 362.815 187.285 363.316 186.551C363.768 187.14 364.147 187.781 364.446 188.461C366.126 192.291 364.076 194.931 363.166 201.561C362.606 205.641 363.166 205.911 362.446 211.781C362.136 214.121 361.786 216.041 361.536 217.301C361.193 217.633 360.763 217.861 360.296 217.961C359.789 218.07 359.262 218.032 358.776 217.851C358.776 217.851 358.326 210.651 358.486 205.531C358.644 200.996 359.315 196.494 360.486 192.111C358.926 194.591 356.936 196.311 355.666 195.921C354.126 195.441 353.246 192.011 354.366 187.461Z" fill="#D92128"/>
<path fill-rule="evenodd" clip-rule="evenodd" d="M355.946 170.431C356.181 171.412 356.279 172.422 356.236 173.431C357.416 175.251 360.236 173.691 360.106 173.161C360.106 173.161 359.946 171.161 359.976 171.031L355.946 170.431Z" fill="#E6CA97"/>
<path fill-rule="evenodd" clip-rule="evenodd" d="M355.086 164.48C354.666 165.23 354.086 165.34 354.086 166.34C354.086 167.13 353.966 171.45 355.386 172.4C355.886 172.73 357.206 172 358.016 171.33C358.566 170.88 358.366 170.01 358.606 169.71L357.466 164.77L355.086 164.48Z" fill="#E6CA97"/>
<path fill-rule="evenodd" clip-rule="evenodd" d="M361.556 173.431C360.456 174.671 358.446 175.301 357.696 174.691C356.946 174.081 357.066 171.261 357.816 169.391C358.016 168.881 358.456 167.961 358.046 167.281C357.965 167.141 357.857 167.02 357.728 166.924C357.599 166.827 357.452 166.758 357.296 166.721C356.626 166.591 356.296 167.331 355.406 167.461C354.915 167.527 354.417 167.421 353.996 167.161C353.808 166.123 354.015 165.053 354.576 164.161C355.088 163.482 355.79 162.971 356.593 162.692C357.396 162.412 358.263 162.377 359.086 162.591C362.456 163.591 364.126 170.541 361.556 173.431Z" fill="#2E170D"/>
<path fill-rule="evenodd" clip-rule="evenodd" d="M362.586 177.571C361.026 178.941 357.336 178.111 357.336 178.121C357.336 178.121 356.336 172.721 357.816 169.391C357.976 169.031 358.486 168.001 358.046 167.281C357.965 167.141 357.857 167.02 357.728 166.924C357.599 166.827 357.452 166.758 357.296 166.721C356.626 166.591 356.296 167.331 355.406 167.461C354.915 167.527 354.417 167.421 353.996 167.161C353.871 166.486 353.921 165.79 354.142 165.14C354.363 164.49 354.748 163.908 355.26 163.45C355.771 162.992 356.391 162.673 357.062 162.525C357.732 162.376 358.429 162.402 359.086 162.601C361.256 163.201 362.086 165.701 362.596 167.271C362.928 168.443 363.11 169.652 363.136 170.871C363.436 174.741 363.586 176.681 362.586 177.571Z" fill="#25203C"/>
<path d="M354.366 187.461C354.982 187.884 355.619 188.274 356.276 188.631C357.333 189.233 358.449 189.726 359.606 190.101C360.57 190.297 361.5 190.634 362.366 191.101C362.934 191.361 363.376 191.836 363.596 192.421C363.736 193.051 363.316 193.641 362.466 194.801C360.946 196.871 360.536 197.381 360.186 197.911C359.476 198.985 358.917 200.153 358.526 201.381C357.086 205.381 358.006 208.061 357.416 213.231C357.178 215.264 356.759 217.272 356.166 219.231C355.815 219.481 355.405 219.637 354.976 219.681C354.479 219.737 353.976 219.639 353.536 219.401C353.416 215.921 353.306 211.971 353.216 207.631C353.056 199.411 353.086 195.191 353.946 189.831C354.106 188.821 354.266 188.011 354.366 187.461Z" fill="#D92128"/>
<g opacity="0.3">
<path opacity="0.3" d="M343.336 139.111L318.046 153.721V151.181L343.336 136.571V139.111Z" fill="white"/>
<path opacity="0.8" d="M340.216 144.8L318.086 157.57V155.04L340.216 142.26V144.8Z" fill="white"/>
<path opacity="0.6" d="M336.216 151.371L318.196 161.781V159.241L336.216 148.831V151.371Z" fill="white"/>
</g>
<path d="M343.786 143.651L318.496 158.261V155.721L343.786 141.111V143.651Z" fill="white"/>
<path opacity="0.8" d="M340.676 149.341L318.546 162.111V159.581L340.676 146.801V149.341Z" fill="white"/>
<path opacity="0.6" d="M336.666 155.91L318.646 166.32V163.781L336.666 153.38V155.91Z" fill="white"/>
<path d="M199.986 223.241L188.106 216.391L152.446 195.811C150.603 194.884 148.569 194.401 146.506 194.401C144.443 194.401 142.409 194.884 140.566 195.811L93.016 223.251C89.746 225.131 89.746 228.251 93.016 230.101L140.566 257.531C142.407 258.463 144.442 258.949 146.506 258.949C148.57 258.949 150.605 258.463 152.446 257.531L199.996 230.101C203.256 228.221 203.256 225.101 199.996 223.251L199.986 223.241Z" fill="#212456"/>
<g opacity="0.8">
<path opacity="0.8" d="M199.896 222.74L188.016 215.891L152.356 195.311C150.515 194.378 148.48 193.892 146.416 193.892C144.352 193.892 142.317 194.378 140.476 195.311L92.896 222.74C89.626 224.63 89.626 227.74 92.896 229.6L140.476 257.01C142.319 257.937 144.353 258.42 146.416 258.42C148.479 258.42 150.513 257.937 152.356 257.01L199.896 229.6C203.166 227.71 203.166 224.6 199.896 222.74Z" fill="#8B7CBA"/>
</g>
<path d="M90.4759 226.63C90.4759 225.38 91.2859 224.14 92.9259 223.2L140.476 195.77C142.317 194.838 144.352 194.352 146.416 194.352C148.48 194.352 150.515 194.838 152.356 195.77L188.016 216.34L199.896 223.2C201.526 224.14 202.346 225.38 202.346 226.63V218.86C202.346 217.61 201.526 216.37 199.896 215.43L188.016 208.58L152.356 188.01C150.513 187.084 148.479 186.601 146.416 186.601C144.353 186.601 142.319 187.084 140.476 188.01L92.8959 215.43C91.2559 216.37 90.4459 217.61 90.4459 218.86L90.4759 226.63Z" fill="url(#paint17_linear)"/>
<path d="M90.4759 218.401C90.4759 219.641 91.2859 220.881 92.9259 221.821L140.476 249.261C142.319 250.187 144.353 250.67 146.416 250.67C148.479 250.67 150.513 250.187 152.356 249.261L199.896 221.821C201.526 220.881 202.346 219.641 202.346 218.401V226.171C202.346 227.411 201.526 228.651 199.896 229.601L152.356 257.011C150.513 257.937 148.479 258.42 146.416 258.42C144.353 258.42 142.319 257.937 140.476 257.011L92.8959 229.601C91.2559 228.601 90.4459 227.411 90.4459 226.171L90.4759 218.401Z" fill="#E1E9F1"/>
<path d="M199.896 215.011L188.016 208.151L152.356 187.581C150.515 186.648 148.48 186.162 146.416 186.162C144.352 186.162 142.317 186.648 140.476 187.581L92.896 215.011C89.626 216.901 89.626 220.011 92.896 221.861L140.446 249.301C142.289 250.227 144.323 250.71 146.386 250.71C148.449 250.71 150.483 250.227 152.326 249.301L199.896 221.821C203.166 219.941 203.166 216.821 199.896 214.971V215.011Z" fill="url(#paint18_linear)"/>
<path d="M153.366 223.861L148.076 218.651L119.896 223.861C120.21 225.526 120.855 227.112 121.794 228.524C122.733 229.935 123.946 231.143 125.361 232.076C126.777 233.009 128.365 233.648 130.032 233.954C131.7 234.261 133.411 234.229 135.066 233.861L151.576 230.211C152.228 230.051 152.825 229.721 153.308 229.255C153.79 228.789 154.141 228.203 154.323 227.557C154.505 226.912 154.512 226.229 154.344 225.58C154.176 224.93 153.838 224.337 153.366 223.861Z" fill="url(#paint19_linear)"/>
<path d="M148.886 213.221L137.736 206.791L126.586 213.221L137.736 219.651L148.886 213.221Z" fill="#A3C9EB"/>
<path d="M149.306 225.67L138.156 232.1L127.006 225.67L138.156 219.23L149.306 225.67Z" fill="#81C88E"/>
<path d="M149.306 225.671V212.801L138.156 219.231V232.101L149.306 225.671Z" fill="#353D83"/>
<path d="M127.006 212.801V225.671L138.156 232.101V219.231L127.006 212.801Z" fill="#212456"/>
<path d="M202.126 203.08C205.386 201.2 205.386 198.08 202.126 196.23L166.456 175.65C164.613 174.724 162.579 174.241 160.516 174.241C158.453 174.241 156.419 174.724 154.576 175.65L130.796 189.37C127.536 191.25 127.536 194.37 130.796 196.22L166.466 216.8C168.309 217.727 170.343 218.21 172.406 218.21C174.469 218.21 176.503 217.727 178.346 216.8L202.126 203.08Z" fill="#E1E9F1"/>
<path d="M171.526 200.111C173.266 201.111 173.266 202.761 171.526 203.771L165.976 206.971C164.994 207.469 163.908 207.729 162.806 207.729C161.704 207.729 160.618 207.469 159.636 206.971L142.196 196.911C140.456 195.911 140.456 194.261 142.196 193.261L147.746 190.051C148.73 189.557 149.815 189.3 150.916 189.3C152.017 189.3 153.102 189.557 154.086 190.051L171.526 200.111Z" stroke="url(#paint20_linear)" stroke-width="1.09" stroke-miterlimit="10"/>
<path d="M157.116 184.831L193.466 205.811V204.24L157.116 183.26V184.831Z" fill="#C0DFF5"/>
<path opacity="0.6" d="M156.866 174.291L157.116 183.261L193.466 204.241L194.346 195.401" fill="url(#paint21_linear)"/>
<path d="M193.896 160.371C193.837 159.305 193.528 158.269 192.992 157.346C192.457 156.424 191.711 155.64 190.816 155.061L160.416 137.641C158.726 136.641 157.326 137.471 157.306 139.431L157.006 174.571C157.06 175.636 157.364 176.674 157.894 177.6C158.424 178.526 159.165 179.314 160.056 179.901L190.826 197.651C192.516 198.651 193.896 197.821 193.896 195.871V160.371Z" fill="#212456"/>
<path d="M131.326 191.681L132.626 189.441C133.206 188.341 131.336 185.711 132.096 185.621C132.856 185.531 136.976 187.141 137.096 187.891C137.096 187.891 135.186 191.591 135.816 192.321C134.636 193.191 132.366 191.551 131.326 191.681Z" fill="#E6CA97"/>
<path d="M132.166 182.321C132.838 181.815 133.547 181.361 134.286 180.961C134.562 180.794 134.849 180.647 135.146 180.521C138.466 181.521 140.946 184.831 138.726 188.521C138.456 188.971 137.646 191.131 136.566 190.991C133.416 190.581 135.566 189.221 135.076 189.401C134.564 189.51 134.03 189.43 133.573 189.174C133.117 188.918 132.769 188.504 132.596 188.011C132.22 187.745 131.884 187.429 131.596 187.071C131.89 185.501 132.081 183.915 132.166 182.321Z" fill="#E6CA97"/>
<path d="M132.596 180.521C134.356 179.611 137.936 180.031 139.966 182.221C141.646 183.741 140.526 185.351 139.516 184.811C139.491 184.796 139.463 184.787 139.434 184.784C139.405 184.782 139.376 184.786 139.349 184.797C139.322 184.807 139.298 184.824 139.278 184.846C139.259 184.867 139.244 184.893 139.236 184.921C138.866 186.631 138.296 188.091 137.526 185.861C137.497 185.783 137.452 185.712 137.392 185.654C137.332 185.596 137.26 185.553 137.181 185.527C137.103 185.501 137.019 185.493 136.936 185.504C136.854 185.515 136.775 185.545 136.706 185.591C135.496 186.341 136.706 188.201 136.506 189.451C136.336 190.391 136.216 191.381 135.166 191.041C133.026 190.821 129.796 191.331 129.306 186.341C128.896 182.671 130.606 180.741 132.596 180.521Z" fill="#25203C"/>
<path d="M131.606 191.141C128.916 191.731 128.866 193.89 129.466 195.99C129.736 196.92 129.866 199.07 131.526 198.12C133.436 197.03 132.726 194.62 131.966 193.12L131.606 191.141Z" fill="#E6CA97"/>
<path d="M153.336 198.421C153.496 198.421 154.556 198 154.626 198.02C154.846 198.07 155.236 198.2 155.256 198.55C155.192 198.89 155.056 199.212 154.858 199.495C154.66 199.777 154.403 200.015 154.106 200.19C153.695 200.686 153.225 201.129 152.706 201.51C151.706 202.19 150.866 202.51 150.486 202.76C149.406 203.45 150.636 202.76 151.586 201.44C151.126 200.79 150.326 200.63 150.536 200.44C150.746 200.25 151.736 199.78 151.966 199.62C152.526 199.25 152.616 199.221 152.776 198.891C152.936 198.561 152.986 197.76 153.366 197.51C153.746 197.62 153.366 198.031 153.366 198.421" fill="#E6CA97"/>
<path d="M153.316 220.55C154.316 221.99 155.116 223.33 157.596 223.55C158.336 223.62 160.526 223.2 161.046 223.78C161.566 224.36 158.136 226.15 157.476 226.3C156.476 226.52 154.176 225.55 153.586 225.74C153.183 225.877 152.744 225.855 152.356 225.68C152.18 225.596 152.026 225.471 151.906 225.317C151.786 225.162 151.704 224.982 151.666 224.79C151.486 223.98 152.106 222.61 151.416 221.9C150.986 221.48 152.676 219.64 153.316 220.55Z" fill="#090909"/>
<path d="M147.686 209.27C147.516 211.27 150.046 218.001 150.686 220.001C151.366 222.181 150.916 220.7 151.686 223.29C151.896 224 155.686 223.141 155.276 221.971C154.057 217.751 153.056 213.472 152.276 209.15C152.209 208.869 152.075 208.609 151.885 208.391C151.695 208.172 151.455 208.004 151.186 207.899C150.917 207.793 150.626 207.755 150.339 207.787C150.051 207.818 149.776 207.919 149.536 208.081L148.416 208.82L147.706 209.29L147.686 209.27Z" fill="#E6CA97"/>
<path d="M153.896 227.61L151.826 225.12L153.826 225.28C153.826 225.28 154.456 227.08 154.486 227.36C154.286 227.57 153.896 227.61 153.896 227.61Z" fill="#090909"/>
<path d="M133.116 210.011C134.556 208.501 135.646 206.581 137.336 205.301C139.328 203.744 141.64 202.648 144.106 202.091C148.566 201.411 146.396 207.341 145.436 208.921C144.956 209.711 143.356 209.331 142.576 209.921C140.796 211.251 138.106 211.411 135.956 211.701L133.116 210.011Z" fill="#DEBB83"/>
<path d="M128.296 194.281C128.016 193.281 127.186 190.281 131.946 190.601C131.526 191.431 134.126 192.501 135.756 192.001C136.756 192.691 138.856 193.741 139.506 194.281C139.506 194.281 142.956 197.571 142.136 199.281C141.536 201.151 140.496 200.281 139.976 201.961C139.759 202.51 139.585 203.075 139.456 203.651C139.405 204.407 139.546 205.164 139.866 205.851C139.964 206.255 140.148 206.634 140.406 206.961L140.466 207.031L140.396 207.111C140.26 207.261 140.117 207.405 139.966 207.541C137.726 209.541 134.546 208.741 132.246 207.061C132.483 206.478 132.572 205.846 132.506 205.221C131.826 199.801 129.046 196.951 128.296 194.281Z" fill="#D92128"/>
<path d="M145.136 204.35C146.406 204.83 148.396 204.091 149.346 203.561C150.412 202.946 151.447 202.279 152.446 201.561C152.976 201.081 153.016 200.661 152.876 200.34C152.739 200.091 152.508 199.905 152.235 199.825C151.961 199.744 151.667 199.775 151.416 199.91C149.326 201.02 148.416 201.42 147.326 201.91C146.985 201.988 146.632 201.995 146.288 201.932C145.944 201.868 145.617 201.735 145.326 201.54C143.476 199.46 139.996 192.75 137.456 195.01C136.276 196.07 143.686 203.8 145.136 204.35Z" fill="#E6CA97"/>
<path d="M132.276 207.011C133.362 208.01 134.779 208.573 136.255 208.594C137.731 208.614 139.162 208.089 140.276 207.121C140.366 207.051 138.406 203.831 139.836 203.421C140.276 203.301 141.916 202.291 142.236 202.631C142.66 203.293 143.16 203.904 143.726 204.451C144.267 204.805 144.84 205.11 145.436 205.361C146.336 205.808 147.296 206.121 148.286 206.291C151.836 208.291 150.766 210.971 153.786 211.961C155.066 212.381 150.856 215.131 145.296 216.061C143.526 216.361 140.366 216.711 134.816 214.681C132.306 213.771 130.396 212.051 131.696 208.681C131.896 208.011 131.986 207.661 132.276 207.011Z" fill="#212456"/>
<path d="M155.126 221.631C155.609 222.943 156.58 224.018 157.836 224.631C157.836 225.201 156.156 225.841 155.746 225.491C154.557 224.879 153.331 224.342 152.076 223.881C151.951 223.835 151.838 223.759 151.749 223.66C151.661 223.56 151.597 223.44 151.566 223.311L151.016 221.111L155.126 221.631Z" fill="#E6CA97"/>
<g opacity="0.2">
<path opacity="0.2" d="M161.186 153.711L184.946 167.431V165.041L161.186 151.321V153.711Z" fill="white"/>
<path opacity="0.2" d="M161.186 157.791L181.976 169.801V167.421L161.186 155.411V157.791Z" fill="white"/>
<path opacity="0.2" d="M161.186 161.881L178.116 171.661V169.271L161.186 159.501V161.881Z" fill="white"/>
</g>
<path d="M159.696 156.5L183.466 170.22V167.84L159.696 154.12V156.5Z" fill="white"/>
<path d="M159.696 160.591L180.496 172.601V170.211L159.696 158.211V160.591Z" fill="white"/>
<path d="M159.696 164.681L176.636 174.451V172.071L159.696 162.291V164.681Z" fill="white"/>
<path d="M2.44592 186.011C35.8959 306.161 257.726 308.081 257.726 308.081C516.476 294.731 491.306 159.081 491.306 159.081L494.896 198.191C495.296 205.721 495.236 212.341 493.566 219.811C486.896 249.621 465.306 279.321 425.746 302.161C330.136 357.361 174.556 357.031 78.2559 301.431C27.9659 272.431 -0.144085 220.321 1.83592 182.431L2.44592 186.011Z" fill="#E1E9F1"/>
<defs>
<linearGradient id="paint0_linear" x1="8.30597" y1="212.87" x2="256.286" y2="207.44" gradientUnits="userSpaceOnUse">
<stop stop-color="#D92128"/>
<stop offset="0.18" stop-color="#BD212F"/>
<stop offset="0.57" stop-color="#762341"/>
<stop offset="1" stop-color="#212456"/>
</linearGradient>
<linearGradient id="paint1_linear" x1="244.489" y1="136.913" x2="251.064" y2="148.416" gradientUnits="userSpaceOnUse">
<stop stop-color="#C6C6C5"/>
<stop offset="1" stop-color="#FEFFFF"/>
</linearGradient>
<linearGradient id="paint2_linear" x1="481.468" y1="2405.89" x2="517.981" y2="2469.76" gradientUnits="userSpaceOnUse">
<stop stop-color="#C6C6C5"/>
<stop offset="1" stop-color="#FEFFFF"/>
</linearGradient>
<linearGradient id="paint3_linear" x1="-266955" y1="5922.79" x2="-253573" y2="5922.79" gradientUnits="userSpaceOnUse">
<stop stop-color="#C6C6C5"/>
<stop offset="1" stop-color="#FEFFFF"/>
</linearGradient>
<linearGradient id="paint4_linear" x1="214.926" y1="53.6606" x2="281.996" y2="53.6606" gradientUnits="userSpaceOnUse">
<stop stop-color="#F0EDF6"/>
<stop offset="1" stop-color="#F5F7FB"/>
</linearGradient>
<linearGradient id="paint5_linear" x1="261.586" y1="97.1569" x2="291.951" y2="96.4118" gradientUnits="userSpaceOnUse">
<stop stop-color="#FAF9FC"/>
<stop offset="0.33" stop-color="#F2F0F8"/>
<stop offset="0.86" stop-color="white"/>
</linearGradient>
<linearGradient id="paint6_linear" x1="228.016" y1="72.5305" x2="293.486" y2="72.5305" gradientUnits="userSpaceOnUse">
<stop stop-color="#B3A7D2"/>
<stop offset="0.02" stop-color="#B3A7D2" stop-opacity="0.94"/>
<stop offset="0.07" stop-color="#B3A7D2" stop-opacity="0.77"/>
<stop offset="0.12" stop-color="#B3A7D2" stop-opacity="0.61"/>
<stop offset="0.19" stop-color="#B3A7D2" stop-opacity="0.48"/>
<stop offset="0.26" stop-color="#B3A7D2" stop-opacity="0.38"/>
<stop offset="0.34" stop-color="#B3A7D2" stop-opacity="0.3"/>
<stop offset="0.45" stop-color="#B3A7D2" stop-opacity="0.24"/>
<stop offset="0.59" stop-color="#B3A7D2" stop-opacity="0.21"/>
<stop offset="1" stop-color="#B3A7D2" stop-opacity="0.2"/>
</linearGradient>
<linearGradient id="paint7_linear" x1="-153336" y1="2756.47" x2="-148837" y2="2756.47" gradientUnits="userSpaceOnUse">
<stop stop-color="#C6C6C5"/>
<stop offset="1" stop-color="#FEFFFF"/>
</linearGradient>
<linearGradient id="paint8_linear" x1="238.586" y1="59.1805" x2="268.786" y2="59.1805" gradientUnits="userSpaceOnUse">
<stop stop-color="#F1EDF6"/>
<stop offset="0.37" stop-color="#F7F5FA"/>
<stop offset="1" stop-color="white"/>
</linearGradient>
<linearGradient id="paint9_linear" x1="242.076" y1="47.8206" x2="240.186" y2="44.4206" gradientUnits="userSpaceOnUse">
<stop offset="0.28" stop-color="#C0DFF5"/>
<stop offset="0.29" stop-color="#C4E1F6"/>
<stop offset="0.35" stop-color="#DAECF9"/>
<stop offset="0.43" stop-color="#EBF5FC"/>
<stop offset="0.52" stop-color="#F6FBFE"/>
<stop offset="0.65" stop-color="#FDFEFF"/>
<stop offset="1" stop-color="white"/>
</linearGradient>
<linearGradient id="paint10_linear" x1="293.856" y1="196.961" x2="406.766" y2="196.961" gradientUnits="userSpaceOnUse">
<stop stop-color="#B3A7D2"/>
<stop offset="0.02" stop-color="#AFA3D0" stop-opacity="0.92"/>
<stop offset="0.07" stop-color="#A79ACB" stop-opacity="0.75"/>
<stop offset="0.13" stop-color="#9F92C6" stop-opacity="0.6"/>
<stop offset="0.19" stop-color="#998BC2" stop-opacity="0.47"/>
<stop offset="0.26" stop-color="#9485BF" stop-opacity="0.37"/>
<stop offset="0.35" stop-color="#9081BD" stop-opacity="0.29"/>
<stop offset="0.45" stop-color="#8D7EBB" stop-opacity="0.24"/>
<stop offset="0.6" stop-color="#8B7CBA" stop-opacity="0.21"/>
<stop offset="1" stop-color="#8B7CBA" stop-opacity="0.2"/>
</linearGradient>
<linearGradient id="paint11_linear" x1="33380.7" y1="9466.99" x2="46132.8" y2="9466.99" gradientUnits="userSpaceOnUse">
<stop stop-color="#FEFFFF"/>
<stop offset="0.06" stop-color="#FAFBFB"/>
<stop offset="0.68" stop-color="#D4D5D4"/>
<stop offset="1" stop-color="#C6C6C5"/>
</linearGradient>
<linearGradient id="paint12_linear" x1="19329.5" y1="7865.62" x2="23136.4" y2="7865.62" gradientUnits="userSpaceOnUse">
<stop stop-color="#F0EDF6"/>
<stop offset="1" stop-color="#F5F7FB"/>
</linearGradient>
<linearGradient id="paint13_linear" x1="19427.9" y1="8807.72" x2="23282.2" y2="8807.72" gradientUnits="userSpaceOnUse">
<stop stop-color="#FEFFFF"/>
<stop offset="0.06" stop-color="#FAFBFB"/>
<stop offset="0.68" stop-color="#D4D5D4"/>
<stop offset="1" stop-color="#C6C6C5"/>
</linearGradient>
<linearGradient id="paint14_linear" x1="8846.92" y1="2936.18" x2="9551.52" y2="2936.18" gradientUnits="userSpaceOnUse">
<stop stop-color="#F1EDF6"/>
<stop offset="0.37" stop-color="#F7F5FA"/>
<stop offset="1" stop-color="white"/>
</linearGradient>
<linearGradient id="paint15_linear" x1="10452.2" y1="4393.22" x2="10381" y2="4232.69" gradientUnits="userSpaceOnUse">
<stop offset="0.28" stop-color="#C0DFF5"/>
<stop offset="0.29" stop-color="#C4E1F6"/>
<stop offset="0.35" stop-color="#DAECF9"/>
<stop offset="0.43" stop-color="#EBF5FC"/>
<stop offset="0.52" stop-color="#F6FBFE"/>
<stop offset="0.65" stop-color="#FDFEFF"/>
<stop offset="1" stop-color="white"/>
</linearGradient>
<linearGradient id="paint16_linear" x1="-1649.59" y1="1723.27" x2="-2017.35" y2="1572.28" gradientUnits="userSpaceOnUse">
<stop stop-color="#FAF9FC"/>
<stop offset="0.33" stop-color="#F2F0F8"/>
<stop offset="0.86" stop-color="white"/>
</linearGradient>
<linearGradient id="paint17_linear" x1="26906.2" y1="8456.32" x2="14386.9" y2="8456.32" gradientUnits="userSpaceOnUse">
<stop stop-color="#B3A7D2"/>
<stop offset="0.02" stop-color="#AFA3D0" stop-opacity="0.92"/>
<stop offset="0.07" stop-color="#A79ACB" stop-opacity="0.75"/>
<stop offset="0.13" stop-color="#9F92C6" stop-opacity="0.6"/>
<stop offset="0.19" stop-color="#998BC2" stop-opacity="0.47"/>
<stop offset="0.26" stop-color="#9485BF" stop-opacity="0.37"/>
<stop offset="0.35" stop-color="#9081BD" stop-opacity="0.29"/>
<stop offset="0.45" stop-color="#8D7EBB" stop-opacity="0.24"/>
<stop offset="0.6" stop-color="#8B7CBA" stop-opacity="0.21"/>
<stop offset="1" stop-color="#8B7CBA" stop-opacity="0.2"/>
</linearGradient>
<linearGradient id="paint18_linear" x1="26907.5" y1="14282.7" x2="14387.5" y2="14282.7" gradientUnits="userSpaceOnUse">
<stop stop-color="#C6C6C5"/>
<stop offset="1" stop-color="#FEFFFF"/>
</linearGradient>
<linearGradient id="paint19_linear" x1="4744.36" y1="4040.19" x2="3539.75" y2="3955.87" gradientUnits="userSpaceOnUse">
<stop stop-color="#FEFFFF"/>
<stop offset="0.06" stop-color="#FAFBFB"/>
<stop offset="0.68" stop-color="#D4D5D4"/>
<stop offset="1" stop-color="#C6C6C5"/>
</linearGradient>
<linearGradient id="paint20_linear" x1="6611.84" y1="3847.54" x2="5556.87" y2="3847.54" gradientUnits="userSpaceOnUse">
<stop stop-color="#F1EDF6"/>
<stop offset="0.37" stop-color="#F7F5FA"/>
<stop offset="1" stop-color="white"/>
</linearGradient>
<linearGradient id="paint21_linear" x1="7764.04" y1="5953.14" x2="7871.27" y2="5710.95" gradientUnits="userSpaceOnUse">
<stop offset="0.28" stop-color="#C0DFF5"/>
<stop offset="0.29" stop-color="#C4E1F6"/>
<stop offset="0.35" stop-color="#DAECF9"/>
<stop offset="0.43" stop-color="#EBF5FC"/>
<stop offset="0.52" stop-color="#F6FBFE"/>
<stop offset="0.65" stop-color="#FDFEFF"/>
<stop offset="1" stop-color="white"/>
</linearGradient>
</defs>
</svg>
