<svg width="516" height="383" viewBox="0 0 516 383" fill="none" xmlns="http://www.w3.org/2000/svg">
<g clip-path="url(#clip0)">
<path opacity="0.5" d="M94.7611 199.438L306.468 328.084" stroke="url(#paint0_linear)" stroke-width="2.46495" stroke-miterlimit="10"/>
<path opacity="0.5" d="M411.178 127.162L74.6178 173.115" stroke="url(#paint1_linear)" stroke-width="2.46495" stroke-miterlimit="10"/>
<path opacity="0.5" d="M453.874 146.793L357.652 331.697" stroke="url(#paint2_linear)" stroke-width="2.46495" stroke-miterlimit="10"/>
<path d="M274.379 344.268L287.261 336.839L325.886 314.532C327.878 313.525 330.079 313.001 332.311 313.001C334.543 313.001 336.744 313.525 338.735 314.532L390.243 344.245C393.779 346.286 393.779 349.621 390.243 351.663L338.758 381.454C336.764 382.461 334.561 382.985 332.328 382.985C330.094 382.985 327.892 382.461 325.898 381.454L274.379 351.696C270.843 349.644 270.843 346.309 274.379 344.279V344.268Z" fill="#212456"/>
<path d="M392.898 334.687C392.829 335.486 392.546 336.251 392.079 336.903C391.612 337.554 390.977 338.068 390.243 338.39L338.758 368.07C336.764 369.076 334.562 369.601 332.328 369.601C330.094 369.601 327.892 369.076 325.898 368.07L274.379 338.39C273.645 338.068 273.011 337.554 272.544 336.903C272.077 336.251 271.794 335.486 271.725 334.687V345.84C271.725 347.19 271.256 349.075 273.041 350.101L325.686 380.629C329.222 382.67 335.278 382.859 338.814 380.774L390.957 350.659C391.622 350.267 392.156 349.687 392.491 348.993C392.827 348.298 392.949 347.519 392.842 346.755L392.898 334.687Z" fill="#CEDAE5"/>
<path d="M274.379 330.973L287.228 323.544L325.853 301.237C327.845 300.23 330.046 299.706 332.278 299.706C334.509 299.706 336.71 300.23 338.702 301.237L390.209 330.95C393.745 332.991 393.745 336.326 390.209 338.367L338.758 368.069C336.764 369.076 334.561 369.601 332.328 369.601C330.094 369.601 327.892 369.076 325.898 368.069L274.379 338.39C270.843 336.349 270.843 333.014 274.379 330.973Z" fill="#E1E9F1"/>
<path d="M294.244 332.054L302.341 327.37L326.679 313.328C327.936 312.695 329.325 312.365 330.733 312.365C332.141 312.365 333.529 312.695 334.787 313.328L367.244 332.054C369.475 333.337 369.475 335.401 367.244 336.728L334.798 355.455C333.543 356.095 332.153 356.429 330.744 356.429C329.335 356.429 327.945 356.095 326.69 355.455L294.233 336.728C292.002 335.434 292.002 333.382 294.233 332.054H294.244Z" fill="#E1EAF2"/>
<path d="M368.917 326.4C368.871 326.903 368.691 327.385 368.398 327.797C368.104 328.208 367.706 328.534 367.244 328.742L334.798 347.469C333.541 348.101 332.152 348.431 330.744 348.431C329.336 348.431 327.948 348.101 326.69 347.469L294.233 328.742C293.771 328.534 293.373 328.208 293.079 327.797C292.785 327.385 292.606 326.903 292.56 326.4V333.493C292.56 334.341 292.27 335.534 293.396 336.17L326.522 355.388C327.801 356.041 329.213 356.39 330.649 356.408C332.084 356.425 333.505 356.11 334.798 355.488L367.657 336.527C368.074 336.28 368.41 335.916 368.622 335.479C368.834 335.043 368.914 334.554 368.85 334.073L368.917 326.4Z" fill="url(#paint3_linear)"/>
<path d="M294.244 324.057L302.341 319.384L326.679 305.341C327.934 304.701 329.323 304.367 330.733 304.367C332.142 304.367 333.532 304.701 334.787 305.341L367.244 324.068C369.475 325.351 369.475 327.414 367.244 328.742L334.798 347.469C333.54 348.101 332.152 348.431 330.744 348.431C329.336 348.431 327.948 348.101 326.69 347.469L294.233 328.742C292.002 327.448 292.002 325.396 294.233 324.068L294.244 324.057Z" fill="url(#paint4_linear)"/>
<path opacity="0.5" d="M295.348 333.103L293.552 332.054V330.292L295.348 331.329V333.103Z" fill="#212456"/>
<path opacity="0.5" d="M297.69 334.452L295.895 333.415V331.642L297.69 332.679V334.452Z" fill="#212456"/>
<path d="M299.887 335.713L298.081 334.676V332.902L299.887 333.939V335.713Z" fill="#212456"/>
<path opacity="0.5" d="M302.23 337.062L300.423 336.025V334.263L302.23 335.3V337.062Z" fill="#212456"/>
<path d="M304.505 338.378L302.698 337.341V335.568L304.505 336.605V338.378Z" fill="#212456"/>
<path opacity="0.5" d="M306.847 339.728L305.04 338.691V336.917L306.847 337.966V339.728Z" fill="#212456"/>
<path d="M295.348 335.356L293.552 334.319V332.545L295.348 333.582V335.356Z" fill="#212456"/>
<path d="M297.69 336.706L295.895 335.668V333.895L297.69 334.943V336.706Z" fill="#212456"/>
<path opacity="0.5" d="M299.887 337.977L298.081 336.94V335.166L299.887 336.204V337.977Z" fill="#212456"/>
<path opacity="0.5" d="M302.23 339.327L300.423 338.289V336.516L302.23 337.553V339.327Z" fill="#212456"/>
<path d="M304.505 340.643L302.698 339.605V337.832L304.505 338.869V340.643Z" fill="#212456"/>
<path opacity="0.5" d="M306.847 341.992L305.04 340.955V339.182L306.847 340.219V341.992Z" fill="#212456"/>
<path d="M322.351 352.142L321.916 351.885V345.405L322.351 345.662V352.142Z" fill="#212456"/>
<path d="M323.076 352.555L322.752 352.365V345.885L323.076 346.075V352.555Z" fill="#212456"/>
<path d="M323.79 352.967L323.578 352.845V346.365L323.79 346.487V352.967Z" fill="#212456"/>
<path d="M325.886 354.172L326.132 354.317V347.837L325.886 347.692V354.172Z" fill="#212456"/>
<path d="M325.016 353.681L325.451 353.927V347.446L325.016 347.19V353.681Z" fill="#212456"/>
<path d="M324.347 353.291L324.57 353.413V346.933L324.347 346.811V353.291Z" fill="#212456"/>
<path d="M294.221 323.455L302.33 318.77L326.667 304.728C327.925 304.095 329.314 303.766 330.722 303.766C332.13 303.766 333.518 304.095 334.776 304.728L367.222 323.455C369.453 324.738 369.453 326.801 367.858 327.504L335.412 346.22C334.143 347.09 332.666 347.608 331.131 347.72C329.597 347.831 328.06 347.533 326.678 346.855L294.221 328.128C291.991 326.846 291.991 324.782 294.221 323.455Z" fill="#212456"/>
<path d="M293.864 322.172L301.973 317.488L326.31 303.445C327.566 302.813 328.953 302.483 330.359 302.483C331.765 302.483 333.152 302.813 334.408 303.445L366.865 322.172C369.096 323.466 369.096 325.518 366.865 326.846L334.419 345.573C333.163 346.213 331.774 346.547 330.365 346.547C328.955 346.547 327.566 346.213 326.31 345.573L293.864 326.801C291.634 325.518 291.634 323.455 293.864 322.128V322.172Z" fill="#E1EAF2"/>
<path d="M368.538 316.529C368.496 317.032 368.318 317.514 368.023 317.925C367.729 318.335 367.328 318.658 366.865 318.86L334.419 337.587C333.161 338.219 331.773 338.549 330.365 338.549C328.957 338.549 327.568 338.219 326.311 337.587L293.865 318.86C293.403 318.656 293.004 318.333 292.71 317.923C292.416 317.513 292.237 317.031 292.192 316.529V323.578C292.192 324.425 291.902 325.619 293.017 326.266L326.154 345.483C327.433 346.133 328.843 346.478 330.276 346.494C331.71 346.509 333.127 346.194 334.419 345.573L367.289 326.611C367.707 326.366 368.043 326.002 368.254 325.565C368.464 325.128 368.54 324.638 368.471 324.158L368.538 316.529Z" fill="url(#paint5_linear)"/>
<path d="M293.864 314.186L301.973 309.502L326.31 295.459C327.566 294.827 328.953 294.497 330.359 294.497C331.765 294.497 333.152 294.827 334.408 295.459L366.865 314.186C369.096 315.469 369.096 317.532 366.865 318.86L334.419 337.587C333.161 338.219 331.773 338.549 330.365 338.549C328.957 338.549 327.568 338.219 326.31 337.587L293.864 318.86C291.634 317.577 291.634 315.514 293.864 314.186Z" fill="url(#paint6_linear)"/>
<path opacity="0.5" d="M294.98 323.221L293.184 322.183V320.41L294.98 321.447V323.221Z" fill="#212456"/>
<path opacity="0.5" d="M297.322 324.57L295.515 323.533V321.76L297.322 322.797V324.57Z" fill="#212456"/>
<path d="M299.508 325.831L297.712 324.793V323.031L299.508 324.068V325.831Z" fill="#212456"/>
<path opacity="0.5" d="M301.85 327.191L300.055 326.154V324.381L301.85 325.418V327.191Z" fill="#212456"/>
<path d="M304.126 328.496L302.33 327.47V325.697L304.126 326.734V328.496Z" fill="#212456"/>
<path opacity="0.5" d="M306.468 329.857L304.673 328.82V327.046L306.468 328.084V329.857Z" fill="#212456"/>
<path d="M294.98 325.474L293.184 324.437V322.674L294.98 323.712V325.474Z" fill="#212456"/>
<path d="M297.322 326.835L295.515 325.797V324.024L297.322 325.061V326.835Z" fill="#212456"/>
<path opacity="0.5" d="M299.508 328.095L297.712 327.058V325.284L299.508 326.321V328.095Z" fill="#212456"/>
<path opacity="0.5" d="M301.85 329.444L300.055 328.407V326.634L301.85 327.671V329.444Z" fill="#212456"/>
<path d="M304.126 330.761L302.33 329.723V327.95L304.126 328.987V330.761Z" fill="#212456"/>
<path opacity="0.5" d="M306.468 332.11L304.673 331.073V329.299L306.468 330.337V332.11Z" fill="#212456"/>
<path d="M321.983 342.26L321.548 342.015V335.523L321.983 335.78V342.26Z" fill="#212456"/>
<path d="M322.697 342.673L322.373 342.483V336.003L322.697 336.192V342.673Z" fill="#212456"/>
<path d="M323.422 343.096L323.198 342.963V336.482L323.422 336.605V343.096Z" fill="#212456"/>
<path d="M325.507 344.301L325.753 344.435V337.955L325.507 337.821V344.301Z" fill="#212456"/>
<path d="M324.637 343.799L325.072 344.044V337.564L324.637 337.319V343.799Z" fill="#212456"/>
<path d="M323.979 343.409L324.191 343.543V337.051L323.979 336.928V343.409Z" fill="#212456"/>
<path d="M293.764 314.331L301.862 309.658L326.21 295.571C327.464 294.932 328.852 294.599 330.259 294.599C331.666 294.599 333.054 294.932 334.308 295.571L366.765 314.287C368.996 315.581 368.996 317.633 366.765 318.96L334.319 337.732C333.063 338.372 331.674 338.706 330.265 338.706C328.855 338.706 327.466 338.372 326.21 337.732L293.764 318.994C291.534 317.711 291.534 315.647 293.764 314.32V314.331Z" fill="#212456"/>
<path d="M293.608 313.417L301.717 308.743L326.054 294.701C327.308 294.062 328.695 293.729 330.103 293.729C331.51 293.729 332.897 294.062 334.151 294.701L366.619 313.417C368.85 314.699 368.85 316.763 366.619 318.09L334.162 336.839C332.907 337.472 331.52 337.801 330.114 337.801C328.707 337.801 327.321 337.472 326.065 336.839L293.608 318.112C291.377 316.819 291.377 314.766 293.608 313.439V313.417Z" fill="#E1EAF2"/>
<path d="M368.293 307.762C368.246 308.265 368.067 308.748 367.773 309.159C367.479 309.571 367.081 309.897 366.619 310.104L334.162 328.82C332.908 329.458 331.521 329.791 330.114 329.791C328.706 329.791 327.319 329.458 326.065 328.82L293.608 310.071C293.147 309.863 292.749 309.537 292.455 309.126C292.161 308.714 291.981 308.232 291.935 307.728V314.789C291.935 315.636 291.645 316.83 292.76 317.466L325.898 336.683C327.175 337.334 328.585 337.682 330.018 337.699C331.452 337.717 332.87 337.403 334.162 336.784L367.032 317.822C367.449 317.573 367.784 317.206 367.994 316.768C368.205 316.33 368.281 315.839 368.214 315.357L368.293 307.762Z" fill="url(#paint7_linear)"/>
<path d="M293.608 305.42L301.717 300.746L326.054 286.704C327.308 286.065 328.695 285.732 330.103 285.732C331.51 285.732 332.897 286.065 334.151 286.704L366.619 305.42C368.85 306.713 368.85 308.766 366.619 310.104L334.162 328.82C332.908 329.458 331.521 329.791 330.114 329.791C328.706 329.791 327.319 329.458 326.065 328.82L293.608 310.071C291.377 308.777 291.377 306.725 293.608 305.386V305.42Z" fill="#E1E9F1"/>
<path opacity="0.5" d="M294.723 314.465L292.928 313.417V311.654L294.723 312.692V314.465Z" fill="#212456"/>
<path opacity="0.5" d="M297.065 315.815L295.27 314.777V313.004L297.065 314.041V315.815Z" fill="#212456"/>
<path d="M299.252 317.075L297.456 316.038V314.264L299.252 315.302V317.075Z" fill="#212456"/>
<path opacity="0.5" d="M301.594 318.425L299.798 317.387V315.614L301.594 316.651V318.425Z" fill="#212456"/>
<path d="M303.869 319.741L302.074 318.704V316.93L303.869 317.967V319.741Z" fill="#212456"/>
<path opacity="0.5" d="M306.212 321.09L304.416 320.053V318.28L306.212 319.317V321.09Z" fill="#212456"/>
<path d="M294.723 316.718L292.928 315.681V313.907L294.723 314.945V316.718Z" fill="#212456"/>
<path d="M297.065 318.068L295.27 317.031V315.257L297.065 316.294V318.068Z" fill="#212456"/>
<path opacity="0.5" d="M299.252 319.339L297.456 318.302V316.529L299.252 317.566V319.339Z" fill="#212456"/>
<path opacity="0.5" d="M301.594 320.689L299.798 319.652V317.878L301.594 318.915V320.689Z" fill="#212456"/>
<path d="M303.869 322.005L302.074 320.968V319.194L303.869 320.231V322.005Z" fill="#212456"/>
<path opacity="0.5" d="M306.212 323.355L304.416 322.317V320.544L306.212 321.581V323.355Z" fill="#212456"/>
<path d="M321.726 333.504L321.291 333.248V326.768L321.726 327.013V333.504Z" fill="#212456"/>
<path d="M322.451 333.917L322.117 333.727V327.247L322.451 327.437V333.917Z" fill="#212456"/>
<path d="M323.165 334.33L322.942 334.207V327.727L323.165 327.849V334.33Z" fill="#212456"/>
<path d="M325.251 335.534L325.496 335.679V329.199L325.251 329.054V335.534Z" fill="#212456"/>
<path d="M324.381 335.032L324.827 335.289V328.809L324.381 328.552V335.032Z" fill="#212456"/>
<path d="M323.723 334.653L323.935 334.776V328.296L323.723 328.173V334.653Z" fill="#212456"/>
<path d="M366.251 317.298L366.653 317.064V310.996L366.251 311.231V317.298Z" fill="#212456"/>
<path d="M365.571 317.689L365.883 317.51V311.443L365.571 311.621V317.689Z" fill="#212456"/>
<path d="M364.902 318.079L365.103 317.956V311.889L364.902 312.011V318.079Z" fill="#212456"/>
<path d="M362.95 319.205L362.716 319.339V313.272L362.95 313.138V319.205Z" fill="#212456"/>
<path d="M363.764 318.737L363.352 318.971V312.904L363.764 312.669V318.737Z" fill="#212456"/>
<path d="M364.378 318.369L364.177 318.492V312.424L364.378 312.312V318.369Z" fill="#212456"/>
<path opacity="0.6" d="M300.679 305.018L307.238 301.237L326.902 289.883C327.919 289.371 329.042 289.104 330.181 289.104C331.32 289.104 332.443 289.371 333.46 289.883L359.693 305.018C361.5 306.055 361.5 307.762 359.693 308.799L333.493 323.935C332.478 324.446 331.357 324.713 330.22 324.713C329.083 324.713 327.962 324.446 326.946 323.935L300.713 308.799C298.906 307.762 298.906 306.055 300.713 305.018H300.679Z" fill="white"/>
<path d="M397.515 122.21L410.375 114.793L448.989 92.4858C450.983 91.479 453.185 90.9545 455.419 90.9545C457.653 90.9545 459.855 91.479 461.849 92.4858L513.345 122.199C516.881 124.24 516.881 127.575 513.345 129.616L461.86 159.329C459.866 160.336 457.664 160.861 455.43 160.861C453.196 160.861 450.994 160.336 449 159.329L397.504 129.616C393.968 127.564 393.968 124.229 397.504 122.199L397.515 122.21Z" fill="#212456"/>
<path d="M516 112.651C515.931 113.45 515.648 114.216 515.181 114.867C514.714 115.519 514.08 116.033 513.346 116.354L461.86 146.068C459.867 147.075 457.664 147.599 455.43 147.599C453.197 147.599 450.994 147.075 449 146.068L397.504 116.332C396.771 116.014 396.136 115.504 395.667 114.857C395.198 114.209 394.912 113.448 394.838 112.651V123.805C394.838 125.155 394.381 127.04 396.154 128.066L448.721 158.56C452.268 160.601 458.314 160.791 461.849 158.705L513.992 128.59C514.656 128.2 515.19 127.622 515.525 126.93C515.861 126.237 515.983 125.46 515.877 124.697L516 112.651Z" fill="#CEDAE5"/>
<path d="M397.515 108.915L410.375 101.498L448.989 79.1907C450.983 78.1839 453.185 77.6594 455.419 77.6594C457.653 77.6594 459.855 78.1839 461.849 79.1907L513.345 108.904C516.881 110.945 516.881 114.28 513.345 116.321L461.86 146.034C459.866 147.041 457.664 147.566 455.43 147.566C453.196 147.566 450.994 147.041 449 146.034L397.504 116.332C393.968 114.291 393.968 110.956 397.504 108.915H397.515Z" fill="#E1E9F1"/>
<path d="M417.346 109.997L425.455 105.312L449.792 91.27C451.048 90.6375 452.435 90.308 453.841 90.308C455.247 90.308 456.634 90.6375 457.89 91.27L490.347 109.997C492.577 111.28 492.577 113.343 490.347 114.67L457.901 133.397C456.645 134.038 455.256 134.372 453.846 134.372C452.437 134.372 451.048 134.038 449.792 133.397L417.346 114.67C415.115 113.377 415.115 111.324 417.346 109.997Z" fill="#E1EAF2"/>
<path d="M492.02 104.342C491.976 104.846 491.797 105.33 491.503 105.741C491.209 106.153 490.809 106.479 490.347 106.684L457.901 125.411C456.643 126.044 455.255 126.373 453.847 126.373C452.439 126.373 451.05 126.044 449.792 125.411L417.346 106.684C416.885 106.477 416.487 106.151 416.193 105.739C415.899 105.328 415.72 104.846 415.673 104.342V111.402C415.673 112.25 415.372 113.443 416.499 114.079L449.625 133.297C450.903 133.95 452.315 134.299 453.751 134.317C455.187 134.334 456.607 134.02 457.901 133.397L490.771 114.436C491.187 114.188 491.521 113.824 491.731 113.387C491.942 112.951 492.019 112.462 491.953 111.982L492.02 104.342Z" fill="url(#paint8_linear)"/>
<path d="M417.346 102L425.455 97.3264L449.792 83.284C451.046 82.6454 452.433 82.3126 453.841 82.3126C455.248 82.3126 456.635 82.6454 457.89 83.284L490.347 102.011C492.577 103.294 492.577 105.357 490.347 106.684L457.901 125.411C456.643 126.044 455.254 126.373 453.846 126.373C452.438 126.373 451.05 126.044 449.792 125.411L417.346 106.684C415.115 105.39 415.115 103.338 417.346 102.011V102Z" fill="url(#paint9_linear)"/>
<path opacity="0.5" d="M418.462 111.045L416.655 110.008V108.235L418.462 109.272V111.045Z" fill="#212456"/>
<path opacity="0.5" d="M420.793 112.395L418.997 111.358V109.584L420.793 110.622V112.395Z" fill="#212456"/>
<path d="M422.99 113.655L421.194 112.618V110.845L422.99 111.882V113.655Z" fill="#212456"/>
<path opacity="0.5" d="M425.332 115.005L423.536 113.968V112.205L425.332 113.243V115.005Z" fill="#212456"/>
<path d="M427.608 116.321L425.812 115.284V113.51L427.608 114.548V116.321Z" fill="#212456"/>
<path opacity="0.5" d="M429.95 117.671L428.154 116.633V114.86L429.95 115.908V117.671Z" fill="#212456"/>
<path d="M418.462 113.298L416.655 112.261V110.488L418.462 111.525V113.298Z" fill="#212456"/>
<path d="M420.793 114.648L418.997 113.611V111.837L420.793 112.875V114.648Z" fill="#212456"/>
<path opacity="0.5" d="M422.99 115.92L421.194 114.882V113.109L422.99 114.146V115.92Z" fill="#212456"/>
<path opacity="0.5" d="M425.332 117.269L423.536 116.232V114.458L425.332 115.496V117.269Z" fill="#212456"/>
<path d="M427.608 118.585L425.812 117.548V115.775L427.608 116.812V118.585Z" fill="#212456"/>
<path opacity="0.5" d="M429.95 119.935L428.154 118.898V117.124L429.95 118.161V119.935Z" fill="#212456"/>
<path d="M445.465 130.085L445.03 129.828V123.348L445.465 123.604V130.085Z" fill="#212456"/>
<path d="M446.178 130.497L445.855 130.308V123.827L446.178 124.017V130.497Z" fill="#212456"/>
<path d="M446.903 130.91L446.68 130.787V124.307L446.903 124.43V130.91Z" fill="#212456"/>
<path d="M448.989 132.115L449.234 132.26V125.779L448.989 125.634V132.115Z" fill="#212456"/>
<path d="M448.119 131.613L448.554 131.869V125.389L448.119 125.132V131.613Z" fill="#212456"/>
<path d="M447.461 131.233L447.673 131.356V124.876L447.461 124.753V131.233Z" fill="#212456"/>
<path d="M417.335 101.498L425.433 96.8134L449.781 82.7821C451.035 82.1435 452.423 81.8107 453.83 81.8107C455.237 81.8107 456.625 82.1435 457.879 82.7821L490.325 101.498C492.555 102.781 492.555 104.844 490.96 105.547L458.514 124.262C457.246 125.133 455.769 125.651 454.234 125.763C452.699 125.874 451.163 125.576 449.781 124.898L417.324 106.171C415.093 104.889 415.093 102.825 417.324 101.498H417.335Z" fill="#212456"/>
<path d="M416.967 100.115L425.076 95.4303L449.413 81.4214C450.671 80.7887 452.059 80.4592 453.467 80.4592C454.875 80.4592 456.264 80.7887 457.522 81.4214L489.979 100.148C492.209 101.442 492.209 103.494 489.979 104.822L457.522 123.549C456.267 124.187 454.88 124.52 453.473 124.52C452.065 124.52 450.678 124.187 449.424 123.549L416.967 104.844C414.736 103.561 414.736 101.498 416.967 100.171V100.115Z" fill="#E1EAF2"/>
<path d="M491.652 94.4711C491.607 94.9738 491.428 95.4552 491.134 95.8652C490.839 96.2752 490.44 96.5988 489.979 96.8022L457.522 115.529C456.266 116.162 454.879 116.491 453.473 116.491C452.067 116.491 450.68 116.162 449.424 115.529L416.967 96.8022C416.505 96.5988 416.106 96.2752 415.812 95.8652C415.518 95.4552 415.339 94.9738 415.294 94.4711V101.498C415.294 102.346 415.004 103.539 416.119 104.186L449.257 123.404C450.535 124.053 451.945 124.399 453.379 124.414C454.812 124.429 456.23 124.114 457.522 123.493L490.391 104.532C490.811 104.287 491.148 103.923 491.361 103.486C491.573 103.049 491.651 102.559 491.585 102.078L491.652 94.4711Z" fill="url(#paint10_linear)"/>
<path d="M416.967 92.1289L425.076 87.4444L449.413 73.402C450.671 72.7693 452.059 72.4398 453.467 72.4398C454.875 72.4398 456.264 72.7693 457.522 73.402L489.979 92.1289C492.209 93.4116 492.209 95.475 489.979 96.8023L457.522 115.529C456.266 116.162 454.879 116.491 453.473 116.491C452.067 116.491 450.68 116.162 449.424 115.529L416.967 96.8023C414.736 95.5196 414.736 93.4562 416.967 92.1289Z" fill="url(#paint11_linear)"/>
<path opacity="0.5" d="M418.082 101.163L416.287 100.126V98.3525L418.082 99.3898V101.163Z" fill="#212456"/>
<path opacity="0.5" d="M420.425 102.513L418.629 101.476V99.7022L420.425 100.739V102.513Z" fill="#212456"/>
<path d="M422.611 103.784L420.815 102.736V100.974L422.611 102.011V103.784Z" fill="#212456"/>
<path opacity="0.5" d="M424.953 105.134L423.157 104.097V102.323L424.953 103.361V105.134Z" fill="#212456"/>
<path d="M427.228 106.45L425.433 105.402V103.639L427.228 104.677V106.45Z" fill="#212456"/>
<path opacity="0.5" d="M429.571 107.8L427.775 106.762V104.989L429.571 106.026V107.8Z" fill="#212456"/>
<path d="M418.082 103.416L416.287 102.379V100.606L418.082 101.654V103.416Z" fill="#212456"/>
<path d="M420.425 104.777L418.629 103.74V101.966L420.425 103.004V104.777Z" fill="#212456"/>
<path opacity="0.5" d="M422.611 106.037L420.815 105V103.227L422.611 104.264V106.037Z" fill="#212456"/>
<path opacity="0.5" d="M424.953 107.387L423.157 106.35V104.576L424.953 105.614V107.387Z" fill="#212456"/>
<path d="M427.228 108.703L425.433 107.666V105.892L427.228 106.93V108.703Z" fill="#212456"/>
<path opacity="0.5" d="M429.571 110.053L427.775 109.015V107.242L429.571 108.279V110.053Z" fill="#212456"/>
<path d="M445.085 120.202L444.65 119.957V113.466L445.085 113.722V120.202Z" fill="#212456"/>
<path d="M445.81 120.615L445.476 120.426V113.945L445.81 114.135V120.615Z" fill="#212456"/>
<path d="M446.524 121.039L446.312 120.905V114.425L446.524 114.548V121.039Z" fill="#212456"/>
<path d="M448.61 122.244L448.866 122.378V115.897L448.61 115.752V122.244Z" fill="#212456"/>
<path d="M447.751 121.742L448.186 121.987V115.507L447.751 115.261V121.742Z" fill="#212456"/>
<path d="M447.082 121.351L447.305 121.485V114.994L447.082 114.871V121.351Z" fill="#212456"/>
<path d="M416.867 92.2738L424.953 87.6005L449.313 73.6138C450.567 72.9753 451.954 72.6424 453.361 72.6424C454.769 72.6424 456.156 72.9753 457.41 73.6138L489.867 92.3296C492.098 93.6234 492.098 95.6757 489.867 97.003L457.421 115.73C456.167 116.368 454.78 116.701 453.372 116.701C451.965 116.701 450.578 116.368 449.324 115.73L416.867 97.003C414.636 95.7203 414.636 93.6569 416.867 92.3296V92.2738Z" fill="#212456"/>
<path d="M416.722 91.3481L424.819 86.6747L449.157 72.6323C450.412 71.9919 451.801 71.658 453.211 71.658C454.62 71.658 456.01 71.9919 457.265 72.6323L489.722 91.3592C491.953 92.6419 491.953 94.7053 489.722 96.0326L457.299 114.76C456.043 115.392 454.656 115.722 453.25 115.722C451.844 115.722 450.457 115.392 449.201 114.76L416.711 96.0326C414.48 94.7388 414.48 92.6865 416.711 91.3592L416.722 91.3481Z" fill="#E1EAF2"/>
<path d="M491.395 85.7043C491.349 86.2079 491.169 86.6902 490.875 87.1017C490.582 87.5133 490.184 87.8393 489.722 88.0466L457.299 106.762C456.045 107.401 454.657 107.734 453.25 107.734C451.843 107.734 450.455 107.401 449.201 106.762L416.744 88.0466C416.283 87.8393 415.885 87.5133 415.591 87.1017C415.297 86.6902 415.118 86.2079 415.071 85.7043V92.7646C415.071 93.6123 414.781 94.8057 415.896 95.4415L449.034 114.659C450.311 115.31 451.721 115.658 453.155 115.675C454.588 115.693 456.006 115.379 457.299 114.76L490.168 95.7984C490.587 95.5494 490.923 95.1831 491.135 94.7449C491.347 94.3068 491.426 93.816 491.362 93.3334L491.395 85.7043Z" fill="url(#paint12_linear)"/>
<path d="M416.722 83.3621L424.819 78.6888L449.157 64.691C450.416 64.045 451.812 63.7081 453.228 63.7081C454.643 63.7081 456.039 64.045 457.299 64.691L489.756 83.4067C491.986 84.7006 491.986 86.7528 489.756 88.0913L457.299 106.762C456.045 107.401 454.657 107.734 453.25 107.734C451.843 107.734 450.455 107.401 449.201 106.762L416.744 88.0467C414.513 86.7528 414.513 84.7006 416.744 83.3621H416.722Z" fill="#E1E9F1"/>
<path opacity="0.5" d="M417.826 92.3965L416.03 91.3593V89.597L417.826 90.6343V92.3965Z" fill="#212456"/>
<path opacity="0.5" d="M420.168 93.7572L418.373 92.72V90.9465L420.168 91.9838V93.7572Z" fill="#212456"/>
<path d="M422.365 95.0176L420.559 93.9803V92.2069L422.365 93.2442V95.0176Z" fill="#212456"/>
<path opacity="0.5" d="M424.697 96.3672L422.901 95.3299V93.5565L424.697 94.5938V96.3672Z" fill="#212456"/>
<path d="M426.972 97.6834L425.176 96.6461V94.8727L426.972 95.91V97.6834Z" fill="#212456"/>
<path opacity="0.5" d="M429.314 99.033L427.518 97.9957V96.2223L429.314 97.2596V99.033Z" fill="#212456"/>
<path d="M417.826 94.6607L416.03 93.6234V91.85L417.826 92.8873V94.6607Z" fill="#212456"/>
<path d="M420.168 96.0103L418.373 94.973V93.1996L420.168 94.2369V96.0103Z" fill="#212456"/>
<path opacity="0.5" d="M422.365 97.2818L420.559 96.2446V94.4711L422.365 95.5084V97.2818Z" fill="#212456"/>
<path opacity="0.5" d="M424.697 98.6314L422.901 97.5942V95.8207L424.697 96.858V98.6314Z" fill="#212456"/>
<path d="M426.972 99.9475L425.176 98.9102V97.1368L426.972 98.1741V99.9475Z" fill="#212456"/>
<path opacity="0.5" d="M429.314 101.297L427.518 100.26V98.4864L429.314 99.5237V101.297Z" fill="#212456"/>
<path d="M444.829 111.447L444.394 111.19V104.71L444.829 104.967V111.447Z" fill="#212456"/>
<path d="M445.554 111.86L445.23 111.67V105.19L445.554 105.379V111.86Z" fill="#212456"/>
<path d="M446.268 112.272L446.056 112.15V105.669L446.268 105.792V112.272Z" fill="#212456"/>
<path d="M448.365 113.477L448.61 113.622V107.142L448.365 106.997V113.477Z" fill="#212456"/>
<path d="M447.494 112.975L447.929 113.231V106.751L447.494 106.495V112.975Z" fill="#212456"/>
<path d="M446.825 112.596L447.049 112.718V106.238L446.825 106.116V112.596Z" fill="#212456"/>
<path d="M489.354 95.2407L489.767 95.0065V88.9389L489.354 89.1731V95.2407Z" fill="#212456"/>
<path d="M488.685 95.6311L488.986 95.4526V89.3851L488.685 89.5635V95.6311Z" fill="#212456"/>
<path d="M488.004 96.0214L488.216 95.8987V89.8312L488.004 89.9539V96.0214Z" fill="#212456"/>
<path d="M486.053 97.148L485.818 97.2819V91.2143L486.053 91.0804V97.148Z" fill="#212456"/>
<path d="M486.867 96.6795L486.454 96.9137V90.8462L486.867 90.6119V96.6795Z" fill="#212456"/>
<path d="M487.491 96.3226L487.28 96.4341V90.3665L487.491 90.255V96.3226Z" fill="#212456"/>
<path opacity="0.6" d="M423.838 82.9606L430.34 79.1907L450.015 67.8363C451.03 67.3245 452.152 67.0579 453.289 67.0579C454.426 67.0579 455.547 67.3245 456.562 67.8363L482.807 82.9718C484.602 84.0091 484.602 85.7156 482.807 86.7529L456.573 101.877C455.556 102.389 454.433 102.656 453.294 102.656C452.155 102.656 451.032 102.389 450.015 101.877L423.838 86.7417C422.042 85.7044 422.042 83.9979 423.838 82.9606Z" fill="white"/>
<path d="M2.71037 187.247L15.6151 179.83L54.2401 157.523C56.232 156.516 58.4327 155.991 60.6646 155.991C62.8965 155.991 65.0971 156.516 67.0891 157.523L118.597 187.225C122.132 189.277 122.132 192.612 118.597 194.653L67.0556 224.388C65.0637 225.395 62.863 225.92 60.6311 225.92C58.3992 225.92 56.1986 225.395 54.2066 224.388L2.71037 194.675C-0.825331 192.623 -0.825331 189.288 2.71037 187.247Z" fill="#212456"/>
<path d="M121.206 177.655C121.139 178.456 120.857 179.223 120.39 179.877C119.923 180.531 119.288 181.046 118.552 181.369L67.0556 211.071C65.0652 212.083 62.8639 212.61 60.6311 212.61C58.3982 212.61 56.197 212.083 54.2066 211.071L2.71033 181.369C1.97438 181.046 1.33924 180.531 0.871994 179.877C0.404747 179.223 0.122741 178.456 0.0557635 177.655V188.808C0.0557635 190.158 -0.412689 192.043 1.37189 193.069L53.9389 223.563C57.4746 225.604 63.531 225.794 67.0556 223.708L119.21 193.593C119.874 193.201 120.407 192.621 120.742 191.926C121.077 191.232 121.2 190.454 121.095 189.69L121.206 177.655Z" fill="#CEDAE5"/>
<path d="M2.71037 173.996L15.6151 166.524L54.2401 144.216C56.232 143.21 58.4327 142.685 60.6646 142.685C62.8965 142.685 65.0971 143.21 67.0891 144.216L118.552 173.996C122.088 176.038 122.088 179.372 118.552 181.414L67.0556 211.071C65.0652 212.083 62.864 212.61 60.6311 212.61C58.3983 212.61 56.197 212.083 54.2066 211.071L2.71037 181.369C-0.825331 179.328 -0.825331 175.993 2.71037 173.952V173.996Z" fill="#E1E9F1"/>
<path d="M22.5526 175.023L30.6501 170.349L54.9873 156.307C56.2429 155.666 57.6323 155.333 59.0417 155.333C60.4511 155.333 61.8405 155.666 63.096 156.307L95.5531 175.023C97.7838 176.316 97.7838 178.369 95.5531 179.707L63.096 198.434C61.8401 199.067 60.4535 199.396 59.0473 199.396C57.641 199.396 56.2544 199.067 54.9985 198.434L22.5415 179.707C20.3107 178.413 20.3107 176.361 22.5415 175.023H22.5526Z" fill="#E1EAF2"/>
<path d="M97.2261 169.379C97.1796 169.882 97.0003 170.365 96.7063 170.776C96.4124 171.188 96.0144 171.514 95.553 171.721L63.096 190.437C61.8419 191.075 60.4546 191.408 59.0473 191.408C57.6399 191.408 56.2526 191.075 54.9985 190.437L22.5415 171.766C22.0801 171.558 21.6822 171.232 21.3882 170.821C21.0942 170.409 20.9149 169.927 20.8684 169.423V176.484C20.8684 177.331 20.5784 178.514 21.6938 179.161L54.8312 198.378C56.1084 199.029 57.5185 199.377 58.9519 199.394C60.3853 199.412 61.8034 199.098 63.096 198.479L95.9657 179.517C96.3841 179.268 96.7201 178.902 96.9323 178.464C97.1444 178.026 97.2233 177.535 97.1592 177.053L97.2261 169.379Z" fill="url(#paint13_linear)"/>
<path d="M22.5526 167.037L30.6501 162.363L54.9873 148.343C56.2429 147.703 57.6323 147.369 59.0417 147.369C60.4511 147.369 61.8405 147.703 63.096 148.343L95.5531 167.059C97.7838 168.353 97.7838 170.405 95.5531 171.743L63.096 190.459C61.8419 191.098 60.4546 191.431 59.0473 191.431C57.6399 191.431 56.2526 191.098 54.9985 190.459L22.5415 171.766C20.3107 170.472 20.3107 168.42 22.5415 167.081L22.5526 167.037Z" fill="url(#paint14_linear)"/>
<path opacity="0.5" d="M23.6568 176.071L21.8611 175.034V173.26L23.6568 174.309V176.071Z" fill="#212456"/>
<path opacity="0.5" d="M25.9992 177.421L24.2035 176.394V174.621L25.9992 175.658V177.421Z" fill="#212456"/>
<path d="M28.1964 178.692L26.3895 177.655V175.881L28.1964 176.919V178.692Z" fill="#212456"/>
<path opacity="0.5" d="M30.5386 180.042L28.7317 179.004V177.231L30.5386 178.268V180.042Z" fill="#212456"/>
<path d="M32.8028 181.358L31.0071 180.321V178.547L32.8028 179.584V181.358Z" fill="#212456"/>
<path opacity="0.5" d="M35.1451 182.707L33.3494 181.67V179.897L35.1451 180.934V182.707Z" fill="#212456"/>
<path d="M23.6568 178.335L21.8611 177.298V175.524L23.6568 176.562V178.335Z" fill="#212456"/>
<path d="M25.9992 179.685L24.2035 178.648V176.874L25.9992 177.911V179.685Z" fill="#212456"/>
<path opacity="0.5" d="M28.1964 180.956L26.3895 179.919V178.146L28.1964 179.183V180.956Z" fill="#212456"/>
<path opacity="0.5" d="M30.5386 182.306L28.7317 181.269V179.495L30.5386 180.532V182.306Z" fill="#212456"/>
<path d="M32.8028 183.622L31.0071 182.574V180.811L32.8028 181.849V183.622Z" fill="#212456"/>
<path opacity="0.5" d="M35.1451 184.972L33.3494 183.934V182.161L35.1451 183.198V184.972Z" fill="#212456"/>
<path d="M50.6598 195.121L50.2249 194.865V188.385L50.6598 188.63V195.121Z" fill="#212456"/>
<path d="M51.3848 195.534L51.0502 195.345V188.864L51.3848 189.054V195.534Z" fill="#212456"/>
<path d="M52.0986 195.947L51.8867 195.824V189.333L52.0986 189.466V195.947Z" fill="#212456"/>
<path d="M54.1954 197.151L54.4408 197.296V190.816L54.1954 190.671V197.151Z" fill="#212456"/>
<path d="M53.3256 196.649L53.7606 196.906V190.415L53.3256 190.169V196.649Z" fill="#212456"/>
<path d="M52.6562 196.27L52.8793 196.393V189.913L52.6562 189.79V196.27Z" fill="#212456"/>
<path d="M22.5303 166.468L30.639 161.794L54.9762 147.752C56.2341 147.119 57.6226 146.79 59.0306 146.79C60.4386 146.79 61.827 147.119 63.0849 147.752L95.5308 166.479C97.7615 167.762 97.7615 169.825 96.1666 170.528L63.7207 189.243C62.4521 190.114 60.9747 190.632 59.4401 190.744C57.9055 190.855 56.3687 190.557 54.9874 189.879L22.5303 171.152C20.2996 169.858 20.2996 167.806 22.5303 166.479V166.468Z" fill="#212456"/>
<path d="M22.1734 165.152L30.2821 160.467L54.6528 146.425C55.9087 145.792 57.2953 145.463 58.7015 145.463C60.1077 145.463 61.4944 145.792 62.7503 146.425L95.2073 165.152C97.438 166.434 97.438 168.498 95.2073 169.825L62.728 188.552C61.4724 189.192 60.0831 189.526 58.6736 189.526C57.2642 189.526 55.8748 189.192 54.6193 188.552L22.1734 169.825C19.9427 168.531 19.9427 166.479 22.1734 165.152Z" fill="#E1EAF2"/>
<path d="M96.8469 159.497C96.8027 160.001 96.6242 160.484 96.33 160.896C96.0358 161.308 95.6366 161.634 95.1739 161.839L62.728 180.566C61.4701 181.199 60.0816 181.528 58.6736 181.528C57.2656 181.528 55.8772 181.199 54.6193 180.566L22.1734 161.839C21.7121 161.632 21.3141 161.306 21.0202 160.894C20.7262 160.483 20.5468 160 20.5004 159.497V166.557C20.5004 167.405 20.2104 168.598 21.3257 169.234L54.452 188.496C55.7304 189.15 57.1426 189.499 58.5782 189.516C60.0139 189.534 61.4341 189.219 62.728 188.596L95.5977 169.635C96.0151 169.389 96.3502 169.024 96.5606 168.588C96.771 168.151 96.8473 167.662 96.78 167.182L96.8469 159.497Z" fill="url(#paint15_linear)"/>
<path d="M22.1734 157.154L30.2821 152.481L54.6528 138.439C55.9069 137.8 57.2942 137.467 58.7015 137.467C60.1088 137.467 61.4962 137.8 62.7503 138.439L95.2073 157.166C97.438 158.448 97.438 160.512 95.2073 161.839L62.728 180.566C61.4701 181.199 60.0816 181.528 58.6736 181.528C57.2656 181.528 55.8772 181.199 54.6193 180.566L22.1734 161.839C19.9427 160.545 19.9427 158.493 22.1734 157.166V157.154Z" fill="url(#paint16_linear)"/>
<path opacity="0.5" d="M23.2888 166.2L21.4819 165.163V163.389L23.2888 164.427V166.2Z" fill="#212456"/>
<path opacity="0.5" d="M25.631 167.55L23.8241 166.512V164.739L25.631 165.776V167.55Z" fill="#212456"/>
<path d="M27.8172 168.81L26.0215 167.773V165.999L27.8172 167.037V168.81Z" fill="#212456"/>
<path opacity="0.5" d="M30.1595 170.16L28.3638 169.122V167.36L30.1595 168.397V170.16Z" fill="#212456"/>
<path d="M32.4346 171.476L30.6389 170.438V168.665L32.4346 169.702V171.476Z" fill="#212456"/>
<path opacity="0.5" d="M34.7771 172.836L32.9813 171.788V170.026L34.7771 171.063V172.836Z" fill="#212456"/>
<path d="M23.2888 168.453L21.4819 167.416V165.642L23.2888 166.68V168.453Z" fill="#212456"/>
<path d="M25.631 169.803L23.8241 168.765V166.992L25.631 168.04V169.803Z" fill="#212456"/>
<path opacity="0.5" d="M27.8172 171.074L26.0215 170.037V168.263L27.8172 169.301V171.074Z" fill="#212456"/>
<path opacity="0.5" d="M30.1595 172.424L28.3638 171.387V169.613L30.1595 170.65V172.424Z" fill="#212456"/>
<path d="M32.4346 173.74L30.6389 172.703V170.929L32.4346 171.966V173.74Z" fill="#212456"/>
<path opacity="0.5" d="M34.7771 175.09L32.9813 174.052V172.279L34.7771 173.316V175.09Z" fill="#212456"/>
<path d="M50.2918 185.239L49.8568 184.983V178.503L50.2918 178.759V185.239Z" fill="#212456"/>
<path d="M51.0056 185.652L50.6821 185.462V178.982L51.0056 179.172V185.652Z" fill="#212456"/>
<path d="M51.7305 186.065L51.5074 185.942V179.462L51.7305 179.584V186.065Z" fill="#212456"/>
<path d="M53.8162 187.28L54.0615 187.414V180.934L53.8162 180.789V187.28Z" fill="#212456"/>
<path d="M52.9462 186.779L53.3812 187.024V180.544L52.9462 180.287V186.779Z" fill="#212456"/>
<path d="M52.2882 186.388L52.5001 186.511V180.031L52.2882 179.908V186.388Z" fill="#212456"/>
<path d="M22.073 157.266L30.1705 152.581L54.5189 138.539C55.7748 137.906 57.1614 137.577 58.5676 137.577C59.9738 137.577 61.3605 137.906 62.6164 138.539L95.0734 157.266C97.3042 158.549 97.3042 160.612 95.0734 161.939L62.6276 180.689C61.3697 181.321 59.9812 181.651 58.5732 181.651C57.1652 181.651 55.7767 181.321 54.5189 180.689L22.0618 161.962C19.8311 160.679 19.8311 158.616 22.0618 157.288L22.073 157.266Z" fill="#212456"/>
<path d="M21.9169 156.385L30.0255 151.689L54.3628 137.647C55.6168 137.008 57.0042 136.675 58.4115 136.675C59.8188 136.675 61.2062 137.008 62.4603 137.647L94.9173 156.363C97.148 157.656 97.148 159.709 94.9173 161.047L62.4603 179.796C61.2044 180.429 59.8177 180.758 58.4115 180.758C57.0053 180.758 55.6187 180.429 54.3628 179.796L21.9057 161.069C19.675 159.776 19.675 157.723 21.9057 156.385H21.9169Z" fill="#E1EAF2"/>
<path d="M96.5904 150.741C96.5462 151.245 96.3677 151.729 96.0735 152.141C95.7792 152.552 95.38 152.878 94.9173 153.083L62.4603 171.766C61.2062 172.404 59.8188 172.737 58.4115 172.737C57.0042 172.737 55.6168 172.404 54.3628 171.766L21.9057 153.05C21.4444 152.843 21.0464 152.517 20.7525 152.105C20.4585 151.693 20.2791 151.211 20.2327 150.708V157.768C20.2327 158.604 19.9427 159.798 21.058 160.445L54.2066 179.696C55.4838 180.347 56.8939 180.694 58.3273 180.712C59.7607 180.729 61.1788 180.416 62.4714 179.796L95.3411 160.835C95.7565 160.586 96.0899 160.222 96.3 159.785C96.5101 159.349 96.5878 158.861 96.5234 158.381L96.5904 150.741Z" fill="url(#paint17_linear)"/>
<path d="M21.9169 148.399L30.0255 143.726L54.3628 129.683C55.6168 129.045 57.0042 128.712 58.4115 128.712C59.8188 128.712 61.2062 129.045 62.4603 129.683L94.9173 148.399C97.148 149.693 97.148 151.745 94.9173 153.083L62.4603 171.766C61.2062 172.404 59.8188 172.737 58.4115 172.737C57.0042 172.737 55.6168 172.404 54.3628 171.766L21.9057 153.05C19.675 151.756 19.675 149.704 21.9057 148.365L21.9169 148.399Z" fill="#E1E9F1"/>
<path opacity="0.5" d="M23.0323 157.433L21.2366 156.396V154.623L23.0323 155.66V157.433Z" fill="#212456"/>
<path opacity="0.5" d="M25.3745 158.783L23.5787 157.746V155.972L25.3745 157.021V158.783Z" fill="#212456"/>
<path d="M27.5606 160.054L25.7649 159.017V157.244L27.5606 158.281V160.054Z" fill="#212456"/>
<path opacity="0.5" d="M29.9029 161.404L28.1072 160.367V158.593L29.9029 159.631V161.404Z" fill="#212456"/>
<path d="M32.1782 162.72L30.3824 161.683V159.909L32.1782 160.947V162.72Z" fill="#212456"/>
<path opacity="0.5" d="M34.5205 164.07L32.7247 163.032V161.259L34.5205 162.296V164.07Z" fill="#212456"/>
<path d="M23.0323 159.698L21.2366 158.66V156.887L23.0323 157.924V159.698Z" fill="#212456"/>
<path d="M25.3745 161.047L23.5787 160.01V158.236L25.3745 159.274V161.047Z" fill="#212456"/>
<path opacity="0.5" d="M27.5606 162.307L25.7649 161.27V159.497L27.5606 160.545V162.307Z" fill="#212456"/>
<path opacity="0.5" d="M29.9029 163.668L28.1072 162.631V160.857L29.9029 161.895V163.668Z" fill="#212456"/>
<path d="M32.1782 164.973L30.3824 163.936V162.162L32.1782 163.2V164.973Z" fill="#212456"/>
<path opacity="0.5" d="M34.5205 166.334L32.7247 165.285V163.523L34.5205 164.56V166.334Z" fill="#212456"/>
<path d="M50.0351 176.473L49.6001 176.227V169.747L50.0351 169.992V176.473Z" fill="#212456"/>
<path d="M50.749 176.896L50.4255 176.707V170.227L50.749 170.405V176.896Z" fill="#212456"/>
<path d="M51.474 177.309L51.251 177.186V170.695L51.474 170.829V177.309Z" fill="#212456"/>
<path d="M53.5597 178.514L53.8051 178.659V172.178L53.5597 172.033V178.514Z" fill="#212456"/>
<path d="M52.6897 178.012L53.1247 178.268V171.777L52.6897 171.531V178.012Z" fill="#212456"/>
<path d="M52.0316 177.633L52.2435 177.755V171.275L52.0316 171.141V177.633Z" fill="#212456"/>
<path d="M94.5604 160.277L94.962 160.043V153.976L94.5604 154.21V160.277Z" fill="#212456"/>
<path d="M93.8801 160.657L94.1924 160.489V154.422L93.8801 154.6V160.657Z" fill="#212456"/>
<path d="M93.2109 161.047L93.4117 160.935V154.868L93.2109 154.991V161.047Z" fill="#212456"/>
<path d="M91.2589 162.174L91.0247 162.307V156.251L91.2589 156.117V162.174Z" fill="#212456"/>
<path d="M92.0732 161.705L91.6605 161.939V155.883L92.0732 155.649V161.705Z" fill="#212456"/>
<path d="M92.6866 161.348L92.4858 161.471V155.403L92.6866 155.292V161.348Z" fill="#212456"/>
<path opacity="0.6" d="M28.9995 147.997L35.5578 144.216L55.2105 132.862C56.2262 132.345 57.3498 132.075 58.4896 132.075C59.6294 132.075 60.7531 132.345 61.7688 132.862L88.0021 147.997C89.809 149.035 89.809 150.73 88.0021 151.778L61.7688 166.914C60.7535 167.426 59.6323 167.692 58.4952 167.692C57.3582 167.692 56.2369 167.426 55.2216 166.914L28.9995 151.778C27.1926 150.73 27.1926 149.035 28.9995 147.997Z" fill="white"/>
<g opacity="0.8">
<path opacity="0.8" d="M211.317 212.387L242.212 194.541L273.688 176.372C285.544 169.535 304.918 169.535 316.819 176.372L366.954 205.327C378.811 212.175 378.811 223.373 366.954 230.211L316.819 259.132C304.951 265.98 285.589 265.98 273.688 259.132L223.552 230.211C211.696 223.373 206.186 215.354 211.317 212.387Z" fill="#8A7EBB"/>
</g>
<path d="M383.038 218.488C383.038 216.536 381.755 214.596 379.19 213.112L304.572 170.059C299.452 167.104 291.054 167.104 285.934 170.059L229.965 202.349L211.317 213.101C208.751 214.584 207.469 216.525 207.469 218.477V206.342C207.469 204.39 208.751 202.438 211.317 200.955L229.965 190.203L285.934 157.857C291.054 154.901 299.452 154.901 304.572 157.857L379.223 200.91C381.788 202.394 383.071 204.345 383.071 206.297L383.038 218.488Z" fill="url(#paint18_linear)"/>
<path d="M383.038 205.572C383.038 207.524 381.755 209.476 379.19 210.948L304.572 254.001C299.452 256.957 291.054 256.957 285.934 254.001L211.317 210.948C208.751 209.476 207.469 207.524 207.469 205.572V217.774C207.469 219.726 208.751 221.667 211.317 223.15L285.934 266.203C291.054 269.159 299.452 269.159 304.572 266.203L379.19 223.15C381.755 221.667 383.038 219.726 383.038 217.774V205.572Z" fill="#CEDAE5"/>
<path d="M210.168 200.854L242.212 182.373L292.537 153.373C293.363 152.897 294.3 152.646 295.253 152.646C296.207 152.646 297.143 152.897 297.969 153.373L380.339 200.854C381.168 201.332 381.857 202.019 382.336 202.847C382.815 203.676 383.067 204.615 383.067 205.572C383.067 206.529 382.815 207.469 382.336 208.298C381.857 209.126 381.168 209.813 380.339 210.29L297.969 257.816C297.143 258.293 296.207 258.544 295.253 258.544C294.3 258.544 293.363 258.293 292.537 257.816L210.168 210.29C209.338 209.813 208.649 209.126 208.17 208.298C207.691 207.469 207.439 206.529 207.439 205.572C207.439 204.615 207.691 203.676 208.17 202.847C208.649 202.019 209.338 201.332 210.168 200.854Z" fill="#E1E9F1"/>
<path d="M342.313 201.294C342.411 185.63 320.494 172.793 293.36 172.622C266.226 172.452 244.15 185.012 244.051 200.677C243.953 216.341 265.87 229.178 293.004 229.348C320.138 229.519 342.214 216.959 342.313 201.294Z" fill="url(#paint19_linear)"/>
<path d="M341.359 191.596C341.457 175.932 319.54 163.095 292.406 162.925C265.272 162.754 243.196 175.314 243.097 190.979C242.999 206.643 264.916 219.48 292.05 219.651C319.184 219.821 341.26 207.261 341.359 191.596Z" fill="#ACC9E9"/>
<path opacity="0.5" d="M339.831 189.926C339.925 174.926 318.689 162.633 292.399 162.468C266.108 162.303 244.719 174.328 244.625 189.327C244.531 204.327 265.767 216.62 292.057 216.785C318.348 216.95 339.736 204.925 339.831 189.926Z" stroke="url(#paint20_linear)" stroke-width="2.46495" stroke-miterlimit="10"/>
<path d="M339.091 183.942C339.188 168.635 318.038 156.092 291.852 155.928C265.667 155.763 244.361 168.039 244.265 183.346C244.169 198.653 265.319 211.196 291.504 211.36C317.69 211.525 338.995 199.249 339.091 183.942Z" stroke="#C0DFF5" stroke-width="3.34609" stroke-miterlimit="10"/>
<path d="M339.091 183.942C339.188 168.635 318.038 156.092 291.852 155.928C265.667 155.763 244.361 168.039 244.265 183.346C244.169 198.653 265.319 211.196 291.504 211.36C317.69 211.525 338.995 199.249 339.091 183.942Z" stroke="#C0DFF5" stroke-width="3.34609" stroke-miterlimit="10"/>
<path opacity="0.2" d="M246.25 96.2334L249.953 100.739V83.2952" stroke="#202455" stroke-width="2.46495" stroke-linecap="round" stroke-linejoin="round"/>
<path opacity="0.2" d="M328.084 143.436L331.787 147.953V130.508" stroke="#202455" stroke-width="2.46495" stroke-linecap="round" stroke-linejoin="round"/>
<path opacity="0.2" d="M262.244 182.562L265.958 187.069V169.624" stroke="#202455" stroke-width="2.46495" stroke-linecap="round" stroke-linejoin="round"/>
<g opacity="0.2">
<path opacity="0.2" d="M293.34 146.369C299.871 148.026 306.784 147.208 312.747 144.073C318.711 140.937 323.303 135.706 325.64 129.386C327.976 123.066 327.891 116.106 325.402 109.845C322.912 103.584 318.194 98.4657 312.156 95.4762C306.118 92.4866 299.187 91.8372 292.698 93.6531C286.21 95.4689 280.623 99.6216 277.014 105.311C273.404 111 272.028 117.824 273.15 124.468C274.272 131.112 277.812 137.105 283.09 141.294C284.072 142.072 285.109 142.78 286.191 143.413" stroke="#202455" stroke-width="5.57681" stroke-miterlimit="10"/>
<path opacity="0.2" d="M292.851 138.461L292.329 138.236C290.134 137.289 287.588 138.3 286.641 140.495L272.155 174.064C271.209 176.259 272.22 178.806 274.414 179.752L274.937 179.978C277.131 180.925 279.678 179.913 280.625 177.719L295.11 144.149C296.057 141.955 295.045 139.408 292.851 138.461Z" fill="#212456"/>
</g>
<path d="M289.247 146.369C295.78 148.032 302.697 147.218 308.665 144.085C314.634 140.951 319.232 135.72 321.573 129.398C323.914 123.077 323.833 116.113 321.346 109.847C318.858 103.582 314.14 98.459 308.1 95.4654C302.06 92.4717 295.126 91.8192 288.633 93.6336C282.141 95.448 276.55 99.6009 272.937 105.292C269.324 110.983 267.945 117.81 269.066 124.458C270.187 131.105 273.729 137.102 279.008 141.294C279.989 142.075 281.025 142.783 282.109 143.413" stroke="#202455" stroke-width="5.57681" stroke-miterlimit="10"/>
<path d="M288.779 138.466L288.257 138.24C286.062 137.293 283.516 138.305 282.569 140.499L268.083 174.069C267.137 176.263 268.148 178.81 270.342 179.757L270.865 179.982C273.059 180.929 275.606 179.918 276.553 177.723L291.038 144.154C291.985 141.959 290.973 139.413 288.779 138.466Z" fill="#212456"/>
<path opacity="0.6" d="M338.903 -6.10352e-05V180.811C338.825 184.715 339.851 190.47 334.798 195.657C322.987 207.77 308.23 210.491 297.411 211.272C287.373 211.986 263.404 208.539 251.771 198.088C244.052 191.162 244.565 183.098 244.565 183.098C244.565 182.094 244.565 181.046 244.565 180.867C244.878 175.402 244.945 124.129 244.565 0.0557071" fill="url(#paint21_linear)"/>
</g>
<defs>
<linearGradient id="paint0_linear" x1="94.1254" y1="263.761" x2="307.104" y2="263.761" gradientUnits="userSpaceOnUse">
<stop stop-color="#D92128"/>
<stop offset="0.18" stop-color="#BD212F"/>
<stop offset="0.57" stop-color="#762341"/>
<stop offset="1" stop-color="#212456"/>
</linearGradient>
<linearGradient id="paint1_linear" x1="22540" y1="6312.89" x2="124198" y2="6312.89" gradientUnits="userSpaceOnUse">
<stop stop-color="#D92128"/>
<stop offset="0.18" stop-color="#BD212F"/>
<stop offset="0.57" stop-color="#762341"/>
<stop offset="1" stop-color="#212456"/>
</linearGradient>
<linearGradient id="paint2_linear" x1="31119" y1="39808.9" x2="39607.7" y2="39808.9" gradientUnits="userSpaceOnUse">
<stop stop-color="#D92128"/>
<stop offset="0.18" stop-color="#BD212F"/>
<stop offset="0.57" stop-color="#762341"/>
<stop offset="1" stop-color="#212456"/>
</linearGradient>
<linearGradient id="paint3_linear" x1="292.526" y1="341.39" x2="368.917" y2="341.39" gradientUnits="userSpaceOnUse">
<stop stop-color="#FEFFFF"/>
<stop offset="0.25" stop-color="#F9FAFA"/>
<stop offset="0.53" stop-color="#ECEDEC"/>
<stop offset="0.83" stop-color="#D6D6D6"/>
<stop offset="1" stop-color="#C6C6C5"/>
</linearGradient>
<linearGradient id="paint4_linear" x1="20321.2" y1="13199.2" x2="25548.6" y2="13199.2" gradientUnits="userSpaceOnUse">
<stop stop-color="#FEFFFF"/>
<stop offset="0.25" stop-color="#F9FAFA"/>
<stop offset="0.53" stop-color="#ECEDEC"/>
<stop offset="0.83" stop-color="#D6D6D6"/>
<stop offset="1" stop-color="#C6C6C5"/>
</linearGradient>
<linearGradient id="paint5_linear" x1="20299.3" y1="9222.94" x2="25529.8" y2="9222.94" gradientUnits="userSpaceOnUse">
<stop stop-color="#FEFFFF"/>
<stop offset="0.25" stop-color="#F9FAFA"/>
<stop offset="0.53" stop-color="#ECEDEC"/>
<stop offset="0.83" stop-color="#D6D6D6"/>
<stop offset="1" stop-color="#C6C6C5"/>
</linearGradient>
<linearGradient id="paint6_linear" x1="20292.7" y1="12795.8" x2="25518.6" y2="12795.8" gradientUnits="userSpaceOnUse">
<stop stop-color="#C6C6C5"/>
<stop offset="1" stop-color="#FEFFFF"/>
</linearGradient>
<linearGradient id="paint7_linear" x1="20284.4" y1="8980.58" x2="25516.4" y2="8980.58" gradientUnits="userSpaceOnUse">
<stop stop-color="#FEFFFF"/>
<stop offset="0.25" stop-color="#F9FAFA"/>
<stop offset="0.53" stop-color="#ECEDEC"/>
<stop offset="0.83" stop-color="#D6D6D6"/>
<stop offset="1" stop-color="#C6C6C5"/>
</linearGradient>
<linearGradient id="paint8_linear" x1="28879.8" y1="3311.42" x2="34110.5" y2="3311.42" gradientUnits="userSpaceOnUse">
<stop stop-color="#FEFFFF"/>
<stop offset="0.25" stop-color="#F9FAFA"/>
<stop offset="0.53" stop-color="#ECEDEC"/>
<stop offset="0.83" stop-color="#D6D6D6"/>
<stop offset="1" stop-color="#C6C6C5"/>
</linearGradient>
<linearGradient id="paint9_linear" x1="28868.5" y1="4204.2" x2="34094.4" y2="4204.2" gradientUnits="userSpaceOnUse">
<stop stop-color="#FEFFFF"/>
<stop offset="0.25" stop-color="#F9FAFA"/>
<stop offset="0.53" stop-color="#ECEDEC"/>
<stop offset="0.83" stop-color="#D6D6D6"/>
<stop offset="1" stop-color="#C6C6C5"/>
</linearGradient>
<linearGradient id="paint10_linear" x1="28856.6" y1="3032.82" x2="34088.7" y2="3032.82" gradientUnits="userSpaceOnUse">
<stop stop-color="#FEFFFF"/>
<stop offset="0.25" stop-color="#F9FAFA"/>
<stop offset="0.53" stop-color="#ECEDEC"/>
<stop offset="0.83" stop-color="#D6D6D6"/>
<stop offset="1" stop-color="#C6C6C5"/>
</linearGradient>
<linearGradient id="paint11_linear" x1="28846.3" y1="3803.59" x2="34073.8" y2="3803.59" gradientUnits="userSpaceOnUse">
<stop stop-color="#C6C6C5"/>
<stop offset="1" stop-color="#FEFFFF"/>
</linearGradient>
<linearGradient id="paint12_linear" x1="28826.4" y1="2791.53" x2="34056.2" y2="2791.53" gradientUnits="userSpaceOnUse">
<stop stop-color="#FEFFFF"/>
<stop offset="0.25" stop-color="#F9FAFA"/>
<stop offset="0.53" stop-color="#ECEDEC"/>
<stop offset="0.83" stop-color="#D6D6D6"/>
<stop offset="1" stop-color="#C6C6C5"/>
</linearGradient>
<linearGradient id="paint13_linear" x1="1447.83" y1="5131.04" x2="6679.89" y2="5131.04" gradientUnits="userSpaceOnUse">
<stop stop-color="#FEFFFF"/>
<stop offset="0.25" stop-color="#F9FAFA"/>
<stop offset="0.53" stop-color="#ECEDEC"/>
<stop offset="0.83" stop-color="#D6D6D6"/>
<stop offset="1" stop-color="#C6C6C5"/>
</linearGradient>
<linearGradient id="paint14_linear" x1="1449.52" y1="6838.6" x2="6676.97" y2="6838.6" gradientUnits="userSpaceOnUse">
<stop stop-color="#FEFFFF"/>
<stop offset="0.25" stop-color="#F9FAFA"/>
<stop offset="0.53" stop-color="#ECEDEC"/>
<stop offset="0.83" stop-color="#D6D6D6"/>
<stop offset="1" stop-color="#C6C6C5"/>
</linearGradient>
<linearGradient id="paint15_linear" x1="1422.05" y1="4855.85" x2="6652.58" y2="4855.85" gradientUnits="userSpaceOnUse">
<stop stop-color="#FEFFFF"/>
<stop offset="0.25" stop-color="#F9FAFA"/>
<stop offset="0.53" stop-color="#ECEDEC"/>
<stop offset="0.83" stop-color="#D6D6D6"/>
<stop offset="1" stop-color="#C6C6C5"/>
</linearGradient>
<linearGradient id="paint16_linear" x1="1424.36" y1="6438.16" x2="6652.58" y2="6438.16" gradientUnits="userSpaceOnUse">
<stop stop-color="#C6C6C5"/>
<stop offset="1" stop-color="#FEFFFF"/>
</linearGradient>
<linearGradient id="paint17_linear" x1="1404.42" y1="4609.14" x2="6635.71" y2="4609.14" gradientUnits="userSpaceOnUse">
<stop stop-color="#FEFFFF"/>
<stop offset="0.25" stop-color="#F9FAFA"/>
<stop offset="0.53" stop-color="#ECEDEC"/>
<stop offset="0.83" stop-color="#D6D6D6"/>
<stop offset="1" stop-color="#C6C6C5"/>
</linearGradient>
<linearGradient id="paint18_linear" x1="207.469" y1="187.068" x2="383.038" y2="187.068" gradientUnits="userSpaceOnUse">
<stop stop-color="#B3A7D2"/>
<stop offset="0.02" stop-color="#AFA3D0" stop-opacity="0.92"/>
<stop offset="0.07" stop-color="#A69ACB" stop-opacity="0.75"/>
<stop offset="0.13" stop-color="#9F93C7" stop-opacity="0.6"/>
<stop offset="0.19" stop-color="#988CC3" stop-opacity="0.48"/>
<stop offset="0.26" stop-color="#9387C0" stop-opacity="0.37"/>
<stop offset="0.35" stop-color="#8F83BE" stop-opacity="0.29"/>
<stop offset="0.45" stop-color="#8C80BC" stop-opacity="0.24"/>
<stop offset="0.6" stop-color="#8A7EBB" stop-opacity="0.21"/>
<stop offset="1" stop-color="#8A7EBB" stop-opacity="0.2"/>
</linearGradient>
<linearGradient id="paint19_linear" x1="12677.9" y1="17858.9" x2="17675" y2="17858.9" gradientUnits="userSpaceOnUse">
<stop stop-color="#FEFFFF"/>
<stop offset="0.06" stop-color="#FAFBFB"/>
<stop offset="0.68" stop-color="#D4D5D4"/>
<stop offset="1" stop-color="#C6C6C5"/>
</linearGradient>
<linearGradient id="paint20_linear" x1="12118.4" y1="16329.2" x2="16875" y2="16329.2" gradientUnits="userSpaceOnUse">
<stop stop-color="#D92128"/>
<stop offset="0.18" stop-color="#BD212F"/>
<stop offset="0.57" stop-color="#762341"/>
<stop offset="1" stop-color="#212456"/>
</linearGradient>
<linearGradient id="paint21_linear" x1="291.266" y1="36.2604" x2="292.046" y2="130.653" gradientUnits="userSpaceOnUse">
<stop stop-color="#FEFFFF" stop-opacity="0"/>
<stop offset="0.07" stop-color="#FDFEFF" stop-opacity="0.02"/>
<stop offset="0.16" stop-color="#F9FDFE" stop-opacity="0.08"/>
<stop offset="0.25" stop-color="#F3FAFD" stop-opacity="0.17"/>
<stop offset="0.35" stop-color="#EBF5FC" stop-opacity="0.3"/>
<stop offset="0.45" stop-color="#E1F0FA" stop-opacity="0.47"/>
<stop offset="0.55" stop-color="#D4E9F8" stop-opacity="0.68"/>
<stop offset="0.65" stop-color="#C5E2F6" stop-opacity="0.92"/>
<stop offset="0.68" stop-color="#C0DFF5"/>
</linearGradient>
<clipPath id="clip0">
<rect width="516" height="382.937" fill="white"/>
</clipPath>
</defs>
</svg>
