<svg width="1019" height="1267" viewBox="0 0 1019 1267" fill="none" xmlns="http://www.w3.org/2000/svg">
    <g style="mix-blend-mode:multiply" opacity=".07">
        <path d="M93.633 902.178a1414.026 1414.026 0 0 1 56.97-159.349c9.855-23.072 20.691-46.316 38.213-64.313 44.875-45.844 119.032-43.265 181.562-29.358a746.452 746.452 0 0 1 166.932 58.41c52.565 25.773 103.007 58.075 160.137 70.877 57.129 12.802 125.006.888 158.759-46.954 20.077-28.457 25.03-65.589 19.65-99.996-5.38-34.406-20.22-66.616-36.988-97.148-19.196-34.948-41.762-70.504-42.762-110.337-.985-41.166 23.964-82.06 61.177-99.887 52.991-25.365 114.999-4.283 172.127 9.358 72.54 17.306 151.16 21.455 219.83-7.538 68.68-28.992 124.34-97.22 121.49-171.775" stroke="url(#iy0tg993sa)" stroke-width="2.126" stroke-miterlimit="10" style="mix-blend-mode:multiply"/>
        <path d="M105.946 914.022a1309.016 1309.016 0 0 1 56.461-156.404c9.807-22.602 20.602-45.406 37.852-63.025 34.682-35.391 86.672-42.208 137.183-37.467a388.986 388.986 0 0 1 40.541 6.054 726.92 726.92 0 0 1 164.079 53.723c51.764 24.174 101.511 55.06 157.766 66.943 31.549 6.679 66.066 6.636 96.953-2.162 26.896-7.672 51.154-22.169 67.64-44.895a110.831 110.831 0 0 0 7.945-12.688c14.491-27.074 17.49-59.64 13.028-90.33a229.502 229.502 0 0 0-6.316-29.054c-6.999-24.879-17.669-48.719-29.046-71.783-17.958-36.547-37.692-73.492-37.197-113.795.496-40.303 24.316-79.538 60.591-97.118 51.629-25.046 111.878-5.82 167.234 6.069 4.34.93 8.73 1.829 13.14 2.65 66.51 12.592 136.81 12.706 198.21-14.936 65.53-29.49 117.97-96.295 114.17-168.783" stroke="url(#xztf1inhqb)" stroke-width="2.126" stroke-miterlimit="10" style="mix-blend-mode:multiply"/>
        <path d="M118.417 925.799a1208.124 1208.124 0 0 1 55.941-153.477c9.788-22.124 20.527-44.43 37.491-61.736 34.052-34.783 84.715-42.281 134.016-38.659a389.543 389.543 0 0 1 39.738 5.045 708.87 708.87 0 0 1 161.177 49.335c50.978 22.516 100.075 51.936 155.473 63.013 32.618 6.405 68.061 6.564 100.043-2.081 27.791-7.526 53.082-22.103 70.366-45.192a109.647 109.647 0 0 0 8.357-12.951c15.24-27.776 18.285-61.326 13.895-93.039a246.345 246.345 0 0 0-6.154-30.007c-6.829-25.689-16.934-50.592-27.545-74.54-16.709-38.127-33.615-76.337-31.64-117.224 1.921-38.769 24.689-76.98 60.005-94.35 50.277-24.706 108.701-7.324 162.32 2.793 4.25.818 8.49 1.56 12.72 2.227 64.32 10.542 131.65 8.863 190.18-19.283 62.32-29.963 111.6-95.389 106.85-165.829" stroke="url(#4bn4e0kv2c)" stroke-width="2.126" stroke-miterlimit="10" style="mix-blend-mode:multiply"/>
        <path d="M130.811 937.571A1120.76 1120.76 0 0 1 186.269 787c9.769-21.647 20.492-43.427 37.131-60.448 33.421-34.173 82.767-42.335 130.92-39.768a380.086 380.086 0 0 1 38.823 4.1 691.111 691.111 0 0 1 158.353 44.656c50.257 20.968 98.667 48.943 153.117 59.144 33.63 6.287 70.103 6.613 103.18-1.878 28.685-7.38 55.07-21.975 73.101-45.471a109.186 109.186 0 0 0 8.749-13.251c16.01-28.441 19.082-62.964 14.809-95.751a276.006 276.006 0 0 0-5.971-30.923c-6.64-26.511-16.288-52.364-26.08-77.276-15.454-39.736-29.657-79.261-26.065-120.664 3.227-37.486 25.122-74.529 59.445-91.62 48.915-24.387 105.639-8.894 157.409-.514 4.08.657 8.18 1.268 12.31 1.833 62.1 8.455 126.53 4.988 181.98-23.563 59.1-30.437 105.24-94.493 99.52-162.875" stroke="url(#wz2ks3k4ud)" stroke-width="2.126" stroke-miterlimit="10" style="mix-blend-mode:multiply"/>
        <path d="M143.218 949.41a1038.65 1038.65 0 0 1 54.884-147.613c9.739-21.188 20.428-42.433 36.77-59.159 32.748-33.637 80.8-42.427 127.803-40.914 12.844.391 25.61 1.539 37.986 3.159a671.33 671.33 0 0 1 155.431 40.106c49.53 19.326 97.321 45.72 150.921 55.085 34.687 6.12 72.105 6.636 106.276-1.702 29.551-7.241 57.02-21.873 75.838-45.749a110.136 110.136 0 0 0 9.151-13.532c16.777-29.155 19.858-64.64 15.704-98.453a301.066 301.066 0 0 0-5.823-31.942c-6.432-27.342-15.605-54.158-24.596-80.022-14.235-41.324-25.719-82.051-20.508-124.094 4.48-36.122 25.442-71.891 58.842-88.793 47.499-24.035 102.513-10.43 152.483-3.78 3.94.526 7.94.99 11.87 1.421 59.92 6.405 121.42 1.094 173.87-27.886 55.83-30.861 98.87-93.568 92.21-159.883" stroke="url(#ihslpcbb6e)" stroke-width="2.126" stroke-miterlimit="10" style="mix-blend-mode:multiply"/>
        <path d="M155.605 961.211a965.273 965.273 0 0 1 54.363-144.686c9.702-20.7 20.301-41.377 36.42-57.852 32.161-32.954 78.835-42.471 124.697-42.042 12.561.113 25.067.895 37.119 2.21a654.297 654.297 0 0 1 152.584 35.516c48.766 17.704 95.994 42.484 148.617 51.136 35.759 5.893 74.188 6.587 109.381-1.555 30.456-7.076 58.988-21.781 78.563-46.046a112.537 112.537 0 0 0 9.583-13.806c17.549-29.772 20.633-66.315 16.569-101.162a332.201 332.201 0 0 0-5.642-32.905c-6.225-28.174-14.959-55.93-23.206-82.716-12.994-42.874-21.751-84.832-14.858-127.576 5.61-34.761 25.804-69.35 58.329-86.067 46.203-23.729 99.406-11.948 147.636-7.071 3.8.376 7.61.712 11.44 1.01 57.72 4.308 116.25-2.749 165.75-32.21 52.69-31.358 92.49-92.68 84.83-157.002" stroke="url(#g0lquv55nf)" stroke-width="2.126" stroke-miterlimit="10" style="mix-blend-mode:multiply"/>
        <path d="M167.993 973.012a897.244 897.244 0 0 1 53.855-141.74c9.64-20.296 20.347-40.447 36.066-56.593 31.52-32.363 76.868-42.562 121.58-43.189 12.172-.178 24.421.287 36.229 1.179a636.013 636.013 0 0 1 149.753 31.036c48.012 16.103 94.618 39.252 146.225 47.166 36.919 5.69 76.24 6.654 112.594-1.348 31.33-6.967 60.937-21.68 81.271-46.332a114.647 114.647 0 0 0 9.955-14.095c18.295-30.522 21.401-67.962 17.484-103.876-1.302-11.523-3.266-22.664-5.51-33.865-6.007-28.987-14.247-57.716-21.62-85.497-11.833-44.478-18.016-87.504-9.339-130.984 6.687-33.321 26.23-66.699 57.681-83.237 44.83-23.427 96.283-13.485 142.733-10.377 3.7.321 7.33.455 11 .597 55.53 2.258 111.25-6.687 157.59-36.606 49.49-31.813 86.15-91.718 77.56-153.956" stroke="url(#ik32g4flsg)" stroke-width="2.126" stroke-miterlimit="10" style="mix-blend-mode:multiply"/>
        <path d="M180.39 984.832a832.948 832.948 0 0 1 53.334-138.813c9.654-19.764 20.273-39.471 35.706-55.304 30.798-31.701 74.892-42.626 118.437-44.296 11.97-.528 23.841-.336 35.442.282a617.748 617.748 0 0 1 146.852 26.353c47.237 14.463 93.262 36.009 144.019 43.259 37.912 5.412 78.133 6.617 115.612-1.224 32.224-6.821 62.905-21.588 84.043-46.632a114.474 114.474 0 0 0 10.358-14.376c19.054-31.206 22.158-69.627 18.368-106.596-1.221-11.766-3.111-23.417-5.366-34.807-5.763-29.84-13.435-59.584-20.156-88.233-10.595-46.076-14.244-90.198-3.789-134.384 7.6-32.081 26.565-64.291 57.12-80.508 43.49-23.071 93.16-15.022 137.84-13.665 3.5.114 7.05.177 10.57.185 53.33.19 106.11-10.522 149.52-40.837 46.27-32.287 79.79-90.822 70.22-151.019" stroke="url(#gsketeui1h)" stroke-width="2.126" stroke-miterlimit="10" style="mix-blend-mode:multiply"/>
        <path d="M192.886 996.57a773.896 773.896 0 0 1 52.705-135.823c9.635-19.286 20.237-38.468 35.345-54.016 30.259-31.144 72.951-42.584 115.33-45.423 11.632-.775 23.242-.948 34.575-.666a601.826 601.826 0 0 1 144.097 21.708c46.516 12.915 91.966 32.829 141.745 39.319 38.881 5.22 80.05 6.663 118.532-.971 33.1-6.664 64.864-21.468 86.768-46.929a114.534 114.534 0 0 0 10.771-14.639c19.821-31.919 22.945-71.284 19.252-109.316-1.164-12.094-3.015-24.061-5.148-35.792-5.593-30.65-12.863-61.314-18.691-90.969-9.266-47.727-10.493-92.928 1.839-137.732 8.426-30.692 26.919-61.721 56.508-77.699 42.146-22.885 90.036-16.73 133.006-16.984 3.38-.042 6.75-.12 10.14-.238 51.14-1.879 101-14.416 141.4-45.179 43.08-32.752 73.43-89.897 62.93-148.01" stroke="url(#floky54b4i)" stroke-width="2.126" stroke-miterlimit="10" style="mix-blend-mode:multiply"/>
        <path d="M205.19 1008.44a719.127 719.127 0 0 1 52.278-132.946c9.615-18.809 20.118-37.442 34.984-52.727 29.629-30.536 70.994-42.658 112.213-46.571 11.338-1.071 22.643-1.559 33.727-1.624a585.344 585.344 0 0 1 141.15 17.198c45.788 11.273 90.605 29.368 139.44 35.371 40.051 4.864 82.142 6.586 121.802-.919 33.996-6.518 66.822-21.395 89.505-47.208a115.762 115.762 0 0 0 11.195-14.884c20.477-32.567 23.72-72.959 20.155-112.046-1.145-12.4-2.94-24.694-4.987-36.745-5.386-31.482-12.18-63.107-17.263-93.683-8.142-49.31-6.985-95.568 7.324-141.243 9.202-29.348 27.226-59.148 55.937-74.941 40.8-22.423 86.92-18.095 128.04-20.23 3.24-.175 6.48-.379 9.69-.686 48.93-3.947 95.89-18.291 133.29-49.484 39.77-33.172 67.05-88.99 55.59-145.026" stroke="url(#lguw7jr8ej)" stroke-width="2.126" stroke-miterlimit="10" style="mix-blend-mode:multiply"/>
        <path d="M217.578 1020.24a671.644 671.644 0 0 1 51.757-130.018c9.579-18.321 20.139-36.472 34.624-51.439 28.999-29.926 69.018-42.72 109.118-47.679 10.982-1.431 22.052-2.2 32.868-2.602a571.914 571.914 0 0 1 138.302 12.607c44.906 9.744 89.18 26.09 137.118 31.433 41.149 4.598 84.191 6.606 124.917-.754 34.89-6.371 68.756-21.234 92.241-47.486a119.612 119.612 0 0 0 11.583-15.231c21.339-33.286 24.489-74.605 21.032-114.738-1.106-12.716-2.837-25.367-4.825-37.697-5.178-32.313-11.449-64.904-15.735-96.481-6.854-50.863-3.478-98.254 12.9-144.682 9.901-28.009 27.661-56.65 55.362-72.154 39.43-22.103 83.82-19.642 123.13-23.536 3.11-.319 6.2-.658 9.24-1.011 46.75-6.026 90.77-22.185 125.16-53.825 36.66-33.663 60.69-88.066 48.26-142.071" stroke="url(#g9i7jzib5k)" stroke-width="2.126" stroke-miterlimit="10" style="mix-blend-mode:multiply"/>
        <path d="M229.963 1032.05a624.115 624.115 0 0 1 51.249-127.082c9.58-17.806 20.074-35.477 34.262-50.149 28.359-29.336 67.062-42.794 105.94-48.89 10.721-1.672 21.472-2.822 32.031-3.542a554.23 554.23 0 0 1 135.529 8.144c44.184 8.026 87.812 22.658 134.782 27.43 42.234 4.266 86.243 6.673 128.022-.607 35.711-6.182 70.739-21.201 94.967-47.783a121.775 121.775 0 0 0 11.996-15.494c22.106-33.999 25.264-76.28 21.916-117.458-1.05-13.043-2.732-25.992-4.645-38.66-4.981-33.164-10.766-66.698-14.242-99.209-5.616-52.462-.088-100.973 18.447-148.131 10.514-26.692 28.053-54.101 54.763-69.373 38.08-21.794 80.72-21.172 118.25-26.835 2.97-.435 5.91-.954 8.86-1.455 44.54-8.065 85.72-26.044 117.06-58.111 33.51-34.073 54.33-87.17 40.98-139.043" stroke="url(#by9125hunl)" stroke-width="2.126" stroke-miterlimit="10" style="mix-blend-mode:multiply"/>
        <path d="M242.306 1043.9a578.204 578.204 0 0 1 50.784-124.185c9.585-17.416 20.018-34.511 33.891-48.88 27.757-28.718 65.115-42.848 102.876-49.943a385.927 385.927 0 0 1 31.182-4.501 539.302 539.302 0 0 1 132.59 3.434c43.499 6.457 86.489 19.346 132.538 23.545 43.375 3.902 88.192 6.603 131.127-.46 36.642-6.057 72.702-21.033 97.684-48.051a121.99 121.99 0 0 0 12.398-15.775c22.865-34.683 26.032-77.927 22.83-120.171-1.04-13.368-2.677-26.662-4.504-39.65-4.806-34.05-10.062-68.454-12.767-101.926-4.196-54.042 3.204-103.733 24.033-151.552 11.072-25.392 28.412-51.561 54.172-66.605 36.72-21.445 77.6-22.708 113.37-30.104 2.81-.587 5.64-1.214 8.42-1.886 42.36-10.143 80.58-29.926 108.93-62.452 30.23-34.639 47.97-86.245 33.63-136.125" stroke="url(#6azfsqystm)" stroke-width="2.126" stroke-miterlimit="10" style="mix-blend-mode:multiply"/>
        <path d="M254.766 1055.66a539.35 539.35 0 0 1 50.191-121.217c9.51-16.906 19.945-33.488 33.54-47.572 27.117-28.127 63.158-42.921 99.76-51.091 10.124-2.236 20.372-4.004 30.334-5.459a525.185 525.185 0 0 1 129.734-1.129c42.716 4.847 85.16 15.939 130.316 19.525 44.312 3.656 90.119 6.669 134.15-.241 37.537-5.911 74.637-20.997 100.439-48.34a124.07 124.07 0 0 0 12.808-16.086c23.624-35.366 26.822-79.584 23.725-122.872-.984-13.695-2.582-27.306-4.324-40.613-4.556-34.809-9.295-70.273-11.321-104.652-3.035-55.646 6.385-106.6 29.602-154.963 11.57-24.136 28.78-49.02 53.59-63.835 35.37-21.136 74.4-24.203 108.39-33.368 2.7-.724 5.35-1.493 8.01-2.29 40.15-12.231 75.49-33.765 100.82-66.776 27.03-35.075 41.55-85.364 26.24-133.139" stroke="url(#k6h73u4ljn)" stroke-width="2.126" stroke-miterlimit="10" style="mix-blend-mode:multiply"/>
        <path d="M267.185 1067.51a501.926 501.926 0 0 1 49.589-118.212c9.463-16.437 19.919-32.514 33.233-46.192 26.465-27.554 61.117-42.97 96.653-52.218a377.008 377.008 0 0 1 29.468-6.408 511.143 511.143 0 0 1 126.821-5.707c42.025 3.012 83.865 12.293 127.993 15.417 45.476 3.204 92.202 6.62 137.383-.169 38.413-5.754 76.64-20.803 103.175-48.619a127.743 127.743 0 0 0 13.192-16.356c24.328-36.142 27.578-81.249 24.608-125.592-.96-14.002-2.54-27.995-4.18-41.556-4.38-35.618-8.629-72.055-9.805-107.343-1.719-57.363 9.395-109.514 35.145-158.458 12.04-22.907 29.14-46.48 53.09-61.12 34.03-20.797 71.37-25.763 103.56-36.687 2.55-.858 5.08-1.753 7.57-2.702 37.96-14.281 70.35-37.695 92.71-71.08 23.82-35.55 35.22-84.432 18.98-130.198" stroke="url(#2ei9sfl8vo)" stroke-width="2.126" stroke-miterlimit="10" style="mix-blend-mode:multiply"/>
        <path d="M279.549 1079.28A467.23 467.23 0 0 1 328.7 963.918a242.4 242.4 0 0 1 32.912-45.049c25.855-26.908 59.243-43.067 93.528-53.335 9.526-2.849 19.048-5.278 28.638-7.377A499.11 499.11 0 0 1 607.83 847.91c41.097 1.658 82.348 9.069 125.493 11.68 46.544 2.76 94.259 6.611 140.493.074 39.35-5.534 78.554-20.804 105.922-48.879a126.165 126.165 0 0 0 13.604-16.619c25.128-36.752 28.258-82.871 25.498-128.313-.86-14.236-2.41-28.583-4-42.519-4.22-36.6-7.95-73.973-8.41-110.284-.52-58.845 12.34-112.473 40.75-161.843 12.49-21.696 29.53-43.931 52.42-58.279 32.66-20.478 68.24-27.318 98.67-39.975 2.38-1.01 4.78-2.049 7.15-3.125 35.75-16.367 65.22-41.559 84.57-75.411 20.63-35.996 28.87-83.517 11.66-127.225" stroke="url(#7jw5kfq7op)" stroke-width="2.126" stroke-miterlimit="10" style="mix-blend-mode:multiply"/>
        <path d="M291.955 1091.07a433.413 433.413 0 0 1 48.623-112.405 249.786 249.786 0 0 1 32.459-43.707c25.225-26.299 57.276-43.159 90.411-54.482a397.176 397.176 0 0 1 27.79-8.336 486.12 486.12 0 0 1 121.155-14.883c40.445.02 81.122 5.628 123.341 7.742 47.656 2.388 96.219 6.56 143.558.194 40.182-5.498 80.557-20.609 108.626-49.212a127.226 127.226 0 0 0 13.992-16.919c25.92-37.428 29.15-84.563 26.39-131.014-.87-14.646-2.31-29.228-3.82-43.483-3.93-37.303-7.21-75.674-6.85-112.902.71-60.433 15.14-115.584 46.31-165.272 12.88-20.548 29.89-41.391 51.84-55.51 31.31-20.14 65.13-28.837 93.77-43.263a230.98 230.98 0 0 0 6.72-3.537c33.56-18.417 60.11-45.434 76.46-79.716 17.41-36.47 22.49-82.61 4.35-124.28" stroke="url(#190wndctwq)" stroke-width="2.126" stroke-miterlimit="10" style="mix-blend-mode:multiply"/>
        <path d="M304.35 1102.89a403.125 403.125 0 0 1 48.094-109.497 262.195 262.195 0 0 1 32.005-42.365c24.596-25.69 55.319-43.232 87.305-55.61a394.643 394.643 0 0 1 26.934-9.266 473.64 473.64 0 0 1 118.389-19.546c39.692-1.582 79.809 2.163 121.027 3.775 48.742 1.933 98.249 6.591 146.662.342 41.095-5.363 82.536-20.5 111.33-49.547a130.7 130.7 0 0 0 14.404-17.2c26.66-38.13 29.92-86.238 27.29-133.745-.83-14.962-2.24-29.861-3.63-44.551-3.73-38.106-6.5-77.432-5.38-115.62 1.98-62.023 17.82-118.821 51.89-168.712 13.32-19.45 30.26-38.832 51.26-52.723 30-19.774 61.99-30.392 88.87-46.569 2.13-1.233 4.2-2.576 6.28-3.949a174.528 174.528 0 0 0 68.34-84.039c14.21-36.925 16.13-81.685-2.98-121.297" stroke="url(#hc0ut36hmr)" stroke-width="2.126" stroke-miterlimit="10" style="mix-blend-mode:multiply"/>
        <path d="M316.738 1114.69a374.778 374.778 0 0 1 47.584-106.55 273.045 273.045 0 0 1 31.737-41.13c23.973-25.11 53.32-43.379 84.199-56.739a335.758 335.758 0 0 1 26.062-10.137 463.79 463.79 0 0 1 115.473-24.172c38.91-3.192 78.42-1.306 118.715-.143 49.911 1.405 100.288 6.592 149.778.506 41.952-5.194 84.484-20.397 114.084-49.788a130.483 130.483 0 0 0 14.83-17.473c27.42-38.833 30.67-87.893 28.12-136.528-.79-15.279-2.16-30.524-3.49-45.417-3.53-38.938-5.8-79.236-3.89-118.366 3.19-63.612 20.29-122.19 57.44-172.142a216.794 216.794 0 0 1 50.68-49.859c28.6-19.51 58.88-31.91 83.95-49.846a172.562 172.562 0 0 0 66.11-92.715c10.98-37.399 9.81-80.811-10.32-118.314" stroke="url(#djcadjkq7s)" stroke-width="2.126" stroke-miterlimit="10" style="mix-blend-mode:multiply"/>
        <path d="M329.124 1126.49a348.186 348.186 0 0 1 47.076-103.6 290.106 290.106 0 0 1 31.376-39.845c23.342-24.5 51.362-43.451 81.063-57.874 8.31-4.061 16.745-7.778 25.245-11.212a455.756 455.756 0 0 1 112.594-28.648c38.167-4.777 77.068-4.797 116.422-4.073 50.93.915 102.297 6.586 152.883.654 42.825-5.085 86.481-20.298 116.837-50.077a133.556 133.556 0 0 0 15.18-17.723c28.18-39.517 31.44-89.568 29.04-139.175-.73-15.606-2.06-31.167-3.32-46.37-3.34-39.806-5.07-81.061-2.41-121.112 4.44-65.221 22.78-125.816 63.1-175.606a250.347 250.347 0 0 1 50.08-47.203c27.25-19.172 55.77-33.429 79.11-53.042 1.85-1.559 3.65-3.162 5.44-4.784a171.642 171.642 0 0 0 52.06-92.664c7.8-37.864 3.39-79.854-17.63-115.34" stroke="url(#ou5gjh20rt)" stroke-width="2.126" stroke-miterlimit="10" style="mix-blend-mode:multiply"/>
        <path d="M341.54 1138.3a322.859 322.859 0 0 1 46.527-100.68 313.48 313.48 0 0 1 31.015-38.558 313.909 313.909 0 0 1 77.957-59.002c8.016-4.358 16.146-8.39 24.379-12.16a448.046 448.046 0 0 1 109.746-33.24c37.414-6.379 75.715-8.288 114.147-8.013 52.066.332 104.309 6.627 155.969.811 43.796-4.934 88.412-20.185 119.58-50.356a134.226 134.226 0 0 0 15.6-18.044c28.94-40.2 32.24-91.206 29.96-141.887-.72-15.912-1.99-31.8-3.14-47.285-3.1-40.612-4.41-82.845-.93-123.86 5.64-66.768 25.09-129.555 68.53-178.96a303.525 303.525 0 0 1 49.49-44.558c25.93-18.873 52.64-34.984 74.17-56.422 1.7-1.693 3.38-3.422 5.01-5.178a172.358 172.358 0 0 0 44.03-96.934c4.59-38.32-2.97-78.958-24.97-112.386" stroke="url(#9sqebet79u)" stroke-width="2.126" stroke-miterlimit="10" style="mix-blend-mode:multiply"/>
        <path d="M353.883 1150.03c21.216-81.68 79.31-151.358 151.565-195.063 72.256-43.705 157.812-62.586 242.244-62.919 53.082-.205 106.308 6.602 159.084.976 52.775-5.625 107.144-26.015 138.324-68.959 39.04-53.742 32.45-126.635 27.88-192.857-7.63-109.016-.87-230.146 74.65-309.053 37.63-39.302 89.19-64.163 122.79-106.957 46.58-59.348 48.12-149.845 3.55-210.723" stroke="url(#nnayuk8duv)" stroke-width="2.126" stroke-miterlimit="10" style="mix-blend-mode:multiply"/>
    </g>
    <defs>
        <linearGradient id="iy0tg993sa" x1="895.976" y1="343.656" x2="151.489" y2="923.771" gradientUnits="userSpaceOnUse">
            <stop stop-color="#B62E47"/>
            <stop offset=".281" stop-color="#933768"/>
            <stop offset=".536" stop-color="#504499"/>
            <stop offset=".703" stop-color="#1461C8"/>
            <stop offset="1" stop-color="#fff"/>
        </linearGradient>
        <linearGradient id="xztf1inhqb" x1="906.001" y1="358.253" x2="166.53" y2="938.729" gradientUnits="userSpaceOnUse">
            <stop stop-color="#B62E47"/>
            <stop offset=".281" stop-color="#933768"/>
            <stop offset=".536" stop-color="#504499"/>
            <stop offset=".703" stop-color="#1461C8"/>
            <stop offset="1" stop-color="#fff"/>
        </linearGradient>
        <linearGradient id="4bn4e0kv2c" x1="916.076" y1="372.794" x2="181.826" y2="953.661" gradientUnits="userSpaceOnUse">
            <stop stop-color="#B62E47"/>
            <stop offset=".281" stop-color="#933768"/>
            <stop offset=".536" stop-color="#504499"/>
            <stop offset=".703" stop-color="#1461C8"/>
            <stop offset="1" stop-color="#fff"/>
        </linearGradient>
        <linearGradient id="wz2ks3k4ud" x1="922.477" y1="381.184" x2="191.228" y2="960.274" gradientUnits="userSpaceOnUse">
            <stop stop-color="#B62E47"/>
            <stop offset=".281" stop-color="#933768"/>
            <stop offset=".536" stop-color="#504499"/>
            <stop offset=".703" stop-color="#1461C8"/>
            <stop offset="1" stop-color="#fff"/>
        </linearGradient>
        <linearGradient id="ihslpcbb6e" x1="926.94" y1="386.286" x2="197.471" y2="962.432" gradientUnits="userSpaceOnUse">
            <stop stop-color="#B62E47"/>
            <stop offset=".281" stop-color="#933768"/>
            <stop offset=".536" stop-color="#504499"/>
            <stop offset=".703" stop-color="#1461C8"/>
            <stop offset="1" stop-color="#fff"/>
        </linearGradient>
        <linearGradient id="g0lquv55nf" x1="931.525" y1="391.32" x2="203.75" y2="964.62" gradientUnits="userSpaceOnUse">
            <stop stop-color="#B62E47"/>
            <stop offset=".281" stop-color="#933768"/>
            <stop offset=".536" stop-color="#504499"/>
            <stop offset=".703" stop-color="#1461C8"/>
            <stop offset="1" stop-color="#fff"/>
        </linearGradient>
        <linearGradient id="ik32g4flsg" x1="936.004" y1="396.448" x2="210.036" y2="966.819" gradientUnits="userSpaceOnUse">
            <stop stop-color="#B62E47"/>
            <stop offset=".281" stop-color="#933768"/>
            <stop offset=".536" stop-color="#504499"/>
            <stop offset=".703" stop-color="#1461C8"/>
            <stop offset="1" stop-color="#fff"/>
        </linearGradient>
        <linearGradient id="gsketeui1h" x1="940.513" y1="401.517" x2="216.314" y2="968.995" gradientUnits="userSpaceOnUse">
            <stop stop-color="#B62E47"/>
            <stop offset=".281" stop-color="#933768"/>
            <stop offset=".536" stop-color="#504499"/>
            <stop offset=".703" stop-color="#1461C8"/>
            <stop offset="1" stop-color="#fff"/>
        </linearGradient>
        <linearGradient id="floky54b4i" x1="941.62" y1="400.61" x2="217.29" y2="963.231" gradientUnits="userSpaceOnUse">
            <stop stop-color="#B62E47"/>
            <stop offset=".281" stop-color="#933768"/>
            <stop offset=".536" stop-color="#504499"/>
            <stop offset=".703" stop-color="#1461C8"/>
            <stop offset="1" stop-color="#fff"/>
        </linearGradient>
        <linearGradient id="lguw7jr8ej" x1="939.902" y1="395.079" x2="214.171" y2="951.664" gradientUnits="userSpaceOnUse">
            <stop stop-color="#B62E47"/>
            <stop offset=".281" stop-color="#933768"/>
            <stop offset=".536" stop-color="#504499"/>
            <stop offset=".703" stop-color="#1461C8"/>
            <stop offset="1" stop-color="#fff"/>
        </linearGradient>
        <linearGradient id="g9i7jzib5k" x1="938.286" y1="389.539" x2="211.555" y2="940.379" gradientUnits="userSpaceOnUse">
            <stop stop-color="#B62E47"/>
            <stop offset=".281" stop-color="#933768"/>
            <stop offset=".536" stop-color="#504499"/>
            <stop offset=".703" stop-color="#1461C8"/>
            <stop offset="1" stop-color="#fff"/>
        </linearGradient>
        <linearGradient id="by9125hunl" x1="936.764" y1="384.081" x2="209.376" y2="929.506" gradientUnits="userSpaceOnUse">
            <stop stop-color="#B62E47"/>
            <stop offset=".281" stop-color="#933768"/>
            <stop offset=".536" stop-color="#504499"/>
            <stop offset=".703" stop-color="#1461C8"/>
            <stop offset="1" stop-color="#fff"/>
        </linearGradient>
        <linearGradient id="6azfsqystm" x1="935.123" y1="378.542" x2="207.337" y2="918.757" gradientUnits="userSpaceOnUse">
            <stop stop-color="#B62E47"/>
            <stop offset=".281" stop-color="#933768"/>
            <stop offset=".536" stop-color="#504499"/>
            <stop offset=".703" stop-color="#1461C8"/>
            <stop offset="1" stop-color="#fff"/>
        </linearGradient>
        <linearGradient id="k6h73u4ljn" x1="933.476" y1="373.059" x2="205.703" y2="908.186" gradientUnits="userSpaceOnUse">
            <stop stop-color="#B62E47"/>
            <stop offset=".281" stop-color="#933768"/>
            <stop offset=".536" stop-color="#504499"/>
            <stop offset=".703" stop-color="#1461C8"/>
            <stop offset="1" stop-color="#fff"/>
        </linearGradient>
        <linearGradient id="2ei9sfl8vo" x1="932.027" y1="367.5" x2="204.284" y2="897.926" gradientUnits="userSpaceOnUse">
            <stop stop-color="#B62E47"/>
            <stop offset=".281" stop-color="#933768"/>
            <stop offset=".536" stop-color="#504499"/>
            <stop offset=".703" stop-color="#1461C8"/>
            <stop offset="1" stop-color="#fff"/>
        </linearGradient>
        <linearGradient id="7jw5kfq7op" x1="930.356" y1="362.009" x2="203.005" y2="887.766" gradientUnits="userSpaceOnUse">
            <stop stop-color="#B62E47"/>
            <stop offset=".281" stop-color="#933768"/>
            <stop offset=".536" stop-color="#504499"/>
            <stop offset=".703" stop-color="#1461C8"/>
            <stop offset="1" stop-color="#fff"/>
        </linearGradient>
        <linearGradient id="190wndctwq" x1="928.795" y1="356.522" x2="201.992" y2="877.848" gradientUnits="userSpaceOnUse">
            <stop stop-color="#B62E47"/>
            <stop offset=".281" stop-color="#933768"/>
            <stop offset=".536" stop-color="#504499"/>
            <stop offset=".703" stop-color="#1461C8"/>
            <stop offset="1" stop-color="#fff"/>
        </linearGradient>
        <linearGradient id="hc0ut36hmr" x1="927.162" y1="350.871" x2="201.022" y2="867.925" gradientUnits="userSpaceOnUse">
            <stop stop-color="#B62E47"/>
            <stop offset=".281" stop-color="#933768"/>
            <stop offset=".536" stop-color="#504499"/>
            <stop offset=".703" stop-color="#1461C8"/>
            <stop offset="1" stop-color="#fff"/>
        </linearGradient>
        <linearGradient id="djcadjkq7s" x1="925.57" y1="345.567" x2="200.374" y2="858.434" gradientUnits="userSpaceOnUse">
            <stop stop-color="#B62E47"/>
            <stop offset=".281" stop-color="#933768"/>
            <stop offset=".536" stop-color="#504499"/>
            <stop offset=".703" stop-color="#1461C8"/>
            <stop offset="1" stop-color="#fff"/>
        </linearGradient>
        <linearGradient id="ou5gjh20rt" x1="924.043" y1="340.115" x2="199.823" y2="849.003" gradientUnits="userSpaceOnUse">
            <stop stop-color="#B62E47"/>
            <stop offset=".281" stop-color="#933768"/>
            <stop offset=".536" stop-color="#504499"/>
            <stop offset=".703" stop-color="#1461C8"/>
            <stop offset="1" stop-color="#fff"/>
        </linearGradient>
        <linearGradient id="9sqebet79u" x1="922.565" y1="334.474" x2="199.344" y2="839.559" gradientUnits="userSpaceOnUse">
            <stop stop-color="#B62E47"/>
            <stop offset=".281" stop-color="#933768"/>
            <stop offset=".536" stop-color="#504499"/>
            <stop offset=".703" stop-color="#1461C8"/>
            <stop offset="1" stop-color="#fff"/>
        </linearGradient>
        <linearGradient id="nnayuk8duv" x1="921.331" y1="328.774" x2="199.031" y2="830.34" gradientUnits="userSpaceOnUse">
            <stop stop-color="#B62E47"/>
            <stop offset=".281" stop-color="#933768"/>
            <stop offset=".536" stop-color="#504499"/>
            <stop offset=".703" stop-color="#1461C8"/>
            <stop offset="1" stop-color="#fff"/>
        </linearGradient>
    </defs>
</svg>
