<svg width="454" height="344" viewBox="0 0 454 344" fill="none" xmlns="http://www.w3.org/2000/svg">
<path d="M373.499 143.684C373.593 128.789 352.752 116.583 326.95 116.421C301.148 116.259 280.155 128.202 280.061 143.097C279.968 157.992 300.809 170.198 326.611 170.36C352.413 170.522 373.406 158.579 373.499 143.684Z" fill="#C0DFF5"/>
<g opacity="0.6">
<path opacity="0.6" d="M133.16 266.483L171.49 245.433L64.9 184.323L89.13 170.573" stroke="url(#paint0_linear)" stroke-miterlimit="10"/>
<path opacity="0.6" d="M304.15 291.363L279.75 308.933L171.49 245.433" stroke="url(#paint1_linear)" stroke-miterlimit="10"/>
<path opacity="0.6" d="M144.16 137.973L171.49 121.773L244.38 164.813" stroke="url(#paint2_linear)" stroke-miterlimit="10"/>
<path opacity="0.6" d="M343.53 264.113L377.28 242.313L304.15 197.863" stroke="url(#paint3_linear)" stroke-miterlimit="10"/>
<path opacity="0.6" d="M300.69 153.203L326.1 139.013" stroke="url(#paint4_linear)" stroke-miterlimit="10"/>
</g>
<path d="M453.59 197.053L249.64 79.303L250.75 58.543L453.59 175.653V197.053Z" fill="url(#paint5_linear)"/>
<path d="M453.59 175.653L440.23 191.403V212.803L453.59 200.303V175.653Z" fill="#E1E9F1"/>
<path d="M233.41 72.003L250.75 58.543L249.64 79.303L233.41 93.393V72.003Z" fill="url(#paint6_linear)"/>
<path d="M233.41 72.003L250.75 58.543L453.59 175.653L440.23 191.403L233.41 72.003Z" fill="url(#paint7_linear)"/>
<path d="M440.23 212.803L233.41 93.3932V72.0032L440.23 191.403V212.803Z" fill="#E1E9F1"/>
<path d="M444.09 172.863C444.09 114.063 402.5 42.3831 351.21 12.7731C299.92 -16.8369 258.33 6.77308 258.33 65.6131L444.09 172.863Z" fill="url(#paint8_linear)"/>
<path d="M431.91 184.943L444.09 172.863C444.09 172.863 442.57 74.7331 356.09 15.7031C356.09 15.7031 301.02 -21.4669 268.69 21.2131C268.69 21.2131 326.03 -21.307 401.85 89.093L431.91 184.943Z" fill="url(#paint9_linear)"/>
<path d="M431.91 184.943C431.91 126.143 390.33 54.4631 339.03 24.8531C287.73 -4.75686 246.15 18.8531 246.15 77.7031L431.91 184.943Z" fill="#E1E9F1"/>
<g opacity="0.5">
<path opacity="0.5" d="M268.65 42.373C262.15 51.303 258.42 63.923 258.42 79.6931" stroke="#272E66" stroke-width="2.28" stroke-miterlimit="10"/>
<path opacity="0.5" d="M330.09 35.7031C305.23 22.4231 283.49 24.9031 270.65 39.8431" stroke="#212456" stroke-width="2.28" stroke-miterlimit="10"/>
<path opacity="0.5" d="M394.37 109.793C381.17 80.193 359.22 52.973 334.28 38.073" stroke="#272E66" stroke-width="2.28" stroke-miterlimit="10"/>
<path opacity="0.5" d="M407.47 165.753C407.47 149.113 403.32 131.193 396.14 113.913" stroke="#212456" stroke-width="2.28" stroke-miterlimit="10"/>
</g>
<path d="M264.29 38.0032C257.18 47.7732 253.1 61.5832 253.1 78.8332" stroke="#272E66" stroke-width="2.28" stroke-miterlimit="10"/>
<path d="M331.51 30.6831C304.31 16.1631 280.51 18.8731 266.51 35.2131" stroke="#212456" stroke-width="2.28" stroke-miterlimit="10"/>
<path d="M401.84 111.743C387.39 79.353 363.38 49.583 336.1 33.283" stroke="#272E66" stroke-width="2.28" stroke-miterlimit="10"/>
<path d="M416.17 173.003C416.17 154.803 411.63 135.193 403.78 116.293" stroke="#212456" stroke-width="2.28" stroke-miterlimit="10"/>
<g opacity="0.5">
<path opacity="0.5" d="M337.13 116.023L314.47 40.4731" stroke="#D92128" stroke-width="2.28" stroke-miterlimit="10" stroke-linecap="round"/>
<path opacity="0.5" d="M319.48 43.7132L314.67 41.1232L312.07 45.9332L311.13 42.7932L313.73 37.9832L318.54 40.5732L319.48 43.7132Z" fill="#D92128"/>
<path opacity="0.5" d="M339.691 120.402C341.087 119.584 341.072 116.962 339.657 114.546C338.241 112.13 335.962 110.834 334.566 111.652C333.17 112.47 333.185 115.092 334.6 117.508C336.016 119.924 338.295 121.22 339.691 120.402Z" fill="#272E66"/>
</g>
<path d="M330.18 115.653L307.52 40.103" stroke="#D92128" stroke-width="2.28" stroke-miterlimit="10" stroke-linecap="round"/>
<path d="M312.53 43.353L307.72 40.753L305.12 45.573L304.18 42.423L306.77 37.613L311.59 40.203L312.53 43.353Z" fill="#D92128"/>
<path d="M332.737 120.025C334.133 119.207 334.118 116.585 332.703 114.169C331.287 111.753 329.008 110.458 327.612 111.275C326.216 112.093 326.231 114.715 327.646 117.131C329.062 119.547 331.341 120.843 332.737 120.025Z" fill="#272E66"/>
<path d="M319.75 136.303C318.943 136.198 318.17 135.911 317.49 135.463C316.205 134.701 315.14 133.618 314.399 132.321C313.658 131.024 313.265 129.557 313.26 128.063C313.26 124.993 315.08 123.963 317.73 125.493C318.477 125.922 319.151 126.465 319.73 127.103L319.46 127.983C318.963 127.427 318.383 126.951 317.74 126.573C315.74 125.423 314.4 126.123 314.4 128.693C314.384 129.87 314.68 131.031 315.258 132.056C315.836 133.082 316.675 133.937 317.69 134.533C318.234 134.878 318.85 135.093 319.49 135.163L319.75 136.303Z" fill="#212456"/>
<path d="M328.17 136.483C328.17 139.853 326.38 140.613 324.17 139.353C322.978 138.573 322 137.506 321.328 136.249C320.655 134.993 320.308 133.588 320.32 132.163C320.32 129.043 322.01 127.983 324.32 129.303C325.516 130.078 326.495 131.142 327.169 132.398C327.842 133.653 328.186 135.059 328.17 136.483ZM321.54 132.813C321.54 134.903 322.54 137.353 324.26 138.353C325.98 139.353 327 138.093 327 135.863C327 133.923 326.12 131.373 324.28 130.303C322.44 129.233 321.54 130.653 321.54 132.813Z" fill="#212456"/>
<path d="M329.45 140.683C330.003 141.393 330.68 141.997 331.45 142.463C332.58 143.123 333.24 142.813 333.24 141.823C333.24 140.833 332.79 140.123 331.63 138.953C330.24 137.573 329.37 136.253 329.37 134.863C329.37 133.473 330.48 132.863 332.14 133.803C332.857 134.212 333.496 134.743 334.03 135.373L333.73 136.233C333.273 135.672 332.721 135.195 332.1 134.823C330.93 134.153 330.49 134.693 330.49 135.363C330.49 136.283 331.01 137.033 332.19 138.233C333.64 139.713 334.37 140.933 334.37 142.373C334.37 143.813 333.37 144.633 331.37 143.473C330.534 142.977 329.793 142.337 329.18 141.583L329.45 140.683Z" fill="#212456"/>
<path d="M337.49 138.133L334.88 136.633V135.563L341.22 139.213V140.293L338.6 138.783V147.513L337.49 146.863V138.133Z" fill="#212456"/>
<path d="M12.23 289.603L30.11 279.283L83.79 248.283C88.71 245.453 96.79 245.453 101.67 248.283L173.24 289.573C178.16 292.413 178.16 297.053 173.24 299.893L101.67 341.183C96.76 344.013 88.67 344.013 83.79 341.183L12.23 299.923C7.31004 297.083 7.31004 292.443 12.23 289.603Z" fill="url(#paint10_linear)"/>
<path d="M106.64 264.093C106.705 263.368 106.6 262.638 106.332 261.961C106.065 261.283 105.643 260.678 105.1 260.193L82.58 238.253C81.2882 237.094 79.6752 236.354 77.9541 236.131C76.2331 235.908 74.4848 236.212 72.94 237.003L44.55 253.303C41.64 254.963 38.55 256.783 37.64 257.303C37.15 257.603 37.31 258.453 37.95 259.543L38.71 282.593C38.7802 281.946 39.0184 281.329 39.4008 280.803C39.7832 280.277 40.2966 279.86 40.89 279.593L72.54 261.323C74.1764 260.499 75.983 260.07 77.815 260.07C79.6471 260.07 81.4537 260.499 83.09 261.323L104.19 273.503C104.784 273.768 105.297 274.184 105.679 274.711C106.06 275.238 106.295 275.856 106.36 276.503L106.64 264.093Z" fill="url(#paint11_linear)"/>
<path d="M86.05 311.183H86.04L89.65 300.803L89.66 300.793L117.31 306.103V306.113L114.42 317.063L114.41 317.073L86.05 311.183Z" fill="url(#paint12_linear)"/>
<path d="M53.06 278.843C50.16 280.523 50.16 283.253 53.06 284.933L74.16 297.103C75.795 297.932 77.6021 298.363 79.435 298.363C81.2679 298.363 83.075 297.932 84.71 297.103L116.36 278.843C119.26 277.173 119.26 274.433 116.36 272.763L95.26 260.583C93.6237 259.759 91.8171 259.33 89.985 259.33C88.153 259.33 86.3464 259.759 84.71 260.583L53.06 278.843Z" fill="url(#paint13_linear)"/>
<g opacity="0.8">
<path opacity="0.8" d="M40.89 279.663C37.99 281.333 37.99 284.073 40.89 285.743L62 297.913C63.6349 298.742 65.4421 299.173 67.275 299.173C69.1079 299.173 70.915 298.742 72.55 297.913L104.2 279.653C107.1 277.983 107.1 275.243 104.2 273.573L83.1 261.393C81.4636 260.569 79.657 260.14 77.825 260.14C75.9929 260.14 74.1863 260.569 72.55 261.393L40.89 279.663Z" fill="#212456"/>
</g>
<path d="M40.89 279.253C37.99 280.923 37.99 283.663 40.89 285.333L62 297.513C63.6363 298.337 65.4429 298.766 67.275 298.766C69.107 298.766 70.9136 298.337 72.55 297.513L104.2 279.253C107.1 277.573 107.1 274.843 104.2 273.163L83.09 261.003C81.455 260.174 79.6479 259.743 77.815 259.743C75.9821 259.743 74.1749 260.174 72.54 261.003L40.89 279.253Z" fill="#F1EDF6"/>
<path d="M38 259.183C38.681 260.289 39.5085 261.299 40.46 262.183L63.33 284.183C64.6316 285.332 66.252 286.057 67.9757 286.262C69.6995 286.468 71.4449 286.144 72.98 285.333L104.2 267.103C104.845 266.762 105.401 266.275 105.824 265.682C106.248 265.088 106.527 264.404 106.64 263.683L106.36 276.203C106.303 276.859 106.072 277.487 105.69 278.024C105.309 278.56 104.791 278.984 104.19 279.253L72.54 297.513C70.9036 298.337 69.0971 298.766 67.265 298.766C65.4329 298.766 63.6264 298.337 61.99 297.513L40.89 285.333C40.2769 285.064 39.7494 284.631 39.365 284.083C38.9806 283.535 38.7541 282.891 38.71 282.223L38 259.183Z" fill="#E1E9F1"/>
<path d="M37.64 257.343C38.54 256.783 41.64 254.963 44.55 253.343L72.94 237.003C74.4818 236.208 76.2284 235.899 77.9494 236.117C79.6703 236.335 81.2849 237.069 82.58 238.223L105.1 260.163C105.661 260.633 106.095 261.237 106.363 261.918C106.631 262.599 106.725 263.336 106.635 264.062C106.546 264.789 106.276 265.481 105.851 266.077C105.426 266.673 104.858 267.152 104.2 267.473L72.93 285.723C71.3932 286.529 69.6478 286.85 67.9247 286.643C66.2015 286.436 64.5819 285.711 63.28 284.563L40.41 262.563C38 260.253 36.75 257.903 37.64 257.343Z" fill="url(#paint14_linear)"/>
<path d="M63.3399 267.073C63.1107 267.203 62.9104 267.378 62.7514 267.588C62.5923 267.798 62.4779 268.038 62.4151 268.294C62.3524 268.549 62.3426 268.815 62.3864 269.075C62.4302 269.334 62.5267 269.582 62.6699 269.803L66.1699 275.303C66.4659 275.756 66.9223 276.08 67.4473 276.21C67.9723 276.34 68.5271 276.266 68.9999 276.003L91.4599 263.003C91.6873 262.872 91.8856 262.696 92.0428 262.485C92.2 262.275 92.3129 262.035 92.3746 261.78C92.4364 261.524 92.4456 261.259 92.4018 261C92.358 260.741 92.2621 260.494 92.12 260.273L88.62 254.773C88.322 254.317 87.862 253.991 87.333 253.861C86.8039 253.731 86.2453 253.807 85.7699 254.073L63.3399 267.073Z" stroke="url(#paint15_linear)" stroke-width="1.09" stroke-miterlimit="10"/>
<path d="M76.67 235.583L37.73 258.063V256.373L76.67 233.903V235.583Z" fill="#C0DFF5"/>
<path opacity="0.6" d="M76.6701 230.203V233.903L37.7301 256.373L37.3101 252.523" fill="url(#paint16_linear)"/>
<path d="M3.52 231.253C2.4964 231.918 1.64417 232.815 1.03254 233.872C0.420915 234.928 0.0671526 236.114 0 237.333L0 265.733C0 267.963 1.58 268.883 3.52 267.733L43.14 245.003C44.1531 244.346 44.9989 243.461 45.61 242.42C46.2211 241.378 46.5806 240.208 46.66 239.003V210.603C46.66 208.373 45.08 207.453 43.14 208.603L3.52 231.253Z" fill="#212456"/>
<path opacity="0.3" d="M36.5378 227.883C38.5967 224.411 38.641 220.632 36.6367 219.444C34.6323 218.255 31.3383 220.106 29.2794 223.578C27.2204 227.05 27.1761 230.828 29.1805 232.017C31.1848 233.206 34.4788 231.355 36.5378 227.883Z" stroke="white" stroke-width="0.99985" stroke-miterlimit="10"/>
<path opacity="0.3" d="M29.23 230.563C27.57 228.853 28.11 224.823 30.44 221.563" stroke="white" stroke-miterlimit="10"/>
<path opacity="0.3" d="M39.8423 241.505C41.8828 238.022 41.9067 234.243 39.8957 233.065C37.8847 231.887 34.6002 233.756 32.5597 237.239C30.5192 240.723 30.4953 244.502 32.5063 245.68C34.5173 246.858 37.8018 244.989 39.8423 241.505Z" stroke="white" stroke-miterlimit="10"/>
<path opacity="0.3" d="M31.46 239.693C32.67 236.013 35.75 232.943 38.35 232.833" stroke="white" stroke-miterlimit="10"/>
<path opacity="0.3" d="M20.29 240.893L8.58997 247.653V245.833L20.29 239.083V240.893Z" fill="white"/>
<path opacity="0.3" d="M20.29 244.513L8.58997 251.273V249.463L20.29 242.703V244.513Z" fill="white"/>
<path opacity="0.3" d="M20.29 248.143L8.58997 254.903V253.093L20.29 246.333V248.143Z" fill="white"/>
<path opacity="0.8" d="M38.7371 227.639C40.7776 224.156 40.8015 220.377 38.7905 219.199C36.7794 218.021 33.495 219.89 31.4545 223.374C29.4139 226.857 29.39 230.636 31.4011 231.814C33.4121 232.992 36.6965 231.123 38.7371 227.639Z" stroke="white" stroke-miterlimit="10"/>
<path d="M30.93 231.463C29.26 229.753 29.8 225.733 32.13 222.463" stroke="white" stroke-miterlimit="10"/>
<path opacity="0.8" d="M41.004 243.643C43.0629 240.171 43.1072 236.393 41.1029 235.204C39.0985 234.015 35.8045 235.866 33.7456 239.338C31.6866 242.81 31.6423 246.589 33.6467 247.777C35.651 248.966 38.945 247.115 41.004 243.643Z" stroke="white" stroke-width="0.99985" stroke-miterlimit="10"/>
<path d="M33.15 240.593C34.36 236.923 37.45 233.853 40.05 233.743" stroke="white" stroke-miterlimit="10"/>
<path d="M21.98 241.803L10.28 248.553V246.743L21.98 239.983V241.803Z" fill="white"/>
<path d="M21.98 245.423L10.28 252.183V250.373L21.98 243.613V245.423Z" fill="white"/>
<path d="M21.98 249.053L10.28 255.813V253.993L21.98 247.243V249.053Z" fill="white"/>
<path fill-rule="evenodd" clip-rule="evenodd" d="M103.81 302.713L105.3 304.283C105.1 305.993 105.01 306.833 104.38 307.223C103.75 307.613 102.47 307.153 101.78 306.713L101.66 306.033C100.97 305.863 101.1 306.113 100.4 305.573C99.22 304.663 97.5 303.273 97.4 301.823C97.4 301.453 97.69 300.823 98.01 300.913L101.59 301.913L103.81 302.713Z" fill="#0C0C0C"/>
<path fill-rule="evenodd" clip-rule="evenodd" d="M102.81 280.703C103.13 279.573 103.39 279.363 103.56 279.363C104.13 279.363 104.56 281.683 104.69 282.363C104.909 283.48 105.02 284.615 105.02 285.753C104.95 288.183 105.08 294.903 105.3 304.283C105.315 304.329 105.315 304.378 105.3 304.423C105.273 304.462 105.239 304.496 105.2 304.523C104.899 304.72 104.557 304.847 104.2 304.893C103.59 304.893 103.12 304.263 102.34 303.153C101.97 302.633 101.7 302.153 101.52 301.883C101.072 296.177 100.297 290.501 99.2 284.883C99.07 284.203 98.93 283.523 98.79 282.883L102.81 280.703Z" fill="#212456"/>
<path fill-rule="evenodd" clip-rule="evenodd" d="M102.5 259.893C104.8 260.573 104.96 267.373 105.5 271.403C105.522 271.599 105.495 271.798 105.421 271.981C105.348 272.164 105.231 272.326 105.08 272.453L103.08 274.203C102.954 274.321 102.804 274.41 102.64 274.463C102.393 274.541 102.128 274.541 101.881 274.464C101.634 274.386 101.416 274.235 101.257 274.03C101.098 273.826 101.006 273.578 100.992 273.319C100.978 273.06 101.044 272.804 101.18 272.583L101.33 272.353C101.425 272.22 101.49 272.068 101.521 271.908C101.552 271.747 101.548 271.582 101.51 271.423L100.28 266.133V265.933C100 262.193 101.29 259.413 102.5 259.893Z" fill="#E6CA97"/>
<path fill-rule="evenodd" clip-rule="evenodd" d="M94.48 307.413L96.87 307.813C97.66 309.283 98.06 310.003 97.66 310.673C97.26 311.343 95.66 311.673 94.77 311.743L94.25 311.283C93.6073 311.605 92.8797 311.717 92.17 311.603C90.55 311.533 88.52 311.333 87.68 310.353C87.44 310.073 87.39 309.353 87.76 309.283L91.82 308.083L94.48 307.413Z" fill="#1F1E1F"/>
<path fill-rule="evenodd" clip-rule="evenodd" d="M100.2 284.493C99.2112 286.221 98.6202 288.148 98.47 290.133C98.41 291.023 98.47 291.673 98.47 293.563C98.47 295.163 98.32 296.473 98.24 297.333L97.83 309.703C97.8345 309.729 97.8345 309.756 97.83 309.783C97.8043 309.827 97.766 309.862 97.72 309.883C96.8872 309.941 96.062 309.692 95.4 309.183C94.755 308.775 94.1837 308.261 93.71 307.663L92.49 285.163L92.13 283.003L100.2 284.493Z" fill="#212456"/>
<path fill-rule="evenodd" clip-rule="evenodd" d="M79.2 270.253H78C77.9184 270.277 77.8316 270.277 77.75 270.253C77.61 270.183 77.62 270.043 77.47 269.873L77.19 269.593C76.8596 269.331 76.4923 269.118 76.1 268.963C75.92 268.873 75.56 268.303 75.16 268.143C74.76 267.983 74.65 268.203 74.75 268.533C74.7635 268.579 74.7654 268.627 74.7556 268.674C74.7459 268.721 74.7247 268.765 74.6941 268.801C74.6634 268.838 74.6241 268.866 74.5798 268.884C74.5355 268.902 74.4875 268.908 74.44 268.903H73.92C73.8286 268.902 73.7398 268.934 73.67 268.993L72.93 269.763C72.8866 269.809 72.8577 269.867 72.847 269.929C72.8363 269.991 72.8443 270.055 72.87 270.113L73.19 270.783C73.38 271.123 73.58 271.493 73.91 271.613C74.24 271.733 74.38 271.723 74.74 271.873C75.1 272.023 75.21 272.093 75.42 272.173C75.6131 272.234 75.8103 272.281 76.01 272.313C76.4423 272.325 76.8746 272.291 77.3 272.213C77.7378 272.206 78.1694 272.317 78.55 272.533L78.99 272.623V272.283L79.09 271.233V270.813L79.2 270.253Z" fill="#E6CA97"/>
<path d="M101.44 261.413L100.1 259.283C99.51 258.283 101.42 255.743 100.65 255.653C99.88 255.563 95.65 257.093 95.53 257.813C95.53 257.813 97.53 261.323 96.85 262.023C98.05 262.843 100.37 261.293 101.44 261.413Z" fill="#E6CA97"/>
<path d="M100.57 252.523C99.8803 252.036 99.1549 251.601 98.4 251.223C98.1174 251.064 97.8232 250.927 97.52 250.813C94.12 251.763 91.59 254.903 93.86 258.453C94.13 258.873 94.97 260.923 96.07 260.793C99.29 260.413 97.07 259.113 97.59 259.283C98.107 259.392 98.6459 259.315 99.1122 259.067C99.5784 258.818 99.9423 258.413 100.14 257.923C100.511 257.667 100.847 257.365 101.14 257.023C100.846 255.538 100.656 254.034 100.57 252.523Z" fill="#E6CA97"/>
<path d="M92.53 251.373C92.4395 251.538 92.3971 251.724 92.4077 251.912C92.4183 252.099 92.4815 252.28 92.59 252.433C92.7763 252.69 93.0149 252.905 93.29 253.063C96.13 254.423 95.05 256.063 95.6 256.633C95.86 256.913 95.87 256.133 96.25 254.943C96.2673 254.884 96.2907 254.827 96.32 254.773C96.63 254.223 97.08 253.633 97.25 253.703C101.43 255.463 95.12 257.343 96.33 258.863C96.92 259.613 97.68 259.573 98.75 259.243C100.75 258.773 101.59 258.073 101.95 256.243C102.54 253.243 101.43 251.523 99.64 250.913C98.6666 250.314 97.5303 250.034 96.39 250.113C96.29 250.113 95.81 250.203 95.79 250.193H94.48H94.4C93.9007 250.318 93.415 250.492 92.95 250.713L92.87 250.803L92.53 251.373Z" fill="#25203C"/>
<path fill-rule="evenodd" clip-rule="evenodd" d="M100.86 260.493C101.64 260.023 101.86 259.913 101.86 259.913L102.39 259.683L103.12 259.983C103.637 260.352 104.065 260.832 104.372 261.387C104.68 261.942 104.861 262.559 104.9 263.193C105.59 268.193 103.16 268.863 103.43 274.973C103.43 276.103 103.8 278.563 104.12 280.693C103.755 281.852 103.012 282.856 102.01 283.543L101.46 283.923L101.15 284.093C101.07 284.143 100.8 284.243 100.68 284.293C100.56 284.343 100.61 284.293 98.49 285.193C96.7 285.953 92.1 284.983 92.14 283.013C92.19 280.243 92.58 280.013 92.33 276.653C91.97 271.743 90.7 267.083 91.18 266.013C91.6297 264.863 92.409 263.872 93.42 263.163C94.4177 262.486 95.5771 262.086 96.78 262.003C97.5857 262.078 98.3978 261.961 99.15 261.663C99.801 261.407 100.386 261.007 100.86 260.493Z" fill="#D92128"/>
<path fill-rule="evenodd" clip-rule="evenodd" d="M91.86 263.613C90.8759 264.355 90.0354 265.27 89.38 266.313C88.72 267.313 87.89 268.663 87.01 270.313H78.51V272.563C78.51 272.563 80.63 273.033 82.76 273.333C84.2327 273.64 85.7444 273.714 87.24 273.553C88.038 273.443 88.8202 273.238 89.57 272.943L93.96 268.943C96.03 266.113 95.47 263.883 94.4 263.153C93.65 262.543 92.5 263.083 91.86 263.613Z" fill="#E6CA97"/>
<path d="M88.81 269.683L89.6 271.003L90.2 272.453C91.7772 271.494 93.1555 270.242 94.26 268.763C95.0036 267.884 95.4852 266.813 95.65 265.673C95.7079 264.911 95.5299 264.15 95.14 263.493C94.9547 263.184 94.6575 262.958 94.31 262.863C94.237 262.854 94.1631 262.854 94.09 262.863C92.25 262.863 90.34 264.973 90.34 264.973C89.3456 266.095 88.5294 267.363 87.92 268.733L88.81 269.683Z" fill="#D92128"/>
<path d="M94.87 213.273C94.7939 214.708 94.3584 216.101 93.6036 217.324C92.8487 218.548 91.7988 219.561 90.55 220.273L54.08 238.603C51.71 239.793 49.77 238.603 49.77 235.943V209.203C49.8461 207.774 50.2832 206.389 51.0405 205.175C51.7977 203.961 52.8504 202.959 54.1 202.263L90.53 184.433C92.92 183.263 94.87 184.433 94.87 187.133V213.273Z" fill="#212456"/>
<g opacity="0.3">
<path opacity="0.6" d="M90.7936 216.189C92.5381 214.02 92.8813 211.4 91.5601 210.337C90.2389 209.275 87.7537 210.172 86.0091 212.341C84.2646 214.51 83.9214 217.129 85.2426 218.192C86.5638 219.255 89.049 218.358 90.7936 216.189Z" stroke="white" stroke-miterlimit="10"/>
<path opacity="0.3" d="M88.42 210.293C87.312 210.857 86.3644 211.692 85.6651 212.72C84.9658 213.748 84.5375 214.936 84.42 216.173" stroke="white" stroke-miterlimit="10"/>
<path opacity="0.6" d="M81.124 220.672C82.8686 218.503 83.2118 215.883 81.8906 214.82C80.5694 213.758 78.0841 214.654 76.3396 216.823C74.595 218.992 74.2518 221.612 75.573 222.675C76.8942 223.737 79.3795 222.841 81.124 220.672Z" stroke="white" stroke-miterlimit="10"/>
<path opacity="0.3" d="M78.75 214.773C77.6433 215.336 76.6965 216.169 75.9973 217.195C75.2981 218.221 74.8691 219.407 74.75 220.643C74.7232 221.024 74.7903 221.405 74.9455 221.754C75.1007 222.103 75.3392 222.408 75.64 222.643" stroke="white" stroke-miterlimit="10"/>
<path opacity="0.3" d="M71.0801 221.013L73.2501 219.933V218.783L71.0801 219.863V221.013Z" fill="white"/>
<path opacity="0.3" d="M71.0801 222.823L73.2501 221.743V220.593L71.0801 221.673V222.823Z" fill="white"/>
<path opacity="0.3" d="M71.0801 224.633L73.2501 223.553V222.403L71.0801 223.483V224.633Z" fill="white"/>
<path opacity="0.3" d="M71.0801 226.443L73.2501 225.363V224.213L71.0801 225.293V226.443Z" fill="white"/>
<path opacity="0.3" d="M68.0801 222.503L70.2501 221.423V220.273L68.0801 221.353V222.503Z" fill="white"/>
<path opacity="0.3" d="M68.0801 224.313L70.2501 223.233V222.083L68.0801 223.163V224.313Z" fill="white"/>
<path opacity="0.3" d="M68.0801 226.123L70.2501 225.043V223.893L68.0801 224.973V226.123Z" fill="white"/>
<path opacity="0.3" d="M68.0801 227.933L70.2501 226.853V225.703L68.0801 226.783V227.933Z" fill="white"/>
<path opacity="0.3" d="M64.9 224.073L67.07 223.003V221.843L64.9 222.923V224.073Z" fill="white"/>
<path opacity="0.3" d="M64.9 225.883L67.07 224.813V223.663L64.9 224.733V225.883Z" fill="white"/>
<path opacity="0.3" d="M64.9 227.703L67.07 226.623V225.473L64.9 226.543V227.703Z" fill="white"/>
<path opacity="0.3" d="M64.9 229.513L67.07 228.433V227.283L64.9 228.353V229.513Z" fill="white"/>
<path opacity="0.3" d="M61.7301 225.653L63.9001 224.573V223.423L61.7301 224.503V225.653Z" fill="white"/>
<path opacity="0.3" d="M61.7301 227.463L63.9001 226.383V225.233L61.7301 226.313V227.463Z" fill="white"/>
<path opacity="0.3" d="M61.7301 229.273L63.9001 228.193V227.043L61.7301 228.123V229.273Z" fill="white"/>
<path opacity="0.3" d="M61.7301 231.083L63.9001 230.003V228.853L61.7301 229.933V231.083Z" fill="white"/>
<path opacity="0.3" d="M58.5601 227.223L60.7301 226.153V225.003L58.5601 226.073V227.223Z" fill="white"/>
<path opacity="0.3" d="M58.5601 229.033L60.7301 227.963V226.813L58.5601 227.883V229.033Z" fill="white"/>
<path opacity="0.3" d="M58.5601 230.843L60.7301 229.773V228.623L58.5601 229.693V230.843Z" fill="white"/>
<path opacity="0.3" d="M58.5601 232.663L60.7301 231.583V230.433L58.5601 231.503V232.663Z" fill="white"/>
<path opacity="0.3" d="M54.77 227.743L56.94 226.663V225.513L54.77 226.593V227.743Z" fill="white"/>
<path opacity="0.3" d="M54.77 229.553L56.94 228.473V227.323L54.77 228.403V229.553Z" fill="white"/>
<path opacity="0.3" d="M54.77 231.363L56.94 230.283V229.133L54.77 230.213V231.363Z" fill="white"/>
<path opacity="0.3" d="M51.9301 227.343L54.1001 226.263V225.113L51.9301 226.193V227.343Z" fill="white"/>
<path opacity="0.3" d="M54.77 225.933L56.94 224.853V223.703L54.77 224.783V225.933Z" fill="white"/>
<path opacity="0.3" d="M57.9401 224.353L60.1101 223.273V222.123L57.9401 223.203V224.353Z" fill="white"/>
<path opacity="0.3" d="M61.1101 222.783L63.2801 221.703V220.553L61.1101 221.633V222.783Z" fill="white"/>
<path opacity="0.3" d="M51.9301 229.153L54.1001 228.073V226.923L51.9301 228.003V229.153Z" fill="white"/>
<path opacity="0.3" d="M51.9301 230.963L54.1001 229.883V228.733L51.9301 229.803V230.963Z" fill="white"/>
<path opacity="0.3" d="M51.9301 232.773L54.1001 231.693V230.543L51.9301 231.613V232.773Z" fill="white"/>
<path opacity="0.6" d="M89.6901 197.653V204.133" stroke="white" stroke-miterlimit="10"/>
<path opacity="0.6" d="M78.28 204.613V209.803" stroke="white" stroke-miterlimit="10"/>
<path opacity="0.6" d="M83.99 197.233V206.963" stroke="white" stroke-miterlimit="10"/>
<path opacity="0.6" d="M55.4701 214.633V221.123" stroke="white" stroke-miterlimit="10"/>
<path opacity="0.6" d="M66.88 210.273V215.463" stroke="white" stroke-miterlimit="10"/>
<path opacity="0.6" d="M61.17 208.563V218.293" stroke="white" stroke-miterlimit="10"/>
<path opacity="0.6" d="M72.5801 196.193V212.633" stroke="white" stroke-miterlimit="10"/>
<path opacity="0.3" d="M91.4401 196.773C91.4401 196.773 89.4401 199.923 87.9401 199.603C86.4401 199.283 85.0801 196.913 83.5501 198.533C82.0201 200.153 79.3801 204.283 78.2701 204.393C77.1601 204.503 74.7701 194.243 72.5701 195.983C70.3701 197.723 70.1601 208.203 67.0901 209.733C64.0201 211.263 63.0901 209.313 61.8201 209.733C60.5501 210.153 59.6101 212.113 58.7501 212.983C57.8901 213.853 57.0001 213.633 55.4601 214.613C54.8124 214.957 54.2221 215.399 53.7101 215.923" stroke="white" stroke-miterlimit="10"/>
</g>
<path opacity="0.6" d="M91.9023 216.802C93.6469 214.633 93.9901 212.013 92.6689 210.951C91.3477 209.888 88.8624 210.785 87.1179 212.954C85.3733 215.123 85.0302 217.743 86.3513 218.805C87.6725 219.868 90.1578 218.971 91.9023 216.802Z" stroke="white" stroke-miterlimit="10"/>
<path d="M89.53 210.923C88.4227 211.485 87.4755 212.318 86.7762 213.344C86.0769 214.371 85.6482 215.557 85.53 216.793" stroke="white" stroke-miterlimit="10"/>
<path opacity="0.6" d="M82.2228 221.285C83.9673 219.116 84.3105 216.496 82.9893 215.434C81.6681 214.371 79.1828 215.268 77.4383 217.437C75.6938 219.606 75.3506 222.226 76.6718 223.288C77.993 224.351 80.4782 223.454 82.2228 221.285Z" stroke="white" stroke-miterlimit="10"/>
<path d="M79.85 215.403C78.7433 215.966 77.7966 216.799 77.0974 217.825C76.3982 218.851 75.9691 220.037 75.85 221.273C75.8267 221.653 75.8954 222.034 76.0503 222.382C76.2052 222.73 76.4418 223.036 76.74 223.273" stroke="white" stroke-miterlimit="10"/>
<path d="M72.1899 223.443L74.3599 222.373V221.223L72.1899 222.293V223.443Z" fill="white"/>
<path d="M66.01 226.513L68.18 225.433V224.283L66.01 225.363V226.513Z" fill="white"/>
<path d="M66.01 228.323L68.18 227.243V226.093L66.01 227.173V228.323Z" fill="white"/>
<path d="M62.84 226.283L65.01 225.203V224.053L62.84 225.133V226.283Z" fill="white"/>
<path d="M59.66 227.853L61.83 226.773V225.623L59.66 226.703V227.853Z" fill="white"/>
<path d="M59.66 229.663L61.83 228.583V227.433L59.66 228.513V229.663Z" fill="white"/>
<path d="M59.66 231.473L61.83 230.393V229.243L59.66 230.323V231.473Z" fill="white"/>
<path d="M59.66 233.283L61.83 232.203V231.053L59.66 232.133V233.283Z" fill="white"/>
<path d="M55.87 228.363L58.04 227.283V226.133L55.87 227.213V228.363Z" fill="white"/>
<path d="M55.87 230.173L58.04 229.093V227.943L55.87 229.023V230.173Z" fill="white"/>
<path d="M55.87 231.983L58.04 230.903V229.753L55.87 230.833V231.983Z" fill="white"/>
<path d="M53.03 227.963L55.2 226.883V225.733L53.03 226.813V227.963Z" fill="white"/>
<path d="M55.87 226.553L58.04 225.473V224.323L55.87 225.403V226.553Z" fill="white"/>
<path d="M59.05 224.983L61.2201 223.903V222.753L59.05 223.833V224.983Z" fill="white"/>
<path d="M62.22 223.403L64.39 222.323V221.173L62.22 222.253V223.403Z" fill="white"/>
<path d="M53.03 229.773L55.2 228.693V227.543L53.03 228.623V229.773Z" fill="white"/>
<path d="M53.03 231.583L55.2 230.503V229.353L53.03 230.433V231.583Z" fill="white"/>
<path d="M53.03 233.393L55.2 232.313V231.163L53.03 232.243V233.393Z" fill="white"/>
<path opacity="0.6" d="M90.8 198.273V204.763" stroke="white" stroke-miterlimit="10"/>
<path opacity="0.6" d="M79.39 205.233V210.423" stroke="white" stroke-miterlimit="10"/>
<path opacity="0.6" d="M85.09 197.863V207.593" stroke="white" stroke-miterlimit="10"/>
<path opacity="0.6" d="M56.5699 215.263V221.743" stroke="white" stroke-miterlimit="10"/>
<path opacity="0.6" d="M67.98 210.893V216.083" stroke="white" stroke-miterlimit="10"/>
<path opacity="0.6" d="M62.28 209.193V218.913" stroke="white" stroke-miterlimit="10"/>
<path opacity="0.6" d="M73.6899 196.823V213.253" stroke="white" stroke-miterlimit="10"/>
<path d="M92.5501 197.403C92.5501 197.403 90.5501 200.543 89.0401 200.223C87.5301 199.903 86.1901 197.533 84.6501 199.163C83.1101 200.793 80.4801 204.903 79.3801 205.013C78.2801 205.123 75.8701 194.873 73.6801 196.603C71.4901 198.333 71.2601 208.833 68.1901 210.353C65.1201 211.873 64.1901 209.933 62.9301 210.353C61.6701 210.773 60.7201 212.743 59.8601 213.603C59.0001 214.463 58.1001 214.263 56.5601 215.243C55.9152 215.587 55.3253 216.025 54.8101 216.543" stroke="white" stroke-miterlimit="10"/>
<path d="M72.82 156.193L82.35 150.693L111 134.183C112.475 133.434 114.106 133.043 115.76 133.043C117.414 133.043 119.045 133.434 120.52 134.183L158.69 156.183C161.31 157.703 161.31 160.183 158.69 161.683L120.53 183.683C119.053 184.432 117.421 184.823 115.765 184.823C114.109 184.823 112.477 184.432 111 183.683L72.84 161.683C70.22 160.163 70.22 157.683 72.84 156.183L72.82 156.193Z" fill="#212456"/>
<path d="M160.63 149.083C160.575 149.679 160.361 150.249 160.009 150.733C159.657 151.218 159.18 151.598 158.63 151.833L120.47 173.833C118.992 174.578 117.36 174.966 115.705 174.966C114.05 174.966 112.418 174.578 110.94 173.833L72.7799 151.833C72.2296 151.598 71.7532 151.218 71.4012 150.733C71.0491 150.249 70.8344 149.679 70.7799 149.083V157.383C70.7799 158.383 70.4299 159.783 71.7799 160.533L110.78 183.133C112.282 183.9 113.941 184.309 115.627 184.328C117.313 184.347 118.981 183.976 120.5 183.243L159.15 160.913C159.641 160.622 160.036 160.192 160.285 159.679C160.534 159.165 160.626 158.589 160.55 158.023L160.63 149.083Z" fill="#CEDAE5"/>
<path d="M72.82 146.333L82.35 140.833L111 124.323C112.475 123.574 114.106 123.183 115.76 123.183C117.414 123.183 119.045 123.574 120.52 124.323L158.69 146.323C161.31 147.843 161.31 150.323 158.69 151.823L120.53 173.823C119.052 174.568 117.42 174.956 115.765 174.956C114.11 174.956 112.478 174.568 111 173.823L72.84 151.823C70.22 150.313 70.22 147.823 72.84 146.323L72.82 146.333Z" fill="#E1E9F1"/>
<path d="M87.52 147.133L93.52 143.673L111.52 133.263C112.449 132.79 113.477 132.543 114.52 132.543C115.563 132.543 116.591 132.79 117.52 133.263L141.58 147.133C143.23 148.133 143.23 149.653 141.58 150.603L117.53 164.483C116.599 164.95 115.572 165.193 114.53 165.193C113.488 165.193 112.461 164.95 111.53 164.483L87.53 150.603C85.88 149.603 85.88 148.093 87.53 147.133H87.52Z" fill="#E1EAF2"/>
<path d="M142.86 143.003C142.826 143.376 142.693 143.733 142.475 144.037C142.257 144.341 141.962 144.581 141.62 144.733L117.57 158.603C116.64 159.075 115.613 159.321 114.57 159.321C113.528 159.321 112.5 159.075 111.57 158.603L87.5701 144.733C87.218 144.588 86.9115 144.351 86.6827 144.047C86.4539 143.742 86.3114 143.382 86.2701 143.003V148.233C86.2701 148.853 86.0501 149.743 86.8801 150.233L111.43 164.483C112.38 164.959 113.425 165.213 114.487 165.225C115.549 165.237 116.6 165.007 117.56 164.553L141.92 150.473C142.228 150.289 142.476 150.018 142.632 149.695C142.789 149.371 142.847 149.009 142.8 148.653L142.86 143.003Z" fill="url(#paint17_linear)"/>
<path d="M87.52 141.213L93.52 137.753L111.52 127.343C112.451 126.874 113.478 126.63 114.52 126.63C115.562 126.63 116.589 126.874 117.52 127.343L141.58 141.213C143.23 142.213 143.23 143.733 141.58 144.683L117.53 158.553C116.6 159.025 115.572 159.271 114.53 159.271C113.487 159.271 112.46 159.025 111.53 158.553L87.53 144.683C85.88 143.683 85.88 142.173 87.53 141.213H87.52Z" fill="url(#paint18_linear)"/>
<path opacity="0.5" d="M88.34 147.913L87.01 147.143V145.833L88.34 146.603V147.913Z" fill="#212456"/>
<path opacity="0.5" d="M90.08 148.913L88.74 148.143V146.833L90.08 147.603V148.913Z" fill="#212456"/>
<path d="M91.7 149.853L90.37 149.083V147.773L91.7 148.543V149.853Z" fill="#212456"/>
<path opacity="0.5" d="M93.44 150.853L92.1 150.083V148.773L93.44 149.543V150.853Z" fill="#212456"/>
<path d="M95.12 151.823L93.79 151.063V149.743L95.12 150.513V151.823Z" fill="#212456"/>
<path opacity="0.5" d="M96.86 152.833L95.52 152.063V150.743L96.86 151.513V152.833Z" fill="#212456"/>
<path d="M88.34 149.583L87.01 148.813V147.503L88.34 148.273V149.583Z" fill="#212456"/>
<path d="M90.08 150.593L88.74 149.823V148.503L90.08 149.273V150.593Z" fill="#212456"/>
<path opacity="0.5" d="M91.7 151.523L90.37 150.753V149.443L91.7 150.213V151.523Z" fill="#212456"/>
<path opacity="0.5" d="M93.44 152.533L92.1 151.763V150.443L93.44 151.213V152.533Z" fill="#212456"/>
<path d="M95.12 153.503L93.79 152.733V151.423L95.12 152.193V153.503Z" fill="#212456"/>
<path opacity="0.5" d="M96.86 154.503L95.52 153.733V152.423L96.86 153.193V154.503Z" fill="#212456"/>
<path d="M108.35 162.023L108.03 161.833V157.033L108.35 157.223V162.023Z" fill="#212456"/>
<path d="M108.89 162.333L108.64 162.193V157.383L108.89 157.523V162.333Z" fill="#212456"/>
<path d="M109.42 162.643L109.26 162.543V157.743L109.42 157.833V162.643Z" fill="#212456"/>
<path d="M110.97 163.533L111.15 163.633V158.833L110.97 158.723V163.533Z" fill="#212456"/>
<path d="M110.32 163.163L110.64 163.343V158.543L110.32 158.353V163.163Z" fill="#212456"/>
<path d="M109.83 162.873L109.99 162.973V158.163L109.83 158.073V162.873Z" fill="#212456"/>
<path d="M87.51 140.793L93.51 137.333L111.51 126.923C112.441 126.455 113.468 126.21 114.51 126.21C115.552 126.21 116.579 126.455 117.51 126.923L141.51 140.803C143.16 141.753 143.16 143.313 141.98 143.803L117.98 157.673C117.038 158.318 115.942 158.701 114.803 158.784C113.665 158.866 112.525 158.645 111.5 158.143L87.5 144.263C85.85 143.313 85.85 141.753 87.5 140.803L87.51 140.793Z" fill="#212456"/>
<path d="M87.24 139.813L93.24 136.343L111.24 125.943C112.17 125.471 113.197 125.226 114.24 125.226C115.283 125.226 116.31 125.471 117.24 125.943L141.24 139.813C142.89 140.813 142.89 142.333 141.24 143.283L117.24 157.163C116.309 157.632 115.282 157.876 114.24 157.876C113.198 157.876 112.171 157.632 111.24 157.163L87.24 143.283C85.58 142.283 85.58 140.773 87.24 139.813Z" fill="#E1EAF2"/>
<path d="M142.58 135.633C142.545 136.005 142.412 136.362 142.194 136.666C141.976 136.97 141.682 137.21 141.34 137.363L117.34 151.233C116.411 151.706 115.383 151.953 114.34 151.953C113.297 151.953 112.269 151.706 111.34 151.233L87.24 137.363C86.8986 137.21 86.6038 136.97 86.3859 136.666C86.168 136.362 86.0349 136.005 86 135.633V140.863C86 141.483 85.78 142.373 86.61 142.863L111.16 157.103C112.107 157.586 113.153 157.845 114.216 157.859C115.279 157.873 116.331 157.642 117.29 157.183L141.65 143.103C141.958 142.919 142.206 142.648 142.362 142.325C142.519 142.001 142.577 141.639 142.53 141.283L142.58 135.633Z" fill="url(#paint19_linear)"/>
<path d="M87.24 133.893L93.24 130.433L111.24 120.023C112.17 119.551 113.197 119.305 114.24 119.305C115.283 119.305 116.31 119.551 117.24 120.023L141.24 133.893C142.89 134.893 142.89 136.413 141.24 137.363L117.24 151.233C116.311 151.706 115.283 151.953 114.24 151.953C113.197 151.953 112.169 151.706 111.24 151.233L87.24 137.363C85.58 136.363 85.58 134.853 87.24 133.893Z" fill="url(#paint20_linear)"/>
<path opacity="0.5" d="M88.06 140.593L86.73 139.823V138.513L88.06 139.283V140.593Z" fill="#212456"/>
<path opacity="0.5" d="M89.8 141.593L88.47 140.823V139.513L89.8 140.283V141.593Z" fill="#212456"/>
<path d="M91.42 142.533L90.09 141.763V140.453L91.42 141.223V142.533Z" fill="#212456"/>
<path opacity="0.5" d="M93.16 143.533L91.83 142.763V141.453L93.16 142.223V143.533Z" fill="#212456"/>
<path d="M94.84 144.503L93.51 143.733V142.423L94.84 143.193V144.503Z" fill="#212456"/>
<path opacity="0.5" d="M96.58 145.503L95.25 144.743V143.423L96.58 144.193V145.503Z" fill="#212456"/>
<path d="M88.06 142.263L86.73 141.493V140.183L88.06 140.953V142.263Z" fill="#212456"/>
<path d="M89.8 143.263L88.47 142.503V141.183L89.8 141.953V143.263Z" fill="#212456"/>
<path opacity="0.5" d="M91.42 144.203L90.09 143.433V142.123L91.42 142.893V144.203Z" fill="#212456"/>
<path opacity="0.5" d="M93.16 145.203L91.83 144.443V143.123L93.16 143.893V145.203Z" fill="#212456"/>
<path d="M94.84 146.183L93.51 145.413V144.093L94.84 144.873V146.183Z" fill="#212456"/>
<path opacity="0.5" d="M96.58 147.183L95.25 146.413V145.103L96.58 145.873V147.183Z" fill="#212456"/>
<path d="M108.08 154.703L107.75 154.513V149.713L108.08 149.903V154.703Z" fill="#212456"/>
<path d="M108.61 155.013L108.37 154.873V150.063L108.61 150.203V155.013Z" fill="#212456"/>
<path d="M109.14 155.313L108.98 155.223V150.423L109.14 150.513V155.313Z" fill="#212456"/>
<path d="M110.69 156.213L110.87 156.313V151.513L110.69 151.413V156.213Z" fill="#212456"/>
<path d="M110.05 155.843L110.37 156.023V151.223L110.05 151.033V155.843Z" fill="#212456"/>
<path d="M109.55 155.553L109.71 155.653V150.843L109.55 150.753V155.553Z" fill="#212456"/>
<path d="M87.16 134.003L93.16 130.543L111.16 120.133C112.089 119.66 113.117 119.413 114.16 119.413C115.203 119.413 116.231 119.66 117.16 120.133L141.16 134.003C142.81 135.003 142.81 136.523 141.16 137.473L117.16 151.343C116.23 151.815 115.202 152.061 114.16 152.061C113.117 152.061 112.09 151.815 111.16 151.343L87.16 137.473C85.51 136.473 85.51 134.963 87.16 134.003Z" fill="#212456"/>
<path d="M87.0501 133.323L93.0501 129.853L111.05 119.453C111.98 118.981 113.008 118.736 114.05 118.736C115.093 118.736 116.12 118.981 117.05 119.453L141.1 133.323C142.75 134.323 142.75 135.833 141.1 136.793L117.1 150.663C116.171 151.136 115.143 151.383 114.1 151.383C113.057 151.383 112.029 151.136 111.1 150.663L87.1 136.793C85.45 135.793 85.45 134.273 87.1 133.323H87.0501Z" fill="#E1EAF2"/>
<path d="M142.39 129.143C142.355 129.515 142.222 129.872 142.004 130.176C141.786 130.48 141.491 130.72 141.15 130.873L117.1 144.743C116.171 145.216 115.143 145.463 114.1 145.463C113.057 145.463 112.029 145.216 111.1 144.743L87.1 130.873C86.7586 130.72 86.4638 130.48 86.2459 130.176C86.028 129.872 85.8948 129.515 85.86 129.143V134.363C85.86 134.993 85.64 135.883 86.47 136.363L111 150.593C111.947 151.077 112.993 151.335 114.057 151.347C115.12 151.36 116.172 151.125 117.13 150.663L141.49 136.593C141.799 136.41 142.048 136.139 142.204 135.816C142.361 135.492 142.418 135.129 142.37 134.773L142.39 129.143Z" fill="url(#paint21_linear)"/>
<path d="M87.0501 127.403L93.0501 123.933L111.05 113.533C111.98 113.061 113.008 112.815 114.05 112.815C115.093 112.815 116.12 113.061 117.05 113.533L141.1 127.403C142.75 128.403 142.75 129.913 141.1 130.873L117.1 144.743C116.171 145.216 115.143 145.463 114.1 145.463C113.057 145.463 112.029 145.216 111.1 144.743L87.1 130.873C85.45 129.873 85.45 128.363 87.1 127.403H87.0501Z" fill="#E1E9F1"/>
<path opacity="0.5" d="M87.87 134.103L86.54 133.333V132.013L87.87 132.783V134.103Z" fill="#212456"/>
<path opacity="0.5" d="M89.61 135.103L88.28 134.333V133.023L89.61 133.793V135.103Z" fill="#212456"/>
<path d="M91.23 136.043L89.9 135.273V133.963L91.23 134.723V136.043Z" fill="#212456"/>
<path opacity="0.5" d="M92.97 137.043L91.64 136.273V134.963L92.97 135.723V137.043Z" fill="#212456"/>
<path d="M94.6499 138.013L93.3199 137.243V135.933L94.6499 136.703V138.013Z" fill="#212456"/>
<path opacity="0.5" d="M96.3901 139.013L95.0601 138.243V136.933L96.3901 137.703V139.013Z" fill="#212456"/>
<path d="M87.87 135.773L86.54 135.003V133.693L87.87 134.463V135.773Z" fill="#212456"/>
<path d="M89.61 136.773L88.28 136.003V134.693L89.61 135.463V136.773Z" fill="#212456"/>
<path opacity="0.5" d="M91.23 137.713L89.9 136.943V135.633L91.23 136.403V137.713Z" fill="#212456"/>
<path opacity="0.5" d="M92.97 138.713L91.64 137.943V136.633L92.97 137.403V138.713Z" fill="#212456"/>
<path d="M94.6499 139.693L93.3199 138.923V137.603L94.6499 138.373V139.693Z" fill="#212456"/>
<path opacity="0.5" d="M96.3901 140.693L95.0601 139.923V138.603L96.3901 139.383V140.693Z" fill="#212456"/>
<path d="M107.89 148.213L107.56 148.023V143.223L107.89 143.403V148.213Z" fill="#212456"/>
<path d="M108.42 148.523L108.18 148.383V143.573L108.42 143.713V148.523Z" fill="#212456"/>
<path d="M108.95 148.823L108.79 148.733V143.933L108.95 144.023V148.823Z" fill="#212456"/>
<path d="M110.5 149.723L110.68 149.823V145.023L110.5 144.913V149.723Z" fill="#212456"/>
<path d="M109.86 149.353L110.18 149.533V144.733L109.86 144.543V149.353Z" fill="#212456"/>
<path d="M109.36 149.063L109.53 149.163V144.353L109.36 144.263V149.063Z" fill="#212456"/>
<path d="M140.88 136.203L141.18 136.033V131.533L140.88 131.713V136.203Z" fill="#212456"/>
<path d="M140.38 136.493L140.61 136.363V131.863L140.38 132.003V136.493Z" fill="#212456"/>
<path d="M139.88 136.783L140.03 136.693V132.193L139.88 132.283V136.783Z" fill="#212456"/>
<path d="M138.43 137.613L138.26 137.713V133.223L138.43 133.123V137.613Z" fill="#212456"/>
<path d="M139.04 137.263L138.73 137.443V132.943L139.04 132.773V137.263Z" fill="#212456"/>
<path d="M139.5 137.003L139.35 137.093V132.593L139.5 132.503V137.003Z" fill="#212456"/>
<path opacity="0.6" d="M92.29 127.103L97.15 124.303L111.73 115.893C112.481 115.509 113.312 115.308 114.155 115.308C114.998 115.308 115.829 115.509 116.58 115.893L136 127.103C137.34 127.873 137.34 129.103 136 129.903L116.56 141.123C115.808 141.503 114.977 141.701 114.135 141.701C113.293 141.701 112.462 141.503 111.71 141.123L92.29 129.903C90.95 129.133 90.95 127.903 92.29 127.103Z" fill="white"/>
<path d="M353.012 280.481C353.069 271.341 340.28 263.851 324.446 263.751C308.613 263.652 295.73 270.981 295.673 280.121C295.616 289.261 308.405 296.751 324.238 296.851C340.072 296.95 352.954 289.621 353.012 280.481Z" fill="#212456"/>
<path d="M353.012 279.877C353.069 270.737 340.28 263.247 324.446 263.147C308.613 263.048 295.73 270.377 295.673 279.517C295.616 288.657 308.405 296.147 324.238 296.247C340.072 296.346 352.954 289.017 353.012 279.877Z" fill="url(#paint22_linear)"/>
<path d="M352.482 279.31C352.537 270.446 339.989 263.181 324.453 263.084C308.918 262.986 296.279 270.093 296.223 278.957C296.167 287.821 308.716 295.085 324.252 295.183C339.787 295.281 352.426 288.174 352.482 279.31Z" fill="#E1E9F1"/>
<path d="M347.092 271.145C347.137 263.976 336.988 258.101 324.424 258.022C311.86 257.943 301.638 263.691 301.593 270.859C301.548 278.028 311.697 283.903 324.261 283.982C336.825 284.061 347.047 278.314 347.092 271.145Z" fill="#C0DFF5"/>
<path opacity="0.5" d="M352.022 269.888C352.078 260.958 339.736 253.64 324.454 253.544C309.173 253.448 296.739 260.61 296.683 269.54C296.627 278.471 308.97 285.788 324.251 285.884C339.532 285.98 351.966 278.818 352.022 269.888Z" stroke="url(#paint23_linear)" stroke-width="2.21" stroke-miterlimit="10"/>
<g opacity="0.2">
<path opacity="0.5" d="M334.5 273.013L318.33 263.683V223.643L334.5 232.983V273.013Z" fill="url(#paint24_linear)"/>
<path opacity="0.2" d="M332.44 243.853L320.05 236.703V228.023L332.44 235.173V243.853Z" fill="white"/>
<path opacity="0.2" d="M325.21 251.513L320.05 248.533V242.613L325.21 245.593V251.513Z" fill="white"/>
<path opacity="0.2" d="M332.44 268.303L327.28 265.323V259.413L332.44 262.393V268.303Z" fill="white"/>
<path opacity="0.2" d="M323.91 255.493L320.81 253.703V250.153L323.91 251.943V255.493Z" fill="white"/>
<path opacity="0.2" d="M327.62 257.633L324.53 255.843V252.293L327.62 254.083V257.633Z" fill="white"/>
<path opacity="0.2" d="M331.41 259.823L328.31 258.033V254.483L331.41 256.273V259.823Z" fill="white"/>
<path opacity="0.2" d="M332.44 245.433L320.05 238.283V237.883L332.44 245.033V245.433Z" fill="white"/>
<path opacity="0.2" d="M332.44 246.223L320.05 239.063V238.673L332.44 245.823V246.223Z" fill="white"/>
<path opacity="0.2" d="M332.44 247.003L320.05 239.853V239.463L332.44 246.613V247.003Z" fill="white"/>
<path opacity="0.2" d="M332.44 247.793L320.05 240.643V240.253L332.44 247.403V247.793Z" fill="white"/>
<path opacity="0.2" d="M332.44 248.583L320.05 241.433V241.043L332.44 248.193V248.583Z" fill="white"/>
<path opacity="0.2" d="M332.44 250.163L325.9 246.383V245.993L332.44 249.763V250.163Z" fill="white"/>
<path opacity="0.2" d="M332.44 250.953L325.9 247.173V246.783L332.44 250.553V250.953Z" fill="white"/>
<path opacity="0.2" d="M332.44 251.743L325.9 247.963V247.573L332.44 251.343V251.743Z" fill="white"/>
<path opacity="0.2" d="M332.44 252.533L325.9 248.753V248.363L332.44 252.133V252.533Z" fill="white"/>
<path opacity="0.2" d="M332.44 254.103L325.9 250.333V249.943L332.44 253.713V254.103Z" fill="white"/>
<path opacity="0.2" d="M332.44 254.893L325.9 251.123V250.723L332.44 254.503V254.893Z" fill="white"/>
<path opacity="0.2" d="M332.44 255.683L325.9 251.913V251.513L332.44 255.293V255.683Z" fill="white"/>
<path opacity="0.2" d="M332.44 253.313L325.9 249.543V249.153L332.44 252.923V253.313Z" fill="white"/>
<path opacity="0.2" d="M326.59 259.403L320.05 255.633V255.243L326.59 259.013V259.403Z" fill="white"/>
<path opacity="0.2" d="M326.59 260.193L320.05 256.423V256.023L326.59 259.803V260.193Z" fill="white"/>
<path opacity="0.2" d="M326.59 260.983L320.05 257.213V256.813L326.59 260.593V260.983Z" fill="white"/>
<path opacity="0.2" d="M326.59 261.773L320.05 258.003V257.603L326.59 261.383V261.773Z" fill="white"/>
<path opacity="0.2" d="M326.59 263.353L320.05 259.573V259.183L326.59 262.953V263.353Z" fill="white"/>
<path opacity="0.2" d="M326.59 264.143L320.05 260.363V259.973L326.59 263.743V264.143Z" fill="white"/>
<path opacity="0.2" d="M326.59 264.933L320.05 261.153V260.763L326.59 264.533V264.933Z" fill="white"/>
<path opacity="0.2" d="M326.59 262.563L320.05 258.783V258.393L326.59 262.163V262.563Z" fill="white"/>
</g>
<g opacity="0.8">
<path opacity="0.5" d="M331.44 276.653L315.27 267.313V227.283L331.44 236.623V276.653Z" fill="url(#paint25_linear)"/>
<path opacity="0.8" d="M329.37 247.493L316.99 240.343V231.663L329.37 238.813V247.493Z" fill="white"/>
<path opacity="0.8" d="M322.15 255.153L316.99 252.173V246.253L322.15 249.233V255.153Z" fill="white"/>
<path opacity="0.8" d="M329.37 271.943L324.21 268.963V263.043L329.37 266.023V271.943Z" fill="white"/>
<path opacity="0.8" d="M320.84 259.133L317.74 257.343V253.793L320.84 255.583V259.133Z" fill="white"/>
<path opacity="0.8" d="M324.56 261.273L321.46 259.483V255.933L324.56 257.723V261.273Z" fill="white"/>
<path opacity="0.8" d="M328.34 263.463L325.25 261.673V258.123L328.34 259.913V263.463Z" fill="white"/>
<path opacity="0.8" d="M329.37 249.063L316.99 241.913V241.523L329.37 248.673V249.063Z" fill="white"/>
<path opacity="0.8" d="M329.37 249.853L316.99 242.703V242.313L329.37 249.463V249.853Z" fill="white"/>
<path opacity="0.8" d="M329.37 250.643L316.99 243.493V243.103L329.37 250.253V250.643Z" fill="white"/>
<path opacity="0.8" d="M329.37 251.433L316.99 244.283V243.893L329.37 251.043V251.433Z" fill="white"/>
<path opacity="0.8" d="M329.37 252.223L316.99 245.073V244.683L329.37 251.833V252.223Z" fill="white"/>
<path opacity="0.8" d="M329.37 253.803L322.84 250.023V249.633L329.37 253.403V253.803Z" fill="white"/>
<path opacity="0.8" d="M329.37 254.593L322.84 250.813V250.423L329.37 254.193V254.593Z" fill="white"/>
<path opacity="0.8" d="M329.37 255.383L322.84 251.603V251.213L329.37 254.983V255.383Z" fill="white"/>
<path opacity="0.8" d="M329.37 256.163L322.84 252.393V252.003L329.37 255.773V256.163Z" fill="white"/>
<path opacity="0.8" d="M329.37 257.743L322.84 253.973V253.573L329.37 257.353V257.743Z" fill="white"/>
<path opacity="0.8" d="M329.37 258.533L322.84 254.763V254.363L329.37 258.143V258.533Z" fill="white"/>
<path opacity="0.8" d="M329.37 259.323L322.84 255.543V255.153L329.37 258.933V259.323Z" fill="white"/>
<path opacity="0.8" d="M329.37 256.953L322.84 253.183V252.783L329.37 256.563V256.953Z" fill="white"/>
<path opacity="0.8" d="M323.52 263.043L316.99 259.273V258.873L323.52 262.653V263.043Z" fill="white"/>
<path opacity="0.8" d="M323.52 263.833L316.99 260.063V259.663L323.52 263.443V263.833Z" fill="white"/>
<path opacity="0.8" d="M323.52 264.623L316.99 260.853V260.453L323.52 264.233V264.623Z" fill="white"/>
<path opacity="0.8" d="M323.52 265.413L316.99 261.633V261.243L323.52 265.013V265.413Z" fill="white"/>
<path opacity="0.8" d="M323.52 266.993L316.99 263.213V262.823L323.52 266.593V266.993Z" fill="white"/>
<path opacity="0.8" d="M323.52 267.773L316.99 264.003V263.613L323.52 267.383V267.773Z" fill="white"/>
<path opacity="0.8" d="M323.52 268.563L316.99 264.793V264.393L323.52 268.173V268.563Z" fill="white"/>
<path opacity="0.8" d="M323.52 266.203L316.99 262.423V262.033L323.52 265.803V266.203Z" fill="white"/>
</g>
<path opacity="0.6" d="M353.34 187.413L351.61 268.073C351.61 269.813 350.03 274.073 349.77 274.733C347.42 280.833 334 285.303 327.28 285.813C322.15 286.203 306 283.543 300.88 278.203C295.24 272.303 296.53 269.113 296.53 269.113C296.37 268.713 296.74 267.593 296.75 267.493C296.94 265.063 295.43 242.663 295.2 187.413" fill="url(#paint26_linear)"/>
<path d="M333.27 177.653L319.58 169.753L290.45 152.943C286.03 150.393 278.79 150.393 274.37 152.943L233.94 176.273C229.51 178.823 229.51 183.003 233.94 185.553L274.37 208.873C278.79 211.433 286.03 211.433 290.45 208.873L330.88 185.553C335.31 183.003 336.38 179.443 333.27 177.653Z" fill="#212456"/>
<g opacity="0.8">
<path opacity="0.8" d="M333.19 177.173L319.5 169.273L290.37 152.473C285.95 149.913 278.71 149.913 274.28 152.473L233.85 175.793C229.43 178.343 229.43 182.523 233.85 185.073L274.28 208.393C278.71 210.953 285.95 210.953 290.37 208.393L330.8 185.073C335.22 182.523 336.3 179.003 333.19 177.173Z" fill="#8A7EBB"/>
</g>
<path d="M229.13 180.863C229.199 180.164 229.451 179.496 229.86 178.926C230.269 178.355 230.821 177.903 231.46 177.613L276.68 151.523C278.431 150.64 280.364 150.181 282.325 150.181C284.286 150.181 286.219 150.64 287.97 151.523L321.89 171.093L333.19 177.603C333.834 177.887 334.389 178.338 334.799 178.909C335.209 179.481 335.458 180.152 335.52 180.853V173.463C335.458 172.762 335.209 172.091 334.799 171.519C334.389 170.948 333.834 170.497 333.19 170.213L321.89 163.693L288 144.133C286.249 143.25 284.316 142.791 282.355 142.791C280.394 142.791 278.461 143.25 276.71 144.133L231.49 170.223C230.851 170.513 230.299 170.965 229.89 171.536C229.481 172.106 229.229 172.774 229.16 173.473L229.13 180.863Z" fill="url(#paint27_linear)"/>
<path d="M229.13 173.003C229.197 173.703 229.448 174.373 229.857 174.946C230.266 175.518 230.819 175.972 231.46 176.263L276.68 202.353C278.431 203.236 280.364 203.695 282.325 203.695C284.286 203.695 286.219 203.236 287.97 202.353L333.19 176.263C333.831 175.972 334.384 175.518 334.793 174.946C335.202 174.373 335.453 173.703 335.52 173.003V180.393C335.453 181.093 335.202 181.763 334.793 182.336C334.384 182.908 333.831 183.362 333.19 183.653L288 208.5C286.249 209.383 284.316 209.842 282.355 209.842C280.394 209.842 278.461 209.383 276.71 208.5L231.49 183.693C230.849 183.402 230.296 182.948 229.887 182.376C229.478 181.803 229.227 181.133 229.16 180.433L229.13 173.003Z" fill="#CEDAE5"/>
<path d="M333.42 170.553L319.72 162.653L290.6 145.843C286.17 143.293 278.94 143.293 274.51 145.843L234.08 169.173C229.66 171.723 229.66 175.903 234.08 178.453L274.51 201.773C278.94 204.323 286.17 204.323 290.6 201.773L331 178.453C335.45 175.903 336.53 172.343 333.42 170.553Z" fill="#E1E9F1"/>
<path opacity="0.5" d="M320.69 130.793C320.69 130.793 296.31 104.383 274.78 104.293L275 134.133C275 134.133 301.14 141.133 320.47 161.893L320.69 130.793Z" fill="url(#paint28_linear)"/>
<path opacity="0.2" d="M286.1 120.163L298.83 127.523V124.503L286.1 117.143V120.163Z" fill="white"/>
<path opacity="0.2" d="M287.01 124.883L297.72 131.073V128.533L287.01 122.343V124.883Z" fill="white"/>
<path opacity="0.2" d="M287.72 129.063L296.18 133.953V131.943L287.72 127.063V129.063Z" fill="white"/>
<path d="M284.86 120.473L297.6 127.833V124.813L284.86 117.453V120.473Z" fill="white"/>
<path d="M285.97 125.143L296.68 131.333V128.793L285.97 122.603V125.143Z" fill="white"/>
<g opacity="0.2">
<path opacity="0.2" d="M303.29 138.003C303.321 138.557 303.471 139.097 303.728 139.589C303.985 140.08 304.343 140.511 304.78 140.853L312.62 146.323C313.44 146.893 314.11 146.543 314.11 145.543V134.163C314.079 133.609 313.929 133.069 313.672 132.577C313.416 132.086 313.057 131.655 312.62 131.313L304.78 125.853C303.96 125.283 303.29 125.633 303.29 126.623V138.003Z" stroke="white" stroke-width="0.74" stroke-miterlimit="10"/>
<path opacity="0.2" d="M305.84 139.923L310.68 143.383C311.41 143.913 312 143.383 312 142.153V141.583C312.007 141.002 311.893 140.425 311.666 139.89C311.439 139.355 311.103 138.872 310.68 138.473L305.84 135.003C305.12 134.483 304.53 135.003 304.53 136.243V136.803C304.523 137.385 304.636 137.962 304.861 138.499C305.087 139.036 305.42 139.52 305.84 139.923Z" stroke="white" stroke-width="0.41" stroke-miterlimit="10"/>
<path opacity="0.2" d="M309.443 136.093C310.275 135.765 310.422 134.161 309.772 132.512C309.121 130.863 307.919 129.792 307.087 130.121C306.255 130.449 306.107 132.052 306.758 133.701C307.408 135.35 308.611 136.421 309.443 136.093Z" stroke="white" stroke-width="0.48" stroke-miterlimit="10"/>
</g>
<path d="M286.9 129.273L295.36 134.153V132.153L286.9 127.263V129.273Z" fill="white"/>
<path d="M301.44 138.003C301.47 138.556 301.617 139.096 301.872 139.588C302.127 140.079 302.485 140.511 302.92 140.853L310.77 146.323C311.59 146.893 312.25 146.543 312.25 145.543V134.163C312.22 133.61 312.073 133.07 311.818 132.578C311.563 132.087 311.205 131.655 310.77 131.313L302.92 125.853C302.1 125.283 301.44 125.633 301.44 126.623V138.003Z" stroke="white" stroke-miterlimit="10"/>
<path d="M304 139.923L308.84 143.383C309.56 143.913 310.15 143.383 310.15 142.153V141.583C310.156 141.003 310.043 140.427 309.818 139.892C309.592 139.357 309.26 138.874 308.84 138.473L304 135.003C303.27 134.483 302.68 135.003 302.68 136.243V136.803C302.673 137.386 302.786 137.964 303.013 138.501C303.24 139.038 303.576 139.522 304 139.923Z" stroke="white" stroke-width="0.41" stroke-miterlimit="10"/>
<path d="M307.592 136.092C308.424 135.763 308.571 134.16 307.921 132.511C307.27 130.862 306.068 129.791 305.236 130.12C304.404 130.448 304.256 132.051 304.907 133.7C305.558 135.349 306.76 136.42 307.592 136.092Z" stroke="white" stroke-width="0.48" stroke-miterlimit="10"/>
<path d="M297.29 172.873L293.55 169.183C293.107 168.756 292.568 168.442 291.978 168.267C291.387 168.093 290.764 168.064 290.16 168.183L267.82 172.283C267.323 172.372 266.848 172.559 266.424 172.832C265.999 173.105 265.632 173.46 265.345 173.875C265.058 174.291 264.856 174.759 264.75 175.253C264.645 175.747 264.638 176.257 264.73 176.753L265.67 181.873C266.07 184.013 265.98 191.983 274.78 189.263L295.41 179.403C304.59 177.823 299.45 175.003 297.29 172.873Z" fill="url(#paint29_linear)"/>
<path d="M292.94 162.383L281.86 155.973L270.76 162.353L281.84 168.763L292.94 162.383Z" fill="#A3C9EB"/>
<path d="M293.35 174.763L282.25 181.153L271.16 174.743L282.26 168.353L293.35 174.763Z" fill="#8ECB89"/>
<path d="M293.35 174.763L293.36 161.963L282.26 168.353L282.25 181.153L293.35 174.763Z" fill="#353D83"/>
<path d="M271.17 161.943L271.16 174.743L282.25 181.153L282.26 168.353L271.17 161.943Z" fill="#212456"/>
<path d="M275.5 140.923L276.79 138.693C277.37 137.603 275.51 134.993 276.27 134.903C277.03 134.813 281.12 136.413 281.27 137.163C281.27 137.163 279.37 140.843 279.99 141.573C278.78 142.433 276.53 140.803 275.5 140.923Z" fill="#DFC790"/>
<path d="M276.34 131.623C277.006 131.114 277.712 130.66 278.45 130.263C278.726 130.097 279.014 129.95 279.31 129.823C282.61 130.823 285.07 134.113 282.86 137.823C282.6 138.263 281.78 140.413 280.71 140.273C277.58 139.873 279.71 138.513 279.23 138.693C278.715 138.798 278.179 138.71 277.724 138.447C277.268 138.183 276.926 137.762 276.76 137.263C276.38 136.98 276.043 136.643 275.76 136.263C276.055 134.731 276.249 133.181 276.34 131.623Z" fill="#DFC790"/>
<path d="M276.77 129.823C278.52 128.913 282.09 129.343 284.1 131.523C285.77 133.043 284.66 134.643 283.65 134.093C283.624 134.078 283.596 134.07 283.566 134.068C283.537 134.066 283.507 134.071 283.48 134.083C283.453 134.094 283.429 134.112 283.409 134.135C283.39 134.158 283.377 134.184 283.37 134.213C283 135.913 282.43 137.363 281.67 135.143C281.641 135.065 281.596 134.994 281.536 134.937C281.476 134.879 281.404 134.835 281.325 134.809C281.246 134.783 281.163 134.776 281.08 134.787C280.998 134.798 280.919 134.827 280.85 134.873C279.65 135.623 280.85 137.473 280.66 138.713C280.48 139.653 280.36 140.643 279.31 140.293C277.19 140.073 273.97 140.583 273.49 135.613C273.13 132.003 274.79 130.003 276.77 129.823Z" fill="#26203D"/>
<path d="M275.78 140.383C273.1 140.973 273.04 143.123 273.64 145.213C273.91 146.143 274.03 148.283 275.69 147.333C277.59 146.253 276.88 143.853 276.13 142.333L275.78 140.383Z" fill="#DFC790"/>
<path d="M297.39 147.663C297.55 147.663 298.6 147.233 298.68 147.253C298.76 147.273 299.28 147.443 299.3 147.783C299.236 148.122 299.1 148.444 298.902 148.727C298.703 149.01 298.447 149.247 298.15 149.423C297.739 149.912 297.273 150.352 296.76 150.733C295.76 151.403 294.93 151.733 294.55 151.973C293.47 152.663 294.7 151.973 295.65 150.653C295.19 150.013 294.39 149.853 294.65 149.653C294.91 149.453 295.85 149.003 296.08 148.833C296.63 148.473 296.72 148.443 296.88 148.123C297.04 147.803 297.09 146.993 297.47 146.743C297.85 146.853 297.47 147.263 297.47 147.653" fill="#DFC790"/>
<path d="M297.35 169.673C298.35 171.113 299.13 172.443 301.6 172.673C302.34 172.753 304.51 172.333 305.03 172.913C305.55 173.493 302.13 175.263 301.47 175.413C300.47 175.633 298.2 174.663 297.6 174.853C297.2 174.984 296.765 174.963 296.38 174.793C296.206 174.707 296.054 174.581 295.937 174.427C295.819 174.273 295.738 174.093 295.7 173.903C295.52 173.093 296.14 171.733 295.45 171.023C295 170.603 296.71 168.773 297.35 169.673Z" fill="#090909"/>
<path d="M291.75 158.443C291.59 160.443 294.1 167.133 294.75 169.133C295.42 171.303 294.97 169.823 295.75 172.403C295.96 173.113 299.7 172.253 299.32 171.093C298.101 166.894 297.1 162.635 296.32 158.333C296.252 158.053 296.117 157.793 295.926 157.576C295.736 157.359 295.496 157.192 295.227 157.088C294.958 156.984 294.667 156.946 294.381 156.978C294.094 157.011 293.819 157.112 293.58 157.273L292.47 157.993L291.76 158.473L291.75 158.443Z" fill="#DFC790"/>
<path d="M297.91 176.703L295.85 174.223L297.79 174.383C297.79 174.383 298.41 176.173 298.44 176.453C298.3 176.673 297.91 176.703 297.91 176.703Z" fill="#090909"/>
<path d="M277.25 159.193C278.69 157.693 279.77 155.773 281.46 154.513C283.447 152.968 285.747 151.876 288.2 151.313C292.63 150.653 290.47 156.543 289.51 158.123C289.04 158.903 287.45 158.523 286.67 159.123C284.9 160.443 282.22 160.603 280.08 160.883L277.25 159.193Z" fill="#D7B97D"/>
<path d="M272.47 143.513C272.2 142.513 271.38 139.513 276.12 139.853C275.69 140.683 278.28 141.753 279.9 141.243C280.9 141.943 282.98 142.983 283.64 143.533C283.64 143.533 287.06 146.793 286.25 148.533C285.64 150.393 284.61 149.483 284.09 151.193C283.876 151.743 283.703 152.308 283.57 152.883C283.521 153.631 283.658 154.381 283.97 155.063C284.071 155.466 284.255 155.844 284.51 156.173L284.57 156.243L284.51 156.323C284.371 156.471 284.224 156.611 284.07 156.743C281.84 158.683 278.67 157.933 276.38 156.263C276.616 155.683 276.708 155.056 276.65 154.433C276 149.003 273.22 146.163 272.47 143.513Z" fill="#212456"/>
<path d="M289.22 153.553C290.48 154.033 292.46 153.293 293.41 152.763C294.474 152.169 295.506 151.518 296.5 150.813C297.03 150.333 297.07 149.923 296.92 149.603C296.861 149.474 296.774 149.359 296.667 149.265C296.56 149.172 296.434 149.103 296.297 149.062C296.161 149.021 296.018 149.01 295.877 149.029C295.736 149.049 295.601 149.097 295.48 149.173C293.39 150.273 292.48 150.663 291.4 151.173C291.059 151.251 290.706 151.258 290.362 151.194C290.018 151.131 289.691 150.998 289.4 150.803C287.55 148.733 284.1 142.053 281.57 144.293C280.42 145.293 287.78 153.003 289.22 153.553Z" fill="#DFC790"/>
<path d="M276.42 156.173C277.501 157.154 278.903 157.708 280.362 157.73C281.822 157.752 283.24 157.241 284.35 156.293C284.44 156.213 282.5 153.013 283.92 152.613C284.36 152.483 285.99 151.483 286.31 151.823C286.735 152.482 287.231 153.092 287.79 153.643C288.331 153.988 288.9 154.289 289.49 154.543C290.386 154.99 291.343 155.303 292.33 155.473C295.86 157.473 294.79 160.133 297.79 161.123C299.07 161.543 294.87 164.263 289.33 165.193C287.57 165.493 284.43 165.833 278.91 163.813C276.42 162.893 274.52 161.183 275.81 157.813C276.06 157.153 276.13 156.823 276.42 156.173Z" fill="#D92128"/>
<path d="M299.14 170.763C299.619 172.071 300.582 173.145 301.83 173.763C301.83 174.333 300.16 174.973 299.75 174.613C298.567 174.004 297.348 173.466 296.1 173.003C295.978 172.956 295.869 172.881 295.782 172.784C295.695 172.686 295.633 172.569 295.6 172.443L295.05 170.253L299.14 170.763Z" fill="#DFC790"/>
<path opacity="0.8" d="M260.44 169.183C261.37 169.873 260.8 171.023 261.34 174.743C261.68 177.013 262.03 177.553 261.61 178.043C260.83 178.963 258.95 177.723 255.88 177.453C250.78 176.993 248.88 179.773 246.46 178.323C245.672 177.762 245.063 176.985 244.708 176.085C244.353 175.185 244.267 174.201 244.46 173.253C244.77 171.873 245.85 171.073 247.99 169.473C250.49 167.613 252.56 166.073 254.32 166.733C255.47 167.163 255.32 168.093 256.81 168.733C258.57 169.463 259.48 168.463 260.44 169.183Z" fill="white"/>
<path fill-rule="evenodd" clip-rule="evenodd" d="M252.54 118.833C252.597 118.574 252.684 118.322 252.8 118.083C252.982 117.704 253.237 117.364 253.55 117.083L255.06 118.083C255.113 118.257 255.118 118.442 255.074 118.618C255.03 118.794 254.939 118.955 254.81 119.083C254.687 119.194 254.534 119.267 254.37 119.293L254.06 120.293L252.54 118.833Z" fill="#DFC790"/>
<path d="M254.57 166.203V169.663C254.75 170.229 255.02 170.763 255.37 171.243H256.46L254.14 172.363L252.67 171.613C252.427 170.409 251.926 169.273 251.2 168.283C250.996 168.085 250.839 167.843 250.741 167.576C250.643 167.31 250.606 167.024 250.633 166.741C250.66 166.458 250.75 166.184 250.896 165.941C251.043 165.697 251.242 165.489 251.48 165.333C251.91 164.963 251.48 160.553 251.48 160.553H254.48L254.57 166.203Z" fill="#DFC790"/>
<path d="M251.25 165.553C251.505 165.505 251.769 165.535 252.007 165.641C252.245 165.746 252.444 165.921 252.58 166.143C252.96 166.893 254.12 171.283 254.45 171.443L255.37 171.243H257.02L254.18 172.553L252.42 171.553C252.478 171.107 252.429 170.653 252.278 170.229C252.127 169.804 251.877 169.422 251.55 169.113C250.44 168.163 249.89 166.903 251.25 165.553Z" fill="#090909"/>
<path d="M250.69 167.043V172.363H250.92L251.52 167.403L250.69 167.043Z" fill="#090909"/>
<path d="M260.07 169.203V172.653C260.248 173.223 260.519 173.76 260.87 174.243H262L259.68 175.363L258.21 174.613C257.967 173.409 257.466 172.273 256.74 171.283C256.536 171.085 256.379 170.843 256.281 170.576C256.183 170.31 256.146 170.024 256.173 169.741C256.199 169.458 256.29 169.184 256.436 168.941C256.583 168.697 256.782 168.489 257.02 168.333C257.45 167.953 257.02 163.543 257.02 163.543H260.02L260.07 169.203Z" fill="#DFC790"/>
<path d="M256.75 168.553C257.005 168.505 257.269 168.535 257.507 168.641C257.745 168.746 257.944 168.921 258.08 169.143C258.46 169.893 259.62 174.283 259.95 174.443L260.87 174.243H262.52L259.68 175.563L257.92 174.563C257.977 174.115 257.928 173.66 257.777 173.234C257.626 172.809 257.377 172.425 257.05 172.113C255.94 171.153 255.4 169.893 256.75 168.553Z" fill="#090909"/>
<path d="M256.19 170.043V175.363H256.42L257.02 170.403L256.19 170.043Z" fill="#090909"/>
<path d="M259.8 118.453C259.655 118.752 259.58 119.081 259.58 119.413C259.58 119.746 259.655 120.074 259.8 120.373C260.072 120.759 260.456 121.052 260.9 121.213C261.3 121.343 261.707 121.45 262.12 121.533C262.76 121.813 263.12 122.453 263.66 123.843C264.66 126.703 264.53 127.843 265.2 128.093C265.87 128.343 266.75 127.603 267.52 126.933C269.559 125.119 271.489 123.185 273.3 121.143V124.613C272.91 125.183 266.98 133.553 264.05 132.333C263.503 132.02 263.045 131.573 262.72 131.033C261.535 129.476 260.758 127.647 260.46 125.713C260.368 125.721 260.277 125.742 260.19 125.773C259.24 126.173 259.41 128.333 259.42 128.473L255.56 128.093L251.32 127.313C251.32 127.313 251.74 124.483 252.53 118.823C252.93 118.753 253.67 118.663 254.05 119.073C254.19 119.233 254.43 119.633 253.79 121.593C253.32 122.975 252.732 124.313 252.03 125.593C251.281 125.46 250.586 125.113 250.03 124.593C249.56 124.122 249.292 123.488 249.28 122.823C249.296 122.513 249.372 122.21 249.506 121.93C249.64 121.65 249.828 121.4 250.06 121.193L250.17 121.103C251.17 120.393 251.98 120.803 253.26 120.333C254.138 119.998 254.904 119.423 255.47 118.673L259.8 118.453Z" fill="#DFC790"/>
<path d="M260.9 121.213C261 121.213 260.42 125.423 260.42 125.423L261.23 133.003L261.15 133.943C261.15 133.943 261.68 135.003 261.54 135.273C261.468 135.633 261.468 136.003 261.54 136.363L250 136.483C250 136.483 250.45 126.373 251.13 125.193C251.507 124.402 251.841 123.591 252.13 122.763C252.43 121.923 252.67 121.123 252.86 120.373C258.36 121.003 260.84 121.263 260.9 121.213Z" fill="#D92128"/>
<path d="M260.69 117.893C260.004 118.233 259.259 118.435 258.495 118.486C257.731 118.538 256.965 118.438 256.24 118.193C255.782 118.003 255.362 117.732 255 117.393L254.11 112.393C254.084 112.174 254.103 111.952 254.165 111.74C254.228 111.528 254.333 111.332 254.475 111.162C254.616 110.993 254.791 110.854 254.987 110.754C255.184 110.655 255.4 110.597 255.62 110.583L258.87 110.143C259.256 110.141 259.639 110.223 259.99 110.383C260.352 110.565 260.664 110.834 260.898 111.166C261.131 111.497 261.28 111.881 261.33 112.283C261.507 113.323 261.577 114.379 261.54 115.433C261.52 115.964 261.412 116.488 261.22 116.983C261.08 117.306 260.902 117.612 260.69 117.893Z" fill="#DFC790"/>
<path d="M261.17 133.863C261.25 134.103 261.41 134.583 261.56 135.193C262.036 137.119 262.148 139.116 261.89 141.083C261.05 148.083 259.97 171.553 259.97 167.193L257.17 166.563C257.17 166.563 256.73 162.263 256.05 155.563C256.05 153.643 256.05 152.183 256.05 151.103C255.97 148.793 256.3 149.223 256.1 148.413C255.83 147.333 254.69 144.333 254.69 143.753C254.69 143.753 254.69 145.483 254.69 146.753C254.69 149.753 254.92 150.193 254.9 152.463C254.9 153.563 254.84 153.463 254.73 155.703C254.73 155.703 254.6 158.103 254.51 164.423L251.63 164.583C251.63 164.583 250.01 150.583 249.77 148.933C249.68 148.26 249.553 147.592 249.39 146.933C248.86 144.313 248.57 143.633 248.39 142.213C248.278 141.133 248.278 140.043 248.39 138.963C248.597 137.183 249.205 135.473 250.17 133.963C251.678 135.324 253.638 136.078 255.67 136.078C257.702 136.078 259.661 135.324 261.17 133.963V133.863Z" fill="#212456"/>
<path d="M258.07 113.733C258.07 113.733 261.62 112.073 261.93 110.563C262.28 108.883 259.93 108.883 257.31 108.683C255.18 108.523 252.52 109.163 251.65 113.453C251.18 115.813 251.39 116.643 252.82 118.003C256.1 119.843 258.57 119.163 259.82 118.523C259.82 118.523 259.77 116.243 258.12 116.523C257 115.733 257 114.823 258.07 113.733Z" fill="#26203D"/>
<path d="M273 121.103L273.83 119.963L274.65 119.343L276.04 119.213C276.04 119.213 275.69 120.073 275.04 119.813L274.48 120.303C274.606 120.267 274.724 120.21 274.83 120.133C274.973 120.024 275.092 119.887 275.179 119.731C275.267 119.574 275.322 119.402 275.34 119.223L276.88 118.453C277.18 118.383 277.25 118.453 277.27 118.453C277.29 118.453 277.12 118.673 276.5 119.223C276.14 119.543 276.12 119.563 276.11 119.603C276 120.133 277.4 120.713 277.27 121.143C277.242 121.216 277.189 121.277 277.12 121.313L274.6 122.433C274.05 123.333 273.49 124.233 272.93 125.133L271.49 123.073L273 121.103Z" fill="#DFC790"/>
<defs>
<linearGradient id="paint0_linear" x1="63.89" y1="218.533" x2="172.51" y2="218.533" gradientUnits="userSpaceOnUse">
<stop stop-color="#D92128"/>
<stop offset="0.18" stop-color="#BD212F"/>
<stop offset="0.57" stop-color="#762341"/>
<stop offset="1" stop-color="#212456"/>
</linearGradient>
<linearGradient id="paint1_linear" x1="22888.2" y1="17851.4" x2="40558.5" y2="17851.4" gradientUnits="userSpaceOnUse">
<stop stop-color="#D92128"/>
<stop offset="0.18" stop-color="#BD212F"/>
<stop offset="0.57" stop-color="#762341"/>
<stop offset="1" stop-color="#212456"/>
</linearGradient>
<linearGradient id="paint2_linear" x1="14566.8" y1="6285.53" x2="24661" y2="6285.53" gradientUnits="userSpaceOnUse">
<stop stop-color="#D92128"/>
<stop offset="0.18" stop-color="#BD212F"/>
<stop offset="0.57" stop-color="#762341"/>
<stop offset="1" stop-color="#212456"/>
</linearGradient>
<linearGradient id="paint3_linear" x1="22527.6" y1="15500.3" x2="27963.4" y2="15500.3" gradientUnits="userSpaceOnUse">
<stop stop-color="#D92128"/>
<stop offset="0.18" stop-color="#BD212F"/>
<stop offset="0.57" stop-color="#762341"/>
<stop offset="1" stop-color="#212456"/>
</linearGradient>
<linearGradient id="paint4_linear" x1="7934.87" y1="2212.31" x2="8593.24" y2="2212.31" gradientUnits="userSpaceOnUse">
<stop stop-color="#D92128"/>
<stop offset="0.18" stop-color="#BD212F"/>
<stop offset="0.57" stop-color="#762341"/>
<stop offset="1" stop-color="#212456"/>
</linearGradient>
<linearGradient id="paint5_linear" x1="249.64" y1="127.793" x2="453.59" y2="127.793" gradientUnits="userSpaceOnUse">
<stop stop-color="#C6C6C5"/>
<stop offset="1" stop-color="#FEFFFF"/>
</linearGradient>
<linearGradient id="paint6_linear" x1="233.41" y1="75.973" x2="250.75" y2="75.973" gradientUnits="userSpaceOnUse">
<stop stop-color="#FEFFFF"/>
<stop offset="0.06" stop-color="#FAFBFB"/>
<stop offset="0.68" stop-color="#D4D5D4"/>
<stop offset="1" stop-color="#C6C6C5"/>
</linearGradient>
<linearGradient id="paint7_linear" x1="51625.6" y1="16662.1" x2="100105" y2="16662.1" gradientUnits="userSpaceOnUse">
<stop stop-color="#FEFFFF"/>
<stop offset="0.06" stop-color="#FAFBFB"/>
<stop offset="0.68" stop-color="#D4D5D4"/>
<stop offset="1" stop-color="#C6C6C5"/>
</linearGradient>
<linearGradient id="paint8_linear" x1="42281.7" y1="28677.2" x2="76945.6" y2="28677.2" gradientUnits="userSpaceOnUse">
<stop stop-color="#FEFFFF"/>
<stop offset="0.06" stop-color="#FAFBFB"/>
<stop offset="0.68" stop-color="#D4D5D4"/>
<stop offset="1" stop-color="#C6C6C5"/>
</linearGradient>
<linearGradient id="paint9_linear" x1="47389.9" y1="17101.9" x2="78162.1" y2="17101.9" gradientUnits="userSpaceOnUse">
<stop stop-color="#FEFFFF"/>
<stop offset="0.06" stop-color="#FAFBFB"/>
<stop offset="0.68" stop-color="#D4D5D4"/>
<stop offset="1" stop-color="#C6C6C5"/>
</linearGradient>
<linearGradient id="paint10_linear" x1="-423938" y1="28880.6" x2="-395581" y2="28880.6" gradientUnits="userSpaceOnUse">
<stop stop-color="#C6C6C5"/>
<stop offset="1" stop-color="#FEFFFF"/>
</linearGradient>
<linearGradient id="paint11_linear" x1="37.35" y1="259.353" x2="106.66" y2="259.353" gradientUnits="userSpaceOnUse">
<stop stop-color="#F0EDF6"/>
<stop offset="1" stop-color="#F5F7FB"/>
</linearGradient>
<linearGradient id="paint12_linear" x1="85.7177" y1="303.131" x2="117.113" y2="302.36" gradientUnits="userSpaceOnUse">
<stop stop-color="#FAF9FC"/>
<stop offset="0.33" stop-color="#F2F0F8"/>
<stop offset="0.86" stop-color="white"/>
</linearGradient>
<linearGradient id="paint13_linear" x1="50.88" y1="278.843" x2="118.53" y2="278.843" gradientUnits="userSpaceOnUse">
<stop stop-color="#B3A7D2"/>
<stop offset="0.02" stop-color="#B3A7D2" stop-opacity="0.94"/>
<stop offset="0.07" stop-color="#B3A7D2" stop-opacity="0.77"/>
<stop offset="0.12" stop-color="#B3A7D2" stop-opacity="0.61"/>
<stop offset="0.19" stop-color="#B3A7D2" stop-opacity="0.48"/>
<stop offset="0.26" stop-color="#B3A7D2" stop-opacity="0.38"/>
<stop offset="0.34" stop-color="#B3A7D2" stop-opacity="0.3"/>
<stop offset="0.45" stop-color="#B3A7D2" stop-opacity="0.24"/>
<stop offset="0.59" stop-color="#B3A7D2" stop-opacity="0.21"/>
<stop offset="1" stop-color="#B3A7D2" stop-opacity="0.2"/>
</linearGradient>
<linearGradient id="paint14_linear" x1="-170981" y1="13476.9" x2="-166177" y2="13476.9" gradientUnits="userSpaceOnUse">
<stop stop-color="#C6C6C5"/>
<stop offset="1" stop-color="#FEFFFF"/>
</linearGradient>
<linearGradient id="paint15_linear" x1="61.8099" y1="265.053" x2="92.9899" y2="265.053" gradientUnits="userSpaceOnUse">
<stop stop-color="#F1EDF6"/>
<stop offset="0.37" stop-color="#F7F5FA"/>
<stop offset="1" stop-color="white"/>
</linearGradient>
<linearGradient id="paint16_linear" x1="58.1701" y1="245.053" x2="56.2201" y2="241.533" gradientUnits="userSpaceOnUse">
<stop offset="0.28" stop-color="#C0DFF5"/>
<stop offset="0.29" stop-color="#C4E1F6"/>
<stop offset="0.35" stop-color="#DAECF9"/>
<stop offset="0.43" stop-color="#EBF5FC"/>
<stop offset="0.52" stop-color="#F6FBFE"/>
<stop offset="0.65" stop-color="#FDFEFF"/>
<stop offset="1" stop-color="white"/>
</linearGradient>
<linearGradient id="paint17_linear" x1="86.2501" y1="154.053" x2="142.86" y2="154.053" gradientUnits="userSpaceOnUse">
<stop stop-color="#FEFFFF"/>
<stop offset="0.25" stop-color="#F9FAFA"/>
<stop offset="0.53" stop-color="#ECEDEC"/>
<stop offset="0.83" stop-color="#D6D6D6"/>
<stop offset="1" stop-color="#C6C6C5"/>
</linearGradient>
<linearGradient id="paint18_linear" x1="4963.27" y1="4792.56" x2="8161.45" y2="4792.56" gradientUnits="userSpaceOnUse">
<stop stop-color="#FEFFFF"/>
<stop offset="0.25" stop-color="#F9FAFA"/>
<stop offset="0.53" stop-color="#ECEDEC"/>
<stop offset="0.83" stop-color="#D6D6D6"/>
<stop offset="1" stop-color="#C6C6C5"/>
</linearGradient>
<linearGradient id="paint19_linear" x1="4952.43" y1="3396.92" x2="8156.92" y2="3396.92" gradientUnits="userSpaceOnUse">
<stop stop-color="#FEFFFF"/>
<stop offset="0.25" stop-color="#F9FAFA"/>
<stop offset="0.53" stop-color="#ECEDEC"/>
<stop offset="0.83" stop-color="#D6D6D6"/>
<stop offset="1" stop-color="#C6C6C5"/>
</linearGradient>
<linearGradient id="paint20_linear" x1="4943.49" y1="4547.29" x2="8139.27" y2="4547.29" gradientUnits="userSpaceOnUse">
<stop stop-color="#C6C6C5"/>
<stop offset="1" stop-color="#FEFFFF"/>
</linearGradient>
<linearGradient id="paint21_linear" x1="4937.24" y1="3243.14" x2="8138.9" y2="3243.14" gradientUnits="userSpaceOnUse">
<stop stop-color="#FEFFFF"/>
<stop offset="0.25" stop-color="#F9FAFA"/>
<stop offset="0.53" stop-color="#ECEDEC"/>
<stop offset="0.83" stop-color="#D6D6D6"/>
<stop offset="1" stop-color="#C6C6C5"/>
</linearGradient>
<linearGradient id="paint22_linear" x1="10094.8" y1="16289" x2="11992.8" y2="16289" gradientUnits="userSpaceOnUse">
<stop stop-color="#FEFFFF"/>
<stop offset="0.06" stop-color="#FAFBFB"/>
<stop offset="0.68" stop-color="#D4D5D4"/>
<stop offset="1" stop-color="#C6C6C5"/>
</linearGradient>
<linearGradient id="paint23_linear" x1="9866.92" y1="15168.4" x2="11728.1" y2="15168.4" gradientUnits="userSpaceOnUse">
<stop stop-color="#D92128"/>
<stop offset="0.18" stop-color="#BD212F"/>
<stop offset="0.57" stop-color="#762341"/>
<stop offset="1" stop-color="#212456"/>
</linearGradient>
<linearGradient id="paint24_linear" x1="5465.73" y1="12483.7" x2="5727.2" y2="12483.7" gradientUnits="userSpaceOnUse">
<stop stop-color="#D92128"/>
<stop offset="0.18" stop-color="#BD212F"/>
<stop offset="0.57" stop-color="#762341"/>
<stop offset="1" stop-color="#212456"/>
</linearGradient>
<linearGradient id="paint25_linear" x1="5413.19" y1="12667" x2="5674.66" y2="12667" gradientUnits="userSpaceOnUse">
<stop stop-color="#D92128"/>
<stop offset="0.18" stop-color="#BD212F"/>
<stop offset="0.57" stop-color="#762341"/>
<stop offset="1" stop-color="#212456"/>
</linearGradient>
<linearGradient id="paint26_linear" x1="324.5" y1="217.133" x2="324.86" y2="261.133" gradientUnits="userSpaceOnUse">
<stop offset="0.09" stop-color="white" stop-opacity="0"/>
<stop offset="0.17" stop-color="#FEFEFF" stop-opacity="0.02"/>
<stop offset="0.27" stop-color="#FAFDFE" stop-opacity="0.08"/>
<stop offset="0.37" stop-color="#F4FAFD" stop-opacity="0.17"/>
<stop offset="0.48" stop-color="#ECF5FC" stop-opacity="0.3"/>
<stop offset="0.59" stop-color="#E1F0FA" stop-opacity="0.47"/>
<stop offset="0.7" stop-color="#D4E9F8" stop-opacity="0.68"/>
<stop offset="0.81" stop-color="#C5E2F6" stop-opacity="0.92"/>
<stop offset="0.85" stop-color="#C0DFF5"/>
</linearGradient>
<linearGradient id="paint27_linear" x1="335.53" y1="161.823" x2="229.13" y2="161.823" gradientUnits="userSpaceOnUse">
<stop stop-color="#B3A7D2"/>
<stop offset="0.02" stop-color="#AFA3D0" stop-opacity="0.92"/>
<stop offset="0.07" stop-color="#A69ACB" stop-opacity="0.75"/>
<stop offset="0.13" stop-color="#9F93C7" stop-opacity="0.6"/>
<stop offset="0.19" stop-color="#988CC3" stop-opacity="0.48"/>
<stop offset="0.26" stop-color="#9387C0" stop-opacity="0.37"/>
<stop offset="0.35" stop-color="#8F83BE" stop-opacity="0.29"/>
<stop offset="0.45" stop-color="#8C80BC" stop-opacity="0.24"/>
<stop offset="0.6" stop-color="#8A7EBB" stop-opacity="0.21"/>
<stop offset="1" stop-color="#8A7EBB" stop-opacity="0.2"/>
</linearGradient>
<linearGradient id="paint28_linear" x1="-47112.4" y1="32294.1" x2="-49229.7" y2="32294.1" gradientUnits="userSpaceOnUse">
<stop stop-color="#D92128"/>
<stop offset="0.18" stop-color="#BD212F"/>
<stop offset="0.57" stop-color="#762341"/>
<stop offset="1" stop-color="#212456"/>
</linearGradient>
<linearGradient id="paint29_linear" x1="294.455" y1="177.438" x2="258.37" y2="174.912" gradientUnits="userSpaceOnUse">
<stop stop-color="white"/>
<stop offset="1" stop-color="#EEEBF5"/>
</linearGradient>
</defs>
</svg>
